<?xml version="1.0" encoding="iso-8859-1"?>
<!-- Generator: Adobe Illustrator 19.0.0, SVG Export Plug-In . SVG Version: 6.00 Build 0)  -->
<svg version="1.1" id="Capa_1" xmlns="http://www.w3.org/2000/svg" xmlns:xlink="http://www.w3.org/1999/xlink" x="0px" y="0px"
	 viewBox="0 0 511.998 511.998" style="enable-background:new 0 0 511.998 511.998;" xml:space="preserve">
<linearGradient id="SVGID_1_" gradientUnits="userSpaceOnUse" x1="255.999" y1="513.9575" x2="255.999" y2="2.0385" gradientTransform="matrix(1 0 0 -1 0 513.9969)">
	<stop  offset="0" style="stop-color:#2AF598"/>
	<stop  offset="1" style="stop-color:#009EFD"/>
</linearGradient>
<path style="fill:url(#SVGID_1_);" d="M511.998,221.039c-11.932,14.102-30,20-30,20c23.864-61.831-4.713-162.554-22.068-178.082
	c3.068,23.082-0.593,35.15-4.932,47.082c-33.627-44.475-95.254-92.644-156-110c66.169,34.712,131.424,166.831,126,233
	c0,0-11-22-44-31c38,77-2.424,170-100.051,170c-70.398,0-89.22-29.085-98.949-43v-1c6.007,1.471,14.478,2.123,19.531,2.123
	c18.922,0,32.018-9.131,45.792-18.542c4.974-3.384,9.462-4.602,13.576-4.602c10.56,0,18.656,8.022,26.214,8.022
	c7.939,0,23.888-17,8.29-32.303c-6.391-6.27-14.606-15.696-31.792-15.697c-0.006,0-0.01,0-0.016,0
	c-4.187,0.001-6.748,0.362-11.445,1.529c-14.086,3.549-20.783,13.471-37.359,13.471c-9.772,0-57.789-3.695-57.789-46
	c0-14.102,16.709-24.854,17-25c0.923-0.231,1.894-0.337,2.898-0.337c12.06,0,29.102,15.337,29.102,15.337s3.831-25.088-9-36
	c1.309-6.253,35.54-22.772,38.303-24.808c3.781-2.763,8.225-6.892,10.697-11.982c1.745-3.199,4.3-8.521,4.009-15.21
	c-0.27-4.455-4.862-7.047-37.04-7.047c-2.488,0-5.141,0.016-7.969,0.047c-0.07,0.001-0.141,0.001-0.211,0.001
	c-10.728,0-24.184-10.966-24.789-19.001c4.654-17.015,18.438-39.838,34-50c0,0-0.379-0.014-1.087-0.014
	c-6.757,0-46.465,1.268-68.913,28.014c-9.906-2.153-16.763-3-25.914-3c-0.029,0-0.057,0-0.086,0c-12.061,0.007-22.894,1.536-31,4
	c-5.252-3.301-29-28.39-29-49c0,0-25,22.689-25,86c0,1.454,0,2.836,0,4c-6.253,8.58-33,51.325-33,138.105
	C0,387.54,79.228,511.958,248.407,511.958c172.474,0,247.895-117.682,257.593-143.917c-18,13-48,13-48,13
	C474.998,361.039,511.998,304.565,511.998,221.039z M371.5,421.039h34.498h4.086c-19.235,14.548-40.673,26.166-63.782,34.557
	c-29.895,10.856-62.833,16.36-97.897,16.36c-34.973,0-66.704-6.053-94.311-17.989c-24.631-10.65-46.004-25.98-63.523-45.563
	c-16.42-18.354-29.166-40.027-37.884-64.415c-8.301-23.221-12.689-48.756-12.689-73.845c0-78.89,24.292-113.126,25.326-114.545
	l7.674-10.53l8.169-10.45l17.465-5.31c1.747-0.531,8.308-2.264,19.365-2.271h0.086c7.176,0,14.046,0.702,20.417,2.087l5.234,1.138
	c5.004,12.262,14.548,22.595,25.849,29.791c-3.741,3.922-6.772,8.215-8.943,13.092l-0.604,0.151l-3.928,1.964
	c-10.145,5.075-39.11,26.778-39.11,62.778c0,70,32,174,163.949,174c56.242,0,104.129-25.144,131.382-68.985
	c4.518-7.268,11.534-22.841,11.534-22.841C426.998,385.039,371.5,421.039,371.5,421.039z"/>
<g>
</g>
<g>
</g>
<g>
</g>
<g>
</g>
<g>
</g>
<g>
</g>
<g>
</g>
<g>
</g>
<g>
</g>
<g>
</g>
<g>
</g>
<g>
</g>
<g>
</g>
<g>
</g>
<g>
</g>
</svg>
