<?xml version="1.0" encoding="iso-8859-1"?>
<!-- Generator: Adobe Illustrator 19.0.0, SVG Export Plug-In . SVG Version: 6.00 Build 0)  -->
<svg version="1.1" id="Capa_1" xmlns="http://www.w3.org/2000/svg" xmlns:xlink="http://www.w3.org/1999/xlink" x="0px" y="0px"
	 viewBox="0 0 512 512" style="enable-background:new 0 0 512 512;" xml:space="preserve">
<linearGradient id="SVGID_1_" gradientUnits="userSpaceOnUse" x1="256" y1="514" x2="256" y2="2" gradientTransform="matrix(1 0 0 -1 0 514)">
	<stop  offset="0" style="stop-color:#2AF598"/>
	<stop  offset="1" style="stop-color:#009EFD"/>
</linearGradient>
<path style="fill:url(#SVGID_1_);" d="M438.888,437L415.78,326.761C410.687,302.563,389.393,285,365.148,285h-97.442
	c-10.248,0-18.474-7.077-19.557-16.827L243.908,230H344v-40H239.463l-8.295-74.658C252.782,106.26,268,84.875,268,60
	c0-33.084-26.916-60-60-60s-60,26.916-60,60c0,27.241,18.255,50.286,43.17,57.581l17.224,155.01
	c3.321,29.878,28.82,52.409,59.313,52.409h97.442c5.351,0,10.289,4.299,11.486,9.983L406.403,477H486v-40H438.888z M208,40
	c11.028,0,20,8.972,20,20s-8.972,20-20,20s-20-8.972-20-20S196.972,40,208,40z M307.186,365h40.199
	C340.266,447.244,271.058,512,187,512c-88.775,0-161-72.225-161-161c0-79.31,57.646-145.403,133.238-158.597l4.429,39.864
	C108.075,243.171,66,292.261,66,351c0,66.72,54.28,121,121,121C248.984,472,300.223,425.148,307.186,365z"/>
<g>
</g>
<g>
</g>
<g>
</g>
<g>
</g>
<g>
</g>
<g>
</g>
<g>
</g>
<g>
</g>
<g>
</g>
<g>
</g>
<g>
</g>
<g>
</g>
<g>
</g>
<g>
</g>
<g>
</g>
</svg>
