<?xml version="1.0" encoding="iso-8859-1"?>
<!-- Generator: Adobe Illustrator 19.0.0, SVG Export Plug-In . SVG Version: 6.00 Build 0)  -->
<svg version="1.1" id="Capa_1" xmlns="http://www.w3.org/2000/svg" xmlns:xlink="http://www.w3.org/1999/xlink" x="0px" y="0px"
	 viewBox="0 0 512 512" style="enable-background:new 0 0 512 512;" xml:space="preserve">
<linearGradient id="SVGID_1_" gradientUnits="userSpaceOnUse" x1="256" y1="514" x2="256" y2="2" gradientTransform="matrix(1 0 0 -1 0 514)">
	<stop  offset="0" style="stop-color:#2AF598"/>
	<stop  offset="1" style="stop-color:#009EFD"/>
</linearGradient>
<path style="fill:url(#SVGID_1_);" d="M170,0H0v170h170V0z M130,130H40V40h90V130z M105,105H65V65h40V105z M342,0v170h170V0H342z
	 M472,130h-90V40h90V130z M447,105h-40V65h40V105z M0,512h170V342H0V512z M40,382h90v90H40V382z M65,407h40v40H65V407z M80,197v40
	H40v-40H80z M80,237h40v40h39v40h-40v-40H80V237z M320,117h-40V77h40V117z M240,40v77h-40V40H240z M280,40h-40V0h40V40z M280,117v80
	h-80v-40h40v-40H280z M200,317v-80h40v79h40v39h80v40h-80v-39h-40v-39H200z M320,197v80h-40v-80H320z M472,197h-73v40h-39v40h40v39
	h112v-80h-40V197z M472,276h-72v-39h72V276z M512,435h-40v-80h40V435z M320,277h40v40h-40V277z M360,435v-40h40v40H360z M440,395
	h-40v-40h40V395z M400,512v-77h72v40h-32v37H400z M200,356h40v76h-40V356z M240,512v-80h80v40h39v40h-40v-40h-39v40H240z M120,197
	h80v40h-80V197z M0,237h40v80H0V237z"/>
<g>
</g>
<g>
</g>
<g>
</g>
<g>
</g>
<g>
</g>
<g>
</g>
<g>
</g>
<g>
</g>
<g>
</g>
<g>
</g>
<g>
</g>
<g>
</g>
<g>
</g>
<g>
</g>
<g>
</g>
</svg>
