<?xml version="1.0" encoding="iso-8859-1"?>
<!-- Generator: Adobe Illustrator 19.0.0, SVG Export Plug-In . SVG Version: 6.00 Build 0)  -->
<svg version="1.1" id="Capa_1" xmlns="http://www.w3.org/2000/svg" xmlns:xlink="http://www.w3.org/1999/xlink" x="0px" y="0px"
	 viewBox="0 0 512 512" style="enable-background:new 0 0 512 512;" xml:space="preserve">
<linearGradient id="SVGID_1_" gradientUnits="userSpaceOnUse" x1="256.0393" y1="513.9561" x2="256.0393" y2="1.942" gradientTransform="matrix(0.9999 0 0 -0.9999 -0.0063 513.9158)">
	<stop  offset="0" style="stop-color:#2AF598"/>
	<stop  offset="1" style="stop-color:#009EFD"/>
</linearGradient>
<path style="fill:url(#SVGID_1_);" d="M129.983,412.003v0.015c0,16.565-13.429,29.993-29.996,29.993s-29.996-13.428-29.996-29.993
	c0-16.564,13.429-29.999,29.996-29.999S129.983,395.438,129.983,412.003z M512,411.987c0,55.134-44.854,99.987-99.987,99.987
	c-34.876,0-66.719-18.598-89.703-52.379l-66.4-91.05l-66.21,91.038c-22.985,33.791-54.832,52.391-89.711,52.391
	C44.854,511.974,0,467.121,0,411.987S44.854,312,99.987,312c16.355,0,32.395,4.046,46.706,11.621l38.364-52.281L78.667,124.792
	l-0.641-1.193C55.909,82.405,71.35,30.754,112.449,8.459l15.343-8.323l128.077,174.705L384.148,0.026l15.336,8.319
	c41.099,22.293,56.541,73.944,34.423,115.139l-0.645,1.2l-0.801,1.103L326.708,271.198l38.578,52.435
	C379.602,316.051,395.651,312,412.013,312C467.147,312,512,356.853,512,411.987z M209.902,237.483l21.16-28.835l-112.898-154
	c-10.995,13.436-13.674,32.614-5.469,48.938L209.902,237.483z M399.242,103.466c8.201-16.326,5.518-35.505-5.478-48.939
	L154.965,379.951l-16.357-13.809c-10.808-9.123-24.523-14.147-38.621-14.147c-33.08,0-59.992,26.913-59.992,59.992
	s26.913,59.992,59.992,59.992c28.73,0,47.912-21.995,56.789-35.106l0.387-0.551L399.242,103.466z M472.005,411.987
	c0-33.08-26.913-59.992-59.992-59.992c-14.097,0-27.812,5.024-38.62,14.148l-16.337,13.792l-55.032-74.798l-21.399,29.423
	l74.403,102.024l0.196,0.289c8.877,13.11,28.058,35.105,56.789,35.105C445.093,471.979,472.005,445.067,472.005,411.987z
	 M412.014,382.018c-16.567,0-29.996,13.42-29.996,29.985v0.015c0,16.565,13.429,29.993,29.996,29.993s29.996-13.428,29.996-29.993
	S428.581,382.018,412.014,382.018z"/>
<g>
</g>
<g>
</g>
<g>
</g>
<g>
</g>
<g>
</g>
<g>
</g>
<g>
</g>
<g>
</g>
<g>
</g>
<g>
</g>
<g>
</g>
<g>
</g>
<g>
</g>
<g>
</g>
<g>
</g>
</svg>
