<?xml version="1.0" encoding="iso-8859-1"?>
<!-- Generator: Adobe Illustrator 19.0.0, SVG Export Plug-In . SVG Version: 6.00 Build 0)  -->
<svg version="1.1" id="Capa_1" xmlns="http://www.w3.org/2000/svg" xmlns:xlink="http://www.w3.org/1999/xlink" x="0px" y="0px"
	 viewBox="0 0 512 512" style="enable-background:new 0 0 512 512;" xml:space="preserve">
<linearGradient id="SVGID_1_" gradientUnits="userSpaceOnUse" x1="256" y1="514" x2="256" y2="2" gradientTransform="matrix(1 0 0 -1 0 514)">
	<stop  offset="0" style="stop-color:#2AF598"/>
	<stop  offset="1" style="stop-color:#009EFD"/>
</linearGradient>
<path style="fill:url(#SVGID_1_);" d="M337.68,256.001l2.618-2.618c13.417,4.573,27.345,6.884,41.568,6.884
	c71.755,0,130.133-58.378,130.133-130.134c0-18.806-4.111-37.168-12.219-54.577l-12.034-25.838l-72.435,72.084
	c-3.351,3.352-7.808,5.198-12.552,5.198c-4.744,0-9.201-1.847-12.557-5.203c-3.355-3.354-5.203-7.814-5.203-12.557
	c0-4.743,1.848-9.203,5.239-12.594l72.044-72.395l-25.84-12.034C419.034,4.11,400.672,0,381.867,0
	c-71.756,0-130.133,58.377-130.133,130.133c0,14.224,2.311,28.152,6.883,41.568l-29.315,29.315l-73.302-73.3V61.818L54.33,0.816
	L0.817,54.328L61.82,156h65.896l73.301,73.301L16.923,413.396c-10.912,10.91-16.922,25.415-16.922,40.843
	c0,15.43,6.01,29.935,16.917,40.839c10.907,10.912,25.412,16.921,40.843,16.921s29.936-6.009,40.839-16.917l157.398-157.399
	l157.396,157.395C424.305,505.99,438.81,512,454.239,512c15.428,0,29.934-6.01,40.839-16.918
	c10.911-10.906,16.92-25.411,16.92-40.842c0-15.432-6.009-29.938-16.917-40.839L337.68,256.001z M51.186,60.529l9.345-9.346
	l55.47,33.284V116H84.468L51.186,60.529z M70.313,466.801c-3.351,3.353-7.808,5.198-12.552,5.198s-9.201-1.846-12.557-5.203
	c-3.355-3.355-5.203-7.814-5.203-12.557c0-4.742,1.848-9.202,5.205-12.558l260.917-260.918l-5.91-12.688
	c-5.626-12.08-8.479-24.846-8.479-37.942c0-49.699,40.434-90.133,90.133-90.133c2.662,0,5.314,0.121,7.953,0.362l-27.897,28.033
	C351.01,79.306,345,93.811,345,109.24s6.01,29.934,16.917,40.839C372.823,160.991,387.328,167,402.76,167
	c15.431,0,29.936-6.009,40.805-16.883l28.072-27.937c0.241,2.638,0.362,5.29,0.362,7.952c0,49.7-40.434,90.134-90.133,90.134
	c-13.096,0-25.861-2.853-37.942-8.479l-12.688-5.91L70.313,466.801z M466.796,466.797c-3.354,3.355-7.814,5.203-12.557,5.203
	c-4.743,0-9.203-1.848-12.559-5.205L284.284,309.398l25.114-25.113L466.8,441.688c3.352,3.351,5.198,7.808,5.198,12.552
	C471.998,458.983,470.153,463.441,466.796,466.797z"/>
<g>
</g>
<g>
</g>
<g>
</g>
<g>
</g>
<g>
</g>
<g>
</g>
<g>
</g>
<g>
</g>
<g>
</g>
<g>
</g>
<g>
</g>
<g>
</g>
<g>
</g>
<g>
</g>
<g>
</g>
</svg>
