<?xml version="1.0" encoding="iso-8859-1"?>
<!-- Generator: Adobe Illustrator 19.0.0, SVG Export Plug-In . SVG Version: 6.00 Build 0)  -->
<svg version="1.1" id="Capa_1" xmlns="http://www.w3.org/2000/svg" xmlns:xlink="http://www.w3.org/1999/xlink" x="0px" y="0px"
	 viewBox="0 0 512 512" style="enable-background:new 0 0 512 512;" xml:space="preserve">
<linearGradient id="SVGID_1_" gradientUnits="userSpaceOnUse" x1="256" y1="514.0001" x2="256" y2="2" gradientTransform="matrix(1 0 0 -1 0 514)">
	<stop  offset="0" style="stop-color:#2AF598"/>
	<stop  offset="1" style="stop-color:#009EFD"/>
</linearGradient>
<path style="fill:url(#SVGID_1_);" d="M399,264c0,11.046-8.954,20-20,20s-20-8.954-20-20c0-11.046,8.954-20,20-20
	S399,252.954,399,264z M512,259v80.767l-2.442,4.478C480.082,398.284,437.959,432.98,387,445.479V512h-92.599l-7.502-58.504
	c-7.458,0.259-15.145,0.504-23.032,0.504c-16.836,0-30.122-1.163-42.867-3.296V512h-93.744l-12.635-105.291
	C90.804,383.877,74.447,350.293,68.997,314h-9.664c-2.431,0-15.232-0.339-28.611-7.028C10.911,297.066,0,278.49,0,254.667
	c0-23.794,10.83-42.358,30.495-52.275c13.323-6.719,26.083-7.059,28.505-7.059v40l0.248-0.002
	c-1.694,0.045-7.058,0.702-11.476,3.165C43.929,240.64,40,244.237,40,254.667c0,10.771,4.353,14.398,8.611,16.527
	C53.715,273.747,59.282,274,59.333,274h8.11c3.117-48.025,23.078-87.582,58.224-114.971c11.975-9.332,25.567-17.13,40.551-23.339
	c-6.003-12.658-9.151-26.532-9.151-40.69c0-52.383,42.617-95,95-95s95,42.617,95,95c0,9.895-1.538,19.651-4.51,28.952
	c2.196,0.381,4.364,0.775,6.465,1.198c4.89-6.844,11.481-14.678,19.909-21.872C387.537,87.396,410.038,79,434,79h27.532
	l-8.512,26.184c-4.025,12.394-13.782,45.489-16.453,66.71c12.16,14.283,15.573,30.438,18.891,46.141
	c1.078,5.102,2.193,10.377,3.629,15.742l0.219,0.818c2.326,8.697,4.334,16.208,7.455,19.265C470.147,257.174,479.11,259,492,259H512
	z M205.197,123.789c18.255-3.831,37.897-5.789,58.67-5.789c11.426,0,24.407,0.387,37.568,1.27c3.696-7.509,5.632-15.798,5.632-24.27
	c0-30.327-24.673-55-55-55s-55,24.673-55,55C197.067,105.212,199.88,115.156,205.197,123.789z M472,297.596
	c-14.318-2.241-25.104-7.204-33.227-15.16c-10.944-10.718-14.586-24.336-18.108-37.505l-0.217-0.811
	c-1.712-6.396-2.994-12.463-4.125-17.815c-3.509-16.607-5.549-24.896-13.499-31.771l-7.164-6.195l0.253-9.467
	c0.393-14.694,4.796-35.095,9.291-52.401c-15.768,8.838-25.184,23.32-29.331,31.017l-7.758,14.398l-15.652-4.746
	c-22.247-6.746-61.63-9.14-88.596-9.14C165.642,158,107,206.398,107,287.467c0,37.644,15.108,73.689,39.43,94.07l6.068,5.085
	L162.744,472H181v-71.58l24.824,6.171C225.595,411.505,240,414,263.867,414c7.919,0,15.943-0.28,23.702-0.552
	c5.413-0.189,11.011-0.386,16.506-0.483l17.914-0.318l7.61,59.353H347v-60.339l17.164-2.459
	c44.961-6.44,81.222-33.263,107.836-79.742V297.596z"/>
<g>
</g>
<g>
</g>
<g>
</g>
<g>
</g>
<g>
</g>
<g>
</g>
<g>
</g>
<g>
</g>
<g>
</g>
<g>
</g>
<g>
</g>
<g>
</g>
<g>
</g>
<g>
</g>
<g>
</g>
</svg>
