<?xml version="1.0" encoding="iso-8859-1"?>
<!-- Generator: Adobe Illustrator 19.0.0, SVG Export Plug-In . SVG Version: 6.00 Build 0)  -->
<svg version="1.1" id="Capa_1" xmlns="http://www.w3.org/2000/svg" xmlns:xlink="http://www.w3.org/1999/xlink" x="0px" y="0px"
	 viewBox="0 0 512.001 512.001" style="enable-background:new 0 0 512.001 512.001;" xml:space="preserve">
<linearGradient id="SVGID_1_" gradientUnits="userSpaceOnUse" x1="256.0028" y1="514.0005" x2="256.0028" y2="1.9956" gradientTransform="matrix(1 0 0 -1 -3.855195e-004 513.9965)">
	<stop  offset="0" style="stop-color:#2AF598"/>
	<stop  offset="1" style="stop-color:#009EFD"/>
</linearGradient>
<path style="fill:url(#SVGID_1_);" d="M276,370.002c0,11.046-8.954,20-20,20c-11.046,0-20-8.954-20-20c0-11.046,8.954-20,20-20
	C267.046,350.002,276,358.956,276,370.002z M511.998,402.002c0,60.654-49.346,109.999-109.999,109.999
	c-59.449,0-108.027-47.406-109.934-106.399H292v-69.587c-9.206-10.2-22.193-16.012-36-16.012c-13.7,0-26.809,5.833-36,16.006v69.593
	h-0.065c-1.907,58.994-50.486,106.399-109.934,106.399c-60.654,0-109.999-49.346-109.999-109.999c0-9.275,1.159-18.283,3.331-26.894
	l26.823-214.585l0.071,0.009c2.05-30.316,18.383-56.776,42.312-72.687l-1.618-0.202l4.202-33.596
	c3.268-32.759,32.5-56.876,65.321-53.779c15.979,1.504,30.088,8.999,39.735,21.106c9.043,11.351,13.824,26.005,13.824,42.378v38.022
	c16.107,17.029,26,39.995,26,65.228v42.714c11.528-3.76,23.643-5.714,36-5.714c12.323,0,24.455,1.947,36,5.711v-42.711
	c0-24.171,9.079-46.259,24-63.044V63.752c0-16.373,4.78-31.027,13.824-42.378c9.646-12.107,23.756-19.603,39.729-21.106
	c32.827-3.077,62.059,21.021,65.325,53.779l4.195,33.542c24.14,15.883,40.64,42.463,42.701,72.942l0.071-0.009l26.823,214.585
	C510.839,383.719,511.998,392.727,511.998,402.002z M356,63.752v13.451c9.72-3.365,20.15-5.199,31-5.199
	c3.337,0,6.634,0.175,9.883,0.513l-1.795-14.387c-1.033-10.977-10.804-19.065-21.791-18.038C357.686,41.562,356,57.128,356,63.752z
	 M332,167.003v150.208c19.032-15.74,43.431-25.209,69.999-25.209c21.292,0,41.185,6.087,58.045,16.603l-17.7-141.602H442
	c0-30.327-24.673-55-55-55S332,136.677,332,167.003z M113.095,72.749c3.901-0.49,7.875-0.745,11.907-0.745
	c10.11,0,19.854,1.594,29,4.532V63.752c0-6.624-1.686-22.19-17.302-23.66c-10.972-1.035-20.752,7.062-21.786,18.038l-0.067,0.608
	L113.095,72.749z M70.002,167.003h-0.344l-17.7,141.602c16.859-10.516,36.753-16.603,58.045-16.603
	c26.569,0,50.968,9.469,69.999,25.209V167.003c0-30.327-24.673-55-55-55S70.002,136.677,70.002,167.003z M180.001,402.002
	c0-38.598-31.402-69.999-69.999-69.999s-69.999,31.402-69.999,69.999s31.402,69.999,69.999,69.999S180.001,440.599,180.001,402.002z
	 M292,287.628v-34.575c-11.015-5.934-23.35-9.05-36-9.05c-12.689,0-24.988,3.117-36,9.056v34.612c11.22-4.998,23.475-7.668,36-7.668
	C268.6,280.003,280.825,282.654,292,287.628z M471.999,402.002c0-38.598-31.402-69.999-69.999-69.999S332,363.404,332,402.002
	s31.402,69.999,69.999,69.999S471.999,440.599,471.999,402.002z"/>
<g>
</g>
<g>
</g>
<g>
</g>
<g>
</g>
<g>
</g>
<g>
</g>
<g>
</g>
<g>
</g>
<g>
</g>
<g>
</g>
<g>
</g>
<g>
</g>
<g>
</g>
<g>
</g>
<g>
</g>
</svg>
