<?xml version="1.0" encoding="iso-8859-1"?>
<!-- Generator: Adobe Illustrator 19.0.0, SVG Export Plug-In . SVG Version: 6.00 Build 0)  -->
<svg version="1.1" id="Capa_1" xmlns="http://www.w3.org/2000/svg" xmlns:xlink="http://www.w3.org/1999/xlink" x="0px" y="0px"
	 viewBox="0 0 512 512" style="enable-background:new 0 0 512 512;" xml:space="preserve">
<linearGradient id="SVGID_1_" gradientUnits="userSpaceOnUse" x1="256.2127" y1="513.7256" x2="256.2127" y2="1.7256" gradientTransform="matrix(0.9993 0 0 -0.9993 -0.0341 513.546)">
	<stop  offset="0" style="stop-color:#2AF598"/>
	<stop  offset="1" style="stop-color:#009EFD"/>
</linearGradient>
<path style="fill:url(#SVGID_1_);" d="M418.783,334.787c15.559-11.689,26.828-27.669,32.601-46.23L512,109.102H122.337l-4.299-47.67
	c-1.479-16.766-9.13-32.261-21.543-43.627C84.081,6.439,67.975,0.178,51.143,0.178H0v39.972h51.143
	c14.189,0,25.83,10.659,27.08,24.834l31.281,346.847c0.005,0.062,0.011,0.123,0.017,0.185c3.049,30.622,26.04,54.542,55.415,59.526
	c7.833,23.379,29.927,40.279,55.909,40.279c25.497,0,47.26-16.272,55.465-38.973h46.959c8.205,22.701,29.968,38.973,55.465,38.973
	c32.51,0,58.959-26.45,58.959-58.959s-26.449-58.959-58.959-58.959c-25.497,0-47.26,16.272-55.465,38.973h-46.959
	c-8.205-22.701-29.968-38.973-55.465-38.973c-24.644,0-45.792,15.203-54.59,36.718c-9.159-3.636-15.886-12.105-16.95-22.484
	l-4.979-55.206h220.418C384.294,352.932,402.98,346.658,418.783,334.787z M378.736,433.876c10.47,0,18.987,8.517,18.987,18.987
	c0,10.47-8.517,18.987-18.987,18.987c-10.47,0-18.987-8.517-18.987-18.987C359.749,442.393,368.266,433.876,378.736,433.876z
	 M220.846,433.876c10.47,0,18.987,8.517,18.987,18.987c0,10.47-8.517,18.987-18.987,18.987c-10.47,0-18.987-8.517-18.987-18.987
	C201.859,442.393,210.376,433.876,220.846,433.876z M125.941,149.075h330.366l-42.875,126.932l-0.167,0.519
	c-6.6,21.453-26.553,36.436-48.519,36.436H140.722L125.941,149.075z"/>
<g>
</g>
<g>
</g>
<g>
</g>
<g>
</g>
<g>
</g>
<g>
</g>
<g>
</g>
<g>
</g>
<g>
</g>
<g>
</g>
<g>
</g>
<g>
</g>
<g>
</g>
<g>
</g>
<g>
</g>
</svg>
