<?xml version="1.0" encoding="iso-8859-1"?>
<!-- Generator: Adobe Illustrator 19.0.0, SVG Export Plug-In . SVG Version: 6.00 Build 0)  -->
<svg version="1.1" id="Capa_1" xmlns="http://www.w3.org/2000/svg" xmlns:xlink="http://www.w3.org/1999/xlink" x="0px" y="0px"
	 viewBox="0 0 512 512" style="enable-background:new 0 0 512 512;" xml:space="preserve">
<linearGradient id="SVGID_1_" gradientUnits="userSpaceOnUse" x1="256" y1="446" x2="256" y2="70" gradientTransform="matrix(1 0 0 -1 0 514)">
	<stop  offset="0" style="stop-color:#2AF598"/>
	<stop  offset="1" style="stop-color:#009EFD"/>
</linearGradient>
<path style="fill:url(#SVGID_1_);" d="M452,68H60C26.916,68,0,94.916,0,128v256c0,33.084,26.916,60,60,60h392
	c33.084,0,60-26.916,60-60V128C512,94.916,485.084,68,452,68z M472,128v23.027c-6.144-1.992-12.839-3.027-20-3.027
	c-11.028,0-20-8.972-20-20c0-7.081-1.308-13.794-3.707-20H452C463.028,108,472,116.972,472,128z M60,108h23.707
	C81.308,114.206,80,120.919,80,128c0,11.028-8.972,20-20,20c-7.161,0-13.856,1.035-20,3.027V128C40,116.972,48.972,108,60,108z
	 M40,384v-23.027C46.144,362.965,52.839,364,60,364c11.028,0,20,8.972,20,20c0,7.081,1.308,13.794,3.707,20H60
	C48.972,404,40,395.028,40,384z M452,404h-23.707c2.399-6.206,3.707-12.919,3.707-20c0-11.028,8.972-20,20-20
	c7.161,0,13.856-1.035,20-3.027V384C472,395.028,463.028,404,452,404z M472,292c0,32-13.011,32-20,32c-33.084,0-60,26.916-60,60
	c0,11.589-12.617,20-30,20H150c-17.383,0-30-8.411-30-20c0-33.084-26.916-60-60-60c-6.989,0-20,0-20-32v-72c0-32,13.011-32,20-32
	c33.084,0,60-26.916,60-60c0-11.589,12.617-20,30-20h212c17.383,0,30,8.411,30,20c0,33.084,26.916,60,60,60c6.989,0,20,0,20,32V292z
	 M256,145.878c-55.691,0-101,49.346-101,110s45.309,110,101,110s101-49.346,101-110S311.691,145.878,256,145.878z M256,325.878
	c-33.636,0-61-31.402-61-70s27.364-70,61-70s61,31.402,61,70S289.636,325.878,256,325.878z M435,255.878c0,11.046-8.954,20-20,20
	s-20-8.954-20-20s8.954-20,20-20S435,244.833,435,255.878z M117,255.878c0,11.046-8.954,20-20,20s-20-8.954-20-20s8.954-20,20-20
	S117,244.833,117,255.878z"/>
<g>
</g>
<g>
</g>
<g>
</g>
<g>
</g>
<g>
</g>
<g>
</g>
<g>
</g>
<g>
</g>
<g>
</g>
<g>
</g>
<g>
</g>
<g>
</g>
<g>
</g>
<g>
</g>
<g>
</g>
</svg>
