<?xml version="1.0" encoding="iso-8859-1"?>
<!-- Generator: Adobe Illustrator 19.0.0, SVG Export Plug-In . SVG Version: 6.00 Build 0)  -->
<svg version="1.1" id="Capa_1" xmlns="http://www.w3.org/2000/svg" xmlns:xlink="http://www.w3.org/1999/xlink" x="0px" y="0px"
	 viewBox="0 0 512.001 512.001" style="enable-background:new 0 0 512.001 512.001;" xml:space="preserve">
<linearGradient id="SVGID_1_" gradientUnits="userSpaceOnUse" x1="256.0005" y1="514" x2="256.0005" y2="1.999" gradientTransform="matrix(1 0 0 -1 0 514)">
	<stop  offset="0" style="stop-color:#2AF598"/>
	<stop  offset="1" style="stop-color:#009EFD"/>
</linearGradient>
<path style="fill:url(#SVGID_1_);" d="M251,325.44V154h-40v171.44c-23.278,8.256-40,30.487-40,56.56c0,33.084,26.916,60,60,60
	s60-26.916,60-60C291,355.927,274.279,333.697,251,325.44z M231,402c-11.028,0-20-8.972-20-20s8.972-20,20-20s20,8.972,20,20
	S242.028,402,231,402z M351,178h60v40h-60V178z M351,107h60v40h-60V107z M411,37v40h-60V37H411z M351,248h60v40h-60V248z
	 M321,288.188V90c0-49.626-40.374-90-90-90s-90,40.374-90,90v198.188c-25.534,24.473-40,58.147-40,93.813
	c0,71.683,58.317,130,130,130s130-58.317,130-130C361,346.335,346.534,312.66,321,288.188z M231,472c-49.626,0-90-40.374-90-90
	c0-26.945,11.932-52.254,32.736-69.436l7.264-6V90c0-27.57,22.43-50,50-50s50,22.43,50,50v216.564l7.264,6
	C309.068,329.746,321,355.055,321,382C321,431.626,280.626,472,231,472z"/>
<g>
</g>
<g>
</g>
<g>
</g>
<g>
</g>
<g>
</g>
<g>
</g>
<g>
</g>
<g>
</g>
<g>
</g>
<g>
</g>
<g>
</g>
<g>
</g>
<g>
</g>
<g>
</g>
<g>
</g>
</svg>
