<?xml version="1.0" encoding="iso-8859-1"?>
<!-- Generator: Adobe Illustrator 19.0.0, SVG Export Plug-In . SVG Version: 6.00 Build 0)  -->
<svg version="1.1" id="Capa_1" xmlns="http://www.w3.org/2000/svg" xmlns:xlink="http://www.w3.org/1999/xlink" x="0px" y="0px"
	 viewBox="0 0 511.999 511.999" style="enable-background:new 0 0 511.999 511.999;" xml:space="preserve">
<linearGradient id="SVGID_1_" gradientUnits="userSpaceOnUse" x1="256.2777" y1="513.8732" x2="256.2777" y2="1.4072" gradientTransform="matrix(0.9991 0 0 -0.9991 -0.0447 513.405)">
	<stop  offset="0" style="stop-color:#2AF598"/>
	<stop  offset="1" style="stop-color:#009EFD"/>
</linearGradient>
<path style="fill:url(#SVGID_1_);" d="M436.713,110.629c-43.212-41.692-99.644-66.478-160.619-70.93V0h-39.964v39.699
	c-60.974,4.452-117.407,29.238-160.617,70.93C27.041,157.399,0.346,220.653,0.346,288.737l-0.227,31.095l28.173-12.767
	c1.113-0.456,18.375-7.337,43.988-7.337c26.76,0,57.695,13.209,57.981,13.333l8.951,3.887l8.569-4.669
	c0.23-0.126,23.753-12.552,49.385-12.552c15.216,0,29.67,4.37,38.964,7.953v144.374c0,11.018-8.964,19.982-19.982,19.982
	c-10.831,0-19.982-9.364-19.982-20.448h-39.964c0,33.312,26.891,60.412,59.945,60.412s59.945-26.891,59.945-59.945V307.681
	c9.3-3.584,23.76-7.955,38.964-7.955c25.69,0,49.209,12.457,49.389,12.552l8.527,4.619l8.903-3.8
	c0.29-0.124,29.298-12.372,56.069-12.372c27.238,0,47.134,6.796,47.266,6.842l26.667,9.467v-28.298
	C511.88,220.653,485.185,157.399,436.713,110.629z M41.935,262.282c10.341-83.349,69.087-150.166,148.991-173.97
	c-3.132,3.551-6.289,7.31-9.443,11.305c-18.428,23.342-33.1,49.741-43.607,78.462c-10.115,27.648-16.34,57.492-18.629,89.006
	c-13.499-3.804-30.447-7.321-46.966-7.321C60.757,259.763,50.535,260.825,41.935,262.282z M197.167,259.763
	c-13.761,0-26.789,2.428-37.72,5.471c4.616-53.788,22.116-100.554,52.207-139.328c8.397-10.819,16.841-19.71,24.477-26.822v166.5
	C224.95,262.38,211.454,259.763,197.167,259.763z M276.095,265.586V99.051c28.668,26.773,69.033,79.174,76.655,166.174
	c-10.926-3.039-23.941-5.463-37.691-5.463C300.771,259.763,287.275,262.38,276.095,265.586z M437.947,260.762
	c-16.045,0-32.096,3.121-44.951,6.574c-2.273-31.607-8.504-61.536-18.646-89.257c-10.508-28.722-25.179-55.121-43.607-78.462
	c-3.154-3.995-6.312-7.756-9.445-11.308c80.231,23.901,139.131,91.171,149.118,174.993
	C461.205,261.864,450.165,260.762,437.947,260.762z"/>
<g>
</g>
<g>
</g>
<g>
</g>
<g>
</g>
<g>
</g>
<g>
</g>
<g>
</g>
<g>
</g>
<g>
</g>
<g>
</g>
<g>
</g>
<g>
</g>
<g>
</g>
<g>
</g>
<g>
</g>
</svg>
