<?xml version="1.0" encoding="iso-8859-1"?>
<!-- Generator: Adobe Illustrator 19.0.0, SVG Export Plug-In . SVG Version: 6.00 Build 0)  -->
<svg version="1.1" id="Capa_1" xmlns="http://www.w3.org/2000/svg" xmlns:xlink="http://www.w3.org/1999/xlink" x="0px" y="0px"
	 viewBox="0 0 512 512" style="enable-background:new 0 0 512 512;" xml:space="preserve">
<linearGradient id="SVGID_1_" gradientUnits="userSpaceOnUse" x1="256" y1="494" x2="256" y2="22" gradientTransform="matrix(1 0 0 -1 0 514)">
	<stop  offset="0" style="stop-color:#2AF598"/>
	<stop  offset="1" style="stop-color:#009EFD"/>
</linearGradient>
<path style="fill:url(#SVGID_1_);" d="M512,275.922c0,51.361-15.168,100.91-43.863,143.291l-33.121-22.426
	C459.211,361.052,472,319.258,472,275.922C472,156.862,375.103,60,256,60S40,156.862,40,275.922
	c0,43.336,12.789,85.13,36.984,120.865l-33.121,22.426C15.168,376.832,0,327.283,0,275.922c0-68.36,26.629-132.629,74.982-180.967
	C123.334,46.62,187.621,20,256,20s132.666,26.62,181.018,74.955C485.371,143.293,512,207.562,512,275.922z M276,120
	c0-11.046-8.954-20-20-20s-20,8.954-20,20s8.954,20,20,20C267.046,140,276,131.046,276,120z M100,256c-11.046,0-20,8.954-20,20
	s8.954,20,20,20s20-8.954,20-20S111.046,256,100,256z M166,166c0-11.046-8.954-20-20-20s-20,8.954-20,20s8.954,20,20,20
	S166,177.046,166,166z M412,256c-11.046,0-20,8.954-20,20s8.954,20,20,20s20-8.954,20-20S423.046,256,412,256z M259.519,244.197
	C258.362,244.07,257.189,244,256,244c-17.673,0-32,14.327-32,32s14.327,32,32,32s32-14.327,32-32c0-1.189-0.07-2.362-0.196-3.518
	l102.839-102.839l-28.285-28.285L259.519,244.197z M146,372h220v120H146V372z M186,452h140v-40H186V452z"/>
<g>
</g>
<g>
</g>
<g>
</g>
<g>
</g>
<g>
</g>
<g>
</g>
<g>
</g>
<g>
</g>
<g>
</g>
<g>
</g>
<g>
</g>
<g>
</g>
<g>
</g>
<g>
</g>
<g>
</g>
</svg>
