<?xml version="1.0" encoding="iso-8859-1"?>
<!-- Generator: Adobe Illustrator 19.0.0, SVG Export Plug-In . SVG Version: 6.00 Build 0)  -->
<svg version="1.1" id="Capa_1" xmlns="http://www.w3.org/2000/svg" xmlns:xlink="http://www.w3.org/1999/xlink" x="0px" y="0px"
	 viewBox="0 0 512.002 512.002" style="enable-background:new 0 0 512.002 512.002;" xml:space="preserve">
<linearGradient id="SVGID_1_" gradientUnits="userSpaceOnUse" x1="256.001" y1="442.999" x2="256.001" y2="72.999" gradientTransform="matrix(1 0 0 -1 0 514)">
	<stop  offset="0" style="stop-color:#2AF598"/>
	<stop  offset="1" style="stop-color:#009EFD"/>
</linearGradient>
<path style="fill:url(#SVGID_1_);" d="M255.999,441.001c-15.354,0-151.129-0.303-189.899-10.787
	c-27.048-7.272-48.398-28.596-55.69-55.642C0.118,335.932,0,259.246,0,256.001c0-3.229,0.118-79.521,10.38-118.461
	c0.01-0.037,0.02-0.073,0.029-0.11c7.21-26.738,29.043-48.725,55.624-56.011c0.068-0.019,0.136-0.037,0.205-0.056
	c38.329-10.071,174.375-10.362,189.761-10.362c15.397,0,151.535,0.303,189.951,10.801c26.977,7.253,48.316,28.553,55.624,55.571
	c10.661,38.927,10.443,115.249,10.425,119.075c-0.001,3.988-0.173,79.671-10.38,118.402c-0.01,0.036-0.02,0.073-0.029,0.11
	c-7.292,27.045-28.643,48.368-55.72,55.648c-0.036,0.01-0.073,0.02-0.109,0.029C407.432,440.71,271.386,441.001,255.999,441.001z
	 M49.042,147.8C41.625,176.028,40,235.464,40,256.001c0,0.741,0.116,74.689,9.046,108.217c3.579,13.271,14.109,23.784,27.468,27.375
	c28.543,7.72,139.239,9.408,179.485,9.408c40.351-0.001,151.207-1.626,179.537-9.034c13.316-3.6,23.814-14.079,27.417-27.367
	c7.419-28.224,9.044-87.672,9.044-108.21c0.101-20.732-1.322-80.423-9.008-108.467c-0.007-0.026-0.015-0.053-0.022-0.079
	c-3.594-13.331-14.125-23.844-27.483-27.435c-28.256-7.722-139.138-9.408-179.485-9.408c-40.327,0.001-151.074,1.625-179.489,9.021
	C63.404,123.655,52.633,134.545,49.042,147.8z M482.278,369.753h0.01H482.278z M190.084,361.157V150.844L372.057,256
	L190.084,361.157z M230.084,220.157v71.688l62.027-35.844L230.084,220.157z"/>
<g>
</g>
<g>
</g>
<g>
</g>
<g>
</g>
<g>
</g>
<g>
</g>
<g>
</g>
<g>
</g>
<g>
</g>
<g>
</g>
<g>
</g>
<g>
</g>
<g>
</g>
<g>
</g>
<g>
</g>
</svg>
