<?xml version="1.0" encoding="iso-8859-1"?>
<!-- Generator: Adobe Illustrator 19.0.0, SVG Export Plug-In . SVG Version: 6.00 Build 0)  -->
<svg version="1.1" id="Capa_1" xmlns="http://www.w3.org/2000/svg" xmlns:xlink="http://www.w3.org/1999/xlink" x="0px" y="0px"
	 viewBox="0 0 512 512" style="enable-background:new 0 0 512 512;" xml:space="preserve">
<linearGradient id="SVGID_1_" gradientUnits="userSpaceOnUse" x1="256.1138" y1="513.9481" x2="256.1138" y2="1.7572" gradientTransform="matrix(0.9996 0 0 -0.9996 -0.0183 513.7565)">
	<stop  offset="0" style="stop-color:#2AF598"/>
	<stop  offset="1" style="stop-color:#009EFD"/>
</linearGradient>
<path style="fill:url(#SVGID_1_);" d="M430.935,237.007H0.095v-39.985h430.839c22.599,0,40.985-18.429,40.985-41.082
	c0-22.599-18.386-40.985-40.985-40.985c-22.599,0-40.985,18.386-40.985,40.985h-39.985c0-44.647,36.322-80.97,80.97-80.97
	s80.97,36.322,80.97,80.97C511.905,200.64,475.581,237.007,430.935,237.007z M511.905,356.962c0-44.7-36.322-81.067-80.97-81.067
	H0.095v39.985h430.839c22.599,0,40.985,18.429,40.985,41.082c0,22.599-18.386,40.985-40.985,40.985
	c-22.599,0-40.985-18.386-40.985-40.985h-39.985c0,44.646,36.322,80.97,80.97,80.97S511.905,401.608,511.905,356.962z
	 M331.972,431.03c0-44.7-36.322-81.067-80.97-81.067H0.095v39.985h250.906c22.599,0,40.985,18.429,40.985,41.082
	c0,22.599-18.386,40.985-40.985,40.985s-40.985-18.386-40.985-40.985h-39.985c0,44.646,36.322,80.97,80.97,80.97
	S331.972,475.677,331.972,431.03z M281.99,80.97c0-44.646-36.322-80.97-80.97-80.97s-80.97,36.323-80.97,80.97h39.985
	c0-22.599,18.386-40.985,40.985-40.985s40.985,18.386,40.985,40.985c0,22.652-18.386,41.08-40.985,41.08H0.095v39.985h200.925
	C245.667,162.035,281.99,125.669,281.99,80.97z"/>
<g>
</g>
<g>
</g>
<g>
</g>
<g>
</g>
<g>
</g>
<g>
</g>
<g>
</g>
<g>
</g>
<g>
</g>
<g>
</g>
<g>
</g>
<g>
</g>
<g>
</g>
<g>
</g>
<g>
</g>
</svg>
