<?xml version="1.0" encoding="iso-8859-1"?>
<!-- Generator: Adobe Illustrator 19.0.0, SVG Export Plug-In . SVG Version: 6.00 Build 0)  -->
<svg version="1.1" id="Capa_1" xmlns="http://www.w3.org/2000/svg" xmlns:xlink="http://www.w3.org/1999/xlink" x="0px" y="0px"
	 viewBox="0 0 512 512" style="enable-background:new 0 0 512 512;" xml:space="preserve">
<linearGradient id="SVGID_1_" gradientUnits="userSpaceOnUse" x1="256" y1="514" x2="256" y2="2" gradientTransform="matrix(1 0 0 -1 0 514)">
	<stop  offset="0" style="stop-color:#2AF598"/>
	<stop  offset="1" style="stop-color:#009EFD"/>
</linearGradient>
<path style="fill:url(#SVGID_1_);" d="M437.02,74.98C388.667,26.629,324.38,0,256,0S123.333,26.629,74.98,74.98
	C26.629,123.333,0,187.62,0,256s26.629,132.667,74.98,181.02C123.333,485.371,187.62,512,256,512s132.667-26.629,181.02-74.98
	C485.371,388.667,512,324.38,512,256S485.371,123.333,437.02,74.98z M447.396,155.973l-34.265,14.038l15.164,37.014l34.314-14.058
	c4.222,13.812,7.089,28.208,8.457,43.033H434v40h37.066c-1.456,15.782-4.614,31.077-9.294,45.7l-34.125-14.5l-15.643,36.814
	l34.086,14.483c-6.817,12.593-14.851,24.433-23.94,35.368l-26.142-26.143l-28.285,28.284l26.143,26.143
	c-11.646,9.68-24.324,18.154-37.839,25.246l-14.038-34.265l-37.014,15.164l14.058,34.314c-13.812,4.222-28.208,7.089-43.033,8.457
	V434h-40v37.066c-15.782-1.456-31.077-4.614-45.7-9.294l14.5-34.125l-36.815-15.643l-14.483,34.086
	c-12.324-6.672-23.931-14.505-34.67-23.355l170.791-117.133c2.996-2.055,5.662-3.884,7.785-7.282l125.05-179.822
	C432.011,130.042,440.378,142.6,447.396,155.973z M83.706,304.976l-34.314,14.058c-4.222-13.812-7.089-28.208-8.457-43.033H78v-40
	H40.934c1.456-15.782,4.614-31.077,9.294-45.7l34.125,14.5l15.643-36.814L65.91,153.502c6.817-12.593,14.851-24.433,23.94-35.368
	l26.142,26.143l28.285-28.284L118.134,89.85c11.646-9.68,24.324-18.154,37.839-25.246l14.038,34.265l37.014-15.164l-14.058-34.314
	c13.812-4.222,28.208-7.089,43.033-8.457V78h40V40.934c15.782,1.456,31.077,4.614,45.7,9.294l-14.5,34.125l36.815,15.643
	l14.483-34.086c10.534,5.703,20.539,12.259,29.93,19.57L213.611,214.815l-4.229,4.246L85.283,388.172
	c-7.798-10.049-14.726-20.802-20.678-32.145l34.265-14.038L83.706,304.976z M334.191,175.362l-68.029,97.826
	c-11.298,7.75-52.863,36.257-94.395,64.74l68.07-92.76L334.191,175.362z"/>
<g>
</g>
<g>
</g>
<g>
</g>
<g>
</g>
<g>
</g>
<g>
</g>
<g>
</g>
<g>
</g>
<g>
</g>
<g>
</g>
<g>
</g>
<g>
</g>
<g>
</g>
<g>
</g>
<g>
</g>
</svg>
