<?xml version="1.0" encoding="iso-8859-1"?>
<!-- Generator: Adobe Illustrator 19.0.0, SVG Export Plug-In . SVG Version: 6.00 Build 0)  -->
<svg version="1.1" id="Capa_1" xmlns="http://www.w3.org/2000/svg" xmlns:xlink="http://www.w3.org/1999/xlink" x="0px" y="0px"
	 viewBox="0 0 512 512" style="enable-background:new 0 0 512 512;" xml:space="preserve">
<linearGradient id="SVGID_1_" gradientUnits="userSpaceOnUse" x1="256" y1="514" x2="256" y2="2" gradientTransform="matrix(1 0 0 -1 0 514)">
	<stop  offset="0" style="stop-color:#2AF598"/>
	<stop  offset="1" style="stop-color:#009EFD"/>
</linearGradient>
<path style="fill:url(#SVGID_1_);" d="M437.02,74.98C388.667,26.629,324.38,0,256,0S123.333,26.629,74.98,74.98
	C26.629,123.333,0,187.62,0,256s26.629,132.668,74.98,181.02C123.333,485.371,187.62,512,256,512s132.667-26.629,181.02-74.98
	C485.371,388.668,512,324.38,512,256S485.371,123.333,437.02,74.98z M256,40c79.007,0,148.23,42.647,185.893,106.122H261.092
	C259.404,146.045,257.707,146,256,146c-46.911,0-87.049,29.521-102.834,70.957L93.257,114.135C132.884,68.735,191.147,40,256,40z
	 M326,256c0,38.598-31.402,70-70,70c-26.257,0-49.171-14.54-61.148-35.983l0.658-0.384l-4.557-7.821
	C187.77,273.819,186,265.115,186,256c0-38.598,31.402-70,70-70c1.006,0,2.004,0.034,3,0.076v0.046h1.001
	C296.744,188.204,326,218.746,326,256z M40,256c0-38.497,10.135-74.667,27.859-106.001l87.148,149.574
	C171.916,338.615,210.817,366,256,366c7.034,0,13.913-0.672,20.584-1.94l-58.83,104.549C116.83,450.502,40,362.055,40,256z
	 M261.789,471.921l90.096-160.112l-0.847-0.477C360.543,295.067,366,276.16,366,256c0-26.512-9.429-50.864-25.108-69.878h119.502
	C467.911,208.05,472,231.556,472,256C472,373.167,378.226,468.842,261.789,471.921z"/>
<g>
</g>
<g>
</g>
<g>
</g>
<g>
</g>
<g>
</g>
<g>
</g>
<g>
</g>
<g>
</g>
<g>
</g>
<g>
</g>
<g>
</g>
<g>
</g>
<g>
</g>
<g>
</g>
<g>
</g>
</svg>
