<?xml version="1.0" encoding="iso-8859-1"?>
<!-- Generator: Adobe Illustrator 19.0.0, SVG Export Plug-In . SVG Version: 6.00 Build 0)  -->
<svg version="1.1" id="Capa_1" xmlns="http://www.w3.org/2000/svg" xmlns:xlink="http://www.w3.org/1999/xlink" x="0px" y="0px"
	 viewBox="0 0 512 512" style="enable-background:new 0 0 512 512;" xml:space="preserve">
<linearGradient id="SVGID_1_" gradientUnits="userSpaceOnUse" x1="256" y1="514" x2="256" y2="2" gradientTransform="matrix(1 0 0 -1 0 514)">
	<stop  offset="0" style="stop-color:#2AF598"/>
	<stop  offset="1" style="stop-color:#009EFD"/>
</linearGradient>
<path style="fill:url(#SVGID_1_);" d="M512,255.999c-0.001-68.38-26.629-132.667-74.981-181.019S324.38,0,256,0
	S123.332,26.629,74.98,74.98C26.629,123.333,0,187.62,0,256v93h0.076C0.027,349.994,0,350.994,0,352v44c0,33.084,26.916,60,60,60
	h3.082c2.067,31.224,28.113,56,59.852,56H174V243h-51.066c-29.326,0-53.789,21.154-58.972,49H60c-7.011,0-13.74,1.22-20,3.44V256
	c0-119.103,96.897-216,216-216c119.102,0,215.999,96.897,216,215.999v39.441c-6.26-2.22-12.989-3.44-20-3.44h-3.962
	c-5.183-27.846-29.646-49-58.972-49H338v269h51.066c31.738,0,57.785-24.776,59.852-56H452c33.084,0,60-26.916,60-60v-44
	c0-1.345-0.061-2.676-0.148-4H512V255.999z M102.934,303c0-11.028,8.972-20,20-20H134v189h-11.066c-11.028,0-20-8.972-20-20V303z
	 M60,332h2.934v84H60c-11.028,0-20-8.972-20-20v-44C40,340.972,48.972,332,60,332z M409.066,452c0,11.028-8.972,20-20,20H378V283
	h11.066c11.028,0,20,8.972,20,20V452z M472,396c0,11.028-8.972,20-20,20h-2.934v-84H452c11.028,0,20,8.972,20,20V396z"/>
<g>
</g>
<g>
</g>
<g>
</g>
<g>
</g>
<g>
</g>
<g>
</g>
<g>
</g>
<g>
</g>
<g>
</g>
<g>
</g>
<g>
</g>
<g>
</g>
<g>
</g>
<g>
</g>
<g>
</g>
</svg>
