<?xml version="1.0" encoding="iso-8859-1"?>
<!-- Generator: Adobe Illustrator 19.0.0, SVG Export Plug-In . SVG Version: 6.00 Build 0)  -->
<svg version="1.1" id="Capa_1" xmlns="http://www.w3.org/2000/svg" xmlns:xlink="http://www.w3.org/1999/xlink" x="0px" y="0px"
	 viewBox="0 0 512 512" style="enable-background:new 0 0 512 512;" xml:space="preserve">
<linearGradient id="SVGID_1_" gradientUnits="userSpaceOnUse" x1="256" y1="466" x2="256" y2="50" gradientTransform="matrix(1 0 0 -1 0 514)">
	<stop  offset="0" style="stop-color:#2AF598"/>
	<stop  offset="1" style="stop-color:#009EFD"/>
</linearGradient>
<path style="fill:url(#SVGID_1_);" d="M355,88c17.723,0,33.145,6.855,45.835,20.375l10.206,10.873l1.234,4.77l0.254,0.983
	l7.471,28.88V166c0,30.012-5.878,61.528-17,91.14c-11.688,31.121-28.511,59.202-50.001,83.462C319.296,378.648,258.629,424,161,424
	c-2.869,0-5.733-0.05-8.597-0.149c9.426-5.468,18.485-11.555,27.105-18.238L195,393.603V374v-4v-40l-16.48-0.183
	c-18.019-0.2-32.52-14.863-32.52-32.883v-32.706l-21.632-4.885C114.797,257.181,108,248.678,108,238.866V214v-3l-0.5-20.389
	l-17.789-11.877c-7.682-6.463-14.644-15.694-19.604-25.684c52.489,38.278,114.827,61.184,179.612,64.885L292,220.35V178v-1v-4.725
	l-1.101-4.595C289.639,162.421,289,157.482,289,153c0-17.224,6.872-33.488,19.35-45.797C320.903,94.82,337.471,88,355,88 M355,48
	c-57.975,0-106,46.937-106,105c0,8.262,1.167,16.35,3,24v1c-86.407-4.936-164.642-48.88-216-112c-9.013,15.53-14,37.722-14,57
	c0,30,17.814,70.181,46,89v2c-16.83-0.679-34.068-12.273-48-20c0,0.459,0.61,1.011,0.61,1.47c0,50.949,37.344,94.891,85.39,104.53
	l0,0c-8.373,2.215-20.166,4-29,4c-6.798,0-13.584-1.776-20-3c13.367,41.769,52,69,98,69v1c-35.805,27.758-81.188,47-130,47
	c-8.479,0-19-1-25-2c46.441,29.835,101.65,48,161,48c193.174,0,299-159,299-298v-14c20.547-14.841,37.945-34.886,52-56
	c0,0-36.866,17.469-60.746,18.983L451,114c21.693-13.005,39.209-34.444,47-59c-20.318,12.087-44.092,21.257-68,26
	C410.828,60.574,385.248,48,355,48L355,48z M498,55h0.005H498z"/>
<g>
</g>
<g>
</g>
<g>
</g>
<g>
</g>
<g>
</g>
<g>
</g>
<g>
</g>
<g>
</g>
<g>
</g>
<g>
</g>
<g>
</g>
<g>
</g>
<g>
</g>
<g>
</g>
<g>
</g>
</svg>
