<?xml version="1.0" encoding="iso-8859-1"?>
<!-- Generator: Adobe Illustrator 19.0.0, SVG Export Plug-In . SVG Version: 6.00 Build 0)  -->
<svg version="1.1" id="Capa_1" xmlns="http://www.w3.org/2000/svg" xmlns:xlink="http://www.w3.org/1999/xlink" x="0px" y="0px"
	 viewBox="0 0 512 512" style="enable-background:new 0 0 512 512;" xml:space="preserve">
<linearGradient id="SVGID_1_" gradientUnits="userSpaceOnUse" x1="256" y1="514" x2="256" y2="2" gradientTransform="matrix(1 0 0 -1 0 514)">
	<stop  offset="0" style="stop-color:#2AF598"/>
	<stop  offset="1" style="stop-color:#009EFD"/>
</linearGradient>
<path style="fill:url(#SVGID_1_);" d="M288,256c0,17.673-14.327,32-32,32s-32-14.327-32-32s14.327-32,32-32S288,238.327,288,256z
	 M512,276h-50.974c-9.453,97.656-87.37,175.573-185.026,185.026V512h-40v-50.974C138.344,451.573,60.427,373.656,50.974,276H0v-40
	h50.974C60.427,138.344,138.344,60.427,236,50.974V0h40v50.974c97.656,9.453,175.573,87.37,185.026,185.026H512V276z M420.792,276
	H370v-40h50.792C411.674,160.423,351.577,100.326,276,91.208V142h-40V91.208C160.423,100.326,100.326,160.423,91.208,236H142v40
	H91.208c9.117,75.577,69.215,135.674,144.792,144.792V370h40v50.792C351.577,411.674,411.674,351.577,420.792,276z"/>
<g>
</g>
<g>
</g>
<g>
</g>
<g>
</g>
<g>
</g>
<g>
</g>
<g>
</g>
<g>
</g>
<g>
</g>
<g>
</g>
<g>
</g>
<g>
</g>
<g>
</g>
<g>
</g>
<g>
</g>
</svg>
