<?xml version="1.0" encoding="iso-8859-1"?>
<!-- Generator: Adobe Illustrator 19.0.0, SVG Export Plug-In . SVG Version: 6.00 Build 0)  -->
<svg version="1.1" id="Capa_1" xmlns="http://www.w3.org/2000/svg" xmlns:xlink="http://www.w3.org/1999/xlink" x="0px" y="0px"
	 viewBox="0 0 512 512" style="enable-background:new 0 0 512 512;" xml:space="preserve">
<linearGradient id="SVGID_1_" gradientUnits="userSpaceOnUse" x1="498.8982" y1="369.1642" x2="498.8991" y2="369.1642" gradientTransform="matrix(1.0006 0 0 -1.0006 0.0299 514.3981)">
	<stop  offset="0" style="stop-color:#2AF598"/>
	<stop  offset="1" style="stop-color:#009EFD"/>
</linearGradient>
<polygon style="fill:url(#SVGID_1_);" points="499.232,145.008 499.232,145.008 499.233,145.009 "/>
<linearGradient id="SVGID_2_" gradientUnits="userSpaceOnUse" x1="255.8141" y1="490.4185" x2="255.8141" y2="26.0626" gradientTransform="matrix(1.0006 0 0 -1.0006 0.0299 514.3981)">
	<stop  offset="0" style="stop-color:#2AF598"/>
	<stop  offset="1" style="stop-color:#009EFD"/>
</linearGradient>
<path style="fill:url(#SVGID_2_);" d="M499.232,145.008L389.819,36.278c-16.926-16.818-44.455-16.805-61.432,0.09L127.135,238.516
	v8.263c0,53.958-34.948,116.624-41.162,127.337L0,464.394l123.325,23.926l38.993-38.604c12.845-7.092,76.992-41.029,127.949-41.029
	h8.34L499.31,206.235c8.188-8.176,12.695-19.038,12.69-30.592C511.995,164.064,507.46,153.184,499.232,145.008z M162.866,286.543
	l86.839,86.762c-39.237,8.297-76.746,25.744-96.168,35.73l-26.531-26.378C137.253,363.353,154.799,326.395,162.866,286.543z
	 M79.423,439.031l23.11-24.268l19.059,18.95l-11.401,11.288L79.423,439.031z M291.76,358.744L177.535,244.621L304.709,116.88
	l113.955,113.853L291.76,358.744z M471.023,177.918l-24.181,24.391L332.948,88.516l23.738-23.845
	c1.334-1.327,3.587-1.328,4.921-0.002L471.021,173.4l0.001,0.001c0.787,0.782,0.954,1.661,0.954,2.259
	C471.976,176.257,471.811,177.136,471.023,177.918z"/>
<g>
</g>
<g>
</g>
<g>
</g>
<g>
</g>
<g>
</g>
<g>
</g>
<g>
</g>
<g>
</g>
<g>
</g>
<g>
</g>
<g>
</g>
<g>
</g>
<g>
</g>
<g>
</g>
<g>
</g>
</svg>
