<?xml version="1.0" encoding="iso-8859-1"?>
<!-- Generator: Adobe Illustrator 19.0.0, SVG Export Plug-In . SVG Version: 6.00 Build 0)  -->
<svg version="1.1" id="Capa_1" xmlns="http://www.w3.org/2000/svg" xmlns:xlink="http://www.w3.org/1999/xlink" x="0px" y="0px"
	 viewBox="0 0 512 512" style="enable-background:new 0 0 512 512;" xml:space="preserve">
<linearGradient id="SVGID_1_" gradientUnits="userSpaceOnUse" x1="256.5957" y1="513.2285" x2="256.5957" y2="1.2285" gradientTransform="matrix(0.9981 0 0 -0.9981 -0.0955 512.7271)">
	<stop  offset="0" style="stop-color:#2AF598"/>
	<stop  offset="1" style="stop-color:#009EFD"/>
</linearGradient>
<path style="fill:url(#SVGID_1_);" d="M374.226,40.421h-70.819V0.499h70.819c33.594,0,60.924,27.311,60.924,60.881v70.862h-39.922
	V61.38C395.228,49.823,385.806,40.421,374.226,40.421z M395.271,263.984h39.922v-91.821h-39.922V263.984z M39.922,61.467
	c0-11.581,9.402-21.002,20.959-21.002h70.862V0.543H60.881C27.311,0.543,0,27.874,0,61.467v70.819h39.922V61.467z M171.665,40.421
	h91.821V0.499h-91.821V40.421z M171.665,435.649h91.821v-39.922h-91.821V435.649z M39.965,374.768v-70.862H0.043v70.862
	c0,33.57,27.331,60.881,60.924,60.881h70.819v-39.922H60.968C49.387,395.727,39.965,386.325,39.965,374.768z M39.922,172.164H0
	v91.821h39.922V172.164z M512,395.727h-76.85v-91.821h-39.922v91.821h-91.821v39.922h91.821v75.852h39.922v-75.852H512V395.727z"/>
<g>
</g>
<g>
</g>
<g>
</g>
<g>
</g>
<g>
</g>
<g>
</g>
<g>
</g>
<g>
</g>
<g>
</g>
<g>
</g>
<g>
</g>
<g>
</g>
<g>
</g>
<g>
</g>
<g>
</g>
</svg>
