<?xml version="1.0" encoding="iso-8859-1"?>
<!-- Generator: Adobe Illustrator 19.0.0, SVG Export Plug-In . SVG Version: 6.00 Build 0)  -->
<svg version="1.1" id="Capa_1" xmlns="http://www.w3.org/2000/svg" xmlns:xlink="http://www.w3.org/1999/xlink" x="0px" y="0px"
	 viewBox="0 0 512 512" style="enable-background:new 0 0 512 512;" xml:space="preserve">
<linearGradient id="SVGID_1_" gradientUnits="userSpaceOnUse" x1="256" y1="2" x2="256" y2="514" gradientTransform="matrix(1 0 0 -1 0 514)">
	<stop  offset="0" style="stop-color:#009EFD"/>
	<stop  offset="1" style="stop-color:#2AF598"/>
</linearGradient>
<path style="fill:url(#SVGID_1_);" d="M276,0h-40v276h40V0z M501,267c0,65.4-25.5,127-71.8,173.2C383,486.5,321.4,512,256,512
	s-127-25.5-173.2-71.8S11,332.4,11,267S36.5,140,82.8,93.8C114.5,62,153.5,40,196,29.4V71C112.1,96.7,51,174.8,51,267
	c0,113,92,205,205,205s205-92,205-205c0-92.2-61.1-170.3-145-196V29.4C358.5,40,397.5,62,429.2,93.8C475.5,140,501,201.6,501,267z"
	/>
<g>
</g>
<g>
</g>
<g>
</g>
<g>
</g>
<g>
</g>
<g>
</g>
<g>
</g>
<g>
</g>
<g>
</g>
<g>
</g>
<g>
</g>
<g>
</g>
<g>
</g>
<g>
</g>
<g>
</g>
</svg>
