<?xml version="1.0" encoding="iso-8859-1"?>
<!-- Generator: Adobe Illustrator 19.0.0, SVG Export Plug-In . SVG Version: 6.00 Build 0)  -->
<svg version="1.1" id="Capa_1" xmlns="http://www.w3.org/2000/svg" xmlns:xlink="http://www.w3.org/1999/xlink" x="0px" y="0px"
	 viewBox="0 0 512.001 512.001" style="enable-background:new 0 0 512.001 512.001;" xml:space="preserve">
<linearGradient id="SVGID_1_" gradientUnits="userSpaceOnUse" x1="255.9856" y1="514.0089" x2="255.9856" y2="2.0328" gradientTransform="matrix(1 0 0 -1 0.0024 514.0339)">
	<stop  offset="0" style="stop-color:#2AF598"/>
	<stop  offset="1" style="stop-color:#009EFD"/>
</linearGradient>
<path style="fill:url(#SVGID_1_);" d="M345.167,286.308c-43.303,29.91-69.155,78.392-69.155,129.688v20.001H236.01v-20.001
	c0-64.437,32.308-125.223,86.423-162.602c35.531-24.542,54.642-66.609,49.872-109.786c-5.929-53.688-49.2-96.959-102.888-102.888
	c-33.867-3.739-66.343,6.587-91.457,29.08c-24.777,22.191-38.988,53.981-38.988,87.214v20.001H98.97v-20.001
	c0-44.593,19.064-87.243,52.302-117.012C184.483,10.258,229.148-3.972,273.809,0.96c72.144,7.967,130.288,66.112,138.257,138.257
	C418.451,197.035,392.817,253.396,345.167,286.308z M236.009,512.001h40.002v-40.002h-40.002L236.009,512.001L236.009,512.001z"/>
<g>
</g>
<g>
</g>
<g>
</g>
<g>
</g>
<g>
</g>
<g>
</g>
<g>
</g>
<g>
</g>
<g>
</g>
<g>
</g>
<g>
</g>
<g>
</g>
<g>
</g>
<g>
</g>
<g>
</g>
</svg>
