<?xml version="1.0" encoding="iso-8859-1"?>
<!-- Generator: Adobe Illustrator 19.0.0, SVG Export Plug-In . SVG Version: 6.00 Build 0)  -->
<svg version="1.1" id="Capa_1" xmlns="http://www.w3.org/2000/svg" xmlns:xlink="http://www.w3.org/1999/xlink" x="0px" y="0px"
	 viewBox="0 0 512 512" style="enable-background:new 0 0 512 512;" xml:space="preserve">
<linearGradient id="SVGID_1_" gradientUnits="userSpaceOnUse" x1="256.1019" y1="513.9536" x2="256.1019" y2="1.7826" gradientTransform="matrix(0.9997 0 0 -0.9997 -0.0164 513.782)">
	<stop  offset="0" style="stop-color:#2AF598"/>
	<stop  offset="1" style="stop-color:#009EFD"/>
</linearGradient>
<path style="fill:url(#SVGID_1_);" d="M473.997,36.283C472.164,34.801,428.292,0,358.968,0c-36.002,0-72.119,17.021-107.046,33.482
	c-32.374,15.257-62.952,29.668-90.005,29.668c-41.771,0-76.389-15.511-91.354-23.438V0.171H30.575V512h39.987V343.408
	c21.86,9.474,54.016,19.641,91.354,19.641c36.056,0,72.195-17.254,107.143-33.941c32.352-15.448,62.911-30.038,89.908-30.038
	c53.773,0,88.559,26.366,89.94,27.434l32.517,26.845V42.285L473.997,36.283z M441.438,276.513
	c-19.844-8.831-48.011-17.428-82.47-17.428c-36.054,0-72.191,17.254-107.138,33.94c-32.353,15.448-62.914,30.039-89.913,30.039
	c-40.93,0-74.999-15.336-90.355-23.58V84.382c21.806,9.114,53.567,18.755,90.355,18.755c36.004,0,72.122-17.021,107.051-33.484
	c32.372-15.256,62.95-29.666,90-29.666c39.922,0,69.379,14.533,82.47,22.456L441.438,276.513L441.438,276.513z"/>
<g>
</g>
<g>
</g>
<g>
</g>
<g>
</g>
<g>
</g>
<g>
</g>
<g>
</g>
<g>
</g>
<g>
</g>
<g>
</g>
<g>
</g>
<g>
</g>
<g>
</g>
<g>
</g>
<g>
</g>
</svg>
