<?xml version="1.0" encoding="iso-8859-1"?>
<!-- Generator: Adobe Illustrator 19.0.0, SVG Export Plug-In . SVG Version: 6.00 Build 0)  -->
<svg version="1.1" id="Capa_1" xmlns="http://www.w3.org/2000/svg" xmlns:xlink="http://www.w3.org/1999/xlink" x="0px" y="0px"
	 viewBox="0 0 512 512" style="enable-background:new 0 0 512 512;" xml:space="preserve">
<linearGradient id="SVGID_1_" gradientUnits="userSpaceOnUse" x1="256.019" y1="513.9835" x2="256.019" y2="1.9687" gradientTransform="matrix(0.9999 0 0 -0.9999 -0.0031 513.9599)">
	<stop  offset="0" style="stop-color:#2AF598"/>
	<stop  offset="1" style="stop-color:#009EFD"/>
</linearGradient>
<path style="fill:url(#SVGID_1_);" d="M255.984,511.991c-68.376,0-132.66-26.626-181.009-74.975S0,324.384,0,256.007
	S26.627,123.349,74.975,74.999S187.608,0.023,255.984,0.023c1.278,0,2.595-0.003,3.938-0.007c9.831-0.026,20.957-0.057,30.583,1.167
	l17.476,2.223v35.911l-16.798,2.724c-74.859,12.138-129.193,76.472-129.193,152.97c0,85.462,69.529,154.99,154.99,154.99
	c76.659,0,141.109-54.334,153.248-129.193l2.724-16.798h35.561l2.285,17.394c1.277,9.729,1.229,20.317,1.186,29.658
	c-0.008,1.67-0.016,3.323-0.016,4.945c0,68.376-26.627,132.659-74.975,181.009S324.36,511.991,255.984,511.991z M183.341,52.589
	C99.877,82.489,39.998,162.39,39.998,256.007c0,119.096,96.891,215.987,215.987,215.987c93.509,0,173.331-59.737,203.312-143.048
	c-4.811,5.087-9.909,9.927-15.287,14.501c-35.296,30.02-80.408,46.552-127.029,46.552c-107.516,0-194.988-87.472-194.988-194.988
	c0-46.611,16.537-91.681,46.566-126.907C173.215,62.641,178.151,57.465,183.341,52.589z"/>
<g>
</g>
<g>
</g>
<g>
</g>
<g>
</g>
<g>
</g>
<g>
</g>
<g>
</g>
<g>
</g>
<g>
</g>
<g>
</g>
<g>
</g>
<g>
</g>
<g>
</g>
<g>
</g>
<g>
</g>
</svg>
