<?xml version="1.0" encoding="iso-8859-1"?>
<!-- Generator: Adobe Illustrator 19.0.0, SVG Export Plug-In . SVG Version: 6.00 Build 0)  -->
<svg version="1.1" id="Capa_1" xmlns="http://www.w3.org/2000/svg" xmlns:xlink="http://www.w3.org/1999/xlink" x="0px" y="0px"
	 viewBox="0 0 512 512" style="enable-background:new 0 0 512 512;" xml:space="preserve">
<linearGradient id="SVGID_1_" gradientUnits="userSpaceOnUse" x1="256" y1="435" x2="256" y2="81" gradientTransform="matrix(1 0 0 -1 0 514)">
	<stop  offset="0" style="stop-color:#2AF598"/>
	<stop  offset="1" style="stop-color:#009EFD"/>
</linearGradient>
<path style="fill:url(#SVGID_1_);" d="M512,105.639l-158,79V139c0-33.084-26.916-60-60-60H60c-33.084,0-60,26.916-60,60v234
	c0,33.084,26.916,60,60,60h234c33.084,0,60-26.916,60-60v-44.639l158,79V105.639z M314,373c0,11.028-8.972,20-20,20H60
	c-11.028,0-20-8.972-20-20V139c0-11.028,8.972-20,20-20h234c11.028,0,20,8.972,20,20V373z M472,342.639l-118-59v-54.278l118-59
	V342.639z"/>
<g>
</g>
<g>
</g>
<g>
</g>
<g>
</g>
<g>
</g>
<g>
</g>
<g>
</g>
<g>
</g>
<g>
</g>
<g>
</g>
<g>
</g>
<g>
</g>
<g>
</g>
<g>
</g>
<g>
</g>
</svg>
