<?xml version="1.0" encoding="iso-8859-1"?>
<!-- Generator: Adobe Illustrator 19.0.0, SVG Export Plug-In . SVG Version: 6.00 Build 0)  -->
<svg version="1.1" id="Capa_1" xmlns="http://www.w3.org/2000/svg" xmlns:xlink="http://www.w3.org/1999/xlink" x="0px" y="0px"
	 viewBox="0 0 512 512" style="enable-background:new 0 0 512 512;" xml:space="preserve">
<linearGradient id="SVGID_1_" gradientUnits="userSpaceOnUse" x1="255.6443" y1="514.162" x2="255.6443" y2="2.7591" gradientTransform="matrix(1.0012 0 0 -1.0012 0.0572 514.7622)">
	<stop  offset="0" style="stop-color:#2AF598"/>
	<stop  offset="1" style="stop-color:#009EFD"/>
</linearGradient>
<path style="fill:url(#SVGID_1_);" d="M418.187,20.753c-0.668,0.44-68.016,43.925-177.963,43.925h-20.023v269.167
	c-16.429-12.189-36.754-19.41-58.735-19.41c-54.467,0-98.781,44.314-98.781,98.782S106.998,512,161.465,512
	c54.469,0,98.782-44.314,98.782-98.782V198.847c117.992-4.615,178.366-48.888,181.011-50.871l8.009-6.007V37.447L449.316,0
	L418.187,20.753z M161.465,471.953c-32.387,0-58.734-26.349-58.734-58.735s26.348-58.735,58.734-58.735s58.735,26.349,58.735,58.735
	S193.851,471.953,161.465,471.953z M409.221,120.961c-7.241,4.179-19.32,10.395-36.119,16.564
	c-23.882,8.769-61.923,19.033-112.855,21.234v-54.468c67.675-2.945,118.78-20.287,148.974-33.784L409.221,120.961L409.221,120.961z"
	/>
<g>
</g>
<g>
</g>
<g>
</g>
<g>
</g>
<g>
</g>
<g>
</g>
<g>
</g>
<g>
</g>
<g>
</g>
<g>
</g>
<g>
</g>
<g>
</g>
<g>
</g>
<g>
</g>
<g>
</g>
</svg>
