<?xml version="1.0" encoding="iso-8859-1"?>
<!-- Generator: Adobe Illustrator 19.0.0, SVG Export Plug-In . SVG Version: 6.00 Build 0)  -->
<svg version="1.1" id="Capa_1" xmlns="http://www.w3.org/2000/svg" xmlns:xlink="http://www.w3.org/1999/xlink" x="0px" y="0px"
	 viewBox="0 0 512 512" style="enable-background:new 0 0 512 512;" xml:space="preserve">
<linearGradient id="SVGID_1_" gradientUnits="userSpaceOnUse" x1="256" y1="514" x2="256" y2="2" gradientTransform="matrix(1 0 0 -1 0 514)">
	<stop  offset="0" style="stop-color:#2AF598"/>
	<stop  offset="1" style="stop-color:#009EFD"/>
</linearGradient>
<path style="fill:url(#SVGID_1_);" d="M401.5,250.306V100c0-33.084-26.916-60-60-60h-65.427C267.818,16.719,245.575,0,219.5,0
	s-48.318,16.719-56.573,40H96.5c-33.084,0-60,26.916-60,60v312c0,33.084,26.916,60,60,60h129.439c8.255,23.278,30.489,40,56.573,40
	l132.989-0.074c33.084,0,60-26.913,60-59.992V324.728L401.5,250.306z M361.5,266.808l45.856,46.117H381.5c-11.028,0-20-8.972-20-20
	V266.808z M199.5,80V60c0-11.028,8.972-20,20-20s20,8.972,20,20v20h40v39h-120V80H199.5z M76.5,412V100c0-11.028,8.972-20,20-20h23
	v79h200V80h22c11.028,0,20,8.972,20,20v110.079L350.484,199H282.5c-33.084,0-60,26.913-60,59.993V432h-126
	C85.472,432,76.5,423.028,76.5,412z M415.489,471.926L282.5,472c-11.028,0-20-8.969-20-19.993V258.993
	c0-11.024,8.972-19.993,20-19.993h39v53.926c0,33.084,26.916,60,60,60h54v99.008C435.5,462.958,426.528,471.926,415.489,471.926z"/>
<g>
</g>
<g>
</g>
<g>
</g>
<g>
</g>
<g>
</g>
<g>
</g>
<g>
</g>
<g>
</g>
<g>
</g>
<g>
</g>
<g>
</g>
<g>
</g>
<g>
</g>
<g>
</g>
<g>
</g>
</svg>
