<?xml version="1.0" encoding="iso-8859-1"?>
<!-- Generator: Adobe Illustrator 19.0.0, SVG Export Plug-In . SVG Version: 6.00 Build 0)  -->
<svg version="1.1" id="Capa_1" xmlns="http://www.w3.org/2000/svg" xmlns:xlink="http://www.w3.org/1999/xlink" x="0px" y="0px"
	 viewBox="0 0 512 512" style="enable-background:new 0 0 512 512;" xml:space="preserve">
<linearGradient id="SVGID_1_" gradientUnits="userSpaceOnUse" x1="256" y1="514" x2="256" y2="2" gradientTransform="matrix(1 0 0 -1 0 514)">
	<stop  offset="0" style="stop-color:#2AF598"/>
	<stop  offset="1" style="stop-color:#009EFD"/>
</linearGradient>
<path style="fill:url(#SVGID_1_);" d="M276,472h106v40H132v-40h104v-90h-6.164C175.338,382,131,337.662,131,283.164v-67.879
	L205.716,290H171.41c3.4,29.232,28.297,52,58.426,52h27.879l38.923,38.923c-4.764,0.707-9.6,1.077-14.475,1.077H276V472z
	 M511.642,483.358l-28.284,28.284l-483-483L28.642,0.358L131,102.716v-3.879c0-1.549,0.041-3.088,0.111-4.619V91h0.199
	c4.008-50.849,46.665-91,98.526-91h52.327c51.861,0,94.518,40.151,98.526,91h0.199v3.218c0.071,1.531,0.111,3.07,0.111,4.619
	v184.327c0,19.191-5.573,37.783-15.869,53.683L511.642,483.358z M335.743,307.459c2.5-5.512,4.138-11.396,4.845-17.459h-22.304
	L335.743,307.459z M171.537,91H236v40h-65v11.716L199.284,171H236v36.716L278.284,250H341v-39h-65v-40h65v-40h-65V91h64.463
	c-3.846-28.749-28.515-51-58.299-51h-52.327C200.052,40,175.383,62.251,171.537,91z"/>
<g>
</g>
<g>
</g>
<g>
</g>
<g>
</g>
<g>
</g>
<g>
</g>
<g>
</g>
<g>
</g>
<g>
</g>
<g>
</g>
<g>
</g>
<g>
</g>
<g>
</g>
<g>
</g>
<g>
</g>
</svg>
