<?xml version="1.0" encoding="iso-8859-1"?>
<!-- Generator: Adobe Illustrator 19.0.0, SVG Export Plug-In . SVG Version: 6.00 Build 0)  -->
<svg version="1.1" id="Capa_1" xmlns="http://www.w3.org/2000/svg" xmlns:xlink="http://www.w3.org/1999/xlink" x="0px" y="0px"
	 viewBox="0 0 512 512" style="enable-background:new 0 0 512 512;" xml:space="preserve">
<linearGradient id="SVGID_1_" gradientUnits="userSpaceOnUse" x1="256.5957" y1="513.7285" x2="256.5957" y2="0.7285" gradientTransform="matrix(0.9981 0 0 -0.9981 -0.0955 512.7271)">
	<stop  offset="0" style="stop-color:#2AF598"/>
	<stop  offset="1" style="stop-color:#009EFD"/>
</linearGradient>
<path style="fill:url(#SVGID_1_);" d="M256,0C159.142,0,80.343,78.799,80.343,175.657v18.063v1.898v256.499
	c0,33.019,26.864,59.883,59.883,59.883h231.548c33.019,0,59.883-26.864,59.883-59.883v-94.815v-19.961V195.618v-1.898v-18.063
	C431.657,78.799,352.858,0,256,0z M256,39.922c74.21,0,134.69,59.864,135.711,133.837H120.289
	C121.31,99.786,181.79,39.922,256,39.922z M371.774,472.078H140.226c-11.007,0-19.961-8.954-19.961-19.961V213.681h31.938v80.744
	c0,33.02,26.864,59.883,59.883,59.883s59.883-26.864,59.883-59.883v-0.803c0-11.007,8.954-19.961,19.961-19.961
	c11.007,0,19.961,8.954,19.961,19.961v63.681c0,33.02,26.864,59.883,59.883,59.883c6.997,0,13.713-1.218,19.961-3.433v38.365
	C391.735,463.123,382.78,472.078,371.774,472.078z M391.735,357.302c0,11.007-8.954,19.961-19.961,19.961
	c-11.007,0-19.961-8.954-19.961-19.961v-63.681c0-33.019-26.864-59.883-59.883-59.883s-59.883,26.864-59.883,59.883v0.803
	c0,11.007-8.955,19.961-19.961,19.961s-19.961-8.954-19.961-19.961v-80.744h199.61v123.66V357.302z"/>
<g>
</g>
<g>
</g>
<g>
</g>
<g>
</g>
<g>
</g>
<g>
</g>
<g>
</g>
<g>
</g>
<g>
</g>
<g>
</g>
<g>
</g>
<g>
</g>
<g>
</g>
<g>
</g>
<g>
</g>
</svg>
