<?xml version="1.0" encoding="iso-8859-1"?>
<!-- Generator: Adobe Illustrator 19.0.0, SVG Export Plug-In . SVG Version: 6.00 Build 0)  -->
<svg version="1.1" id="Capa_1" xmlns="http://www.w3.org/2000/svg" xmlns:xlink="http://www.w3.org/1999/xlink" x="0px" y="0px"
	 viewBox="0 0 512 512" style="enable-background:new 0 0 512 512;" xml:space="preserve">
<linearGradient id="SVGID_1_" gradientUnits="userSpaceOnUse" x1="256" y1="514" x2="256" y2="2" gradientTransform="matrix(1 0 0 -1 0 514)">
	<stop  offset="0" style="stop-color:#2AF598"/>
	<stop  offset="1" style="stop-color:#009EFD"/>
</linearGradient>
<path style="fill:url(#SVGID_1_);" d="M453.409,162c-10.42,0-20.361,2.951-29.035,8.464C413.917,157.388,397.906,149,379.98,149
	c-12.753,0-24.54,4.242-34.046,11.397C335.639,150.266,321.53,144,305.98,144c-5.919,0-11.629,0.908-17,2.59V57
	c0-31.43-25.57-57-57-57s-57,25.57-57,57v248.457c0,10.176-6.631,24.544-17.48,25.506c-0.058-0.019-0.125-0.042-0.2-0.069
	l-74.352-28.378l-0.662-0.24c-20.208-6.908-37.601-6.88-51.695,0.083C18.079,308.541,9.1,319.535,3.903,335.035
	c-13.527,40.347,10.841,60.796,33.762,74.089l130.541,82.17C187.164,504.842,209.411,512,232.591,512H400.48
	c30.045,0,58.159-11.756,79.164-33.102c20.853-21.192,32.336-49.416,32.336-79.472V219.214C511.98,186.062,487.347,162,453.409,162z
	 M471.98,399.426c0,40.018-32.075,72.574-71.5,72.574H232.591c-14.929,0-29.273-4.67-41.483-13.506l-0.524-0.379L58.66,375.074
	l-0.656-0.396c-11.948-6.897-16.006-11.668-17.306-14.456c-0.531-1.139-1.775-3.805,1.131-12.473
	c1.688-5.033,3.869-8.24,6.482-9.531c3.973-1.963,11.514-1.306,20.722,1.799l74.131,28.294l0.202,0.076
	c5.217,1.927,10.123,2.775,15.007,2.586c34.964-1.335,56.607-35.049,56.607-65.519V57c0-9.374,7.626-17,17-17s17,7.626,17,17v144
	v22.96V249h40v-25.04V201c0-9.374,7.626-17,17-17s17,7.626,17,17v48h40v-42.577c0-9.607,7.626-17.423,17-17.423s17,7.816,17,17.423
	v14.148V246v3h40v-3v-25.429c0-8.784,6.747-18.571,16.429-18.571c5.584,0,18.571,1.677,18.571,17.214L471.98,399.426L471.98,399.426
	z"/>
<g>
</g>
<g>
</g>
<g>
</g>
<g>
</g>
<g>
</g>
<g>
</g>
<g>
</g>
<g>
</g>
<g>
</g>
<g>
</g>
<g>
</g>
<g>
</g>
<g>
</g>
<g>
</g>
<g>
</g>
</svg>
