<?xml version="1.0" encoding="iso-8859-1"?>
<!-- Generator: Adobe Illustrator 19.0.0, SVG Export Plug-In . SVG Version: 6.00 Build 0)  -->
<svg version="1.1" id="Capa_1" xmlns="http://www.w3.org/2000/svg" xmlns:xlink="http://www.w3.org/1999/xlink" x="0px" y="0px"
	 viewBox="0 0 512 512" style="enable-background:new 0 0 512 512;" xml:space="preserve">
<linearGradient id="SVGID_1_" gradientUnits="userSpaceOnUse" x1="256" y1="513.978" x2="256" y2="2.018" gradientTransform="matrix(1 0 0 -1 0 513.998)">
	<stop  offset="0" style="stop-color:#2AF598"/>
	<stop  offset="1" style="stop-color:#009EFD"/>
</linearGradient>
<path style="fill:url(#SVGID_1_);" d="M512,206.019c0-18.593-8.951-35.131-22.767-45.543c4.887-8.381,7.701-18.096,7.701-28.457
	c0-21.657-12.232-40.529-30.198-50.173c3.44-7.206,5.265-15.082,5.265-23.255c0-33.938-24.062-58.571-57.214-58.571H150h-20H0v324
	h115.739c14.111,23.667,75.2,126.171,88.939,149.973c10.656,18.46,25.919,37.987,52.458,37.987c6.555,0,13.798-1.191,21.829-3.884
	c16.376-5.491,27.479-15.148,33-28.705c5.18-12.717,5.255-27.988,0.236-48.059l-0.265-1.061l-27.922-75.498
	c-0.039-0.106-0.07-0.198-0.097-0.274c0.962-10.849,15.331-17.48,25.507-17.48H441c31.43,0,57-25.57,57-57
	c0-10.611-2.923-20.548-7.994-29.065C503.378,240.513,512,224.259,512,206.019z M110,284.019H40v-244h70V284.019z M441,297.019
	H309.426c-30.47,0-64.183,21.643-65.519,56.603c-0.188,4.881,0.658,9.792,2.59,15.019l27.151,73.416
	c3.336,13.834,2.242,19.864,1.272,22.245c-0.418,1.026-1.396,3.43-8.671,5.869c-8.671,2.905-11.334,1.662-12.474,1.131
	c-2.787-1.3-7.558-5.358-14.455-17.306c-14.094-24.42-75.203-126.949-89.32-150.624V40.019h264.786
	C430.322,40.019,432,53.006,432,58.59c0,9.682-9.787,16.429-18.571,16.429h-3.024H395v40h15.404h3.024h26.082
	c9.607,0,17.423,7.626,17.423,17s-7.815,17-17.423,17h-35.19v40H455c9.374,0,17,7.626,17,17s-7.626,17-17,17h-14h-13h-16.96v40H428
	h13c9.374,0,17,7.626,17,17S450.374,297.019,441,297.019z"/>
<g>
</g>
<g>
</g>
<g>
</g>
<g>
</g>
<g>
</g>
<g>
</g>
<g>
</g>
<g>
</g>
<g>
</g>
<g>
</g>
<g>
</g>
<g>
</g>
<g>
</g>
<g>
</g>
<g>
</g>
</svg>
