<?xml version="1.0" encoding="iso-8859-1"?>
<!-- Generator: Adobe Illustrator 19.0.0, SVG Export Plug-In . SVG Version: 6.00 Build 0)  -->
<svg version="1.1" id="Capa_1" xmlns="http://www.w3.org/2000/svg" xmlns:xlink="http://www.w3.org/1999/xlink" x="0px" y="0px"
	 viewBox="0 0 512 512" style="enable-background:new 0 0 512 512;" xml:space="preserve">
<linearGradient id="SVGID_1_" gradientUnits="userSpaceOnUse" x1="256" y1="513.9793" x2="256" y2="2.0198" gradientTransform="matrix(1 0 0 -1 0 513.9996)">
	<stop  offset="0" style="stop-color:#2AF598"/>
	<stop  offset="1" style="stop-color:#009EFD"/>
</linearGradient>
<path style="fill:url(#SVGID_1_);" d="M396.261,187.98c-14.111-23.667-75.2-126.171-88.939-149.973
	c-13.289-23.019-33.74-47.697-74.288-34.103c-16.376,5.491-27.479,15.148-33,28.705c-5.18,12.717-5.255,27.988-0.236,48.059
	l0.265,1.061l27.922,75.498c0.039,0.106,0.07,0.198,0.097,0.274c-0.962,10.849-15.331,17.48-25.507,17.48H71
	c-31.43,0-57,25.57-57,57c0,10.611,2.923,20.548,7.994,29.065C8.622,271.485,0,287.74,0,305.98c0,18.593,8.951,35.131,22.767,45.543
	c-4.887,8.381-7.701,18.096-7.701,28.457c0,21.657,12.232,40.529,30.198,50.173C41.824,437.359,40,445.235,40,453.409
	c0,33.938,24.062,58.571,57.214,58.571H362h20h130v-324L396.261,187.98L396.261,187.98z M97.214,471.98
	C81.678,471.98,80,458.993,80,453.409c0-9.682,9.787-16.429,18.571-16.429h3.024H117v-40h-15.404h-3.024H72.489
	c-9.607,0-17.423-7.626-17.423-17s7.815-17,17.423-17h35.19v-40H57c-9.374,0-17-7.626-17-17s7.626-17,17-17h14h13h16.96v-40H84H71
	c-9.374,0-17-7.626-17-17s7.626-17,17-17h131.574c30.47,0,64.183-21.643,65.519-56.603c0.188-4.881-0.658-9.792-2.59-15.019
	l-27.151-73.416c-3.336-13.834-2.242-19.864-1.272-22.245c0.418-1.026,1.396-3.43,8.671-5.869
	c8.669-2.906,11.333-1.663,12.474-1.131c2.787,1.3,7.558,5.358,14.455,17.306c14.094,24.42,75.203,126.948,89.32,150.624V471.98
	H97.214z M472,471.98h-70v-244h70V471.98z"/>
<g>
</g>
<g>
</g>
<g>
</g>
<g>
</g>
<g>
</g>
<g>
</g>
<g>
</g>
<g>
</g>
<g>
</g>
<g>
</g>
<g>
</g>
<g>
</g>
<g>
</g>
<g>
</g>
<g>
</g>
</svg>
