<?xml version="1.0" encoding="iso-8859-1"?>
<!-- Generator: Adobe Illustrator 19.0.0, SVG Export Plug-In . SVG Version: 6.00 Build 0)  -->
<svg version="1.1" id="Capa_1" xmlns="http://www.w3.org/2000/svg" xmlns:xlink="http://www.w3.org/1999/xlink" x="0px" y="0px"
	 viewBox="0 0 512 512" style="enable-background:new 0 0 512 512;" xml:space="preserve">
<linearGradient id="SVGID_1_" gradientUnits="userSpaceOnUse" x1="256" y1="514" x2="256" y2="2" gradientTransform="matrix(1 0 0 -1 0 514)">
	<stop  offset="0" style="stop-color:#2AF598"/>
	<stop  offset="1" style="stop-color:#009EFD"/>
</linearGradient>
<path style="fill:url(#SVGID_1_);" d="M437.02,74.98C388.667,26.629,324.38,0,256,0S123.333,26.629,74.98,74.98
	C26.629,123.333,0,187.62,0,256s26.629,132.667,74.98,181.02C123.333,485.371,187.62,512,256,512s132.667-26.629,181.02-74.98
	C485.371,388.667,512,324.38,512,256S485.371,123.333,437.02,74.98z M256,472c-119.103,0-216-96.897-216-216S136.897,40,256,40
	s216,96.897,216,216S375.103,472,256,472z M370.283,274.445l0.173-0.16C370.113,274.592,335.32,305,254.4,305
	c-81.858,0-121.302-31.128-121.691-31.442l0.13,0.107l-25.678,30.67C109.145,305.996,156.854,345,254.4,345
	c8.255,0,16.112-0.287,23.6-0.802V358c0,33.084,26.916,60,60,60s60-26.916,60-60v-55h-0.807L370.283,274.445z M338,378
	c-11.028,0-20-8.972-20-20v-19.244c15.797-3.314,29.08-7.617,40-12.071V358C358,369.028,349.028,378,338,378z M312,180.122
	c0-17.673,14.327-32,32-32s32,14.327,32,32s-14.327,32-32,32S312,197.795,312,180.122z M136,180.122c0-17.673,14.327-32,32-32
	s32,14.327,32,32s-14.327,32-32,32S136,197.795,136,180.122z"/>
<g>
</g>
<g>
</g>
<g>
</g>
<g>
</g>
<g>
</g>
<g>
</g>
<g>
</g>
<g>
</g>
<g>
</g>
<g>
</g>
<g>
</g>
<g>
</g>
<g>
</g>
<g>
</g>
<g>
</g>
</svg>
