<?xml version="1.0" encoding="iso-8859-1"?>
<!-- Generator: Adobe Illustrator 19.0.0, SVG Export Plug-In . SVG Version: 6.00 Build 0)  -->
<svg version="1.1" id="Capa_1" xmlns="http://www.w3.org/2000/svg" xmlns:xlink="http://www.w3.org/1999/xlink" x="0px" y="0px"
	 viewBox="0 0 511.999 511.999" style="enable-background:new 0 0 511.999 511.999;" xml:space="preserve">
<linearGradient id="SVGID_1_" gradientUnits="userSpaceOnUse" x1="256.6333" y1="513.7089" x2="256.6333" y2="0.6461" gradientTransform="matrix(0.9979 0 0 -0.9979 -0.1016 512.6436)">
	<stop  offset="0" style="stop-color:#2AF598"/>
	<stop  offset="1" style="stop-color:#009EFD"/>
</linearGradient>
<path style="fill:url(#SVGID_1_);" d="M268.825,432.098h-39.917v-158.67h39.917V432.098z M348.659,273.428h-39.917v158.67h39.917
	V273.428z M188.991,273.428h-39.917v158.67h39.917V273.428z M471.101,182.453l-10.323,48.842l-36.278-7.669v228.497
	c0,33.015-26.86,59.876-59.876,59.876H133.106c-33.015,0-59.876-26.86-59.876-59.876V193.66h209.518l-243.15-51.401l10.323-48.839
	c3.304-15.632,12.497-29.042,25.887-37.759c13.389-8.717,29.374-11.698,45.004-8.394l60.343,12.756l2.648-12.526
	c6.829-32.302,38.666-53.026,70.965-46.198l68.345,14.447c15.647,3.307,29.071,12.511,37.796,25.914s11.71,29.402,8.402,45.05
	l-2.648,12.53l58.289,12.322C457.219,118.383,477.921,150.185,471.101,182.453z M384.584,233.577H113.148v218.546
	c0,11.005,8.953,19.959,19.959,19.959h231.519c11.005,0,19.959-8.953,19.959-19.959V233.577z M220.21,68.281l107.399,22.704
	l2.648-12.529c1.103-5.216,0.108-10.549-2.8-15.017s-7.383-7.535-12.599-8.638l-68.345-14.446
	c-10.767-2.276-21.379,4.631-23.655,15.399L220.21,68.281z M416.695,150.616L112.557,86.322c-5.198-1.099-10.516-0.108-14.971,2.792
	c-4.454,2.899-7.512,7.36-8.611,12.56l-2.069,9.787l343.072,72.524l2.069-9.788C434.316,163.463,427.429,152.885,416.695,150.616z"
	/>
<g>
</g>
<g>
</g>
<g>
</g>
<g>
</g>
<g>
</g>
<g>
</g>
<g>
</g>
<g>
</g>
<g>
</g>
<g>
</g>
<g>
</g>
<g>
</g>
<g>
</g>
<g>
</g>
<g>
</g>
</svg>
