<?xml version="1.0" encoding="iso-8859-1"?>
<!-- Generator: Adobe Illustrator 19.0.0, SVG Export Plug-In . SVG Version: 6.00 Build 0)  -->
<svg version="1.1" id="Capa_1" xmlns="http://www.w3.org/2000/svg" xmlns:xlink="http://www.w3.org/1999/xlink" x="0px" y="0px"
	 viewBox="0 0 512 512" style="enable-background:new 0 0 512 512;" xml:space="preserve">
<linearGradient id="SVGID_1_" gradientUnits="userSpaceOnUse" x1="256.2437" y1="513.822" x2="256.2437" y2="1.547" gradientTransform="matrix(0.9992 0 0 -0.9992 -0.0391 513.4788)">
	<stop  offset="0" style="stop-color:#2AF598"/>
	<stop  offset="1" style="stop-color:#009EFD"/>
</linearGradient>
<path style="fill:url(#SVGID_1_);" d="M308.465,175.207l57.954-57.954L308.465,59.3l28.261-28.261l57.954,57.954l57.954-57.954
	L480.895,59.3l-57.954,57.954l57.954,57.954l-28.261,28.261l-57.954-57.954l-57.954,57.954L308.465,175.207z M512,419.999
	l-66.842,67.074c-16.279,16.279-37.983,24.86-59.938,24.86c-12.434,0-24.948-2.751-36.609-8.414
	c-49.211-23.901-123.479-68.002-197.838-142.36C76.416,286.8,32.316,212.531,8.414,163.321
	C-7.248,131.072-0.639,92.274,24.86,66.775l67.15-66.708l136.305,137.121l-53.98,54.676c9.195,16.219,29.054,47.218,62.524,80.688
	c33.465,33.465,64.24,53.102,80.305,62.151l55.77-54.001L512,419.999z M455.549,420.024l-83.09-83.227l-47.467,45.962l-12.295-5.404
	c-2.007-0.882-49.799-22.238-104.1-76.54c-54.266-54.266-76.076-102.463-76.978-104.489l-5.55-12.462l45.985-46.579L91.834,56.582
	L53.075,95.083c-13.416,13.416-16.934,33.84-8.709,50.775c22.562,46.452,64.24,116.608,134.67,187.038
	c70.43,70.431,140.586,112.108,187.038,134.67c16.928,8.221,37.343,4.709,50.805-8.739L455.549,420.024z"/>
<g>
</g>
<g>
</g>
<g>
</g>
<g>
</g>
<g>
</g>
<g>
</g>
<g>
</g>
<g>
</g>
<g>
</g>
<g>
</g>
<g>
</g>
<g>
</g>
<g>
</g>
<g>
</g>
<g>
</g>
</svg>
