<?xml version="1.0" encoding="iso-8859-1"?>
<!-- Generator: Adobe Illustrator 19.0.0, SVG Export Plug-In . SVG Version: 6.00 Build 0)  -->
<svg version="1.1" id="Capa_1" xmlns="http://www.w3.org/2000/svg" xmlns:xlink="http://www.w3.org/1999/xlink" x="0px" y="0px"
	 viewBox="0 0 512 512" style="enable-background:new 0 0 512 512;" xml:space="preserve">
<linearGradient id="SVGID_1_" gradientUnits="userSpaceOnUse" x1="256.2437" y1="513.8215" x2="256.2437" y2="1.5455" gradientTransform="matrix(0.9992 0 0 -0.9992 -0.0391 513.4778)">
	<stop  offset="0" style="stop-color:#2AF598"/>
	<stop  offset="1" style="stop-color:#009EFD"/>
</linearGradient>
<path style="fill:url(#SVGID_1_);" d="M431.65,272.771l-28.261-28.261c37.622-37.623,37.622-98.84-0.001-136.463
	c-37.624-37.624-98.841-37.623-136.463-0.001l-28.261-28.261c53.206-53.206,139.779-53.206,192.987,0.001
	C484.856,132.991,484.856,219.564,431.65,272.771z M375.857,136.077c-22.397-22.397-58.841-22.398-81.239-0.001l28.261,28.262
	c3.3-3.301,7.69-5.119,12.358-5.119c4.667,0,9.056,1.818,12.357,5.12c3.301,3.3,5.119,7.689,5.119,12.357
	c0,4.668-1.818,9.057-5.119,12.358l28.262,28.261C398.255,194.917,398.254,158.473,375.857,136.077z M445.158,487.072L512,419.998
	L372.935,280.702l-55.77,54.001c-16.066-9.05-46.84-28.686-80.305-62.151c-33.47-33.47-53.329-64.469-62.524-80.688l53.98-54.676
	L92.011,0.066L24.86,66.774c-25.5,25.5-32.108,64.299-16.446,96.547c23.901,49.211,68.002,123.479,142.36,197.838
	s148.627,118.459,197.838,142.36c11.66,5.663,24.174,8.414,36.609,8.414C407.177,511.933,428.879,503.352,445.158,487.072z
	 M431.028,472.942h0.01H431.028z M172.056,137.285l-45.985,46.579l5.55,12.462c0.901,2.025,22.712,50.223,76.978,104.489
	c54.301,54.302,102.092,75.658,104.1,76.54l12.295,5.404l47.467-45.962l83.09,83.227l-38.67,38.804
	c-13.462,13.447-33.877,16.96-50.805,8.739c-46.452-22.562-116.608-64.24-187.038-134.67
	C108.606,262.466,66.928,192.31,44.367,145.859c-8.225-16.936-4.707-37.36,8.709-50.775l38.758-38.502L172.056,137.285z"/>
<g>
</g>
<g>
</g>
<g>
</g>
<g>
</g>
<g>
</g>
<g>
</g>
<g>
</g>
<g>
</g>
<g>
</g>
<g>
</g>
<g>
</g>
<g>
</g>
<g>
</g>
<g>
</g>
<g>
</g>
</svg>
