<?xml version="1.0" encoding="iso-8859-1"?>
<!-- Generator: Adobe Illustrator 19.0.0, SVG Export Plug-In . SVG Version: 6.00 Build 0)  -->
<svg version="1.1" id="Capa_1" xmlns="http://www.w3.org/2000/svg" xmlns:xlink="http://www.w3.org/1999/xlink" x="0px" y="0px"
	 viewBox="0 0 512 512" style="enable-background:new 0 0 512 512;" xml:space="preserve">
<linearGradient id="SVGID_1_" gradientUnits="userSpaceOnUse" x1="256.2437" y1="513.822" x2="256.2437" y2="1.547" gradientTransform="matrix(0.9992 0 0 -0.9992 -0.0391 513.4789)">
	<stop  offset="0" style="stop-color:#2AF598"/>
	<stop  offset="1" style="stop-color:#009EFD"/>
</linearGradient>
<path style="fill:url(#SVGID_1_);" d="M385.22,511.933c-12.434,0-24.949-2.751-36.609-8.414
	c-49.209-23.902-123.478-68.002-197.837-142.36C76.414,286.798,32.314,212.53,8.414,163.321
	c-15.662-32.248-9.054-71.047,16.445-96.546L92.011,0.067l136.304,137.121l-53.979,54.676c9.194,16.219,29.054,47.218,62.524,80.688
	c33.464,33.465,64.239,53.102,80.305,62.151l55.77-54.001L512,419.999l-66.843,67.074
	C428.878,503.353,407.176,511.933,385.22,511.933z M431.028,472.942h0.01H431.028z M91.833,56.581L53.074,95.083
	c-13.415,13.415-16.933,33.84-8.708,50.775c22.561,46.451,64.238,116.606,134.671,187.039
	c70.43,70.431,140.586,112.108,187.039,134.67c16.926,8.221,37.341,4.709,50.805-8.739l38.669-38.804l-83.09-83.227l-47.467,45.962
	l-12.295-5.404c-2.008-0.882-49.799-22.238-104.101-76.54c-54.267-54.266-76.075-102.463-76.978-104.489l-5.55-12.462l45.984-46.579
	L91.833,56.581z"/>
<g>
</g>
<g>
</g>
<g>
</g>
<g>
</g>
<g>
</g>
<g>
</g>
<g>
</g>
<g>
</g>
<g>
</g>
<g>
</g>
<g>
</g>
<g>
</g>
<g>
</g>
<g>
</g>
<g>
</g>
</svg>
