<?xml version="1.0" encoding="iso-8859-1"?>
<!-- Generator: Adobe Illustrator 19.0.0, SVG Export Plug-In . SVG Version: 6.00 Build 0)  -->
<svg version="1.1" id="Capa_1" xmlns="http://www.w3.org/2000/svg" xmlns:xlink="http://www.w3.org/1999/xlink" x="0px" y="0px"
	 viewBox="0 0 512 512" style="enable-background:new 0 0 512 512;" xml:space="preserve">
<linearGradient id="SVGID_1_" gradientUnits="userSpaceOnUse" x1="256" y1="514" x2="256" y2="2" gradientTransform="matrix(1 0 0 -1 0 514)">
	<stop  offset="0" style="stop-color:#2AF598"/>
	<stop  offset="1" style="stop-color:#009EFD"/>
</linearGradient>
<path style="fill:url(#SVGID_1_);" d="M256.121,56l-27.793-27.794L256.534,0l27.793,27.794L256.121,56z M227.673,484.206
	L255.466,512l28.207-28.206L255.879,456L227.673,484.206z M476.822,126.486l-38.621-9.98l-9.834,38.056l38.621,9.98L476.822,126.486
	z M35.178,385.514l38.621,9.98l9.834-38.056l-38.621-9.98L35.178,385.514z M83.633,154.562l-9.834-38.056l-38.621,9.98l9.834,38.056
	L83.633,154.562z M402.116,376.922l5.009,19.363l-38.726,10.017l-18.556-71.783l-59.893-35.295
	c-4.202,3.308-8.894,6.015-13.951,7.997v69.494l52.422,52.431l-28.291,28.277l-14.139-14.146
	c-9.203-9.208-20.942-20.95-29.988-29.997l-44.142,44.142l-28.284-28.284L236,376.716v-69.497
	c-5.057-1.982-9.749-4.689-13.951-7.997l-59.893,35.295L143.6,406.3l-38.726-10.017l5.009-19.363
	c2.4-9.279,7.026-27.169,10.618-41.065L60.06,320.237l10.007-38.728l71.779,18.548l59.863-35.278
	c-0.461-2.861-0.709-5.791-0.709-8.78s0.248-5.919,0.709-8.78l-59.863-35.278L70.067,230.49L60.06,191.762l60.441-15.618
	c-3.591-13.897-8.218-31.786-10.618-41.065l-5.009-19.363l38.726-10.017l18.556,71.783l59.893,35.296
	c4.202-3.308,8.894-6.015,13.951-7.997v-69.494l-52.422-52.431l28.291-28.277l14.139,14.146c9.203,9.207,20.942,20.95,29.988,29.997
	l44.142-44.142l28.284,28.284L276,135.284v69.497c5.057,1.982,9.749,4.689,13.951,7.997l59.893-35.296l18.556-71.783l38.726,10.017
	l-5.009,19.363c-2.4,9.279-7.026,27.169-10.618,41.065l60.441,15.618l-10.007,38.728l-71.779-18.548l-59.863,35.278
	c0.461,2.861,0.709,5.791,0.709,8.78s-0.248,5.919-0.709,8.78l59.863,35.278l71.779-18.548l10.007,38.728l-60.441,15.618
	C395.09,349.753,399.716,367.643,402.116,376.922z M256,241c-8.271,0-15,6.729-15,15s6.729,15,15,15s15-6.729,15-15
	S264.271,241,256,241z M428.367,357.438l9.834,38.056l38.621-9.98l-9.834-38.056L428.367,357.438z"/>
<g>
</g>
<g>
</g>
<g>
</g>
<g>
</g>
<g>
</g>
<g>
</g>
<g>
</g>
<g>
</g>
<g>
</g>
<g>
</g>
<g>
</g>
<g>
</g>
<g>
</g>
<g>
</g>
<g>
</g>
</svg>
