<?xml version="1.0" encoding="iso-8859-1"?>
<!-- Generator: Adobe Illustrator 19.0.0, SVG Export Plug-In . SVG Version: 6.00 Build 0)  -->
<svg version="1.1" id="Capa_1" xmlns="http://www.w3.org/2000/svg" xmlns:xlink="http://www.w3.org/1999/xlink" x="0px" y="0px"
	 viewBox="0 0 511.57 511.57" style="enable-background:new 0 0 511.57 511.57;" xml:space="preserve">
<linearGradient id="SVGID_1_" gradientUnits="userSpaceOnUse" x1="256.0411" y1="513.8832" x2="256.0411" y2="1.8833" gradientTransform="matrix(0.9992 0 0 -0.9992 -0.0411 513.4521)">
	<stop  offset="0" style="stop-color:#2AF598"/>
	<stop  offset="1" style="stop-color:#009EFD"/>
</linearGradient>
<path style="fill:url(#SVGID_1_);" d="M255.785,411.654c-85.947,0-155.869-69.922-155.869-155.869S169.838,99.916,255.785,99.916
	s155.869,69.922,155.869,155.869S341.732,411.654,255.785,411.654z M255.785,139.883c-63.909,0-115.903,51.994-115.903,115.903
	s51.993,115.903,115.903,115.903s115.903-51.994,115.903-115.903S319.695,139.883,255.785,139.883z M511.57,235.802h-59.95v39.966
	h59.95V235.802z M275.768,0h-39.966v59.95h39.966V0z M59.95,235.802H0v39.966h59.95V235.802z M275.768,451.621h-39.966v59.95h39.966
	V451.621z M401.103,467.228l-30.004-51.901l-34.6,20.003l30.004,51.901L401.103,467.228z M484.23,372.568l-51.092-31.363
	l-20.908,34.061l51.092,31.363L484.23,372.568z M487.293,145.198l-19.983-34.612l-51.917,29.975l19.983,34.612L487.293,145.198z
	 M406.377,48.065L372.29,27.197l-31.301,51.13l34.086,20.867L406.377,48.065z M175.162,76.201l-29.978-51.915l-34.612,19.985
	l29.978,51.915L175.162,76.201z M99.066,136.664l-51.163-31.246l-20.832,34.108l51.163,31.246L99.066,136.664z M96.186,371.019
	l-19.985-34.611l-51.917,29.977l19.985,34.611L96.186,371.019z M170.233,433.074l-34.045-20.933l-31.401,51.068l34.045,20.933
	L170.233,433.074z"/>
<g>
</g>
<g>
</g>
<g>
</g>
<g>
</g>
<g>
</g>
<g>
</g>
<g>
</g>
<g>
</g>
<g>
</g>
<g>
</g>
<g>
</g>
<g>
</g>
<g>
</g>
<g>
</g>
<g>
</g>
</svg>
