<?xml version="1.0" encoding="iso-8859-1"?>
<!-- Generator: Adobe Illustrator 19.0.0, SVG Export Plug-In . SVG Version: 6.00 Build 0)  -->
<svg version="1.1" id="Capa_1" xmlns="http://www.w3.org/2000/svg" xmlns:xlink="http://www.w3.org/1999/xlink" x="0px" y="0px"
	 viewBox="0 0 512 512" style="enable-background:new 0 0 512 512;" xml:space="preserve">
<linearGradient id="SVGID_1_" gradientUnits="userSpaceOnUse" x1="256.2561" y1="501.9138" x2="256.2561" y2="13.4247" gradientTransform="matrix(0.9992 0 0 -0.9992 -0.0411 513.4531)">
	<stop  offset="0" style="stop-color:#2AF598"/>
	<stop  offset="1" style="stop-color:#009EFD"/>
</linearGradient>
<path style="fill:url(#SVGID_1_);" d="M512,234.276L256,11.96L0,234.276l26.206,30.176l23.967-20.814V440.09
	c0,33.056,26.893,59.95,59.95,59.95h111.906V304.204h69.941V500.04h109.908c33.056,0,59.95-26.893,59.95-59.95V243.639
	l23.967,20.814L512,234.276z M421.861,440.09c0,11.019-8.965,19.983-19.983,19.983h-69.941V264.238H182.062v195.836h-71.94
	c-11.019,0-19.983-8.964-19.983-19.983V208.931L256,64.894l165.861,144.037V440.09z"/>
<g>
</g>
<g>
</g>
<g>
</g>
<g>
</g>
<g>
</g>
<g>
</g>
<g>
</g>
<g>
</g>
<g>
</g>
<g>
</g>
<g>
</g>
<g>
</g>
<g>
</g>
<g>
</g>
<g>
</g>
</svg>
