<?xml version="1.0" encoding="iso-8859-1"?>
<!-- Generator: Adobe Illustrator 19.0.0, SVG Export Plug-In . SVG Version: 6.00 Build 0)  -->
<svg version="1.1" id="Capa_1" xmlns="http://www.w3.org/2000/svg" xmlns:xlink="http://www.w3.org/1999/xlink" x="0px" y="0px"
	 viewBox="0 0 512 512" style="enable-background:new 0 0 512 512;" xml:space="preserve">
<linearGradient id="SVGID_1_" gradientUnits="userSpaceOnUse" x1="256" y1="514" x2="256" y2="2" gradientTransform="matrix(1 0 0 -1 0 514)">
	<stop  offset="0" style="stop-color:#2AF598"/>
	<stop  offset="1" style="stop-color:#009EFD"/>
</linearGradient>
<path style="fill:url(#SVGID_1_);" d="M275.499,472v-90h6.164c54.499,0,98.836-44.338,98.836-98.836V98.836
	c0-1.549-0.041-3.088-0.111-4.619V91h-0.199c-4.008-50.849-46.665-91-98.526-91h-52.327c-51.861,0-94.518,40.151-98.526,91h-0.199
	v3.218c-0.071,1.531-0.111,3.07-0.111,4.619v184.327c0,54.499,44.338,98.836,98.836,98.836h6.164v90h-104v40h250v-40H275.499z
	 M170.909,290h64.59v-40h-65v-39h65v-40h-65v-40h65V91h-64.462c3.845-28.749,28.515-51,58.299-51h52.327
	c29.784,0,54.453,22.251,58.299,51h-64.463v40h65v40h-65v40h65v39h-65v40h64.59c-3.4,29.232-28.297,52-58.426,52h-52.327
	C199.207,342,174.309,319.232,170.909,290z"/>
<g>
</g>
<g>
</g>
<g>
</g>
<g>
</g>
<g>
</g>
<g>
</g>
<g>
</g>
<g>
</g>
<g>
</g>
<g>
</g>
<g>
</g>
<g>
</g>
<g>
</g>
<g>
</g>
<g>
</g>
</svg>
