<?xml version="1.0" encoding="iso-8859-1"?>
<!-- Generator: Adobe Illustrator 19.0.0, SVG Export Plug-In . SVG Version: 6.00 Build 0)  -->
<svg version="1.1" id="Capa_1" xmlns="http://www.w3.org/2000/svg" xmlns:xlink="http://www.w3.org/1999/xlink" x="0px" y="0px"
	 viewBox="0 0 512 512" style="enable-background:new 0 0 512 512;" xml:space="preserve">
<linearGradient id="SVGID_1_" gradientUnits="userSpaceOnUse" x1="256" y1="514" x2="256" y2="2" gradientTransform="matrix(1 0 0 -1 0 514)">
	<stop  offset="0" style="stop-color:#2AF598"/>
	<stop  offset="1" style="stop-color:#009EFD"/>
</linearGradient>
<path style="fill:url(#SVGID_1_);" d="M45,192H0v-40h45V192z M18.427,271l17.991,35.726l42.441-21.372l-17.991-35.726L18.427,271z
	 M77.859,55.593l-41.44-20.869L18.427,70.449l41.44,20.869L77.859,55.593z M433.141,285.354l42.441,21.372L493.573,271
	l-42.441-21.372L433.141,285.354z M493.573,70.449l-17.991-35.726l-41.44,20.869l17.991,35.726L493.573,70.449z M257,80v40
	c28.122,0,51,22.878,51,51h40C348,120.822,307.178,80,257,80z M427.996,170.857H428L427.998,172
	c-0.317,68.687-29.205,106.7-54.708,140.261c-21.331,28.07-38.178,50.241-38.178,87.151V452c0,33.084-26.916,60-60,60h-38.223
	c-33.084,0-60-26.916-60-60v-52.587c0-36.911-16.848-59.082-38.178-87.151C113.207,278.7,84.319,240.687,84.002,172H84l0.004-1.143
	C84.622,76.541,161.541,0,256,0S427.378,76.541,427.996,170.857z M295.111,452v-39h-78.223v39c0,11.028,8.972,20,20,20h38.223
	C286.139,472,295.111,463.028,295.111,452z M387.999,171.491C387.725,98.938,328.616,40,256,40S124.275,98.938,124.001,171.491
	c0.17,55.525,22.705,85.18,46.558,116.569c18.507,24.355,37.527,49.383,44.007,84.94h82.869c6.48-35.557,25.5-60.585,44.007-84.94
	C365.294,256.671,387.829,227.016,387.999,171.491z M467,152v40h45v-40H467z"/>
<g>
</g>
<g>
</g>
<g>
</g>
<g>
</g>
<g>
</g>
<g>
</g>
<g>
</g>
<g>
</g>
<g>
</g>
<g>
</g>
<g>
</g>
<g>
</g>
<g>
</g>
<g>
</g>
<g>
</g>
</svg>
