<?xml version="1.0" encoding="iso-8859-1"?>
<!-- Generator: Adobe Illustrator 19.0.0, SVG Export Plug-In . SVG Version: 6.00 Build 0)  -->
<svg version="1.1" id="Capa_1" xmlns="http://www.w3.org/2000/svg" xmlns:xlink="http://www.w3.org/1999/xlink" x="0px" y="0px"
	 viewBox="0 0 512 512" style="enable-background:new 0 0 512 512;" xml:space="preserve">
<linearGradient id="SVGID_1_" gradientUnits="userSpaceOnUse" x1="255.666" y1="514.1531" x2="255.666" y2="2.7137" gradientTransform="matrix(1.0011 0 0 -1.0011 0.0538 514.7172)">
	<stop  offset="0" style="stop-color:#2AF598"/>
	<stop  offset="1" style="stop-color:#009EFD"/>
</linearGradient>
<path style="fill:url(#SVGID_1_);" d="M441.324,157.454l-16.114-20.964c-0.106-1.78-0.073-4.429-0.051-6.189
	c0.014-1.082,0.026-2.139,0.026-3.152V99.118c0-20.717-13.885-37.585-36.236-44.022l-28.012-8.068
	c-1.576-0.453-2.946-1.435-3.858-2.761l-16.421-23.873C328.584,2.839,306.093-4.424,285.968,2.729l-27.543,9.792
	c-1.563,0.556-3.285,0.557-4.847,0l-27.543-9.792c-20.126-7.155-42.615,0.109-54.692,17.664l-16.419,23.872
	c-0.82,1.193-2.01,2.106-3.386,2.608l-28.867,6.065c-0.48,0.101-0.953,0.218-1.424,0.354c-20.817,5.995-34.93,24.934-34.432,46.14
	v28.717c0,1.034,0.021,2.118,0.044,3.233c0.028,1.401,0.073,3.544-0.019,4.888l-16.184,21.21
	c-13.188,16.941-13.181,40.537,0.021,57.471l16.175,21.065c0.074,1.355,0.037,3.512,0.008,5.192
	c-0.023,1.327-0.046,2.686-0.046,4.069v28.773c-0.439,19.826,13.744,36.78,36.236,43.257l16.716,4.814v189.821l116.229-70.093
	L372.233,512V322.122l16.716-4.814c20.196-5.817,36.713-28.775,36.236-50.265v-27.771c0-1.141,0-2.695,0.059-3.791l16.015-20.447
	C454.532,198.086,454.553,174.424,441.324,157.454z M256.005,395.084l-76.192,45.948v-79.718
	c8.521,7.165,19.326,11.09,30.416,11.089c5.278,0,10.623-0.887,15.806-2.73l27.543-9.792c1.563-0.557,3.285-0.557,4.847,0
	l27.542,9.791c16.071,5.713,33.643,2.225,46.224-8.348v79.736L256.005,395.084z M409.734,190.342l-17.786,22.709
	c-0.337,0.43-0.656,0.874-0.956,1.33c-5.849,8.877-5.849,18.513-5.849,24.89v28.031c0,0.208,0.003,0.416,0.01,0.625
	c0.109,3.525-4.62,10.074-7.284,10.903l-28.012,8.068c-10.461,3.012-19.613,9.599-25.769,18.547l-16.419,23.872
	c-1.815,2.637-5.222,3.717-8.286,2.627l-27.543-9.792c-10.212-3.63-21.462-3.63-31.674,0l-27.544,9.792
	c-3.061,1.089-6.471,0.01-8.284-2.627l-16.421-23.875c-6.155-8.947-15.307-15.533-25.768-18.545l-28.012-8.068
	c-4.372-1.259-6.733-3.149-7.282-3.955c0.005-0.188,0.008-0.375,0.008-0.564v-29.032c0-1.147,0.021-2.273,0.04-3.374
	c0.141-8.093,0.332-19.167-7.225-28.894l-17.289-22.516c-0.039-0.051-0.078-0.101-0.117-0.151c-1.909-2.439-1.909-5.844,0-8.283
	c0.052-0.065,0.103-0.132,0.153-0.198l17.275-22.638c7.586-9.793,7.343-21.602,7.197-28.668c-0.017-0.829-0.035-1.636-0.035-2.406
	V99.165c0-0.208-0.003-0.416-0.01-0.625c-0.087-2.783,2.03-5.545,4.993-6.611l28.879-6.068c0.48-0.101,0.954-0.219,1.425-0.354
	c10.461-3.013,19.613-9.6,25.769-18.547l16.419-23.873c1.815-2.635,5.222-3.716,8.286-2.627l27.543,9.792
	c10.212,3.63,21.462,3.63,31.674,0l27.543-9.792c3.068-1.088,6.474-0.009,8.285,2.627l16.421,23.874
	c6.155,8.947,15.307,15.534,25.768,18.546l28.013,8.068c1.706,0.492,7.274,2.344,7.274,5.542v28.031c0,0.852-0.012,1.74-0.023,2.649
	c-0.113,9.012-0.267,21.205,7.711,30.272l16.79,21.847c0.037,0.048,0.074,0.096,0.111,0.143
	C411.643,184.499,411.643,187.905,409.734,190.342z M244.791,105.125h31.232v162.178h-40.044v-94.763l-28.232-24.199
	L244.791,105.125z"/>
<g>
</g>
<g>
</g>
<g>
</g>
<g>
</g>
<g>
</g>
<g>
</g>
<g>
</g>
<g>
</g>
<g>
</g>
<g>
</g>
<g>
</g>
<g>
</g>
<g>
</g>
<g>
</g>
<g>
</g>
</svg>
