<?xml version="1.0" encoding="iso-8859-1"?>
<!-- Generator: Adobe Illustrator 19.0.0, SVG Export Plug-In . SVG Version: 6.00 Build 0)  -->
<svg version="1.1" id="Capa_1" xmlns="http://www.w3.org/2000/svg" xmlns:xlink="http://www.w3.org/1999/xlink" x="0px" y="0px"
	 viewBox="0 0 512 512" style="enable-background:new 0 0 512 512;" xml:space="preserve">
<linearGradient id="SVGID_1_" gradientUnits="userSpaceOnUse" x1="256" y1="514" x2="256" y2="2" gradientTransform="matrix(1 0 0 -1 0 514)">
	<stop  offset="0" style="stop-color:#2AF598"/>
	<stop  offset="1" style="stop-color:#009EFD"/>
</linearGradient>
<path style="fill:url(#SVGID_1_);" d="M437.02,74.98C388.667,26.629,324.38,0,256,0S123.333,26.629,74.98,74.98
	C26.629,123.333,0,187.62,0,256s26.629,132.667,74.98,181.02C123.333,485.371,187.62,512,256,512s132.667-26.629,181.02-74.98
	C485.371,388.667,512,324.38,512,256S485.371,123.333,437.02,74.98z M341.174,312.89l121.087-121.086
	c4.742,15.203,7.845,31.121,9.103,47.548L369.5,341.216L341.174,312.89z M445.345,152.15L312.89,284.605l-28.995-28.995
	l137.898-137.898C430.7,128.373,438.6,139.9,445.345,152.15z M393.443,89.493L276,206.936v-57.043l83.464-83.453
	C371.533,73.053,382.908,80.781,393.443,89.493z M276,93.327V40.934c15.075,1.391,29.708,4.326,43.733,8.665L276,93.327z M40,256
	c0-112.359,86.239-204.94,196-215.066v100.669c0,0.002,0,0.003,0,0.005v122.676L393.866,422.15C356.434,453.264,308.365,472,256,472
	C136.897,472,40,375.103,40,256z M422.15,393.866L397.784,369.5l69.763-69.763C460.267,334.998,444.363,367.142,422.15,393.866z"/>
<g>
</g>
<g>
</g>
<g>
</g>
<g>
</g>
<g>
</g>
<g>
</g>
<g>
</g>
<g>
</g>
<g>
</g>
<g>
</g>
<g>
</g>
<g>
</g>
<g>
</g>
<g>
</g>
<g>
</g>
</svg>
