<?xml version="1.0" encoding="iso-8859-1"?>
<!-- Generator: Adobe Illustrator 19.0.0, SVG Export Plug-In . SVG Version: 6.00 Build 0)  -->
<svg version="1.1" id="Capa_1" xmlns="http://www.w3.org/2000/svg" xmlns:xlink="http://www.w3.org/1999/xlink" x="0px" y="0px"
	 viewBox="0 0 512 512" style="enable-background:new 0 0 512 512;" xml:space="preserve">
<linearGradient id="SVGID_1_" gradientUnits="userSpaceOnUse" x1="255.9285" y1="514.0306" x2="255.9285" y2="2.1546" gradientTransform="matrix(1.0002 0 0 -1.0002 0.0115 514.153)">
	<stop  offset="0" style="stop-color:#2AF598"/>
	<stop  offset="1" style="stop-color:#009EFD"/>
</linearGradient>
<path style="fill:url(#SVGID_1_);" d="M303.817,247.509c0-8.128-0.872-16.056-2.514-23.701c6.422,1.14,13.028,1.737,19.772,1.737
	c49.079,0,92.746,23.545,120.35,59.916l27.111-30.186c-20.04-24.318-45.968-43.604-75.574-55.679
	c24.96-20.702,40.886-51.937,40.886-86.823C433.848,50.592,383.258,0.002,321.075,0.002s-112.772,50.59-112.772,112.772
	c0,8.128,0.872,16.055,2.514,23.7c-6.421-1.14-13.028-1.737-19.772-1.737c-62.183,0-112.772,50.59-112.772,112.772
	c0,34.883,15.923,66.115,40.879,86.818C49.339,362.789,0,431.394,0,511.317h40.009c0-83.281,67.754-151.035,151.035-151.035
	C253.227,360.281,303.817,309.692,303.817,247.509z M321.075,40.011c40.121,0,72.763,32.641,72.763,72.763
	s-32.642,72.762-72.763,72.762s-72.763-32.641-72.763-72.763S280.954,40.011,321.075,40.011z M191.045,320.272
	c-40.121,0-72.763-32.641-72.763-72.763s32.642-72.763,72.763-72.763s72.763,32.642,72.763,72.763S231.166,320.272,191.045,320.272z
	 M512,326.638l-166.481,185.36L237.267,408.954l27.584-28.98l78.42,74.647l138.962-154.718L512,326.638z"/>
<g>
</g>
<g>
</g>
<g>
</g>
<g>
</g>
<g>
</g>
<g>
</g>
<g>
</g>
<g>
</g>
<g>
</g>
<g>
</g>
<g>
</g>
<g>
</g>
<g>
</g>
<g>
</g>
<g>
</g>
</svg>
