<?xml version="1.0" encoding="iso-8859-1"?>
<!-- Generator: Adobe Illustrator 19.0.0, SVG Export Plug-In . SVG Version: 6.00 Build 0)  -->
<svg version="1.1" id="Capa_1" xmlns="http://www.w3.org/2000/svg" xmlns:xlink="http://www.w3.org/1999/xlink" x="0px" y="0px"
	 viewBox="0 0 512 512" style="enable-background:new 0 0 512 512;" xml:space="preserve">
<linearGradient id="SVGID_1_" gradientUnits="userSpaceOnUse" x1="256" y1="514" x2="256" y2="2" gradientTransform="matrix(1 0 0 -1 0 514)">
	<stop  offset="0" style="stop-color:#2AF598"/>
	<stop  offset="1" style="stop-color:#009EFD"/>
</linearGradient>
<path style="fill:url(#SVGID_1_);" d="M511.94,326.364L345.498,511.681l-108.227-103.02l27.579-28.973l78.403,74.63l138.928-154.683
	L511.94,326.364z M256.06,296c-119.103,0-216,96.897-216,216h-40c0-68.38,26.629-132.667,74.98-181.02
	c27.883-27.882,61.071-48.523,97.281-61.018C133.539,243.251,108.06,198.548,108.06,148c0-81.607,66.393-148,148-148
	s148,66.393,148,148c0,50.55-25.48,95.255-64.266,121.966c27.757,9.583,53.738,23.953,76.915,42.705l-26.856,29.901
	C353.034,313.434,306.551,296,256.06,296z M256.06,256c59.551,0,108-48.449,108-108s-48.449-108-108-108s-108,48.449-108,108
	S196.509,256,256.06,256z"/>
<g>
</g>
<g>
</g>
<g>
</g>
<g>
</g>
<g>
</g>
<g>
</g>
<g>
</g>
<g>
</g>
<g>
</g>
<g>
</g>
<g>
</g>
<g>
</g>
<g>
</g>
<g>
</g>
<g>
</g>
</svg>
