<?xml version="1.0" encoding="iso-8859-1"?>
<!-- Generator: Adobe Illustrator 19.0.0, SVG Export Plug-In . SVG Version: 6.00 Build 0)  -->
<svg version="1.1" id="Capa_1" xmlns="http://www.w3.org/2000/svg" xmlns:xlink="http://www.w3.org/1999/xlink" x="0px" y="0px"
	 viewBox="0 0 512 512" style="enable-background:new 0 0 512 512;" xml:space="preserve">
<linearGradient id="SVGID_1_" gradientUnits="userSpaceOnUse" x1="256.1692" y1="513.9229" x2="256.1692" y2="1.6388" gradientTransform="matrix(0.9994 0 0 -0.9994 -0.0272 513.638)">
	<stop  offset="0" style="stop-color:#2AF598"/>
	<stop  offset="1" style="stop-color:#009EFD"/>
</linearGradient>
<path style="fill:url(#SVGID_1_);" d="M418.41,157.197H314.468v103.942h31.554v2.312c0,9.888-4.815,19.205-12.881,24.924
	l-56.652,40.171V109.939h44.546L257.634,0l-66.527,109.939h45.404V358.25l-56.652-40.171c-8.066-5.719-12.881-15.037-12.881-24.924
	v-8.489c20.19-7.815,34.552-27.427,34.552-50.342c0-29.759-24.211-53.97-53.97-53.97s-53.97,24.211-53.97,53.97
	c0,22.482,13.821,41.789,33.41,49.891v8.94c0,22.824,11.116,44.333,29.735,57.536l66.895,47.434
	c4.255,3.016,7.593,7.04,9.809,11.615c-17.713,8.862-29.909,27.173-29.909,48.29c0,29.759,24.211,53.97,53.97,53.97
	s53.97-24.211,53.97-53.97c0-23.078-14.564-42.81-34.981-50.511v-14.174c0-9.888,4.815-19.205,12.881-24.924l66.895-47.434
	c18.619-13.202,29.734-34.711,29.734-57.536v-2.312h32.411L418.41,157.197L418.41,157.197z M147.56,220.332
	c7.716,0,13.992,6.277,13.992,13.992c0,7.716-6.277,13.992-13.992,13.992c-7.716,0-13.992-6.277-13.992-13.992
	C133.568,226.608,139.844,220.332,147.56,220.332z M257.499,472.022c-7.716,0-13.992-6.276-13.992-13.992
	s6.277-13.992,13.992-13.992s13.992,6.277,13.992,13.992S265.215,472.022,257.499,472.022z M354.445,197.175h23.987v23.987h-23.987
	V197.175z"/>
<g>
</g>
<g>
</g>
<g>
</g>
<g>
</g>
<g>
</g>
<g>
</g>
<g>
</g>
<g>
</g>
<g>
</g>
<g>
</g>
<g>
</g>
<g>
</g>
<g>
</g>
<g>
</g>
<g>
</g>
</svg>
