<?xml version="1.0" encoding="iso-8859-1"?>
<!-- Generator: Adobe Illustrator 19.0.0, SVG Export Plug-In . SVG Version: 6.00 Build 0)  -->
<svg version="1.1" id="Capa_1" xmlns="http://www.w3.org/2000/svg" xmlns:xlink="http://www.w3.org/1999/xlink" x="0px" y="0px"
	 viewBox="0 0 512 512" style="enable-background:new 0 0 512 512;" xml:space="preserve">
<linearGradient id="SVGID_1_" gradientUnits="userSpaceOnUse" x1="256.8626" y1="513.6069" x2="256.8626" y2="0.1589" gradientTransform="matrix(0.9972 0 0 -0.9972 -0.1382 512.1584)">
	<stop  offset="0" style="stop-color:#2AF598"/>
	<stop  offset="1" style="stop-color:#009EFD"/>
</linearGradient>
<path style="fill:url(#SVGID_1_);" d="M453.583,248.176l57.836,57.836l-28.204,28.204l-57.836-57.836l-57.836,57.836l-28.204-28.204
	l57.836-57.836l-57.836-57.836l28.204-28.204l57.836,57.836l57.836-57.836l28.204,28.204L453.583,248.176z M96.243,160.424
	L294.748,0v512L96.623,351.883h-33.22c-34.053,0-62.822-27.399-62.822-59.831v-71.797c0-32.431,28.77-59.831,62.822-59.831
	L96.243,160.424L96.243,160.424z M63.403,311.996h20.941V200.311H63.403c-11.789,0-22.935,9.693-22.935,19.944v71.797
	C40.468,302.303,51.614,311.996,63.403,311.996z M254.861,83.52L124.231,189.09v133.821l130.631,105.57V83.52z"/>
<g>
</g>
<g>
</g>
<g>
</g>
<g>
</g>
<g>
</g>
<g>
</g>
<g>
</g>
<g>
</g>
<g>
</g>
<g>
</g>
<g>
</g>
<g>
</g>
<g>
</g>
<g>
</g>
<g>
</g>
</svg>
