<?xml version="1.0" encoding="iso-8859-1"?>
<!-- Generator: Adobe Illustrator 19.0.0, SVG Export Plug-In . SVG Version: 6.00 Build 0)  -->
<svg version="1.1" id="Capa_1" xmlns="http://www.w3.org/2000/svg" xmlns:xlink="http://www.w3.org/1999/xlink" x="0px" y="0px"
	 viewBox="0 0 512 512" style="enable-background:new 0 0 512 512;" xml:space="preserve">
<linearGradient id="SVGID_1_" gradientUnits="userSpaceOnUse" x1="256.8626" y1="513.6069" x2="256.8626" y2="0.1589" gradientTransform="matrix(0.9972 0 0 -0.9972 -0.1382 512.1584)">
	<stop  offset="0" style="stop-color:#2AF598"/>
	<stop  offset="1" style="stop-color:#009EFD"/>
</linearGradient>
<path style="fill:url(#SVGID_1_);" d="M304.908,222.249H294.89V0L96.384,160.424h-32.84c-34.053,0-62.822,27.4-62.822,59.831v71.797
	c0,32.431,28.77,59.831,62.822,59.831h33.22L294.89,512V289.896l9.899-0.1c18.882,0,34.307-14.918,34.307-33.643
	S323.79,222.249,304.908,222.249z M40.609,292.052v-71.797c0-10.251,11.146-19.944,22.935-19.944h20.941v111.684H63.544
	C51.756,311.996,40.609,302.303,40.609,292.052z M255.003,428.48L124.372,322.91V189.09L255.003,83.52V428.48z M334.778,352.879
	v-39.887c31.34,0,56.838-25.498,56.838-56.839s-25.498-56.839-56.838-56.839v-39.887c53.334,0,96.725,43.391,96.725,96.726
	S388.112,352.879,334.778,352.879z M511.278,256.652c0,96.498-79.091,175.005-176.308,175.005V391.77
	c75.223,0,136.421-60.614,136.421-135.118S410.193,121.534,334.97,121.534V81.647C432.187,81.647,511.278,160.154,511.278,256.652z"
	/>
<g>
</g>
<g>
</g>
<g>
</g>
<g>
</g>
<g>
</g>
<g>
</g>
<g>
</g>
<g>
</g>
<g>
</g>
<g>
</g>
<g>
</g>
<g>
</g>
<g>
</g>
<g>
</g>
<g>
</g>
</svg>
