<?xml version="1.0" encoding="iso-8859-1"?>
<!-- Generator: Adobe Illustrator 19.0.0, SVG Export Plug-In . SVG Version: 6.00 Build 0)  -->
<svg version="1.1" id="Capa_1" xmlns="http://www.w3.org/2000/svg" xmlns:xlink="http://www.w3.org/1999/xlink" x="0px" y="0px"
	 viewBox="0 0 512 512" style="enable-background:new 0 0 512 512;" xml:space="preserve">
<linearGradient id="SVGID_1_" gradientUnits="userSpaceOnUse" x1="256" y1="514" x2="256" y2="2" gradientTransform="matrix(1 0 0 -1 0 514)">
	<stop  offset="0" style="stop-color:#2AF598"/>
	<stop  offset="1" style="stop-color:#009EFD"/>
</linearGradient>
<path style="fill:url(#SVGID_1_);" d="M256,512c-68.38,0-132.667-26.629-181.02-74.98C26.629,388.668,0,324.38,0,256
	S26.629,123.333,74.98,74.98C123.333,26.629,187.62,0,256,0s132.667,26.629,181.02,74.98C485.371,123.333,512,187.62,512,256
	s-26.629,132.668-74.98,181.02C388.667,485.371,324.38,512,256,512z M256,40C136.897,40,40,136.897,40,256s96.897,216,216,216
	s216-96.897,216-216S375.103,40,256,40z M375.499,352.834c22.318-26.675,31.165-53.55,31.531-54.681l-38.037-12.377
	c-0.071,0.214-7.298,21.626-25.02,42.393C321.419,354.599,292.628,368,258.4,368c-34.476,0-64.195-13.561-88.333-40.304
	c-18.92-20.963-27.272-42.54-27.33-42.691l-37.475,13.99c0.42,1.122,10.532,27.792,34.013,54.273
	C171.022,389.074,212.216,408,258.4,408C304.812,408,345.304,388.924,375.499,352.834z M168,212.122c17.673,0,32-14.327,32-32
	s-14.327-32-32-32s-32,14.327-32,32S150.327,212.122,168,212.122z M344,212.122c17.673,0,32-14.327,32-32s-14.327-32-32-32
	s-32,14.327-32,32S326.327,212.122,344,212.122z"/>
<g>
</g>
<g>
</g>
<g>
</g>
<g>
</g>
<g>
</g>
<g>
</g>
<g>
</g>
<g>
</g>
<g>
</g>
<g>
</g>
<g>
</g>
<g>
</g>
<g>
</g>
<g>
</g>
<g>
</g>
</svg>
