<?xml version="1.0" encoding="iso-8859-1"?>
<!-- Generator: Adobe Illustrator 19.0.0, SVG Export Plug-In . SVG Version: 6.00 Build 0)  -->
<svg version="1.1" id="Capa_1" xmlns="http://www.w3.org/2000/svg" xmlns:xlink="http://www.w3.org/1999/xlink" x="0px" y="0px"
	 viewBox="0 0 512 512" style="enable-background:new 0 0 512 512;" xml:space="preserve">
<linearGradient id="SVGID_1_" gradientUnits="userSpaceOnUse" x1="256.2371" y1="513.8765" x2="256.2371" y2="1.5075" gradientTransform="matrix(0.9992 0 0 -0.9992 -0.0381 513.4918)">
	<stop  offset="0" style="stop-color:#2AF598"/>
	<stop  offset="1" style="stop-color:#009EFD"/>
</linearGradient>
<path style="fill:url(#SVGID_1_);" d="M385.746,0.015H126.244L0,172.027l255.697,339.959L512,172.042L385.746,0.015z
	 M154.628,191.865l53.198,189.977L64.935,191.865H154.628z M274.002,39.983l38.613,111.913H197.473l37.14-111.913H274.002z
	 M314.384,191.865l-58.779,212.384l-59.472-212.384H314.384z M355.856,191.865h91.14L302.995,382.862L355.856,191.865z
	 M447.637,151.896h-92.741L316.283,39.983h49.219L447.637,151.896z M146.488,39.983H192.5l-37.14,111.913H64.353L146.488,39.983z"/>
<g>
</g>
<g>
</g>
<g>
</g>
<g>
</g>
<g>
</g>
<g>
</g>
<g>
</g>
<g>
</g>
<g>
</g>
<g>
</g>
<g>
</g>
<g>
</g>
<g>
</g>
<g>
</g>
<g>
</g>
</svg>
