<?xml version="1.0" encoding="iso-8859-1"?>
<!-- Generator: Adobe Illustrator 19.0.0, SVG Export Plug-In . SVG Version: 6.00 Build 0)  -->
<svg version="1.1" id="Capa_1" xmlns="http://www.w3.org/2000/svg" xmlns:xlink="http://www.w3.org/1999/xlink" x="0px" y="0px"
	 viewBox="0 0 512 512" style="enable-background:new 0 0 512 512;" xml:space="preserve">
<linearGradient id="SVGID_1_" gradientUnits="userSpaceOnUse" x1="256" y1="514" x2="256" y2="2" gradientTransform="matrix(1 0 0 -1 0 514)">
	<stop  offset="0" style="stop-color:#2AF598"/>
	<stop  offset="1" style="stop-color:#009EFD"/>
</linearGradient>
<path style="fill:url(#SVGID_1_);" d="M352,120c0-17.673,14.327-32,32-32s32,14.327,32,32s-14.327,32-32,32S352,137.673,352,120z
	 M128,456h56v-56h56v-56h44.284l36.098-36.097C332.018,310.625,343.952,312,356,312c86.019,0,156-69.981,156-156S442.019,0,356,0
	S200,69.981,200,156c0,12.05,1.375,23.982,4.097,35.619L0,395.716V512h128V456z M40,412.284l209.237-209.236l-3.722-11.618
	C241.855,180.009,240,168.089,240,156c0-63.963,52.037-116,116-116s116,52.037,116,116s-52.037,116-116,116
	c-12.087,0-24.008-1.855-35.43-5.515l-11.618-3.722L267.716,304H200v56h-56v56H88v56H40V412.284z"/>
<g>
</g>
<g>
</g>
<g>
</g>
<g>
</g>
<g>
</g>
<g>
</g>
<g>
</g>
<g>
</g>
<g>
</g>
<g>
</g>
<g>
</g>
<g>
</g>
<g>
</g>
<g>
</g>
<g>
</g>
</svg>
