<?xml version="1.0" encoding="iso-8859-1"?>
<!-- Generator: Adobe Illustrator 19.0.0, SVG Export Plug-In . SVG Version: 6.00 Build 0)  -->
<svg version="1.1" id="Capa_1" xmlns="http://www.w3.org/2000/svg" xmlns:xlink="http://www.w3.org/1999/xlink" x="0px" y="0px"
	 viewBox="0 0 512 512" style="enable-background:new 0 0 512 512;" xml:space="preserve">
<linearGradient id="SVGID_1_" gradientUnits="userSpaceOnUse" x1="256" y1="514" x2="256" y2="2" gradientTransform="matrix(1 0 0 -1 0 514)">
	<stop  offset="0" style="stop-color:#2AF598"/>
	<stop  offset="1" style="stop-color:#009EFD"/>
</linearGradient>
<path style="fill:url(#SVGID_1_);" d="M276,279.44V0h-40v279.44c-23.278,8.256-40,30.487-40,56.56s16.722,48.304,40,56.56V512h40
	V392.56c23.278-8.256,40-30.487,40-56.56S299.278,287.696,276,279.44z M256,356c-11.028,0-20-8.972-20-20s8.972-20,20-20
	c11.028,0,20,8.972,20,20S267.028,356,256,356z M92,87.44V0H52v87.44C28.722,95.696,12,117.927,12,144s16.722,48.304,40,56.56V512
	h40V200.56c23.278-8.256,40-30.487,40-56.56S115.278,95.696,92,87.44z M72,164c-11.028,0-20-8.972-20-20s8.972-20,20-20
	s20,8.972,20,20S83.028,164,72,164z M500,224c0-26.073-16.722-48.304-40-56.56V0h-40v167.44c-23.278,8.256-40,30.487-40,56.56
	s16.722,48.304,40,56.56V512h40V280.56C483.278,272.304,500,250.073,500,224z M440,244c-11.028,0-20-8.972-20-20s8.972-20,20-20
	s20,8.972,20,20S451.028,244,440,244z"/>
<g>
</g>
<g>
</g>
<g>
</g>
<g>
</g>
<g>
</g>
<g>
</g>
<g>
</g>
<g>
</g>
<g>
</g>
<g>
</g>
<g>
</g>
<g>
</g>
<g>
</g>
<g>
</g>
<g>
</g>
</svg>
