<?xml version="1.0" encoding="iso-8859-1"?>
<!-- Generator: Adobe Illustrator 19.0.0, SVG Export Plug-In . SVG Version: 6.00 Build 0)  -->
<svg version="1.1" id="Capa_1" xmlns="http://www.w3.org/2000/svg" xmlns:xlink="http://www.w3.org/1999/xlink" x="0px" y="0px"
	 viewBox="0 0 512 512" style="enable-background:new 0 0 512 512;" xml:space="preserve">
<linearGradient id="SVGID_1_" gradientUnits="userSpaceOnUse" x1="256" y1="489.9937" x2="256" y2="26.0059" gradientTransform="matrix(1 0 0 -1 0 513.9998)">
	<stop  offset="0" style="stop-color:#2AF598"/>
	<stop  offset="1" style="stop-color:#009EFD"/>
</linearGradient>
<path style="fill:url(#SVGID_1_);" d="M477.111,58.819c-27.588-27.541-60.474-39.086-95.107-33.4
	c-29.148,4.791-59.249,21.992-87.048,49.745l-58.163,58.068c-9.388,9.373-17.575,19.011-24.492,28.78
	c-34.244,0.393-69.559,17.892-102.873,51.15L51.264,271.23C17.727,304.711,0,340.698,0,375.298c0,28.566,11.739,54.77,34.892,77.883
	c23.007,22.969,49.697,34.815,78.017,34.813c5.637,0,11.342-0.47,17.092-1.414c29.149-4.791,59.251-21.992,87.051-49.744
	l58.164-58.068c9.387-9.372,17.573-19.01,24.49-28.78c34.241-0.398,69.558-17.894,102.872-51.153l58.163-58.068
	C494.274,207.287,512,171.301,512,136.7C512,108.135,500.262,81.931,477.111,58.819z M432.478,212.46l-58.163,58.068
	c-17.407,17.379-35.308,29.322-52.405,35.217c1.058-3.563,1.935-7.119,2.625-10.658c6.498-33.317-3.083-65.307-27.708-92.51
	l-29.654,26.844c39.636,43.787,10.883,89.989-20.219,121.038l-58.164,58.068c-21.851,21.813-44.423,35.155-65.276,38.582
	c-22.002,3.615-41.751-3.656-60.362-22.237C47.789,409.536,40,392.857,40,375.298c0-30.004,21.493-57.759,39.524-75.759
	l58.165-58.068c17.402-17.374,35.302-29.316,52.396-35.213c-1.058,3.562-1.935,7.114-2.625,10.651
	c-6.504,33.319,3.079,65.311,27.714,92.516l29.65-26.85c-39.638-43.771-10.877-89.98,20.229-121.036l58.163-58.068
	c21.849-21.813,44.42-35.154,65.272-38.581c22.008-3.614,41.75,3.658,60.359,22.236C464.211,102.462,472,119.141,472,136.7
	C472,166.704,450.508,194.459,432.478,212.46z"/>
<g>
</g>
<g>
</g>
<g>
</g>
<g>
</g>
<g>
</g>
<g>
</g>
<g>
</g>
<g>
</g>
<g>
</g>
<g>
</g>
<g>
</g>
<g>
</g>
<g>
</g>
<g>
</g>
<g>
</g>
</svg>
