<?xml version="1.0" encoding="iso-8859-1"?>
<!-- Generator: Adobe Illustrator 19.0.0, SVG Export Plug-In . SVG Version: 6.00 Build 0)  -->
<svg version="1.1" id="Capa_1" xmlns="http://www.w3.org/2000/svg" xmlns:xlink="http://www.w3.org/1999/xlink" x="0px" y="0px"
	 viewBox="0 0 512 512" style="enable-background:new 0 0 512 512;" xml:space="preserve">
<linearGradient id="SVGID_1_" gradientUnits="userSpaceOnUse" x1="256" y1="514" x2="256" y2="2" gradientTransform="matrix(1 0 0 -1 0 514)">
	<stop  offset="0" style="stop-color:#2AF598"/>
	<stop  offset="1" style="stop-color:#009EFD"/>
</linearGradient>
<path style="fill:url(#SVGID_1_);" d="M256,512c-68.38,0-132.667-26.629-181.02-74.98C26.629,388.667,0,324.38,0,256
	S26.629,123.333,74.98,74.98C123.333,26.629,187.62,0,256,0s132.667,26.629,181.02,74.98C485.371,123.333,512,187.62,512,256
	s-26.629,132.667-74.98,181.02C388.667,485.371,324.38,512,256,512z M256,40C136.897,40,40,136.897,40,256s96.897,216,216,216
	s216-96.897,216-216S375.103,40,256,40z M256,426c-46.837,0-87.838-18.622-118.571-53.853c-22.829-26.17-31.983-52.59-32.361-53.702
	L96.064,292h319.871l-9.003,26.445c-0.378,1.112-9.532,27.532-32.361,53.702C343.838,407.378,302.837,426,256,426z M156.95,332
	c3.221,4.779,7.046,9.848,11.523,14.877C191.589,372.837,221.037,386,256,386s64.411-13.163,87.526-39.123
	c4.478-5.029,8.303-10.097,11.523-14.877H156.95z M247.89,200.481l-69.76-69.636l-28.26,28.309l20.24,20.204l-51.139,13.284
	l10.057,38.715L247.89,200.481z M393.028,192.643l-51.139-13.284l20.24-20.204l-28.26-28.309l-69.76,69.636l118.861,30.876
	L393.028,192.643z"/>
<g>
</g>
<g>
</g>
<g>
</g>
<g>
</g>
<g>
</g>
<g>
</g>
<g>
</g>
<g>
</g>
<g>
</g>
<g>
</g>
<g>
</g>
<g>
</g>
<g>
</g>
<g>
</g>
<g>
</g>
</svg>
