<?xml version="1.0" encoding="iso-8859-1"?>
<!-- Generator: Adobe Illustrator 19.0.0, SVG Export Plug-In . SVG Version: 6.00 Build 0)  -->
<svg version="1.1" id="Capa_1" xmlns="http://www.w3.org/2000/svg" xmlns:xlink="http://www.w3.org/1999/xlink" x="0px" y="0px"
	 viewBox="0 0 512 512" style="enable-background:new 0 0 512 512;" xml:space="preserve">
<linearGradient id="SVGID_1_" gradientUnits="userSpaceOnUse" x1="256" y1="514" x2="256" y2="2" gradientTransform="matrix(1 0 0 -1 0 514)">
	<stop  offset="0" style="stop-color:#2AF598"/>
	<stop  offset="1" style="stop-color:#009EFD"/>
</linearGradient>
<path style="fill:url(#SVGID_1_);" d="M344.354,381.58c-1.33-1.651-33.207-40.458-88.354-40.458
	c-55.832,0-87.972,39.974-88.29,40.378l-31.42-24.756c1.79-2.271,44.687-55.622,119.71-55.622s117.92,53.352,119.71,55.622
	L344.29,381.5L344.354,381.58z M437.02,437.02C485.371,388.668,512,324.38,512,256s-26.629-132.667-74.98-181.02
	C388.667,26.629,324.38,0,256,0S123.333,26.629,74.98,74.98C26.629,123.333,0,187.62,0,256s26.629,132.668,74.98,181.02
	C123.333,485.371,187.62,512,256,512S388.667,485.371,437.02,437.02z M472,256c0,119.103-96.897,216-216,216S40,375.103,40,256
	S136.897,40,256,40S472,136.897,472,256z M168,212.122c17.673,0,32-14.327,32-32s-14.327-32-32-32s-32,14.327-32,32
	S150.327,212.122,168,212.122z M344,212.122c17.673,0,32-14.327,32-32s-14.327-32-32-32s-32,14.327-32,32
	S326.327,212.122,344,212.122z"/>
<g>
</g>
<g>
</g>
<g>
</g>
<g>
</g>
<g>
</g>
<g>
</g>
<g>
</g>
<g>
</g>
<g>
</g>
<g>
</g>
<g>
</g>
<g>
</g>
<g>
</g>
<g>
</g>
<g>
</g>
</svg>
