<?xml version="1.0" encoding="iso-8859-1"?>
<!-- Generator: Adobe Illustrator 19.0.0, SVG Export Plug-In . SVG Version: 6.00 Build 0)  -->
<svg version="1.1" id="Capa_1" xmlns="http://www.w3.org/2000/svg" xmlns:xlink="http://www.w3.org/1999/xlink" x="0px" y="0px"
	 viewBox="0 0 512 512" style="enable-background:new 0 0 512 512;" xml:space="preserve">
<linearGradient id="SVGID_1_" gradientUnits="userSpaceOnUse" x1="256.1692" y1="513.7809" x2="256.1692" y2="1.7809" gradientTransform="matrix(0.9994 0 0 -0.9994 -0.0272 513.638)">
	<stop  offset="0" style="stop-color:#2AF598"/>
	<stop  offset="1" style="stop-color:#009EFD"/>
</linearGradient>
<path style="fill:url(#SVGID_1_);" d="M440.04,410.914l71.96,71.96l-28.268,28.268l-71.96-71.96l-71.96,71.96l-28.268-28.268
	l71.96-71.96l-71.96-71.96l28.268-28.268l71.96,71.96l71.96-71.96L512,338.954L440.04,410.914z M255.858,295.978
	c-119.037,0-215.88,96.843-215.88,215.88H0c0-68.342,26.614-132.593,74.938-180.92c27.868-27.867,61.037-48.496,97.227-60.984
	c-38.76-26.695-64.225-71.374-64.225-121.894c0-81.562,66.356-147.918,147.918-147.918S403.776,66.498,403.776,148.06
	S337.42,295.978,255.858,295.978z M363.798,148.06c0-59.519-48.422-107.94-107.94-107.94s-107.94,48.421-107.94,107.94
	S196.34,256,255.858,256S363.798,207.579,363.798,148.06z"/>
<g>
</g>
<g>
</g>
<g>
</g>
<g>
</g>
<g>
</g>
<g>
</g>
<g>
</g>
<g>
</g>
<g>
</g>
<g>
</g>
<g>
</g>
<g>
</g>
<g>
</g>
<g>
</g>
<g>
</g>
</svg>
