<?xml version="1.0" encoding="iso-8859-1"?>
<!-- Generator: Adobe Illustrator 19.0.0, SVG Export Plug-In . SVG Version: 6.00 Build 0)  -->
<svg version="1.1" id="Capa_1" xmlns="http://www.w3.org/2000/svg" xmlns:xlink="http://www.w3.org/1999/xlink" x="0px" y="0px"
	 viewBox="0 0 512 512" style="enable-background:new 0 0 512 512;" xml:space="preserve">
<linearGradient id="SVGID_1_" gradientUnits="userSpaceOnUse" x1="256.5957" y1="513.2285" x2="256.5957" y2="1.2285" gradientTransform="matrix(0.9981 0 0 -0.9981 -0.0955 512.7271)">
	<stop  offset="0" style="stop-color:#2AF598"/>
	<stop  offset="1" style="stop-color:#009EFD"/>
</linearGradient>
<path style="fill:url(#SVGID_1_);" d="M403.212,148.211c0-81.448-66.264-147.712-147.711-147.712S107.789,66.763,107.789,148.211
	c0,50.449,25.429,95.065,64.137,121.724c-36.139,12.471-69.263,33.071-97.091,60.899C26.577,379.093,0,443.254,0,511.501h39.922
	c0-118.871,96.708-215.579,215.579-215.579C336.949,295.922,403.212,229.658,403.212,148.211z M255.501,256
	c-59.435,0-107.789-48.354-107.789-107.789S196.066,40.421,255.501,40.421S363.29,88.775,363.29,148.211S314.936,256,255.501,256z
	 M512,427.665h-83.836v83.836h-39.922v-83.836h-83.836v-39.922h83.836v-83.836h39.922v83.836H512V427.665z"/>
<g>
</g>
<g>
</g>
<g>
</g>
<g>
</g>
<g>
</g>
<g>
</g>
<g>
</g>
<g>
</g>
<g>
</g>
<g>
</g>
<g>
</g>
<g>
</g>
<g>
</g>
<g>
</g>
<g>
</g>
</svg>
