<?xml version="1.0" encoding="iso-8859-1"?>
<!-- Generator: Adobe Illustrator 19.0.0, SVG Export Plug-In . SVG Version: 6.00 Build 0)  -->
<svg version="1.1" id="Capa_1" xmlns="http://www.w3.org/2000/svg" xmlns:xlink="http://www.w3.org/1999/xlink" x="0px" y="0px"
	 viewBox="0 0 512 512" style="enable-background:new 0 0 512 512;" xml:space="preserve">
<linearGradient id="SVGID_1_" gradientUnits="userSpaceOnUse" x1="256" y1="514" x2="256" y2="2" gradientTransform="matrix(1 0 0 -1 0 514)">
	<stop  offset="0" style="stop-color:#2AF598"/>
	<stop  offset="1" style="stop-color:#009EFD"/>
</linearGradient>
<path style="fill:url(#SVGID_1_);" d="M154,512H70c-27.57,0-50-22.43-50-50V50C20,22.43,42.43,0,70,0h84c27.57,0,50,22.43,50,50v412
	C204,489.57,181.57,512,154,512z M70,40c-5.514,0-10,4.486-10,10v412c0,5.514,4.486,10,10,10h84c5.514,0,10-4.486,10-10V50
	c0-5.514-4.486-10-10-10H70z M442,512h-84c-27.57,0-50-22.43-50-50V50c0-27.57,22.43-50,50-50h84c27.57,0,50,22.43,50,50v412
	C492,489.57,469.57,512,442,512z M358,40c-5.514,0-10,4.486-10,10v412c0,5.514,4.486,10,10,10h84c5.514,0,10-4.486,10-10V50
	c0-5.514-4.486-10-10-10H358z"/>
<g>
</g>
<g>
</g>
<g>
</g>
<g>
</g>
<g>
</g>
<g>
</g>
<g>
</g>
<g>
</g>
<g>
</g>
<g>
</g>
<g>
</g>
<g>
</g>
<g>
</g>
<g>
</g>
<g>
</g>
</svg>
