<?xml version="1.0" encoding="iso-8859-1"?>
<!-- Generator: Adobe Illustrator 19.0.0, SVG Export Plug-In . SVG Version: 6.00 Build 0)  -->
<svg version="1.1" id="Capa_1" xmlns="http://www.w3.org/2000/svg" xmlns:xlink="http://www.w3.org/1999/xlink" x="0px" y="0px"
	 viewBox="0 0 512 512" style="enable-background:new 0 0 512 512;" xml:space="preserve">
<linearGradient id="SVGID_1_" gradientUnits="userSpaceOnUse" x1="256.3383" y1="513.5393" x2="256.3383" y2="1.5823" gradientTransform="matrix(0.9989 0 0 -0.9989 -0.0543 513.2754)">
	<stop  offset="0" style="stop-color:#2AF598"/>
	<stop  offset="1" style="stop-color:#009EFD"/>
</linearGradient>
<polygon style="fill:url(#SVGID_1_);" points="409.585,152.89 381.331,181.144 434.907,234.718 275.368,234.718 275.368,76.178 
	330.164,130.975 358.417,102.722 256,0.305 153.584,102.723 181.837,130.975 235.412,77.4 235.412,234.718 77.483,234.718 
	130.67,181.53 102.416,153.276 0,255.695 102.416,358.112 130.67,329.859 75.484,274.674 235.412,274.674 235.412,434.6 
	181.837,381.024 153.584,409.276 256,511.695 358.417,409.277 330.164,381.024 275.368,435.822 275.368,274.674 436.127,274.674 
	381.331,329.471 409.585,357.723 512,255.306 "/>
<g>
</g>
<g>
</g>
<g>
</g>
<g>
</g>
<g>
</g>
<g>
</g>
<g>
</g>
<g>
</g>
<g>
</g>
<g>
</g>
<g>
</g>
<g>
</g>
<g>
</g>
<g>
</g>
<g>
</g>
</svg>
