<?xml version="1.0" encoding="iso-8859-1"?>
<!-- Generator: Adobe Illustrator 19.0.0, SVG Export Plug-In . SVG Version: 6.00 Build 0)  -->
<svg version="1.1" id="Capa_1" xmlns="http://www.w3.org/2000/svg" xmlns:xlink="http://www.w3.org/1999/xlink" x="0px" y="0px"
	 viewBox="0 0 512 512" style="enable-background:new 0 0 512 512;" xml:space="preserve">
<linearGradient id="SVGID_1_" gradientUnits="userSpaceOnUse" x1="256.5957" y1="478.3705" x2="256.5957" y2="36.0865" gradientTransform="matrix(0.9981 0 0 -0.9981 -0.0955 512.7271)">
	<stop  offset="0" style="stop-color:#2AF598"/>
	<stop  offset="1" style="stop-color:#009EFD"/>
</linearGradient>
<path style="fill:url(#SVGID_1_);" d="M512,298.774c0,58.885-47.906,106.791-106.791,106.791h-4.99v-39.922h4.99
	c36.872,0,66.869-29.997,66.869-66.869s-29.997-66.869-66.869-66.869h-28.943v-34.932c0-67.14-54.622-121.762-121.762-121.762
	c-62.663,0-114.732,46.929-121.117,109.162l-1.697,16.533l-16.568,1.326c-42.168,3.375-75.199,39.206-75.199,81.572
	c0,41.918,30.876,76.923,71.986,81.84h0.871v0.1c0.043,0.005,0.089,0.01,0.133,0.015l-0.133,1.233v38.574h-3.063l-1.061-0.114
	c-29.691-3.184-57.139-17.312-77.29-39.781C11.139,343.118,0,314.044,0,283.804c0-30.807,11.531-60.205,32.47-82.78
	c17.139-18.478,39.293-31.031,63.563-36.25c6.793-33.574,24.141-64.22,49.814-87.53c29.795-27.054,68.382-41.954,108.657-41.954
	c87.668,0,159.263,70.14,161.624,157.248C469.905,198.021,512,243.573,512,298.774z M275.462,400.292v-198.33H235.54v198.33
	l-59.883-59.883l-28.229,28.229l108.073,108.073l108.073-108.073l-28.229-28.229L275.462,400.292z"/>
<g>
</g>
<g>
</g>
<g>
</g>
<g>
</g>
<g>
</g>
<g>
</g>
<g>
</g>
<g>
</g>
<g>
</g>
<g>
</g>
<g>
</g>
<g>
</g>
<g>
</g>
<g>
</g>
<g>
</g>
</svg>
