<?xml version="1.0" encoding="iso-8859-1"?>
<!-- Generator: Adobe Illustrator 19.0.0, SVG Export Plug-In . SVG Version: 6.00 Build 0)  -->
<svg version="1.1" id="Capa_1" xmlns="http://www.w3.org/2000/svg" xmlns:xlink="http://www.w3.org/1999/xlink" x="0px" y="0px"
	 viewBox="0 0 512 512" style="enable-background:new 0 0 512 512;" xml:space="preserve">
<linearGradient id="SVGID_1_" gradientUnits="userSpaceOnUse" x1="256.5957" y1="477.7285" x2="256.5957" y2="36.7285" gradientTransform="matrix(0.9981 0 0 -0.9981 -0.0955 512.7271)">
	<stop  offset="0" style="stop-color:#2AF598"/>
	<stop  offset="1" style="stop-color:#009EFD"/>
</linearGradient>
<path style="fill:url(#SVGID_1_);" d="M256.499,201.322l108.073,108.073l-28.229,28.229l-59.883-59.883v198.33h-39.922v-198.33
	l-59.883,59.883l-28.229-28.229L256.499,201.322z M416.127,193.178C413.766,106.07,342.171,35.93,254.503,35.93
	c-40.274,0-78.862,14.9-108.657,41.953c-25.673,23.31-43.021,53.957-49.814,87.53c-24.27,5.219-46.423,17.773-63.563,36.25
	C11.531,224.239,0,253.638,0,284.444c0,67.14,54.622,121.762,121.762,121.762c0.159,0,0.316-0.002,0.431-0.004h20.528v-39.922
	h-20.693l-0.38,0.004c-45.074-0.062-81.726-36.751-81.726-81.84c0-42.365,33.031-78.196,75.199-81.571l16.568-1.326l1.697-16.533
	c6.386-62.233,58.455-109.163,121.117-109.163c67.14,0,121.762,54.622,121.762,121.762v34.932h28.943
	c36.872,0,66.869,29.997,66.869,66.869s-29.997,66.869-66.869,66.869l-34.932-0.007V406.2h34.282
	c0.217,0.004,0.433,0.007,0.65,0.007C464.094,406.207,512,358.3,512,299.415C512,244.214,469.905,198.662,416.127,193.178z"/>
<g>
</g>
<g>
</g>
<g>
</g>
<g>
</g>
<g>
</g>
<g>
</g>
<g>
</g>
<g>
</g>
<g>
</g>
<g>
</g>
<g>
</g>
<g>
</g>
<g>
</g>
<g>
</g>
<g>
</g>
</svg>
