<?xml version="1.0" encoding="iso-8859-1"?>
<!-- Generator: Adobe Illustrator 19.0.0, SVG Export Plug-In . SVG Version: 6.00 Build 0)  -->
<svg version="1.1" id="Capa_1" xmlns="http://www.w3.org/2000/svg" xmlns:xlink="http://www.w3.org/1999/xlink" x="0px" y="0px"
	 viewBox="0 0 512 512" style="enable-background:new 0 0 512 512;" xml:space="preserve">
<linearGradient id="SVGID_1_" gradientUnits="userSpaceOnUse" x1="256" y1="488.4805" x2="256" y2="27.5175" gradientTransform="matrix(1 0 0 -1 0 513.999)">
	<stop  offset="0" style="stop-color:#2AF598"/>
	<stop  offset="1" style="stop-color:#009EFD"/>
</linearGradient>
<path style="fill:url(#SVGID_1_);" d="M452,105.519H345.926v-20c0-33.084-26.916-60-60-60h-59.852c-33.084,0-60,26.916-60,60v20H60
	c-33.084,0-60,26.916-60,60v52v40v168.963c0,33.084,26.916,60,60,60h392c33.084,0,60-26.916,60-60V257.519v-40v-52
	C512,132.435,485.084,105.519,452,105.519z M206.074,85.519c0-11.028,8.972-20,20-20h59.852c11.028,0,20,8.972,20,20v20h-99.852
	V85.519z M472,426.48c0,11.028-8.972,20-20,20H60c-11.028,0-20-8.972-20-20V257.519h65v53.963h40v-53.963h91v147h40v-147h91v53.963
	h40v-53.963h65V426.48z M40,217.518v-52c0-11.028,8.972-20,20-20h392c11.028,0,20,8.972,20,20v52H40z"/>
<g>
</g>
<g>
</g>
<g>
</g>
<g>
</g>
<g>
</g>
<g>
</g>
<g>
</g>
<g>
</g>
<g>
</g>
<g>
</g>
<g>
</g>
<g>
</g>
<g>
</g>
<g>
</g>
<g>
</g>
</svg>
