<?xml version="1.0" encoding="iso-8859-1"?>
<!-- Generator: Adobe Illustrator 19.0.0, SVG Export Plug-In . SVG Version: 6.00 Build 0)  -->
<svg version="1.1" id="Capa_1" xmlns="http://www.w3.org/2000/svg" xmlns:xlink="http://www.w3.org/1999/xlink" x="0px" y="0px"
	 viewBox="0 0 512 512" style="enable-background:new 0 0 512 512;" xml:space="preserve">
<linearGradient id="SVGID_1_" gradientUnits="userSpaceOnUse" x1="255.8946" y1="514.048" x2="255.8946" y2="2.2251" gradientTransform="matrix(1.0003 0 0 -1.0003 0.0169 514.2258)">
	<stop  offset="0" style="stop-color:#2AF598"/>
	<stop  offset="1" style="stop-color:#009EFD"/>
</linearGradient>
<path style="fill:url(#SVGID_1_);" d="M255.999,512l-8.134-3.619c-2.09-0.93-51.745-23.261-101.892-66.086
	c-29.823-25.469-53.675-52.976-70.888-81.757C53.082,323.75,41.927,284.876,41.927,245V124.29c0-29.095,20.849-53.95,49.576-59.098
	c48.499-8.691,93.167-35.179,115.477-50.195C221.551,5.187,238.502,0,255.999,0s34.449,5.187,49.023,14.997
	C327.33,30.012,371.999,56.5,420.497,65.192l0,0c28.726,5.149,49.576,30.003,49.576,59.098v120.709
	c0,39.877-11.157,78.75-33.159,115.538c-17.214,28.781-41.064,56.289-70.888,81.757c-50.147,42.826-99.804,65.157-101.892,66.086
	L255.999,512z M255.999,40.014c-9.506,0-18.731,2.827-26.677,8.177c-24.922,16.775-75.047,46.403-130.762,56.387
	c-9.63,1.727-16.621,10.016-16.621,19.712v120.709c0,59.45,30.033,115.375,89.267,166.224c34.429,29.555,69.383,48.82,84.793,56.643
	c15.399-7.817,50.357-27.082,84.792-56.643c59.233-50.85,89.267-106.775,89.267-166.224V124.29c0-9.695-6.99-17.985-16.621-19.712
	c-55.715-9.984-105.841-39.614-130.76-56.386C274.73,42.841,265.506,40.014,255.999,40.014z M256.013,422.52l-10.555-6.555
	c-17.233-10.702-33.219-22.319-47.514-34.527c-23.203-19.817-41.431-40.668-54.177-61.979
	c-14.678-24.54-21.814-48.897-21.814-74.461V140.899l14.407-4.2c45.105-13.15,84.043-34.99,108.766-50.997l10.874-7.04l10.874,7.04
	c24.722,16.007,63.659,37.846,108.766,50.997l14.407,4.2v104.1c0,25.018-6.831,48.86-20.883,72.889
	c-12.263,20.97-29.858,41.535-52.295,61.123c-15.053,13.142-31.976,25.574-50.299,36.954L256.013,422.52z M161.967,170.596v74.403
	c0,18.126,5.279,35.764,16.14,53.922c10.512,17.574,25.929,35.1,45.823,52.089c9.82,8.387,20.576,16.486,32.082,24.166
	c12.446-8.312,24.027-17.131,34.541-26.309c19.169-16.735,33.996-33.953,44.069-51.179c10.37-17.733,15.41-34.967,15.41-52.69
	v-74.403c-37.486-12.57-70.15-29.85-94.033-44.462C232.116,140.747,199.451,158.027,161.967,170.596z"/>
<g>
</g>
<g>
</g>
<g>
</g>
<g>
</g>
<g>
</g>
<g>
</g>
<g>
</g>
<g>
</g>
<g>
</g>
<g>
</g>
<g>
</g>
<g>
</g>
<g>
</g>
<g>
</g>
<g>
</g>
</svg>
