<?xml version="1.0" encoding="iso-8859-1"?>
<!-- Generator: Adobe Illustrator 19.0.0, SVG Export Plug-In . SVG Version: 6.00 Build 0)  -->
<svg version="1.1" id="Capa_1" xmlns="http://www.w3.org/2000/svg" xmlns:xlink="http://www.w3.org/1999/xlink" x="0px" y="0px"
	 viewBox="0 0 512 512" style="enable-background:new 0 0 512 512;" xml:space="preserve">
<linearGradient id="SVGID_1_" gradientUnits="userSpaceOnUse" x1="256" y1="514" x2="256" y2="2" gradientTransform="matrix(1 0 0 -1 0 514)">
	<stop  offset="0" style="stop-color:#2AF598"/>
	<stop  offset="1" style="stop-color:#009EFD"/>
</linearGradient>
<path style="fill:url(#SVGID_1_);" d="M415,0H97C63.916,0,37,26.916,37,60v392c0,33.084,26.916,60,60,60h318
	c33.084,0,60-26.916,60-60V60C475,26.916,448.084,0,415,0z M97,40h318c11.028,0,20,8.972,20,20v72H77V60C77,48.972,85.972,40,97,40z
	 M415,472H97c-11.028,0-20-8.972-20-20V172h358v280C435,463.028,426.028,472,415,472z M350,302.08h40V418h-40V302.08z M123,226h40
	v40h-40V226z M199,226h40v40h-40V226z M274,226h40v40h-40V226z M123,302h40v40h-40V302z M199,302h40v40h-40V302z M274,302h40v40h-40
	V302z M350,226h40v40h-40V226z M123,378h40v40h-40V378z M199,378h40v40h-40V378z M274,378h40v40h-40V378z"/>
<g>
</g>
<g>
</g>
<g>
</g>
<g>
</g>
<g>
</g>
<g>
</g>
<g>
</g>
<g>
</g>
<g>
</g>
<g>
</g>
<g>
</g>
<g>
</g>
<g>
</g>
<g>
</g>
<g>
</g>
</svg>
