<?xml version="1.0" encoding="iso-8859-1"?>
<!-- Generator: Adobe Illustrator 19.0.0, SVG Export Plug-In . SVG Version: 6.00 Build 0)  -->
<svg version="1.1" id="Capa_1" xmlns="http://www.w3.org/2000/svg" xmlns:xlink="http://www.w3.org/1999/xlink" x="0px" y="0px"
	 viewBox="0 0 512 512" style="enable-background:new 0 0 512 512;" xml:space="preserve">
<linearGradient id="SVGID_1_" gradientUnits="userSpaceOnUse" x1="256" y1="489" x2="256" y2="27" gradientTransform="matrix(1 0 0 -1 0 514)">
	<stop  offset="0" style="stop-color:#2AF598"/>
	<stop  offset="1" style="stop-color:#009EFD"/>
</linearGradient>
<path style="fill:url(#SVGID_1_);" d="M432,217h-84v-40h84V217z M512,427V157c0-33.084-26.916-60-60-60H329
	c-2.33,0-4.428-1.271-5.507-3.326L303.136,50.9c-0.056-0.117-0.113-0.233-0.17-0.35C295.085,34.791,279.244,25,261.624,25H152.952
	c-17.621,0-33.462,9.791-41.342,25.551c-0.058,0.116-0.115,0.232-0.17,0.35L91.082,93.674C90.003,95.729,87.905,97,85.575,97H60
	c-33.084,0-60,26.916-60,60v270c0,33.084,26.916,60,60,60h392C485.084,487,512,460.084,512,427z M85.575,137
	c17.621,0,33.462-9.791,41.342-25.551c0.058-0.116,0.115-0.232,0.17-0.35l20.356-42.773c1.08-2.055,3.178-3.326,5.507-3.326h108.672
	c2.33,0,4.428,1.271,5.507,3.326l20.357,42.773c0.056,0.117,0.113,0.233,0.17,0.35C295.538,127.209,311.379,137,329,137h123
	c11.028,0,20,8.972,20,20v270c0,11.028-8.972,20-20,20H60c-11.028,0-20-8.972-20-20V157c0-11.028,8.972-20,20-20H85.575z M330,282
	c0-68.925-56.075-125-125-125S80,213.075,80,282s56.075,125,125,125S330,350.925,330,282z M290,282c0,46.869-38.131,85-85,85
	s-85-38.131-85-85s38.131-85,85-85S290,235.131,290,282z"/>
<g>
</g>
<g>
</g>
<g>
</g>
<g>
</g>
<g>
</g>
<g>
</g>
<g>
</g>
<g>
</g>
<g>
</g>
<g>
</g>
<g>
</g>
<g>
</g>
<g>
</g>
<g>
</g>
<g>
</g>
</svg>
