<?xml version="1.0" encoding="iso-8859-1"?>
<!-- Generator: Adobe Illustrator 19.0.0, SVG Export Plug-In . SVG Version: 6.00 Build 0)  -->
<svg version="1.1" id="Capa_1" xmlns="http://www.w3.org/2000/svg" xmlns:xlink="http://www.w3.org/1999/xlink" x="0px" y="0px"
	 viewBox="0 0 512 512" style="enable-background:new 0 0 512 512;" xml:space="preserve">
<linearGradient id="SVGID_1_" gradientUnits="userSpaceOnUse" x1="256" y1="514" x2="256" y2="2" gradientTransform="matrix(1 0 0 -1 0 514)">
	<stop  offset="0" style="stop-color:#2AF598"/>
	<stop  offset="1" style="stop-color:#009EFD"/>
</linearGradient>
<path style="fill:url(#SVGID_1_);" d="M316.813,0H113.055c-33.084,0-60,26.916-60,60v392c0,33.084,26.916,60,60,60h285.889
	c33.084,0,60-26.916,60-60V142.856L316.813,0z M327.943,67.9l62.89,63.211h-42.89c-11.028,0-20-8.972-20-20V67.9L327.943,67.9z
	 M398.943,472H113.055c-11.028,0-20-8.972-20-20V60c0-11.028,8.972-20,20-20h174.889v71.111c0,33.084,26.916,60,60,60h71V452
	C418.943,463.028,409.972,472,398.943,472z"/>
<g>
</g>
<g>
</g>
<g>
</g>
<g>
</g>
<g>
</g>
<g>
</g>
<g>
</g>
<g>
</g>
<g>
</g>
<g>
</g>
<g>
</g>
<g>
</g>
<g>
</g>
<g>
</g>
<g>
</g>
</svg>
