<?xml version="1.0" encoding="iso-8859-1"?>
<!-- Generator: Adobe Illustrator 19.0.0, SVG Export Plug-In . SVG Version: 6.00 Build 0)  -->
<svg version="1.1" id="Capa_1" xmlns="http://www.w3.org/2000/svg" xmlns:xlink="http://www.w3.org/1999/xlink" x="0px" y="0px"
	 viewBox="0 0 512 512" style="enable-background:new 0 0 512 512;" xml:space="preserve">
<linearGradient id="SVGID_1_" gradientUnits="userSpaceOnUse" x1="256" y1="514" x2="256" y2="2" gradientTransform="matrix(1 0 0 -1 0 514)">
	<stop  offset="0" style="stop-color:#2AF598"/>
	<stop  offset="1" style="stop-color:#009EFD"/>
</linearGradient>
<path style="fill:url(#SVGID_1_);" d="M437.02,74.98C388.667,26.629,324.38,0,256,0S123.333,26.629,74.98,74.98
	C26.629,123.333,0,187.62,0,256s26.629,132.667,74.98,181.02C123.333,485.371,187.62,512,256,512s132.667-26.629,181.02-74.98
	C485.371,388.667,512,324.38,512,256S485.371,123.333,437.02,74.98z M40.934,276h77.473c1.089,27.107,4.387,53.38,9.718,78H63.541
	C51.373,330.2,43.504,303.856,40.934,276z M276,118V45.108c16.469,8.342,32.393,26.646,45.55,52.96
	c3.164,6.329,6.11,12.988,8.837,19.933L276,118L276,118z M342.879,158c5.861,24.212,9.493,50.556,10.682,78H276v-78H342.879z
	 M236,45.108V118h-54.387c2.727-6.944,5.673-13.604,8.837-19.933C203.607,71.753,219.531,53.45,236,45.108z M236,158v78h-77.561
	c1.189-27.444,4.82-53.788,10.682-78H236z M118.407,236H40.934c2.57-27.856,10.438-54.2,22.607-78h64.584
	C122.794,182.62,119.496,208.893,118.407,236z M158.439,276H236v78h-66.879C163.26,329.788,159.628,303.444,158.439,276z M236,394
	v72.892c-16.469-8.342-32.393-26.646-45.55-52.96c-3.164-6.329-6.11-12.988-8.837-19.933H236V394z M276,466.892V394h54.387
	c-2.727,6.944-5.673,13.604-8.837,19.933C308.393,440.247,292.469,458.55,276,466.892z M276,354v-78h77.561
	c-1.189,27.444-4.82,53.788-10.682,78H276z M393.593,276h77.473c-2.57,27.856-10.438,54.2-22.607,78h-64.584
	C389.206,329.38,392.504,303.107,393.593,276z M393.593,236c-1.089-27.107-4.387-53.38-9.718-78h64.584
	c12.168,23.8,20.037,50.144,22.607,78H393.593z M422.036,118h-49.11c-4.522-13.421-9.733-26.088-15.6-37.821
	c-3.687-7.373-7.586-14.257-11.665-20.67C375.324,73.098,401.397,93.209,422.036,118z M166.338,59.509
	c-4.079,6.413-7.979,13.297-11.665,20.67c-5.866,11.733-11.077,24.4-15.6,37.821h-49.11
	C110.603,93.209,136.676,73.098,166.338,59.509z M89.964,394h49.11c4.522,13.421,9.733,26.088,15.6,37.821
	c3.687,7.373,7.586,14.257,11.665,20.67C136.676,438.902,110.603,418.791,89.964,394z M345.662,452.491
	c4.079-6.413,7.979-13.297,11.665-20.67c5.866-11.733,11.077-24.4,15.6-37.821h49.11
	C401.397,418.791,375.324,438.902,345.662,452.491z"/>
<g>
</g>
<g>
</g>
<g>
</g>
<g>
</g>
<g>
</g>
<g>
</g>
<g>
</g>
<g>
</g>
<g>
</g>
<g>
</g>
<g>
</g>
<g>
</g>
<g>
</g>
<g>
</g>
<g>
</g>
</svg>
