<?xml version="1.0" encoding="iso-8859-1"?>
<!-- Generator: Adobe Illustrator 19.0.0, SVG Export Plug-In . SVG Version: 6.00 Build 0)  -->
<svg version="1.1" id="Capa_1" xmlns="http://www.w3.org/2000/svg" xmlns:xlink="http://www.w3.org/1999/xlink" x="0px" y="0px"
	 viewBox="0 0 512 512" style="enable-background:new 0 0 512 512;" xml:space="preserve">
<linearGradient id="SVGID_1_" gradientUnits="userSpaceOnUse" x1="255.9559" y1="514.0201" x2="255.9559" y2="2.0941" gradientTransform="matrix(1.0001 0 0 -1.0001 0.0071 514.0944)">
	<stop  offset="0" style="stop-color:#2AF598"/>
	<stop  offset="1" style="stop-color:#009EFD"/>
</linearGradient>
<path style="fill:url(#SVGID_1_);" d="M342.997,0H183.99c-33.089,0-60.009,26.916-60.009,60.001v19.937h-20.003
	c-33.089,0-60.009,26.92-60.009,60.009v312.045c0,33.089,26.92,60.009,60.009,60.009h234.034c33.089,0,60.009-26.92,60.009-60.009
	v-20l10.001-0.003c33.089,0,60.009-26.916,60.009-60.001V125.746L342.997,0z M354.014,67.818l45.864,46.124h-25.861
	c-11.03,0-20.003-8.973-20.003-20.003V67.818z M358.015,451.991c0,11.03-8.973,20.003-20.003,20.003H103.978
	c-11.03,0-20.003-8.973-20.003-20.003V139.946c0-11.03,8.973-20.003,20.003-20.003h20.003v252.118
	c0,33.085,26.92,60.001,60.016,60.001l174.018-0.058V451.991z M408.015,391.983l-224.025,0.074c-11.03,0-20.003-8.97-20.003-19.995
	V60.001c0-11.025,8.973-19.995,20.003-19.995h130.019V93.94c0,33.089,26.92,60.009,60.009,60.009h54.008v218.04
	C428.025,383.012,419.052,391.983,408.015,391.983z"/>
<g>
</g>
<g>
</g>
<g>
</g>
<g>
</g>
<g>
</g>
<g>
</g>
<g>
</g>
<g>
</g>
<g>
</g>
<g>
</g>
<g>
</g>
<g>
</g>
<g>
</g>
<g>
</g>
<g>
</g>
</svg>
