<?xml version="1.0" encoding="iso-8859-1"?>
<!-- Generator: Adobe Illustrator 19.0.0, SVG Export Plug-In . SVG Version: 6.00 Build 0)  -->
<svg version="1.1" id="Capa_1" xmlns="http://www.w3.org/2000/svg" xmlns:xlink="http://www.w3.org/1999/xlink" x="0px" y="0px"
	 viewBox="0 0 512 512" style="enable-background:new 0 0 512 512;" xml:space="preserve">
<linearGradient id="SVGID_1_" gradientUnits="userSpaceOnUse" x1="256" y1="390" x2="256" y2="126" gradientTransform="matrix(1 0 0 -1 0 514)">
	<stop  offset="0" style="stop-color:#2AF598"/>
	<stop  offset="1" style="stop-color:#009EFD"/>
</linearGradient>
<path style="fill:url(#SVGID_1_);" d="M380,124H132C59.215,124,0,183.215,0,256s59.215,132,132,132h248c72.785,0,132-59.215,132-132
	S452.785,124,380,124z M458.768,208.51L319.278,348h-57.491l168.802-168.802C442.014,186.749,451.666,196.774,458.768,208.51z
	 M226.559,164h49.526l-28.432,28.432C241.906,182.018,234.793,172.462,226.559,164z M388.795,164.423L258.076,295.141
	C261.925,282.769,264,269.622,264,256c0-7.346-0.613-14.551-1.772-21.573L332.654,164H380
	C382.967,164,385.899,164.147,388.795,164.423z M40,256c0-50.729,41.271-92,92-92s92,41.271,92,92s-41.271,92-92,92
	S40,306.729,40,256z M380,348h-4.153l96.059-96.058C471.964,253.288,472,254.64,472,256C472,306.729,430.729,348,380,348z"/>
<g>
</g>
<g>
</g>
<g>
</g>
<g>
</g>
<g>
</g>
<g>
</g>
<g>
</g>
<g>
</g>
<g>
</g>
<g>
</g>
<g>
</g>
<g>
</g>
<g>
</g>
<g>
</g>
<g>
</g>
</svg>
