<?xml version="1.0" encoding="iso-8859-1"?>
<!-- Generator: Adobe Illustrator 19.0.0, SVG Export Plug-In . SVG Version: 6.00 Build 0)  -->
<svg version="1.1" id="Capa_1" xmlns="http://www.w3.org/2000/svg" xmlns:xlink="http://www.w3.org/1999/xlink" x="0px" y="0px"
	 viewBox="0 0 512 512" style="enable-background:new 0 0 512 512;" xml:space="preserve">
<linearGradient id="SVGID_1_" gradientUnits="userSpaceOnUse" x1="256" y1="471.045" x2="256" y2="44.955" gradientTransform="matrix(1 0 0 -1 0 514)">
	<stop  offset="0" style="stop-color:#2AF598"/>
	<stop  offset="1" style="stop-color:#009EFD"/>
</linearGradient>
<path style="fill:url(#SVGID_1_);" d="M256.003,469.045l-9.994-5.764c0,0-11.251-6.488-16.306-9.427
	c-12.132-7.054-75.581-44.979-133.475-99.018C32.376,295.235,0,239.18,0,188.229c0-42.477,13.946-79.052,40.33-105.771
	C65.485,56.984,100.171,42.955,138,42.955c52.941,0,93.74,25.485,118,73.711c24.26-48.226,65.059-73.711,118-73.711
	c37.829,0,72.515,14.029,97.67,39.502c26.384,26.72,40.33,63.295,40.33,105.772c0,50.951-32.378,107.006-96.233,166.606
	c-57.893,54.035-121.345,91.963-133.477,99.018c-5.052,2.938-16.294,9.425-16.294,9.425L256.003,469.045z M138,82.955
	c-57.701,0-98,43.29-98,105.274c0,38.863,28.882,86.363,83.522,137.365c54.76,51.113,114.806,87.004,126.287,93.68
	c1.616,0.94,3.873,2.247,6.188,3.585c2.314-1.339,4.569-2.645,6.186-3.585c11.482-6.676,71.532-42.57,126.291-93.68
	C443.117,274.592,472,227.092,472,188.229c0-61.984-40.299-105.274-98-105.274c-37.374,0-65.072,17.428-82.323,51.8
	c-13.567,27.03-15.701,54.875-15.719,55.149h-39.146l-0.768,0.052c-0.02-0.284-2.152-28.734-16.216-56.175
	C202.303,99.58,175.536,82.955,138,82.955z"/>
<g>
</g>
<g>
</g>
<g>
</g>
<g>
</g>
<g>
</g>
<g>
</g>
<g>
</g>
<g>
</g>
<g>
</g>
<g>
</g>
<g>
</g>
<g>
</g>
<g>
</g>
<g>
</g>
<g>
</g>
</svg>
