<?xml version="1.0" encoding="iso-8859-1"?>
<!-- Generator: Adobe Illustrator 19.0.0, SVG Export Plug-In . SVG Version: 6.00 Build 0)  -->
<svg version="1.1" id="Capa_1" xmlns="http://www.w3.org/2000/svg" xmlns:xlink="http://www.w3.org/1999/xlink" x="0px" y="0px"
	 viewBox="0 0 512 512" style="enable-background:new 0 0 512 512;" xml:space="preserve">
<linearGradient id="SVGID_1_" gradientUnits="userSpaceOnUse" x1="256.0074" y1="491.9715" x2="256.0074" y2="24.0112" gradientTransform="matrix(1 0 0 -1 -0.0012 513.9855)">
	<stop  offset="0" style="stop-color:#2AF598"/>
	<stop  offset="1" style="stop-color:#009EFD"/>
</linearGradient>
<path style="fill:url(#SVGID_1_);" d="M131.661,489.975c-33.627,0.001-66.315-14.33-92.054-40.353
	C12.85,422.568-0.832,390.108,0.039,355.753c0.816-32.217,14.88-63.719,39.601-88.7l0.075-0.076L236.855,69.882l28.28,28.286
	L68.04,295.22c-31.083,31.434-43.131,82.659,0.006,126.274c18.429,18.633,40.426,28.481,63.614,28.481c0.004,0,0.008,0,0.012,0
	c23.194-0.003,45.806-9.943,63.677-27.988l260.074-268.6c18.388-18.582,25.513-48.885-0.017-74.698
	c-21.516-21.754-49.491-22.186-71.327-1.123L155.594,309.862c-3.552,3.589-10.577,12.986-0.049,23.631
	c3.627,3.667,7.471,5.526,11.423,5.525c4.017,0,8.164-1.959,11.68-5.516l158.053-161.471l28.585,27.979L207.163,361.553
	c-11.155,11.285-25.403,17.463-40.189,17.465c-0.002,0-0.005,0-0.007,0c-14.609,0-28.764-6.178-39.86-17.398
	c-22.883-23.137-22.876-56.719,0.014-79.85L355.897,49.175l0.166-0.161c17.624-17.108,39.748-26.689,62.298-26.981
	c24.102-0.316,46.718,9.554,65.483,28.528c37.51,37.927,37.543,92.949,0.094,130.875L223.864,450.037
	c-25.451,25.749-58.191,39.933-92.186,39.937C131.674,489.975,131.665,489.975,131.661,489.975z"/>
<g>
</g>
<g>
</g>
<g>
</g>
<g>
</g>
<g>
</g>
<g>
</g>
<g>
</g>
<g>
</g>
<g>
</g>
<g>
</g>
<g>
</g>
<g>
</g>
<g>
</g>
<g>
</g>
<g>
</g>
</svg>
