<?xml version="1.0" encoding="iso-8859-1"?>
<!-- Generator: Adobe Illustrator 19.0.0, SVG Export Plug-In . SVG Version: 6.00 Build 0)  -->
<svg version="1.1" id="Capa_1" xmlns="http://www.w3.org/2000/svg" xmlns:xlink="http://www.w3.org/1999/xlink" x="0px" y="0px"
	 viewBox="0 0 512 512" style="enable-background:new 0 0 512 512;" xml:space="preserve">
<linearGradient id="SVGID_1_" gradientUnits="userSpaceOnUse" x1="256.1882" y1="434.7547" x2="256.1882" y2="80.7557" gradientTransform="matrix(0.9994 0 0 -0.9994 -0.0302 513.5963)">
	<stop  offset="0" style="stop-color:#2AF598"/>
	<stop  offset="1" style="stop-color:#009EFD"/>
</linearGradient>
<path style="fill:url(#SVGID_1_);" d="M256,432.89c-52.234,0-104.834-21.616-156.341-64.245
	c-41.131-34.043-70.965-72.959-83.705-89.578c-2.729-3.561-7.791-11.018-8.359-11.858L0,255.999l7.596-11.211
	c0.569-0.838,5.63-8.295,8.357-11.853c12.741-16.62,42.576-55.537,83.706-89.579C151.166,100.725,203.766,79.11,256,79.11
	s104.834,21.616,156.34,64.246c41.132,34.043,70.965,72.96,83.705,89.578c2.728,3.56,7.789,11.015,8.358,11.855l7.596,11.21
	l-7.595,11.212c-0.568,0.839-5.631,8.298-8.359,11.858c-12.74,16.618-42.574,55.534-83.705,89.578
	C360.834,411.275,308.234,432.89,256,432.89z M48.643,256C118.605,346.85,188.366,392.916,256,392.916
	c67.635,0,137.395-46.065,207.356-136.915C393.396,165.151,323.634,119.085,256,119.085C188.366,119.084,118.607,165.149,48.643,256
	z M256,294.975c21.526,0,38.976-17.45,38.976-38.976s-17.45-38.976-38.976-38.976c-21.526,0-38.976,17.45-38.976,38.976
	S234.474,294.975,256,294.975z M256,369.929c-62.821,0-113.93-51.108-113.93-113.93S193.179,142.07,256,142.07
	s113.93,51.108,113.93,113.93S318.821,369.929,256,369.929z M256,182.045c-40.779,0-73.954,33.176-73.954,73.954
	s33.176,73.954,73.954,73.954s73.954-33.176,73.954-73.954S296.779,182.045,256,182.045z"/>
<g>
</g>
<g>
</g>
<g>
</g>
<g>
</g>
<g>
</g>
<g>
</g>
<g>
</g>
<g>
</g>
<g>
</g>
<g>
</g>
<g>
</g>
<g>
</g>
<g>
</g>
<g>
</g>
<g>
</g>
</svg>
