<?xml version="1.0" encoding="iso-8859-1"?>
<!-- Generator: Adobe Illustrator 19.0.0, SVG Export Plug-In . SVG Version: 6.00 Build 0)  -->
<svg version="1.1" id="Capa_1" xmlns="http://www.w3.org/2000/svg" xmlns:xlink="http://www.w3.org/1999/xlink" x="0px" y="0px"
	 viewBox="0 0 512 512" style="enable-background:new 0 0 512 512;" xml:space="preserve">
<linearGradient id="SVGID_1_" gradientUnits="userSpaceOnUse" x1="256.1882" y1="513.3982" x2="256.1882" y2="2.1142" gradientTransform="matrix(0.9994 0 0 -0.9994 -0.0302 513.5972)">
	<stop  offset="0" style="stop-color:#2AF598"/>
	<stop  offset="1" style="stop-color:#009EFD"/>
</linearGradient>
<path style="fill:url(#SVGID_1_);" d="M256,369.93c-62.821,0-113.93-51.108-113.93-113.93c0-8.988,1.035-17.806,3.038-26.327
	l37.839,37.839c4.957,31.577,29.965,56.584,61.541,61.541l37.827,37.827C273.787,368.889,264.97,369.93,256,369.93z
	 M403.773,375.506l107.712,107.712l-28.267,28.267L0.516,28.782L28.782,0.516l112.892,112.892
	C179.622,90.644,218.013,79.109,256,79.109c52.234,0,104.834,21.616,156.34,64.246c41.132,34.043,70.965,72.96,83.705,89.578
	c2.728,3.56,7.789,11.015,8.358,11.854L512,255.998l-7.595,11.212c-0.568,0.838-5.631,8.298-8.359,11.858
	C482.616,296.586,449.51,339.752,403.773,375.506z M170.957,142.691l19.858,19.858c19.003-13.295,41.605-20.478,65.185-20.478
	c62.821,0,113.93,51.108,113.93,113.93c0,23.629-7.172,46.203-20.47,65.193l25.82,25.82c42.524-32.129,73.527-72.042,88.078-91.012
	C393.397,165.151,323.634,119.085,256,119.085C228.192,119.084,199.672,127.016,170.957,142.691z M294.976,256
	c0,3.289-0.412,6.48-1.178,9.531l26.689,26.689c6.166-10.944,9.468-23.336,9.468-36.22c0-40.779-33.176-73.954-73.954-73.954
	c-12.859,0-25.264,3.302-36.218,9.469l26.688,26.688c3.05-0.767,6.242-1.178,9.53-1.178
	C277.526,217.024,294.976,234.474,294.976,256z M256,392.915c-67.634,0-137.396-46.067-207.357-136.916
	c10.041-13.088,30.201-39.06,57.341-64.785l-28.278-28.278c-29.893,28.457-51.502,56.629-61.752,69.998
	c-2.727,3.559-7.788,11.014-8.357,11.854L0,255.999l7.595,11.212c0.568,0.838,5.63,8.297,8.359,11.858
	c12.74,16.618,42.575,55.534,83.705,89.577c51.506,42.631,104.107,64.245,156.341,64.245c25.353,0,50.884-5.137,76.342-15.318
	l-31.384-31.384C285.824,390.659,270.811,392.915,256,392.915z"/>
<g>
</g>
<g>
</g>
<g>
</g>
<g>
</g>
<g>
</g>
<g>
</g>
<g>
</g>
<g>
</g>
<g>
</g>
<g>
</g>
<g>
</g>
<g>
</g>
<g>
</g>
<g>
</g>
<g>
</g>
</svg>
