<?xml version="1.0" encoding="iso-8859-1"?>
<!-- Generator: Adobe Illustrator 19.0.0, SVG Export Plug-In . SVG Version: 6.00 Build 0)  -->
<svg version="1.1" id="Capa_1" xmlns="http://www.w3.org/2000/svg" xmlns:xlink="http://www.w3.org/1999/xlink" x="0px" y="0px"
	 viewBox="0 0 512 512" style="enable-background:new 0 0 512 512;" xml:space="preserve">
<linearGradient id="SVGID_1_" gradientUnits="userSpaceOnUse" x1="256.1692" y1="513.7809" x2="256.1692" y2="1.781" gradientTransform="matrix(0.9994 0 0 -0.9994 -0.0272 513.6381)">
	<stop  offset="0" style="stop-color:#2AF598"/>
	<stop  offset="1" style="stop-color:#009EFD"/>
</linearGradient>
<path style="fill:url(#SVGID_1_);" d="M512,60.109v391.783c0,33.066-26.901,59.967-59.967,59.967H60.251
	c-33.066,0-59.967-26.901-59.967-59.967v-79.956h39.978v79.956c0,11.022,8.967,19.989,19.989,19.989h391.783
	c11.022,0,19.989-8.967,19.989-19.989V60.109c0-11.022-8.967-19.989-19.989-19.989H60.251c-11.022,0-19.989,8.967-19.989,19.989
	v79.956H0.284V60.109c0-33.066,26.901-59.967,59.967-59.967h391.783C485.099,0.142,512,27.043,512,60.109z M124.215,131.785L0,256
	l124.215,124.215l28.268-28.268l-75.958-75.958h287.556v-39.978H76.526l75.958-75.958L124.215,131.785z"/>
<g>
</g>
<g>
</g>
<g>
</g>
<g>
</g>
<g>
</g>
<g>
</g>
<g>
</g>
<g>
</g>
<g>
</g>
<g>
</g>
<g>
</g>
<g>
</g>
<g>
</g>
<g>
</g>
<g>
</g>
</svg>
