<?xml version="1.0" encoding="iso-8859-1"?>
<!-- Generator: Adobe Illustrator 19.0.0, SVG Export Plug-In . SVG Version: 6.00 Build 0)  -->
<svg version="1.1" id="Capa_1" xmlns="http://www.w3.org/2000/svg" xmlns:xlink="http://www.w3.org/1999/xlink" x="0px" y="0px"
	 viewBox="0 0 512 512" style="enable-background:new 0 0 512 512;" xml:space="preserve">
<linearGradient id="SVGID_1_" gradientUnits="userSpaceOnUse" x1="256" y1="462" x2="256" y2="54" gradientTransform="matrix(1 0 0 -1 0 514)">
	<stop  offset="0" style="stop-color:#2AF598"/>
	<stop  offset="1" style="stop-color:#009EFD"/>
</linearGradient>
<path style="fill:url(#SVGID_1_);" d="M452,460H332.838l9.278-26.589C351.692,405.969,356,378.641,356,368c0-19.851-16.149-36-36-36
	s-36,16.149-36,36c0,10.641,4.308,37.969,13.884,65.411L307.162,460H188c-33.084,0-60-26.916-60-60v-76.114
	C106.357,329.416,87.172,332,76,332c-41.906,0-76-34.093-76-76s34.094-76,76-76c11.172,0,30.357,2.584,52,8.114V112
	c0-33.084,26.916-60,60-60h119.162l-9.278,26.589C288.308,106.031,284,133.359,284,144c0,19.851,16.149,36,36,36s36-16.149,36-36
	c0-10.641-4.308-37.969-13.884-65.411L332.838,52H452c33.084,0,60,26.916,60,60v288C512,433.084,485.084,460,452,460z M387.886,420
	H452c11.028,0,20-8.972,20-20V112c0-11.028-8.972-20-20-20h-64.114c5.53,21.642,8.114,40.828,8.114,52c0,41.907-34.094,76-76,76
	s-76-34.093-76-76c0-11.172,2.584-30.358,8.114-52H188c-11.028,0-20,8.972-20,20v131.162l-26.59-9.279
	C113.969,224.307,86.641,220,76,220c-19.851,0-36,16.149-36,36s16.149,36,36,36c10.641,0,37.969-4.307,65.41-13.883l26.59-9.279V400
	c0,11.028,8.972,20,20,20h64.114c-5.53-21.642-8.114-40.828-8.114-52c0-41.907,34.094-76,76-76s76,34.093,76,76
	C396,379.172,393.416,398.358,387.886,420z"/>
<g>
</g>
<g>
</g>
<g>
</g>
<g>
</g>
<g>
</g>
<g>
</g>
<g>
</g>
<g>
</g>
<g>
</g>
<g>
</g>
<g>
</g>
<g>
</g>
<g>
</g>
<g>
</g>
<g>
</g>
</svg>
