<?xml version="1.0" encoding="iso-8859-1"?>
<!-- Generator: Adobe Illustrator 19.0.0, SVG Export Plug-In . SVG Version: 6.00 Build 0)  -->
<svg version="1.1" id="Capa_1" xmlns="http://www.w3.org/2000/svg" xmlns:xlink="http://www.w3.org/1999/xlink" x="0px" y="0px"
	 viewBox="0 0 512 512" style="enable-background:new 0 0 512 512;" xml:space="preserve">
<linearGradient id="SVGID_1_" gradientUnits="userSpaceOnUse" x1="255.8284" y1="514.0782" x2="255.8284" y2="2.3662" gradientTransform="matrix(1.0006 0 0 -1.0006 0.0276 514.3675)">
	<stop  offset="0" style="stop-color:#2AF598"/>
	<stop  offset="1" style="stop-color:#009EFD"/>
</linearGradient>
<path style="fill:url(#SVGID_1_);" d="M256,300.169c-52.412,0-95.053-42.641-95.053-95.053s42.641-95.053,95.053-95.053
	s95.053,42.641,95.053,95.053S308.413,300.169,256,300.169z M256,150.084c-30.344,0-55.031,24.687-55.031,55.031
	s24.687,55.031,55.031,55.031s55.031-24.687,55.031-55.031S286.344,150.084,256,150.084z M256,512l-12.576-10.161
	c-1.944-1.572-48.177-39.108-95.065-92.94c-64.679-74.258-97.474-140.913-97.474-198.113v-5.67C50.885,92.015,142.899,0,256,0
	s205.115,92.015,205.115,205.115v5.67c0,57.2-32.794,123.856-97.474,198.113c-46.887,53.832-93.12,91.368-95.065,92.94L256,512z
	 M256,40.023c-91.032,0-165.093,74.061-165.093,165.093v5.67c0,96.658,124.54,213.669,165.093,249.202
	c40.542-35.522,165.093-152.537,165.093-249.202v-5.67C421.093,114.083,347.032,40.023,256,40.023z"/>
<g>
</g>
<g>
</g>
<g>
</g>
<g>
</g>
<g>
</g>
<g>
</g>
<g>
</g>
<g>
</g>
<g>
</g>
<g>
</g>
<g>
</g>
<g>
</g>
<g>
</g>
<g>
</g>
<g>
</g>
</svg>
