<?xml version="1.0" encoding="iso-8859-1"?>
<!-- Generator: Adobe Illustrator 19.0.0, SVG Export Plug-In . SVG Version: 6.00 Build 0)  -->
<svg version="1.1" id="Capa_1" xmlns="http://www.w3.org/2000/svg" xmlns:xlink="http://www.w3.org/1999/xlink" x="0px" y="0px"
	 viewBox="0 0 512 512" style="enable-background:new 0 0 512 512;" xml:space="preserve">
<linearGradient id="SVGID_1_" gradientUnits="userSpaceOnUse" x1="256" y1="514" x2="256" y2="2" gradientTransform="matrix(1 0 0 -1 0 514)">
	<stop  offset="0" style="stop-color:#2AF598"/>
	<stop  offset="1" style="stop-color:#009EFD"/>
</linearGradient>
<path style="fill:url(#SVGID_1_);" d="M468,439.715V428v-1v-35h-20c-10.384,0-18.709-3.609-24.745-10.728
	C415.892,372.588,412,358.886,412,341.646V204c0-78.818-59.543-144.777-136-154.698V0h-40v49.317
	c-20.621,2.687-40.612,9.489-58.627,20.071c-16.364,9.613-30.878,22.19-42.775,36.925L28.644,0.358L0.358,28.642l111.864,111.864
	l-0.156,0.258l1.046,0.633l370.246,370.246l28.285-28.284L468,439.715z M254.301,88.013h3.397C320.737,88.928,372,140.933,372,204
	v137.646c0,0.709,0.025,1.402,0.035,2.105L163.074,134.788C184.639,105.815,217.965,88.539,254.301,88.013z M324,408H119.209
	c13.605-15.216,20.792-35.948,20.792-60v-93v-29.715l-38.967-38.967c-0.672,5.855-1.033,11.756-1.033,17.682v51v93
	c0,14.175-3.734,25.775-10.799,33.546C82.985,388.385,74.271,392,64.001,392H44v56h161.413c-0.915,3.855-1.413,7.869-1.413,12
	c0,28.673,23.327,52,52,52s52-23.327,52-52c0-4.131-0.499-8.145-1.413-12H324h38.715L324,409.285V408z M268,460
	c0,6.617-5.383,12-12,12c-6.617,0-12-5.383-12-12s5.383-12,12-12C262.617,448,268,453.383,268,460z"/>
<g>
</g>
<g>
</g>
<g>
</g>
<g>
</g>
<g>
</g>
<g>
</g>
<g>
</g>
<g>
</g>
<g>
</g>
<g>
</g>
<g>
</g>
<g>
</g>
<g>
</g>
<g>
</g>
<g>
</g>
</svg>
