<?xml version="1.0" encoding="iso-8859-1"?>
<!-- Generator: Adobe Illustrator 19.0.0, SVG Export Plug-In . SVG Version: 6.00 Build 0)  -->
<svg version="1.1" id="Capa_1" xmlns="http://www.w3.org/2000/svg" xmlns:xlink="http://www.w3.org/1999/xlink" x="0px" y="0px"
	 viewBox="0 0 512 512" style="enable-background:new 0 0 512 512;" xml:space="preserve">
<linearGradient id="SVGID_1_" gradientUnits="userSpaceOnUse" x1="256.7649" y1="513.6514" x2="256.7649" y2="0.3674" gradientTransform="matrix(0.9975 0 0 -0.9975 -0.1226 512.3665)">
	<stop  offset="0" style="stop-color:#2AF598"/>
	<stop  offset="1" style="stop-color:#009EFD"/>
</linearGradient>
<path style="fill:url(#SVGID_1_);" d="M160.24,152.186l-28.213-28.213L256,0l123.973,123.973l-28.213,28.213l-75.81-75.81v191.236
	h-39.9V76.376L160.24,152.186z M511.36,195.793v125.685v39.9v90.772c0,33.001-26.849,59.85-59.85,59.85H60.49
	c-33.001,0-59.85-26.849-59.85-59.85v-90.772v-39.9V195.793h39.9v125.685h163.587l0.003,19.95c0,28.601,23.269,51.87,51.87,51.87
	s51.87-23.269,51.87-51.87v-19.95h163.59V195.793H511.36z M471.46,361.378H345.586c-9.134,41.04-45.834,71.82-89.586,71.82
	s-80.451-30.78-89.586-71.82H40.54v90.772c0,11,8.95,19.95,19.95,19.95H451.51c11,0,19.95-8.95,19.95-19.95V361.378z"/>
<g>
</g>
<g>
</g>
<g>
</g>
<g>
</g>
<g>
</g>
<g>
</g>
<g>
</g>
<g>
</g>
<g>
</g>
<g>
</g>
<g>
</g>
<g>
</g>
<g>
</g>
<g>
</g>
<g>
</g>
</svg>
