<?xml version="1.0" encoding="iso-8859-1"?>
<!-- Generator: Adobe Illustrator 19.0.0, SVG Export Plug-In . SVG Version: 6.00 Build 0)  -->
<svg version="1.1" id="Capa_1" xmlns="http://www.w3.org/2000/svg" xmlns:xlink="http://www.w3.org/1999/xlink" x="0px" y="0px"
	 viewBox="0 0 512 512" style="enable-background:new 0 0 512 512;" xml:space="preserve">
<linearGradient id="SVGID_1_" gradientUnits="userSpaceOnUse" x1="256" y1="514" x2="256" y2="2" gradientTransform="matrix(1 0 0 -1 0 514)">
	<stop  offset="0" style="stop-color:#2AF598"/>
	<stop  offset="1" style="stop-color:#009EFD"/>
</linearGradient>
<path style="fill:url(#SVGID_1_);" d="M492,200v92h-40v-92c0-22.232-4.075-44.026-12.112-64.776l-7.225-18.649l37.3-14.448
	l7.224,18.65C487.017,146.152,492,172.807,492,200z M60,200c0-22.232,4.075-44.026,12.112-64.776l7.225-18.649l-37.3-14.448
	l-7.224,18.65C24.983,146.152,20,172.807,20,200v92h40V200z M448,392h20v56H306.587c0.915,3.855,1.413,7.869,1.413,12
	c0,28.673-23.327,52-52,52s-52-23.327-52-52c0-4.131,0.499-8.145,1.413-12H44v-56.001h20c10.27,0,18.984-3.614,25.201-10.453
	C96.266,373.775,100,362.175,100,348V204c0-78.818,59.543-144.777,136-154.699V0h40v49.301c76.457,9.922,136,75.88,136,154.699
	v137.646c0,17.24,3.892,30.942,11.255,39.626C429.291,388.391,437.616,392,448,392z M256,448c-6.617,0-12,5.383-12,12
	s5.383,12,12,12s12-5.383,12-12S262.617,448,256,448z M393.486,408c-0.249-0.284-0.496-0.571-0.741-0.86
	C379.174,391.134,372,368.486,372,341.646V204c0-63.067-51.263-115.072-114.302-115.987h-3.396C191.263,88.928,140,140.933,140,204
	v144c0,24.052-7.188,44.784-20.792,60H393.486z"/>
<g>
</g>
<g>
</g>
<g>
</g>
<g>
</g>
<g>
</g>
<g>
</g>
<g>
</g>
<g>
</g>
<g>
</g>
<g>
</g>
<g>
</g>
<g>
</g>
<g>
</g>
<g>
</g>
<g>
</g>
</svg>
