<?xml version="1.0" encoding="iso-8859-1"?>
<!-- Generator: Adobe Illustrator 19.0.0, SVG Export Plug-In . SVG Version: 6.00 Build 0)  -->
<svg version="1.1" id="Capa_1" xmlns="http://www.w3.org/2000/svg" xmlns:xlink="http://www.w3.org/1999/xlink" x="0px" y="0px"
	 viewBox="0 0 512 512" style="enable-background:new 0 0 512 512;" xml:space="preserve">
<linearGradient id="SVGID_1_" gradientUnits="userSpaceOnUse" x1="256" y1="467.751" x2="256" y2="48.249" gradientTransform="matrix(1 0 0 -1 0 514)">
	<stop  offset="0" style="stop-color:#2AF598"/>
	<stop  offset="1" style="stop-color:#009EFD"/>
</linearGradient>
<path style="fill:url(#SVGID_1_);" d="M256.414,465.751c-16.021,0-31.082-6.235-42.415-17.563L0,236.087V46.395l256.47,257.012
	L512,46.249v189.815L298.856,448.162c-11.264,11.305-26.336,17.572-42.38,17.589C256.456,465.751,256.435,465.751,256.414,465.751z
	 M40,219.415l202.217,200.422c3.837,3.835,8.858,5.914,14.198,5.914c0.007,0,0.014,0,0.021,0c5.347-0.005,10.371-2.095,14.146-5.882
	L472,219.438v-76.185L256.53,360.095L40,143.107V219.415z"/>
<g>
</g>
<g>
</g>
<g>
</g>
<g>
</g>
<g>
</g>
<g>
</g>
<g>
</g>
<g>
</g>
<g>
</g>
<g>
</g>
<g>
</g>
<g>
</g>
<g>
</g>
<g>
</g>
<g>
</g>
</svg>
