<?xml version="1.0" encoding="iso-8859-1"?>
<!-- Generator: Adobe Illustrator 19.0.0, SVG Export Plug-In . SVG Version: 6.00 Build 0)  -->
<svg version="1.1" id="Capa_1" xmlns="http://www.w3.org/2000/svg" xmlns:xlink="http://www.w3.org/1999/xlink" x="0px" y="0px"
	 viewBox="0 0 512 512" style="enable-background:new 0 0 512 512;" xml:space="preserve">
<linearGradient id="SVGID_1_" gradientUnits="userSpaceOnUse" x1="256" y1="467.751" x2="256" y2="48.249" gradientTransform="matrix(1 0 0 -1 0 514)">
	<stop  offset="0" style="stop-color:#2AF598"/>
	<stop  offset="1" style="stop-color:#009EFD"/>
</linearGradient>
<path style="fill:url(#SVGID_1_);" d="M512,465.751L256.47,208.593L0,465.605V275.913l214.059-212.16
	c11.273-11.268,26.335-17.504,42.355-17.504c0.021,0,0.041,0,0.062,0c16.044,0.016,31.116,6.284,42.44,17.648L512,275.936V465.751z
	 M40,292.585v76.307l216.53-216.988L472,368.747v-76.185L270.642,92.191c-3.834-3.848-8.858-5.937-14.206-5.942
	c-0.007,0-0.014,0-0.021,0c-5.341,0-10.361,2.079-14.139,5.854L40,292.585z"/>
<g>
</g>
<g>
</g>
<g>
</g>
<g>
</g>
<g>
</g>
<g>
</g>
<g>
</g>
<g>
</g>
<g>
</g>
<g>
</g>
<g>
</g>
<g>
</g>
<g>
</g>
<g>
</g>
<g>
</g>
</svg>
