<?xml version="1.0" encoding="iso-8859-1"?>
<!-- Generator: Adobe Illustrator 19.0.0, SVG Export Plug-In . SVG Version: 6.00 Build 0)  -->
<svg version="1.1" id="Capa_1" xmlns="http://www.w3.org/2000/svg" xmlns:xlink="http://www.w3.org/1999/xlink" x="0px" y="0px"
	 viewBox="0 0 512 512" style="enable-background:new 0 0 512 512;" xml:space="preserve">
<linearGradient id="SVGID_1_" gradientUnits="userSpaceOnUse" x1="256" y1="513.9816" x2="256" y2="2.0192" gradientTransform="matrix(1 0 0 -1 0 514.0004)">
	<stop  offset="0" style="stop-color:#2AF598"/>
	<stop  offset="1" style="stop-color:#009EFD"/>
</linearGradient>
<path style="fill:url(#SVGID_1_);" d="M512,174.544c0-16.042-6.251-31.12-17.603-42.456L379.676,17.525
	c-23.377-23.344-61.414-23.345-84.808,0.016L17.599,295.032C6.247,306.371-0.004,321.453,0,337.499s6.261,31.125,17.62,42.458
	l114.753,114.506c11.683,11.652,27.021,17.478,42.365,17.478c0.299,0,0.597-0.017,0.896-0.021v0.061h295.372v-40H239.581
	L494.397,217C505.749,205.664,512,190.587,512,174.544z M160.624,466.145L45.874,351.642c-3.786-3.778-5.872-8.805-5.874-14.153
	c-0.001-5.349,2.082-10.376,5.881-14.17L177.55,191.544l143.014,142.815l-131.69,131.775
	C181.088,473.91,168.413,473.914,160.624,466.145z M466.118,188.711L348.84,306.065L205.823,163.249l117.325-117.42
	c3.896-3.891,9.013-5.836,14.132-5.836c5.117,0,10.236,1.946,14.131,5.836l114.721,114.563c3.784,3.779,5.868,8.805,5.868,14.152
	S469.916,184.918,466.118,188.711z"/>
<g>
</g>
<g>
</g>
<g>
</g>
<g>
</g>
<g>
</g>
<g>
</g>
<g>
</g>
<g>
</g>
<g>
</g>
<g>
</g>
<g>
</g>
<g>
</g>
<g>
</g>
<g>
</g>
<g>
</g>
</svg>
