<?xml version="1.0" encoding="iso-8859-1"?>
<!-- Generator: Adobe Illustrator 19.0.0, SVG Export Plug-In . SVG Version: 6.00 Build 0)  -->
<svg version="1.1" id="Capa_1" xmlns="http://www.w3.org/2000/svg" xmlns:xlink="http://www.w3.org/1999/xlink" x="0px" y="0px"
	 viewBox="0 0 512 512" style="enable-background:new 0 0 512 512;" xml:space="preserve">
<linearGradient id="SVGID_1_" gradientUnits="userSpaceOnUse" x1="256" y1="490.5" x2="256" y2="25.5" gradientTransform="matrix(1 0 0 -1 0 514)">
	<stop  offset="0" style="stop-color:#2AF598"/>
	<stop  offset="1" style="stop-color:#009EFD"/>
</linearGradient>
<path style="fill:url(#SVGID_1_);" d="M91.419,488.5c-0.111,0-0.216,0-0.319,0h-0.104l-35.955-0.053l18.983-30.52
	c0.099-0.162,11.107-18.301,19.591-48.232C32.285,373.672,0,313.784,0,235.5c0-36.195,6.924-68.709,20.578-96.641
	C33.586,112.25,52.707,89.708,77.409,71.86C121.197,40.222,182.953,23.5,256,23.5s134.803,16.723,178.591,48.36
	c24.702,17.848,43.823,40.39,56.831,66.999C505.076,166.79,512,199.305,512,235.5s-6.924,68.709-20.578,96.641
	c-13.008,26.609-32.129,49.15-56.831,66.999C390.803,430.777,329.047,447.5,256,447.5c-20.442,0-40.186-1.313-58.846-3.909
	C154.825,486.052,102.766,488.5,91.419,488.5z M256,63.5c-64.583,0-118.238,14.103-155.164,40.783
	C60.468,133.449,40,177.597,40,235.5c0,68.877,28.818,118.016,85.654,146.051l14.073,6.941l-3.395,15.321
	c-3.293,14.867-7.374,27.914-11.404,38.786c15.518-5.229,33.798-15.049,49.632-33.439l7.369-8.56l11.136,1.891
	c19.57,3.324,40.744,5.009,62.935,5.009c64.583,0,118.237-14.103,155.164-40.783C451.532,337.55,472,293.402,472,235.5
	s-20.468-102.051-60.836-131.217C374.238,77.602,320.583,63.5,256,63.5z"/>
<g>
</g>
<g>
</g>
<g>
</g>
<g>
</g>
<g>
</g>
<g>
</g>
<g>
</g>
<g>
</g>
<g>
</g>
<g>
</g>
<g>
</g>
<g>
</g>
<g>
</g>
<g>
</g>
<g>
</g>
</svg>
