<?xml version="1.0" encoding="iso-8859-1"?>
<!-- Generator: Adobe Illustrator 19.0.0, SVG Export Plug-In . SVG Version: 6.00 Build 0)  -->
<svg version="1.1" id="Capa_1" xmlns="http://www.w3.org/2000/svg" xmlns:xlink="http://www.w3.org/1999/xlink" x="0px" y="0px"
	 viewBox="0 0 512 512" style="enable-background:new 0 0 512 512;" xml:space="preserve">
<linearGradient id="SVGID_1_" gradientUnits="userSpaceOnUse" x1="256" y1="514" x2="256" y2="2" gradientTransform="matrix(1 0 0 -1 0 514)">
	<stop  offset="0" style="stop-color:#2AF598"/>
	<stop  offset="1" style="stop-color:#009EFD"/>
</linearGradient>
<path style="fill:url(#SVGID_1_);" d="M468,392h-20c-10.384,0-18.709-3.609-24.745-10.728C415.892,372.588,412,358.886,412,341.646
	V204c0-78.818-59.543-144.777-136-154.699V0h-40v49.301C159.543,59.223,100,125.181,100,204v144
	c0,14.175-3.734,25.775-10.799,33.546C82.984,388.385,74.27,392,64,392H44v56h161.413c-0.915,3.855-1.413,7.869-1.413,12
	c0,28.673,23.327,52,52,52s52-23.327,52-52c0-4.131-0.499-8.145-1.413-12H468V392z M268,460c0,6.617-5.383,12-12,12s-12-5.383-12-12
	s5.383-12,12-12S268,453.383,268,460z M119.208,408C132.813,392.784,140,372.052,140,348V204
	c0-63.067,51.263-115.072,114.302-115.987h3.396C320.737,88.928,372,140.933,372,204v137.646c0,26.84,7.174,49.488,20.745,65.494
	c0.245,0.289,0.492,0.576,0.741,0.86H119.208z"/>
<g>
</g>
<g>
</g>
<g>
</g>
<g>
</g>
<g>
</g>
<g>
</g>
<g>
</g>
<g>
</g>
<g>
</g>
<g>
</g>
<g>
</g>
<g>
</g>
<g>
</g>
<g>
</g>
<g>
</g>
</svg>
