<?xml version="1.0" encoding="iso-8859-1"?>
<!-- Generator: Adobe Illustrator 19.0.0, SVG Export Plug-In . SVG Version: 6.00 Build 0)  -->
<svg version="1.1" id="Capa_1" xmlns="http://www.w3.org/2000/svg" xmlns:xlink="http://www.w3.org/1999/xlink" x="0px" y="0px"
	 viewBox="0 0 512 512" style="enable-background:new 0 0 512 512;" xml:space="preserve">
<linearGradient id="SVGID_1_" gradientUnits="userSpaceOnUse" x1="256.0649" y1="513.954" x2="256.0649" y2="1.8772" gradientTransform="matrix(0.9998 0 0 -0.9998 -0.0104 513.8607)">
	<stop  offset="0" style="stop-color:#2AF598"/>
	<stop  offset="1" style="stop-color:#009EFD"/>
</linearGradient>
<path style="fill:url(#SVGID_1_);" d="M501.524,73.158l-62.766-62.702c-13.943-13.929-36.621-13.919-50.554,0.02L52.631,346.202
	c-10.486,10.476-18.494,23.446-23.157,37.511l-0.299,0.902L0,511.984l127.485-29.119l0.9-0.298
	c14.076-4.655,27.058-12.651,37.556-23.136l335.605-335.757c6.746-6.75,10.459-15.722,10.455-25.263
	C511.996,88.872,508.276,79.903,501.524,73.158z M65.124,406.785l40.168,40.127l-52.085,11.896L65.124,406.785z M141.879,426.935
	l-56.742-56.684L362.519,92.743l56.742,56.684L141.879,426.935z M447.533,121.143L390.79,64.459l22.703-22.713l56.743,56.684
	L447.533,121.143z"/>
<g>
</g>
<g>
</g>
<g>
</g>
<g>
</g>
<g>
</g>
<g>
</g>
<g>
</g>
<g>
</g>
<g>
</g>
<g>
</g>
<g>
</g>
<g>
</g>
<g>
</g>
<g>
</g>
<g>
</g>
</svg>
