<?xml version="1.0" encoding="iso-8859-1"?>
<!-- Generator: Adobe Illustrator 19.0.0, SVG Export Plug-In . SVG Version: 6.00 Build 0)  -->
<svg version="1.1" id="Capa_1" xmlns="http://www.w3.org/2000/svg" xmlns:xlink="http://www.w3.org/1999/xlink" x="0px" y="0px"
	 viewBox="0 0 512 512" style="enable-background:new 0 0 512 512;" xml:space="preserve">
<linearGradient id="SVGID_1_" gradientUnits="userSpaceOnUse" x1="256" y1="514" x2="256" y2="2" gradientTransform="matrix(1 0 0 -1 0 514)">
	<stop  offset="0" style="stop-color:#2AF598"/>
	<stop  offset="1" style="stop-color:#009EFD"/>
</linearGradient>
<path style="fill:url(#SVGID_1_);" d="M462,148H50c-27.57,0-50-22.43-50-50V50C0,22.43,22.43,0,50,0h412c27.57,0,50,22.43,50,50v48
	C512,125.57,489.57,148,462,148z M50,40c-5.514,0-10,4.486-10,10v48c0,5.514,4.486,10,10,10h412c5.514,0,10-4.486,10-10V50
	c0-5.514-4.486-10-10-10H50z M462,512H50c-27.57,0-50-22.43-50-50v-48c0-27.57,22.43-50,50-50h412c27.57,0,50,22.43,50,50v48
	C512,489.57,489.57,512,462,512z M50,404c-5.514,0-10,4.486-10,10v48c0,5.514,4.486,10,10,10h412c5.514,0,10-4.486,10-10v-48
	c0-5.514-4.486-10-10-10H50z M462,330H50c-27.57,0-50-22.43-50-50v-48c0-27.57,22.43-50,50-50h412c27.57,0,50,22.43,50,50v48
	C512,307.57,489.57,330,462,330z M50,222c-5.514,0-10,4.486-10,10v48c0,5.514,4.486,10,10,10h412c5.514,0,10-4.486,10-10v-48
	c0-5.514-4.486-10-10-10H50z"/>
<g>
</g>
<g>
</g>
<g>
</g>
<g>
</g>
<g>
</g>
<g>
</g>
<g>
</g>
<g>
</g>
<g>
</g>
<g>
</g>
<g>
</g>
<g>
</g>
<g>
</g>
<g>
</g>
<g>
</g>
</svg>
