<?xml version="1.0" encoding="iso-8859-1"?>
<!-- Generator: Adobe Illustrator 19.0.0, SVG Export Plug-In . SVG Version: 6.00 Build 0)  -->
<svg version="1.1" id="Capa_1" xmlns="http://www.w3.org/2000/svg" xmlns:xlink="http://www.w3.org/1999/xlink" x="0px" y="0px"
	 viewBox="0 0 512 512" style="enable-background:new 0 0 512 512;" xml:space="preserve">
<linearGradient id="SVGID_1_" gradientUnits="userSpaceOnUse" x1="256" y1="514" x2="256" y2="2" gradientTransform="matrix(1 0 0 -1 0 514)">
	<stop  offset="0" style="stop-color:#2AF598"/>
	<stop  offset="1" style="stop-color:#009EFD"/>
</linearGradient>
<path style="fill:url(#SVGID_1_);" d="M350.986,228.784C385.668,189.543,404,142.245,404,92V40h64V0H44v40h64v52
	c0,50.245,18.332,97.543,53.014,136.784c9.892,11.191,19.814,20.251,28.373,27.216c-8.559,6.965-18.481,16.025-28.373,27.216
	C126.332,322.457,108,369.755,108,420v52H44v40h424v-40h-64v-52c0-50.245-18.332-97.543-53.014-136.784
	c-9.892-11.191-19.814-20.251-28.373-27.216C331.172,249.035,341.094,239.975,350.986,228.784z M364,40v40H148V40H364z M148,472v-40
	h216v40H148z M278.248,273.461c0.22,0.124,22.197,12.633,43.669,37.274c21.337,24.485,34.626,51.727,39.714,81.265H150.369
	c5.088-29.537,18.377-56.779,39.714-81.265c21.472-24.641,43.449-37.15,43.616-37.244c6.357-3.525,10.328-10.207,10.328-17.477
	c0-7.269-3.917-13.951-10.274-17.476c-0.22-0.124-22.197-12.633-43.669-37.274c-21.337-24.485-34.626-51.727-39.714-81.265h211.262
	c-5.088,29.537-18.377,56.779-39.714,81.265c-21.472,24.641-43.449,37.15-43.616,37.244c-6.357,3.525-10.328,10.207-10.328,17.477
	C267.974,263.254,271.891,269.937,278.248,273.461z"/>
<g>
</g>
<g>
</g>
<g>
</g>
<g>
</g>
<g>
</g>
<g>
</g>
<g>
</g>
<g>
</g>
<g>
</g>
<g>
</g>
<g>
</g>
<g>
</g>
<g>
</g>
<g>
</g>
<g>
</g>
</svg>
