<svg xmlns="http://www.w3.org/2000/svg">
  <symbol id="close" fill="currentColor" viewBox="0 0 18 18">
    <path d="M14.53 4.53l-1.06-1.06L9 7.94 4.53 3.47 3.47 4.53 7.94 9l-4.47 4.47 1.06 1.06L9 10.06l4.47 4.47 1.06-1.06L10.06 9z"/>
  </symbol>

  <symbol viewBox="0 0 24 24" id="back" height="100%" fill="currentColor">
    <path d="M15.41 16.09l-4.58-4.59 4.58-4.59L14 5.5l-6 6 6 6z"/>
  </symbol>

  <symbol viewBox="0 0 489.4 489.4" id="sort" fill="currentColor" preserveAspectRatio="none">
    <path d="M370.2 468.9c0 6.8 5.5 12.3 12.3 12.3s12.3-5.5 12.3-12.3V50.1l73.6 73.6c2.4 2.4 5.5 3.6 8.7 3.6s6.3-1.2 8.7-3.6c4.8-4.8 4.8-12.5 0-17.3l-94.5-94.5c-4.6-4.6-12.7-4.6-17.3 0l-94.5 94.5c-4.8 4.8-4.8 12.5 0 17.3 4.8 4.8 12.5 4.8 17.3 0l73.6-73.6v418.8h-.2zM209.9 365.7c-4.8-4.8-12.5-4.8-17.3 0L119 439.3V20.5c0-6.8-5.5-12.3-12.3-12.3s-12.3 5.5-12.3 12.3v418.8l-73.5-73.6c-4.8-4.8-12.5-4.8-17.3 0s-4.8 12.5 0 17.3l94.5 94.5c2.4 2.4 5.5 3.6 8.7 3.6s6.3-1.2 8.7-3.6L210 383c4.6-4.7 4.6-12.5-.1-17.3z"/>
  </symbol>

  <symbol viewBox="0 0 480 480" id="sort-az" width="480" height="480" fill="currentColor">
    <path d="M447.033 361.05c-4.8-4.8-12.5-4.8-17.3 0l-73.6 73.6V15.85c0-6.8-5.5-12.3-12.3-12.3s-12.3 5.5-12.3 12.3v418.8l-73.5-73.6c-4.8-4.8-12.5-4.8-17.3 0s-4.8 12.5 0 17.3l94.5 94.5c2.4 2.4 5.5 3.6 8.7 3.6s6.3-1.2 8.7-3.6l94.5-94.5c4.6-4.7 4.6-12.5-.1-17.3z"/>
    <text font-family="Helvetica, Arial, sans-serif" font-size="200" y="201.886" x="64.732" fill-opacity="null" stroke-opacity="null" font-weight="400">A</text>
    <text font-family="Helvetica, Arial, sans-serif" font-size="200" y="412.827" x="70.343" fill-opacity="null" stroke-opacity="null" font-weight="400">Z</text>
  </symbol>

  <symbol viewBox="0 0 13 8" id="arrow" fill="currentColor">
    <path d="M12.2273 1.23442L6.49964 7.22729L0.772705 1.23442L1.73582 0.227295L6.49964 5.21305L11.2641 0.227295L12.2273 1.23442Z"/>
  </symbol>

  <symbol viewBox="0 0 24 24" fill="#ea526f" width="30px" height="30px" id="restaurant">
    <path d="M11 9H9V2H7v7H5V2H3v7c0 2.12 1.66 3.84 3.75 3.97V22h2.5v-9.03C11.34 12.84 13 11.12 13 9V2h-2v7zm5-3v8h2.5v8H21V2c-2.76 0-5 2.24-5 4z"/>
  </symbol>

</svg>
