<svg xmlns="http://www.w3.org/2000/svg" viewBox="0 0 512 512"><linearGradient id="a" gradientUnits="userSpaceOnUse" x1="132.881" y1="255.999" x2="477.358" y2="255.999" class="gradient-element"><stop offset="0" class="primary-color-gradient" stop-color="#ff7593"/><stop offset="1" class="secondary-color-gradient" stop-color="#9af4fd"/></linearGradient><path fill="url(#a)" d="M434.9 256c0-19.4-3.2-38-8.9-55.4l51.4-21.3-10.5-25.4-51.5 21.3c-17.2-33.7-44.7-61.2-78.4-78.4l21.3-51.5-25.4-10.5-21.3 51.4c-9.9-3.2-20.1-5.7-30.6-7.2h-.2c-13.1-1.8-24.8 8.4-24.8 21.7v66.8c0 7.6 4.2 14.6 10.9 18.1 21 11.2 65.1-4.2 65.1 70.3 0 41.8-34 75.8-75.8 75.8h-.2c0 33.9.2 52.1-37.8 52.1h-74.6c-9.9 0-14.5-2.2-7.1 4.4 11.7 10.6 24.7 19.6 38.9 26.8l-21.3 51.5 25.4 10.5 21.3-51.4c17.5 5.7 36.1 8.9 55.4 8.9 19.4 0 38-3.2 55.4-8.9l21.3 51.4 25.4-10.5-21.3-51.3c33.7-17.2 61.2-44.7 78.4-78.4l51.5 21.3 10.5-25.4-51.4-21.2c5.7-17.5 8.9-36.1 8.9-55.5z"/><path d="M256.2 172.2c-46.2 0-83.8 37.6-83.8 83.8 0 46.2 37.6 83.8 83.8 83.8 46.2 0 83.8-37.6 83.8-83.8 0-46.2-37.6-83.8-83.8-83.8zm0 151.6c-37.4 0-67.8-30.4-67.8-67.8s30.4-67.8 67.8-67.8S324 218.6 324 256s-30.4 67.8-67.8 67.8zm49.2-67.8c0 27.2-22.1 49.2-49.2 49.2S207 283.1 207 256s22.1-49.2 49.2-49.2c4.4 0 8 3.6 8 8s-3.6 8-8 8c-18.3 0-33.2 14.9-33.2 33.2 0 18.3 14.9 33.2 33.2 33.2s33.2-14.9 33.2-33.2c0-4.4 3.6-8 8-8s8 3.6 8 8zM138.6 45.5c-1.7-4.1.2-8.8 4.3-10.5l33.8-14.2c2-.8 4.2-.8 6.1 0 2 .8 3.5 2.3 4.4 4.3l21.3 50.4c15.5-4.1 31.6-6.2 47.8-6.2 15.3 0 30.4 1.9 45.1 5.5L322 24.2c1.7-4.1 6.3-6.1 10.4-4.4l33.9 13.8c2 .8 3.5 2.3 4.4 4.3.8 2 .8 4.2 0 6.1l-20.6 50.6c27.2 15.9 49.9 38.2 66.2 65.3l50.3-21.2c4.1-1.7 8.8.2 10.5 4.3l14.2 33.8c.8 2 .8 4.2 0 6.1-.8 2-2.3 3.5-4.3 4.4l-50.2 21.2c2.5 9.4 4.2 19 5.2 28.7.4 4.4-2.8 8.3-7.1 8.8h-.8c-4.1 0-7.5-3.1-7.9-7.2-1.1-11-3.3-22-6.6-32.6-1.2-3.9.8-8.1 4.5-9.7l49.4-20.8-8-19-49.5 20.6c-3.8 1.6-8.1.1-10.1-3.5-16.1-29.2-40.2-53-69.6-68.6-3.6-1.9-5.2-6.3-3.6-10.1l20.2-49.8-19.1-7.8-20.2 49.8c-1.5 3.8-5.7 5.8-9.6 4.7-15.4-4.5-31.5-6.8-47.6-6.8-17 0-33.9 2.5-50.1 7.5-3.9 1.2-8.1-.8-9.7-4.5l-20.9-49.6-26.4 11.1c-4.2 1.7-8.9-.2-10.7-4.2zm353.7 286.8l-13.8 33.9c-.8 2-2.3 3.5-4.3 4.4-2 .8-4.2.8-6.1 0L417.5 350c-15.9 27.2-38.3 49.9-65.4 66.1l21.2 50.4c.8 2 .8 4.2 0 6.1-.8 2-2.3 3.5-4.3 4.4l-33.8 14.2c-4.1 1.7-8.8-.2-10.5-4.3l-21.2-50.4c-15.4 4.1-31.4 6.1-47.4 6.1-15.4 0-30.6-1.9-45.5-5.6L190 487.7c-1.3 3.1-4.3 5-7.4 5-1 0-2-.2-3-.6l-33.9-13.8c-2-.8-3.5-2.3-4.4-4.3-.8-2-.8-4.2 0-6.1l20.7-50.8c-27.1-15.9-49.7-38.2-65.9-65.2l-50.6 21.3c-4.1 1.7-8.8-.2-10.5-4.3l-14.2-33.8c-.8-2-.8-4.2 0-6.1.8-2 2.3-3.5 4.3-4.4l50.6-21.3c-4.1-15.5-6.1-31.4-6.1-47.5 0-15.3 1.9-30.5 5.5-45.2l-50.9-20.7c-4.1-1.7-6.1-6.3-4.4-10.4l13.8-33.9c.8-2 2.3-3.5 4.3-4.4 2-.8 4.2-.8 6.1 0L94.9 162c8.1-13.8 17.9-26.6 29.3-38 3.1-3.1 8.2-3.1 11.3 0l19.4 19.4c3.1 3.1 3.1 8.2 0 11.3-1.6 1.6-3.6 2.3-5.7 2.3-2 0-4.1-.8-5.7-2.3L130 141.2c-9.6 10.5-17.8 22.2-24.5 34.7-1.9 3.6-6.3 5.2-10.1 3.6l-50-20.3-7.8 19.1 50 20.3c3.8 1.5 5.8 5.7 4.7 9.6-4.5 15.5-6.8 31.5-6.8 47.7 0 16.9 2.5 33.7 7.4 49.8 1.2 3.9-.8 8.1-4.5 9.7l-49.7 21 8 19 49.8-21c3.8-1.6 8.1-.1 10.1 3.5 16 29.2 40 52.9 69.4 68.6 3.6 1.9 5.2 6.3 3.6 10.1l-20.3 50 19.1 7.8 20.3-49.9c1.5-3.8 5.7-5.8 9.7-4.7 15.5 4.6 31.7 6.9 48 6.9 16.9 0 33.6-2.5 49.7-7.4 3.9-1.2 8.1.8 9.7 4.5l20.9 49.5 19-8-20.9-49.5c-1.6-3.8-.1-8.1 3.5-10.1 29.2-16.1 53-40.1 68.7-69.5 1.9-3.6 6.3-5.2 10.1-3.6l49.7 20.2 7.8-19.1-49.6-20.2c-3.8-1.5-5.8-5.7-4.7-9.7 2.9-9.9 4.9-20.1 5.9-30.4.4-4.4 4.4-7.6 8.8-7.1 4.4.4 7.6 4.4 7.1 8.8-.9 8.8-2.5 17.6-4.6 26.3l50.5 20.5c4 1.7 5.9 6.3 4.3 10.4z"/><path fill="#9AF4FD" class="secondary-color" d="M68.9 70.8v21.8h-57V70.8h57zm38.1 0v21.8h57V70.8h-57z"/><path fill="#FF7593" class="primary-color" d="M116.5 29v21.8H59.6V29h56.9z"/><path d="M473.8 420.1c-5 0-9 4.1-9 9s4.1 9 9 9 9-4.1 9-9-4-9-9-9zm-33.5-328c14.6 0 26.4-11.8 26.4-26.4s-11.8-26.4-26.4-26.4-26.4 11.8-26.4 26.4 11.8 26.4 26.4 26.4zm0-36.8c5.7 0 10.4 4.7 10.4 10.4s-4.7 10.4-10.4 10.4-10.4-4.7-10.4-10.4 4.7-10.4 10.4-10.4zm61.1 184c0 4.4-3.6 8-8 8H371.3c-4.4 0-8-3.6-8-8s3.6-8 8-8h122.1c4.4 0 8 3.6 8 8zm-31.9 43h-82.8c-4.4 0-8-3.6-8-8s3.6-8 8-8h82.8c4.4 0 8 3.6 8 8s-3.6 8-8 8zm13.3 185c0 4.4-3.6 8-8 8h-62.1c-4.4 0-8-3.6-8-8s3.6-8 8-8h62.1c4.4 0 8 3.6 8 8zm-328-68c0 4.4-3.6 8-8 8H34c-4.4 0-8-3.6-8-8s3.6-8 8-8h112.8c4.4 0 8 3.6 8 8zm280 29.8c0 5 4.1 9 9 9s9-4.1 9-9-4.1-9-9-9-9 4.1-9 9zm-30 0c0 5 4.1 9 9 9s9-4.1 9-9-4.1-9-9-9-9 4.1-9 9z"/></svg>