<svg width="0" height="0" class="hidden">
  <symbol xmlns="http://www.w3.org/2000/svg" viewBox="0 0 512 512" id="icon-bell">
    <linearGradient id="a" gradientUnits="userSpaceOnUse" x1="302.783" y1="396.095" x2="314.189" y2="90.986">
      <stop offset="0" stop-color="#ff7593"></stop>
      <stop offset="1" stop-color="#9af4fd"></stop>
    </linearGradient>
    <path fill="url(#a)" d="M405.4 372.6H201.9c2.3-11.6 4.4-25 6.5-39.7 11.2-77.4 26.6-183.4 118.7-183.4h.1c50.4 38.8 62.4 120.7 71.1 180.2 2 13.6 4.3 29.9 7.1 42.9z"></path>
    <path d="M455.1 389.3v27.9c0 4.4-3.6 8-8 8H318.4c-4.7 15.7-19 44.6-60.9 44.6-42 0-56.3-28.9-60.9-44.6H67.8c-4.4 0-8-3.6-8-8v-22.3c0-4.4 3.6-8 8-8s8 3.6 8 8v14.3h127c3.8 0 7.1 2.7 7.9 6.5 2.2 11.5 11.2 38.1 46.8 38.1 35.6 0 44.6-26.7 46.8-38.1.7-3.8 4-6.5 7.9-6.5h127v-14.5L402.4 380c-2.5-1-4.3-3.2-4.9-5.9-1.6-8.1-3.5-18.2-7.2-43.4v-.2c-5-34.2-11.1-76.8-25.3-113.1-16.1-41.2-39.2-66.3-70.6-76.8-2.6-.9-4.6-3-5.3-5.7-.6-2.7.1-5.5 2.1-7.5 9-9.1 14-21.1 14-33.9 0-26.3-21.4-47.8-47.8-47.8s-47.8 21.4-47.8 47.8c0 12.7 5 24.8 14 33.9 1.9 2 2.7 4.8 2.1 7.5-.6 2.7-2.6 4.9-5.3 5.7-31.4 10.4-54.5 35.5-70.6 76.8-14.2 36.3-20.3 78.9-25.3 113.1l-.3 1.8c-1.5 10.4-3.2 21.8-5.1 32.2h258.2c4.4 0 8 3.6 8 8s-3.6 8-8 8H109.6c-2.4 0-4.7-1.1-6.2-3s-2.1-4.3-1.6-6.7c2.6-12.2 4.8-27.4 6.8-40.8l.3-1.8c5.1-35 11.4-78.6 26.2-116.6 16.1-41.3 39-68.2 69.8-82-7.2-10.6-11.1-23-11.1-36 0-35.2 28.6-63.8 63.8-63.8s63.8 28.6 63.8 63.8c0 13-3.9 25.5-11.1 36 30.8 13.8 53.7 40.7 69.8 82 14.8 38 21.1 81.6 26.2 116.6v.2c3 20.6 4.8 30.9 6.2 38.3l37.7 15.1c2.9 1.3 4.9 4.2 4.9 7.5zm-197.6 58.2c27.1 0 36.3-17.6 39.4-28.1 1.2-4.2-1.2-8.7-5.4-9.9-4.2-1.2-8.7 1.2-9.9 5.4-3.3 11.1-11.1 16.6-24 16.6s-20.7-5.4-24-16.6c-1.2-4.2-5.7-6.7-9.9-5.4-4.2 1.2-6.7 5.7-5.4 9.9 2.9 10.5 12.1 28.1 39.2 28.1zm-200.7 5.8c3.1 3.1 3.1 8.2 0 11.3l-18.9 18.9c-1.6 1.6-3.6 2.3-5.7 2.3s-4.1-.8-5.7-2.3c-3.1-3.1-3.1-8.2 0-11.3l18.9-18.9c3.2-3.1 8.3-3.1 11.4 0zm437.9-188.8h-67.8c-4.4 0-8 3.6-8 8s3.6 8 8 8h67.8c4.4 0 8-3.6 8-8s-3.6-8-8-8zM455.6 82.8c-3.1-3.1-8.2-3.1-11.3 0l-47.9 47.9c-3.1 3.1-3.1 8.2 0 11.3 1.6 1.6 3.6 2.3 5.7 2.3 2 0 4.1-.8 5.7-2.3l47.9-47.9c3.1-3.1 3.1-8.2-.1-11.3zm-37 113.4c-1.1-4.9 2-9.7 6.9-10.7 2.4-.5 4.8-.1 6.8 1.2s3.4 3.3 3.9 5.7c.5 2.4.1 4.8-1.2 6.8a8.9 8.9 0 0 1-5.7 3.9c-.6.1-1.3.2-1.9.2-1.7 0-3.4-.5-4.9-1.4a8.9 8.9 0 0 1-3.9-5.7zM87.9 181.3c-3.1-3.1-8.2-3.1-11.3 0l-2.8 2.8-2.8-2.8c-3.1-3.1-8.2-3.1-11.3 0-3.1 3.1-3.1 8.2 0 11.3l2.8 2.8-2.8 2.8c-3.1 3.1-3.1 8.2 0 11.3 1.6 1.6 3.6 2.3 5.7 2.3s4.1-.8 5.7-2.3l2.8-2.8 2.8 2.8c1.6 1.6 3.6 2.3 5.7 2.3s4.1-.8 5.7-2.3c3.1-3.1 3.1-8.2 0-11.3l-2.8-2.8 2.8-2.8c2.9-3.1 2.9-8.2-.2-11.3zM438 448c-3.1-3.1-8.2-3.1-11.3 0-3.1 3.1-3.1 8.2 0 11.3l29.5 29.5c1.6 1.6 3.6 2.3 5.7 2.3 2 0 4.1-.8 5.7-2.3 3.1-3.1 3.1-8.2 0-11.3L438 448zm37.4-103.1c1.3 2 1.7 4.4 1.2 6.8-.9 4.2-4.7 7.1-8.8 7.1-.6 0-1.3-.1-1.9-.2-4.9-1.1-8-5.9-6.9-10.7a8.9 8.9 0 0 1 3.9-5.7c2-1.3 4.4-1.7 6.8-1.2 2.4.4 4.4 1.8 5.7 3.9zM141.2 104.4h-3.9v-3.9c0-4.4-3.6-8-8-8s-8 3.6-8 8v3.9h-3.9c-4.4 0-8 3.6-8 8s3.6 8 8 8h3.9v3.9c0 4.4 3.6 8 8 8s8-3.6 8-8v-3.9h3.9c4.4 0 8-3.6 8-8s-3.6-8-8-8zm255.9-55.7c0 14.7-12 26.7-26.7 26.7s-26.7-12-26.7-26.7 12-26.7 26.7-26.7 26.7 12 26.7 26.7zm-16 0c0-5.9-4.8-10.7-10.7-10.7s-10.7 4.8-10.7 10.7 4.8 10.7 10.7 10.7 10.7-4.9 10.7-10.7zM66.5 272.5c0 14.7-12 26.7-26.7 26.7s-26.7-12-26.7-26.7 12-26.7 26.7-26.7 26.7 12 26.7 26.7zm-16 0c0-5.9-4.8-10.7-10.7-10.7s-10.7 4.8-10.7 10.7 4.8 10.7 10.7 10.7 10.7-4.8 10.7-10.7z"></path>
    <path fill="#FF7593" d="M26.5 25.1l57.8 57.8-57.8 57.8V25.1z"></path>
    <path fill="#9AF4FD" d="M162.3 467v21.8h-56.9V467h56.9z"></path>
  </symbol>
  <symbol xmlns="http://www.w3.org/2000/svg" viewBox="0 0 512 512" id="icon-calendar">
    <linearGradient id="a" gradientUnits="userSpaceOnUse" x1="253.369" y1="278.631" x2="465.563" y2="278.631">
      <stop offset="0" stop-color="#ff7593"></stop>
      <stop offset="1" stop-color="#9af4fd"></stop>
    </linearGradient>
    <path fill="url(#a)" d="M461.7 140.2c2.1 0 3.9 1.7 3.9 3.9v269.1c0 2.1-1.7 3.9-3.9 3.9H257.2c-2.1 0-3.9-1.7-3.9-3.9v-5.5c0-22.6 18.3-40.9 40.9-40.9h85c16.4 0 29.7-13.3 29.7-29.7V215.7l28.2-2.2v-19.1c0-2.1-29.9-3.9-32.1-3.9h-30.6c-12.2 0-22.2-9.9-22.2-22.2 0-15.6 12.6-28.2 28.2-28.2h81.3z"></path>
    <path d="M165.6 140.2c0-4.4 3.6-8 8-8h143.5c4.4 0 8 3.6 8 8s-3.6 8-8 8H173.6c-4.4 0-8-3.5-8-8zm300 268.8H45.8V223.7h394.6c4.4 0 8-3.6 8-8v-25.2c0-4.4-3.6-8-8-8H45.8v-34.3h92.6c4.4 0 8-3.6 8-8V97.3c0-4.4-3.6-8-8-8s-8 3.6-8 8v34.9H37.8c-4.4 0-8 3.6-8 8v50.3c0 4.4 3.6 8 8 8h394.6v9.2H37.8c-4.4 0-8 3.6-8 8V417c0 4.4 3.6 8 8 8h427.7c4.4 0 8-3.6 8-8s-3.5-8-7.9-8zm0-276.8H360.3V97.3c0-4.4-3.6-8-8-8s-8 3.6-8 8v42.9c0 4.4 3.6 8 8 8h105.2V382c0 4.4 3.6 8 8 8s8-3.6 8-8V140.2c.1-4.4-3.5-8-7.9-8zM214 333.5c-4.4 0-8 3.6-8 8v25.2c0 4.4 3.6 8 8 8h75.5c4.4 0 8-3.6 8-8v-25.2c0-4.4-3.6-8-8-8h-25.2c-4.4 0-8 3.6-8 8s3.6 8 8 8h17.2v9.2H222v-9.2h17.2c4.4 0 8-3.6 8-8V266c0-3.5-2.3-6.6-5.6-7.6-3.3-1.1-6.9.2-9 3l-25.2 35.5c-2.6 3.6-1.7 8.6 1.9 11.2 3.6 2.6 8.6 1.7 11.2-1.9l10.6-15v42.3H214z"></path>
    <path d="M496.2 382c0 4.4-3.6 8-8 8h-57.4c-4.4 0-8-3.6-8-8s3.6-8 8-8h57.4c4.5 0 8 3.5 8 8zm-345 77.9H47.9c-4.4 0-8 3.6-8 8s3.6 8 8 8h103.3c4.4 0 8-3.6 8-8s-3.6-8-8-8zm44.4 8c0 5-4.1 9-9 9s-9-4.1-9-9 4.1-9 9-9 9 4 9 9zm30 0c0 5-4.1 9-9 9s-9-4.1-9-9 4.1-9 9-9 9 4 9 9zm30 0c0 5-4.1 9-9 9s-9-4.1-9-9 4.1-9 9-9 9 4 9 9zm148.9-407c20.3 0 36.8-16.5 36.8-36.8 0-4.4-3.6-8-8-8s-8 3.6-8 8c0 11.4-9.3 20.8-20.8 20.8-4.4 0-8 3.6-8 8s3.6 8 8 8zm78.8 0c4.4 0 8-3.6 8-8s-3.6-8-8-8c-11.4 0-20.8-9.3-20.8-20.8 0-4.4-3.6-8-8-8s-8 3.6-8 8c0 20.4 16.5 36.8 36.8 36.8zm-28.8 50c4.4 0 8-3.6 8-8 0-11.4 9.3-20.8 20.8-20.8 4.4 0 8-3.6 8-8s-3.6-8-8-8c-20.3 0-36.8 16.5-36.8 36.8 0 4.5 3.6 8 8 8zm-21.2 0c4.4 0 8-3.6 8-8 0-20.3-16.5-36.8-36.8-36.8-4.4 0-8 3.6-8 8s3.6 8 8 8c11.4 0 20.8 9.3 20.8 20.8 0 4.5 3.6 8 8 8zM60.2 64v15.8c0 4.4 3.6 8 8 8s8-3.6 8-8V64H92c4.4 0 8-3.6 8-8s-3.6-8-8-8H76.2V32.2c0-4.4-3.6-8-8-8s-8 3.6-8 8V48H44.4c-4.4 0-8 3.6-8 8s3.6 8 8 8h15.8zM492 468.9c0 14.6-11.8 26.4-26.4 26.4s-26.4-11.8-26.4-26.4 11.8-26.4 26.4-26.4 26.4 11.9 26.4 26.4zm-16 0c0-5.7-4.7-10.4-10.4-10.4s-10.4 4.7-10.4 10.4 4.7 10.4 10.4 10.4 10.4-4.7 10.4-10.4z"></path>
    <path fill="#FF7593" d="M217.1 43.1V21.3h58.2v21.8h-58.2zm142.8 0V21.3h-58.2v21.8h58.2z"></path>
    <path fill="#9AF4FD" d="M132.6 43.1V21.3h58.2v21.8h-58.2z"></path>
  </symbol>
  <symbol xmlns="http://www.w3.org/2000/svg" viewBox="0 0 512 512" id="icon-chat_1">
    <linearGradient id="a" gradientUnits="userSpaceOnUse" x1="336.644" y1="447.459" x2="336.644" y2="92.291">
      <stop offset="0" stop-color="#ff7593"></stop>
      <stop offset="1" stop-color="#9af4fd"></stop>
    </linearGradient>
    <path fill="url(#a)" d="M189.2 354.6c284-39.1-72.8-281.1 87.4-288.9 114.3-5.6 207.6 73.5 207.6 163.9s-93.1 163.9-207.6 163.9c-7.1 0-14.1-.3-21-.8L189.2 459V354.6"></path>
    <path d="M174.5 372.1c-1.4 2.8-4.2 4.5-7.2 4.5-1.2 0-2.4-.3-3.5-.8-30.6-15.1-56.3-36.1-74.2-60.8C70.9 289 61 259.5 61 229.6c0-94.8 96.7-171.9 215.6-171.9 65.8 0 127.1 23.5 168.3 64.5 3.1 3.1 3.1 8.2 0 11.3-3.1 3.1-8.2 3.1-11.3 0-38.2-38.1-95.5-59.9-157.1-59.9-110 .1-199.5 70-199.5 156 0 53.7 35.1 102.9 93.9 131.8 3.9 1.9 5.5 6.7 3.6 10.7zm305.2-200.2c-1.8-4-6.5-5.8-10.6-4-4 1.8-5.8 6.5-4 10.6 7.3 16.4 11.1 33.6 11.1 51.1 0 85.9-89.5 155.9-199.6 155.9-6.8 0-13.6-.3-20.4-.8l-3.7-.3-55.3 55.3v-85.1c0-4.4-3.6-8-8-8s-8 3.6-8 8v123.7l77.5-77.5c6 .4 12 .6 17.9.6 118.9 0 215.6-77.1 215.6-171.9-.1-19.7-4.3-39.1-12.5-57.6zm-276.2 51.2c5.5 0 9.9 4.4 9.9 9.9s-4.4 9.9-9.9 9.9-9.9-4.4-9.9-9.9 4.5-9.9 9.9-9.9zm-54 0c5.5 0 9.9 4.4 9.9 9.9s-4.4 9.9-9.9 9.9-9.9-4.4-9.9-9.9 4.5-9.9 9.9-9.9zm162 0c5.5 0 9.9 4.4 9.9 9.9s-4.4 9.9-9.9 9.9-9.9-4.4-9.9-9.9 4.5-9.9 9.9-9.9zm-54 0c5.5 0 9.9 4.4 9.9 9.9s-4.4 9.9-9.9 9.9-9.9-4.4-9.9-9.9 4.5-9.9 9.9-9.9zm162 0c5.5 0 9.9 4.4 9.9 9.9s-4.4 9.9-9.9 9.9-9.9-4.4-9.9-9.9 4.5-9.9 9.9-9.9zm-54 0c5.5 0 9.9 4.4 9.9 9.9s-4.4 9.9-9.9 9.9-9.9-4.4-9.9-9.9 4.5-9.9 9.9-9.9z"></path>
    <path fill="#9AF4FD" d="M499.1 68.1L452 21h47.1v47.1z"></path>
    <path d="M470.7 139.1h-67.8c-4.4 0-8-3.6-8-8s3.6-8 8-8h67.8c4.4 0 8 3.6 8 8s-3.6 8-8 8zM444 173c0 4.4 3.6 8 8 8h33.9c4.4 0 8-3.6 8-8s-3.6-8-8-8H452c-4.4 0-8 3.5-8 8zM76.4 107.6c4.4 0 8-3.6 8-8 0-8 6.5-14.5 14.5-14.5 4.4 0 8-3.6 8-8s-3.6-8-8-8c-16.8 0-30.5 13.7-30.5 30.5 0 4.4 3.6 8 8 8zM37.3 85.1c8 0 14.5 6.5 14.5 14.5 0 4.4 3.6 8 8 8s8-3.6 8-8c0-16.8-13.7-30.5-30.5-30.5-4.4 0-8 3.6-8 8s3.6 8 8 8zm0-16.5c16.8 0 30.5-13.7 30.5-30.5 0-4.4-3.6-8-8-8s-8 3.6-8 8c0 8-6.5 14.5-14.5 14.5-4.4 0-8 3.6-8 8s3.6 8 8 8zm61.6 0c4.4 0 8-3.6 8-8s-3.6-8-8-8c-8 0-14.5-6.5-14.5-14.5 0-4.4-3.6-8-8-8s-8 3.6-8 8c0 16.8 13.7 30.5 30.5 30.5zm385.9 372.8H469v-15.8c0-4.4-3.6-8-8-8s-8 3.6-8 8v15.8h-15.8c-4.4 0-8 3.6-8 8s3.6 8 8 8H453v15.8c0 4.4 3.6 8 8 8s8-3.6 8-8v-15.8h15.8c4.4 0 8-3.6 8-8s-3.6-8-8-8zm-113.4 8c0 5.5-4.4 9.9-9.9 9.9s-9.9-4.4-9.9-9.9 4.4-9.9 9.9-9.9c5.4 0 9.9 4.4 9.9 9.9zm-60 0c0 5.5-4.4 9.9-9.9 9.9s-9.9-4.4-9.9-9.9 4.4-9.9 9.9-9.9c5.4 0 9.9 4.4 9.9 9.9zM177.2 33.3h-27.1c-4.4 0-8 3.6-8 8s3.6 8 8 8h27.1c4.4 0 8-3.6 8-8s-3.6-8-8-8zM55 476.6H27.9c-4.4 0-8 3.6-8 8s3.6 8 8 8H55c4.4 0 8-3.6 8-8s-3.6-8-8-8zm59.2-84.7H40.4c-4.4 0-8 3.6-8 8s3.6 8 8 8h73.8c4.4 0 8-3.6 8-8s-3.6-8-8-8z"></path>
  </symbol>
  <symbol xmlns="http://www.w3.org/2000/svg" viewBox="0 0 512 512" id="icon-check_1">
    <linearGradient id="a" gradientUnits="userSpaceOnUse" x1="255.566" y1="447.674" x2="255.566" y2="66.208">
      <stop offset="0" stop-color="#ff7593"></stop>
      <stop offset="1" stop-color="#9af4fd"></stop>
    </linearGradient>
    <path fill="url(#a)" d="M370 85.2l-45.1 55.4c-7.4 9.1-6 22.5 3.1 29.9l14.8 12c9.1 7.4 10.5 20.8 3.1 29.9l-125 153.1c-7.9 9.7-22.5 10.5-31.4 1.6L108 285.7c-8.3-8.3-21.7-8.3-30 0l-15 15 128.9 128.7c8.9 8.9 23.6 8.1 31.5-1.7l224.5-278c.5-.6.4-1.4-.2-1.9L370 85.2z"></path>
    <path d="M208.5 454.1c-2.1 0-4.1-.8-5.7-2.3L57.3 306.4c-1.5-1.5-2.3-3.5-2.3-5.7 0-2.1.8-4.2 2.3-5.7l23.8-23.8c3.1-3.1 8.2-3.1 11.3 0 3.1 3.1 3.1 8.2 0 11.3l-18.1 18.1L207.9 434l229.6-284.2-48.7-39.3c-3.4-2.8-4-7.8-1.2-11.3 2.8-3.4 7.8-4 11.3-1.2l54.9 44.3c1.7 1.3 2.7 3.3 2.9 5.4s-.4 4.2-1.7 5.9L214.8 451.1c-1.4 1.8-3.5 2.8-5.8 3h-.5zm-8.2-151c-2.1 0-4.1-.8-5.7-2.3l-60.3-60.2-18.2 18.2c-3.1 3.1-8.2 3.1-11.3 0-3.1-3.1-3.1-8.2 0-11.3l23.9-23.9c3.1-3.1 8.2-3.1 11.3 0l59.7 59.6 164-202.9c2.8-3.4 7.8-4 11.3-1.2 3.4 2.8 4 7.8 1.2 11.3L206.6 300.1c-1.4 1.8-3.5 2.8-5.8 3h-.5z"></path>
    <path d="M118.5 435.6c0 4.4-3.6 8-8 8h-65c-4.4 0-8-3.6-8-8s3.6-8 8-8h65c4.4 0 8 3.6 8 8zm-3-161c0-4.4-3.6-8-8-8H20.6c-4.4 0-8 3.6-8 8s3.6 8 8 8h86.8c4.5 0 8.1-3.5 8.1-8zM173 44.4c0 5-4.1 9-9 9s-9-4.1-9-9 4.1-9 9-9 9 4 9 9zm30 0c0 5-4.1 9-9 9s-9-4.1-9-9 4.1-9 9-9 9 4 9 9zm11.9 0c0-5 4.1-9 9-9s9 4.1 9 9-4.1 9-9 9-9-4-9-9zm-81.9-8H45.5c-4.4 0-8 3.6-8 8V222c0 4.4 3.6 8 8 8s8-3.6 8-8V52.4H133c4.4 0 8-3.6 8-8s-3.6-8-8-8zm120.4 16H341c4.4 0 8-3.6 8-8s-3.6-8-8-8h-87.6c-4.4 0-8 3.6-8 8s3.6 8 8 8zm234 415.2H225c-4.4 0-8 3.6-8 8s3.6 8 8 8h262.4c4.4 0 8-3.6 8-8s-3.6-8-8-8zm0-40H291.6c-4.4 0-8 3.6-8 8s3.6 8 8 8h195.8c4.4 0 8-3.6 8-8s-3.6-8-8-8zm-154.4-32c0 4.4 3.6 8 8 8h146.4c4.4 0 8-3.6 8-8s-3.6-8-8-8H341c-4.5 0-8 3.6-8 8z"></path>
    <path fill="#FF7593" d="M87.5 99.8c-8.4 0-15.2-6.8-15.2-15.2 0-8.4 6.8-15.2 15.2-15.2 8.4 0 15.2 6.8 15.2 15.2 0 8.4-6.8 15.2-15.2 15.2zm65.2-15.2c0-8.4-6.8-15.2-15.2-15.2-8.4 0-15.2 6.8-15.2 15.2 0 8.4 6.8 15.2 15.2 15.2 8.4 0 15.2-6.8 15.2-15.2zm50 0c0-8.4-6.8-15.2-15.2-15.2-8.4 0-15.2 6.8-15.2 15.2 0 8.4 6.8 15.2 15.2 15.2 8.4 0 15.2-6.8 15.2-15.2zm-50 50c0-8.4-6.8-15.2-15.2-15.2-8.4 0-15.2 6.8-15.2 15.2 0 8.4 6.8 15.2 15.2 15.2 8.4 0 15.2-6.8 15.2-15.2zm-50 0c0-8.4-6.8-15.2-15.2-15.2-8.4 0-15.2 6.8-15.2 15.2 0 8.4 6.8 15.2 15.2 15.2 8.4 0 15.2-6.8 15.2-15.2zm0 50c0-8.4-6.8-15.2-15.2-15.2-8.4 0-15.2 6.8-15.2 15.2 0 8.4 6.8 15.2 15.2 15.2 8.4 0 15.2-6.8 15.2-15.2z"></path>
    <path fill="#9AF4FD" d="M487.4 235.2v125.1H362.3l125.1-125.1z"></path>
  </symbol>
  <symbol xmlns="http://www.w3.org/2000/svg" viewBox="0 0 512 512" id="icon-check_list">
    <linearGradient id="a" gradientUnits="userSpaceOnUse" x1="380.264" y1="481.737" x2="380.264" y2="23.373">
      <stop offset="0" stop-color="#ff7593"></stop>
      <stop offset="1" stop-color="#9af4fd"></stop>
    </linearGradient>
    <path fill="url(#a)" d="M488.4 73.2L414.3 165v269.8c0 18-14.6 32.5-32.5 32.5h-77.2c-18 0-32.5-14.6-32.5-32.5V144.2c0-18 14.6-32.5 32.5-32.5h55.7c8.6 0 16.9 3.4 23 9.5l6.7 6.8c1.1 1.1 43.9-54.8 47-58.6l18.9-23.1 32.5 26.2c.1.1.2.4 0 .7z"></path>
    <path fill="#9AF4FD" d="M74.7 12.3l-60.9 61v-61h60.9z"></path>
    <path d="M505.2 429.9c0 4.4-3.6 8-8 8h-15.8v15.8c0 4.4-3.6 8-8 8s-8-3.6-8-8v-15.8h-15.8c-4.4 0-8-3.6-8-8s3.6-8 8-8h15.8v-15.8c0-4.4 3.6-8 8-8s8 3.6 8 8v15.8h15.8c4.4 0 8 3.6 8 8zm-45.6-225.5c5.9 0 10.8-4.8 10.8-10.8s-4.8-10.8-10.8-10.8c-5.9 0-10.8 4.8-10.8 10.8s4.8 10.8 10.8 10.8zM264.7 20.6H161.9c-4.4 0-8 3.6-8 8s3.6 8 8 8h102.8c4.4 0 8-3.6 8-8s-3.5-8-8-8zm137 0H298.9c-4.4 0-8 3.6-8 8s3.6 8 8 8h102.8c4.4 0 8-3.6 8-8s-3.5-8-8-8zm-314.9 221h-43c-4.4 0-8 3.6-8 8s3.6 8 8 8h43c4.4 0 8-3.6 8-8s-3.6-8-8-8zm-13-20c0-4.4-3.6-8-8-8h-43c-4.4 0-8 3.6-8 8s3.6 8 8 8h43c4.4 0 8-3.5 8-8zM451 254v85c0 4.4 3.6 8 8 8s8-3.6 8-8v-85c0-4.4-3.6-8-8-8s-8 3.6-8 8z"></path>
    <path d="M351.2 182.8c0 4.4-3.6 8-8 8H224.6c-4.4 0-8-3.6-8-8v-23.7c0-4.4 3.6-8 8-8s8 3.6 8 8v15.7h110.5c4.5 0 8.1 3.5 8.1 8zm-8 63.1H232.6v-15.7c0-4.4-3.6-8-8-8s-8 3.6-8 8v23.7c0 4.4 3.6 8 8 8h118.5c4.4 0 8-3.6 8-8s-3.5-8-7.9-8zm0 71.1H232.6v-15.7c0-4.4-3.6-8-8-8s-8 3.6-8 8V325c0 4.4 3.6 8 8 8h118.5c4.4 0 8-3.6 8-8s-3.5-8-7.9-8zm-118.6 47.4c-4.4 0-8 3.6-8 8v23.7c0 4.4 3.6 8 8 8h118.5c4.4 0 8-3.6 8-8s-3.6-8-8-8H232.6v-15.7c0-4.4-3.6-8-8-8zm-15.7-205.3c0-4.4-3.6-8-8-8h-23.7c-4.4 0-8 3.6-8 8s3.6 8 8 8h15.7v15.7c0 4.4 3.6 8 8 8s8-3.6 8-8v-23.7zm0 71.1c0-4.4-3.6-8-8-8h-23.7c-4.4 0-8 3.6-8 8s3.6 8 8 8h15.7v15.7c0 4.4 3.6 8 8 8s8-3.6 8-8v-23.7zm0 71.1c0-4.4-3.6-8-8-8h-23.7c-4.4 0-8 3.6-8 8s3.6 8 8 8h15.7V325c0 4.4 3.6 8 8 8s8-3.6 8-8v-23.7zm-8 102.8c4.4 0 8-3.6 8-8v-23.7c0-4.4-3.6-8-8-8h-23.7c-4.4 0-8 3.6-8 8s3.6 8 8 8h15.7v15.7c0 4.4 3.6 8 8 8zM388.4 205h.4c2.3-.1 4.4-1.2 5.8-3L495 77.8c2.8-3.4 2.2-8.4-1.2-11.2l-32.7-26.8c-3.4-2.8-8.5-2.3-11.3 1.1-.1.1-.2.2-.2.3l-45.3 56-38.7-38.7c-1.5-1.5-3.5-2.3-5.7-2.3H106.1c-4.4 0-8 3.6-8 8v403c0 4.4 3.6 8 8 8h308.2c4.4 0 8-3.6 8-8V216c0-4.4-3.6-8-8-8s-8 3.6-8 8v243.3H114.1v-387h242.6l37.5 37.5-9.9 12.2-21.3-21.3c-3.1-3.1-8.2-3.1-11.3 0l-10 10c-3.1 3.1-3.1 8.2 0 11.3 3.1 3.1 8.2 3.1 11.3 0l4.3-4.3 21.9 21.9c1.6 1.6 3.8 2.4 6.1 2.3 2.3-.1 4.4-1.2 5.8-3l66-81.7 20.3 16.6-89.8 111.1-54.5-54.5c-3.1-3.1-8.2-3.1-11.3 0-3.1 3.1-3.1 8.2 0 11.3l60.8 60.7c1.6 1.8 3.7 2.6 5.8 2.6z"></path>
  </symbol>
  <symbol xmlns="http://www.w3.org/2000/svg" viewBox="0 0 512 512" id="icon-control">
    <path fill="#FF7593" d="M448.3 138.3V27.1h43.6v111.2h-43.6z"></path>
    <path fill="#9AF4FD" d="M378.2 70.7V27.1h43.6v43.6h-43.6z"></path>
    <path d="M424.2 409.3c-14.6 0-26.4 11.8-26.4 26.4s11.8 26.4 26.4 26.4 26.4-11.8 26.4-26.4-11.9-26.4-26.4-26.4zm0 36.8c-5.7 0-10.4-4.7-10.4-10.4s4.7-10.4 10.4-10.4 10.4 4.7 10.4 10.4-4.7 10.4-10.4 10.4zm-232.7-23c0 4.4-3.6 8-8 8H96.7c-4.4 0-8-3.6-8-8s3.6-8 8-8h86.8c4.4 0 8 3.5 8 8zm-69.1-20.2H65c-4.4 0-8-3.6-8-8s3.6-8 8-8h57.4c4.4 0 8 3.6 8 8s-3.6 8-8 8zM58.1 179.8c-4.4 0-8-3.6-8-8V156H34.3c-4.4 0-8-3.6-8-8s3.6-8 8-8h15.8v-15.8c0-4.4 3.6-8 8-8s8 3.6 8 8V140h15.8c4.4 0 8 3.6 8 8s-3.6 8-8 8H66.1v15.8c0 4.5-3.6 8-8 8zm429.5 51.9c0 4.4-3.6 8-8 8h-3.9v3.9c0 4.4-3.6 8-8 8s-8-3.6-8-8v-3.9h-3.9c-4.4 0-8-3.6-8-8s3.6-8 8-8h3.9v-3.9c0-4.4 3.6-8 8-8s8 3.6 8 8v3.9h3.9c4.4 0 8 3.6 8 8zM140.1 70.8c14.6 0 26.4-11.8 26.4-26.4S154.7 18 140.1 18s-26.4 11.8-26.4 26.4 11.8 26.4 26.4 26.4zm0-36.7c5.7 0 10.4 4.7 10.4 10.4s-4.7 10.4-10.4 10.4-10.4-4.7-10.4-10.4 4.7-10.4 10.4-10.4z"></path>
    <linearGradient id="a" gradientUnits="userSpaceOnUse" x1="277.09" y1="364.261" x2="277.09" y2="170.405">
      <stop offset="0" stop-color="#ff7593"></stop>
      <stop offset="1" stop-color="#9af4fd"></stop>
    </linearGradient>
    <path fill="url(#a)" d="M367.7 194.1c0 7.6-2.6 13.9-7.8 18.9-5.2 5-12 7.5-20.5 7.5-4.4 0-8.4-.7-11.9-2 3.2-1.2 6.1-3 8.6-5.4 5.2-5 7.7-11.3 7.7-18.9 0-7.8-2.6-14.2-7.9-19.2-2.5-2.4-5.3-4.2-8.4-5.4 3.5-1.4 7.5-2.1 11.9-2.1 8.2 0 15 2.5 20.3 7.6 5.3 4.9 8 11.2 8 19zm-169.3 46.3c-4.4 0-8.3.7-11.9 2.1 3.1 1.2 5.9 3.1 8.4 5.4 5.3 5 7.9 11.4 7.9 19.2 0 7.6-2.6 13.9-7.7 18.9-2.5 2.4-5.3 4.2-8.6 5.4 3.5 1.4 7.5 2 11.9 2 8.5 0 15.3-2.5 20.5-7.5 5.2-5 7.8-11.3 7.8-18.9 0-7.8-2.6-14.2-7.9-19.2-5.4-4.9-12.2-7.4-20.4-7.4zm94.5 73c-4.4 0-8.3.7-11.9 2.1 3.1 1.2 5.9 3.1 8.4 5.4 5.3 5 7.9 11.4 7.9 19.2 0 7.6-2.6 13.9-7.7 18.9-2.5 2.4-5.3 4.2-8.6 5.4 3.5 1.4 7.5 2 11.9 2 8.5 0 15.3-2.5 20.5-7.5 5.2-5 7.8-11.3 7.8-18.9 0-7.8-2.6-14.2-7.9-19.2-5.4-4.9-12.2-7.4-20.4-7.4z"></path>
    <path d="M121.2 193.9c0-4.4 3.6-8 8-8h169.1c.5-2.6 1.3-5.1 2.4-7.6 1.7-4.1 6.4-6 10.5-4.3 4.1 1.7 6 6.4 4.3 10.5-1.3 3-1.9 6.1-1.9 9.4 0 13.3 10.8 24.1 24.1 24.1s24.1-10.8 24.1-24.1-10.8-24.1-24.1-24.1c-3.7 0-7.2.8-10.4 2.4-4 1.9-8.8.2-10.7-3.7-1.9-4-.2-8.8 3.7-10.7 5.5-2.6 11.3-4 17.4-4 19.4 0 35.6 13.8 39.3 32.1h23c4.4 0 8 3.6 8 8s-3.6 8-8 8h-23.1c-3.7 18.3-19.9 32.1-39.3 32.1s-35.6-13.8-39.3-32.1H129.2c-4.4 0-8-3.6-8-8zM408 340c0 4.4-3.6 8-8 8h-69.7c-3.7 18.3-19.9 32.1-39.3 32.1s-35.6-13.8-39.3-32.1H129.2c-4.4 0-8-3.6-8-8s3.6-8 8-8h122.5c3.7-18.3 19.9-32.1 39.3-32.1s35.6 13.8 39.3 32.1H400c4.4 0 8 3.6 8 8zm-92.9 0c0-13.3-10.8-24.1-24.1-24.1s-24.1 10.8-24.1 24.1 10.8 24.1 24.1 24.1 24.1-10.8 24.1-24.1zm92.9-73c0 4.4-3.6 8-8 8H235.8c-3.7 18.3-19.9 32.1-39.3 32.1s-35.6-13.8-39.3-32.1h-28c-4.4 0-8-3.6-8-8s3.6-8 8-8h28c3.7-18.3 19.9-32.1 39.3-32.1s35.6 13.8 39.3 32.1H400c4.4 0 8 3.5 8 8zm-187.4 0c0-13.3-10.8-24.1-24.1-24.1s-24.1 10.8-24.1 24.1 10.8 24.1 24.1 24.1 24.1-10.9 24.1-24.1z"></path>
  </symbol>
  <symbol xmlns="http://www.w3.org/2000/svg" viewBox="0 0 512 512" id="icon-copy">
    <linearGradient id="a" gradientUnits="userSpaceOnUse" x1="311.884" y1="403.77" x2="311.884" y2="49.087">
      <stop offset="0" stop-color="#ff7593"></stop>
      <stop offset="1" stop-color="#9af4fd"></stop>
    </linearGradient>
    <path fill="url(#a)" d="M455.2 56.9v355.7H168.5v-20.4c0-31.1 31.1-56.3 69.4-56.3 40.8 0 74-26.9 74-60.1V136c0-47.3 47.2-85.6 105.4-85.6h29.9c4.5 0 8 2.9 8 6.5z"></path>
    <path d="M454.9 39.5H168.5c-4.4 0-8 3.6-8 8v365.8c0 4.4 3.6 8 8 8h286.4c4.4 0 8-3.6 8-8V47.5c0-4.4-3.5-8-8-8zm-8 365.8H176.5V55.5h270.4v349.8zm-218-273.6c0-4.4 3.6-8 8-8h149.6c4.4 0 8 3.6 8 8s-3.6 8-8 8H236.9c-4.4 0-8-3.6-8-8zm0 60.6c0-4.4 3.6-8 8-8h149.6c4.4 0 8 3.6 8 8s-3.6 8-8 8H236.9c-4.4 0-8-3.6-8-8zm0 60.6c0-4.4 3.6-8 8-8h149.6c4.4 0 8 3.6 8 8s-3.6 8-8 8H236.9c-4.4 0-8-3.6-8-8zM110.5 358.5v-271c0-4.4 3.6-8 8-8h24.9c4.4 0 8 3.6 8 8s-3.6 8-8 8h-16.9v262.9c0 4.4-3.6 8-8 8s-8-3.5-8-7.9zm302.4 79.6v15.2c0 4.4-3.6 8-8 8H118.5c-4.4 0-8-3.6-8-8v-64.9c0-4.4 3.6-8 8-8s8 3.6 8 8v56.9h270.4v-7.2c0-4.4 3.6-8 8-8s8 3.6 8 8z"></path>
    <path d="M39.9 94.9c0-14.6 11.8-26.4 26.4-26.4 4.4 0 8 3.6 8 8s-3.6 8-8 8c-5.7 0-10.4 4.7-10.4 10.4s4.7 10.4 10.4 10.4c4.4 0 8 3.6 8 8s-3.6 8-8 8c-14.5 0-26.4-11.9-26.4-26.4zm51 271.6h43c4.4 0 8-3.6 8-8s-3.6-8-8-8h-43c-4.4 0-8 3.6-8 8s3.6 8 8 8zm58.1 14H38.6c-4.4 0-8 3.6-8 8s3.6 8 8 8H149c4.4 0 8-3.6 8-8s-3.5-8-8-8z"></path>
  </symbol>
  <symbol xmlns="http://www.w3.org/2000/svg" viewBox="0 0 512 512" id="icon-cross">
    <linearGradient id="a" gradientUnits="userSpaceOnUse" x1="267.099" y1="398.691" x2="267.099" y2="164.746">
      <stop offset="0" stop-color="#ff7593"></stop>
      <stop offset="1" stop-color="#9af4fd"></stop>
    </linearGradient>
    <path fill="url(#a)" d="M275.6 280.8c-8.8-8.8-8.8-23.1 0-31.9l53.6-53.6c6.1-6.1.6-11.6.5-11.6l-9.4-9.4c-3.6-3.6-3.6-9.5 0-13.2l6.1-6.1c3.6-3.6 9.5-3.6 13.2 0l34.1 34.1c2.1 2.1 3 5 2.6 7.7l2.9 2.9-73.2 73.2 77.1 77.1-19.1 19.3-1-1-28.9 28.9-38-38 22.9-22.9c5-5.1 1.8-9.9.7-11.1L278 283.3l.1-.1-2.5-2.4zm-118.3 88.5l24.6 24.6 81.2-81.2-3.7-3.7c-13-13-34.2-13-47.2 0l-47.3 47.3c-1.2 1-6.1 4.4-11.3-.8-6.1-6.1.3 13.1.7 13.5.1.2 1.4.3 3 .3z"></path>
    <path d="M196.5 174.1c-3.1-3.1-3.1-8.2 0-11.3 3.1-3.1 8.2-3.1 11.3 0l48.7 48.7 70.7-70.7c3.1-3.1 8.2-3.1 11.3 0l47.4 47.4c1.5 1.5 2.3 3.5 2.3 5.7 0 2.1-.8 4.2-2.3 5.7l-70.7 70.7L360 315c3.1 3.1 3.1 8.2 0 11.3-1.6 1.6-3.6 2.3-5.7 2.3-2 0-4.1-.8-5.7-2.3l-50.5-50.5c-1.5-1.5-2.3-3.5-2.3-5.7s.8-4.2 2.3-5.7l70.7-70.7-36-36-70.7 70.7c-1.5 1.5-3.5 2.3-5.7 2.3s-4.2-.8-5.7-2.3l-54.2-54.3zm189.4 166.7c-3.1-3.1-8.2-3.1-11.3 0l-41.7 41.7-70.7-70.7c-1.5-1.5-3.5-2.3-5.7-2.3s-4.2.8-5.7 2.3l-70.7 70.7-36-36 70.7-70.7c1.5-1.5 2.3-3.5 2.3-5.7s-.8-4.2-2.3-5.7l-70.7-70.7 41.7-41.7c3.1-3.1 3.1-8.2 0-11.3-3.1-3.1-8.2-3.1-11.3 0l-47.3 47.4c-3.1 3.1-3.1 8.2 0 11.3l70.7 70.7-70.7 70.7c-3.1 3.1-3.1 8.2 0 11.3l47.3 47.4c1.5 1.5 3.5 2.3 5.7 2.3s4.2-.8 5.7-2.3l70.7-70.7 70.7 70.7c1.5 1.5 3.5 2.3 5.7 2.3s4.2-.8 5.7-2.3l47.4-47.4c2.9-3.1 2.9-8.1-.2-11.3z"></path>
    <path fill="#FF7593" d="M479.6 127.5v116.4l-58.2-58.2 58.2-58.2zm-304-66.9h57.8V17h-57.8v43.6z"></path>
    <path fill="#9AF4FD" d="M18.2 481.9h60.6v14.6H18.2v-14.6zM41.2 17v43.6h115.6V17H41.2z"></path>
    <path d="M56.2 136.8H40.4c-4.4 0-8-3.6-8-8s3.6-8 8-8h15.8V105c0-4.4 3.6-8 8-8s8 3.6 8 8v15.8H88c4.4 0 8 3.6 8 8s-3.6 8-8 8H72.2v15.8c0 4.4-3.6 8-8 8s-8-3.6-8-8v-15.8zm427 194.8h-15.8v-15.8c0-4.4-3.6-8-8-8s-8 3.6-8 8v15.8h-15.8c-4.4 0-8 3.6-8 8s3.6 8 8 8h15.8v15.8c0 4.4 3.6 8 8 8s8-3.6 8-8v-15.8h15.8c4.4 0 8-3.6 8-8s-3.6-8-8-8zM430.3 46c0-14.6 11.8-26.4 26.4-26.4s26.4 11.8 26.4 26.4-11.8 26.4-26.4 26.4-26.4-11.8-26.4-26.4zm16 0c0 5.7 4.7 10.4 10.4 10.4s10.4-4.7 10.4-10.4-4.7-10.4-10.4-10.4-10.4 4.7-10.4 10.4zM115.9 250c0-4.4-3.6-8-8-8H48.5c-4.4 0-8 3.6-8 8s3.6 8 8 8H108c4.4 0 7.9-3.5 7.9-8zm33.3 165.5H70.6c-4.4 0-8 3.6-8 8s3.6 8 8 8h78.6c4.4 0 8-3.6 8-8s-3.6-8-8-8zm6.4-133.5h-45.7c-4.4 0-8 3.6-8 8s3.6 8 8 8h45.7c4.4 0 8-3.6 8-8s-3.5-8-8-8zm222.8 22.1h59.5c4.4 0 8-3.6 8-8s-3.6-8-8-8h-59.5c-4.4 0-8 3.6-8 8s3.6 8 8 8zm5.4 8.5h-59.5c-4.4 0-8 3.6-8 8s3.6 8 8 8h59.5c4.4 0 8-3.6 8-8s-3.6-8-8-8zm81 144.9c-5.9 0-10.8 4.8-10.8 10.8 0 5.9 4.8 10.8 10.8 10.8 5.9 0 10.8-4.8 10.8-10.8-.1-6-4.9-10.8-10.8-10.8zm-48 0c-5.9 0-10.8 4.8-10.8 10.8 0 5.9 4.8 10.8 10.8 10.8 5.9 0 10.8-4.8 10.8-10.8-.1-6-4.9-10.8-10.8-10.8zm-52 0c-5.9 0-10.8 4.8-10.8 10.8 0 5.9 4.8 10.8 10.8 10.8 5.9 0 10.8-4.8 10.8-10.8-.1-6-4.9-10.8-10.8-10.8zm6.8-378.7c0-4.4-3.6-8-8-8H285c-4.4 0-8 3.6-8 8s3.6 8 8 8h78.6c4.4 0 8-3.6 8-8z"></path>
  </symbol>
  <symbol xmlns="http://www.w3.org/2000/svg" viewBox="0 0 512 512" id="icon-family">
    <linearGradient id="a" gradientUnits="userSpaceOnUse" x1="325.198" y1="457.912" x2="325.198" y2="300.395">
      <stop offset="0" stop-color="#ff7593"></stop>
      <stop offset="1" stop-color="#9af4fd"></stop>
    </linearGradient>
    <path fill="url(#a)" d="M230.7 393.3c0 22.4-20.5 31.2-35.7 34.1-22.8-3.5-40.2-22-40.2-44.3v-31.3c0-16.9 11.8-31.7 29.1-36.8 3.6-1.1 14.5-6.8 18.4-8.3 0 0-5.5 10.8 4.9 19.8v20c0 19.1 9.2 36.1 23.5 46.8zm198.2-41.1c-38.7-16.9-33.7-34.8-33.7-34.8-3.5 1.5-6.8 2.7-10 3.7-15.3 4.9-25.8 18.9-25.8 34.9v29.6c0 23.5 19 42.5 42.5 42.5h93.8c-4.3-47.8-28.2-59-66.8-75.9zm-87.1 78.7s-45.8-17-37.7-38.3c-10.5 6.3-22.8 10-36 10h-1.3c1.3 27.5 24 49.4 51.8 49.4h26.5l-3.3-21.1z"></path>
    <linearGradient id="b" gradientUnits="userSpaceOnUse" x1="227.492" y1="231.644" x2="154.81" y2="231.644">
      <stop offset="0" stop-color="#ff7593"></stop>
      <stop offset="1" stop-color="#9af4fd"></stop>
    </linearGradient>
    <path fill="url(#b)" d="M155.6 144.6c7.9 29.5 67.4 65.2 67.4 65.2s6.8-7 0 49.3c-3.9 32.5-26.2 49.6-44.3 58.2-11.2 5.3-24.2-2.9-24.2-15.1V161.8s.4-19.9 1.1-17.2z"></path>
    <linearGradient id="c" gradientUnits="userSpaceOnUse" x1="432.082" y1="238.576" x2="358.274" y2="238.576">
      <stop offset="0" stop-color="#ff7593"></stop>
      <stop offset="1" stop-color="#9af4fd"></stop>
    </linearGradient>
    <path fill="url(#c)" d="M359.1 155.4c2.5-1.4 68.5 7.7 68.5 7.7s6.8 40.8 0 98c-3.9 33.1-26.2 50.4-44.3 59.1-11.2 5.4-24.2-2.9-24.2-15.3V162.2s-2.5-5.4 0-6.8z"></path>
    <linearGradient id="d" gradientUnits="userSpaceOnUse" x1="325.316" y1="333.474" x2="266.995" y2="333.474">
      <stop offset="0" stop-color="#ff7593"></stop>
      <stop offset="1" stop-color="#9af4fd"></stop>
    </linearGradient>
    <path fill="url(#d)" d="M323.6 348.5c-.2 14.1-6.3 24.6-14.2 32.3-.6 2.9-1.8 5.7-3.5 8.3-.8 1.2-1.4 2.3-1.8 3.5-10.5 6.3-22.8 10-36 10h-1.3c0-.8-.1-1.6-.1-2.5V294.2c0-16.5 13.5-29.9 30-29.8 5 0 10 .1 14.3.2 7.1.1 12.8 5.8 12.9 12.9.3 11.4.3 32.5-.3 71z"></path>
    <path d="M508.6 432.6c-.2 4.3-3.7 7.6-8 7.6h-.4c-4.4-.2-7.8-4-7.6-8.4.1-2 1.4-46.8-47.5-66.1-37.2-14.7-50.7-27.5-55.1-36.3-8 3.1-17.2 5-27.7 5-10.7 0-20.8-1.9-29.9-5.6v17.6c0 19.3-8.6 37.9-23.2 50.5 2.2 15 18.2 20.5 28 22.4 10.8 2.2 18.7 11.7 18.7 22.8v9.9c0 4.4-3.6 8-8 8s-8-3.6-8-8v-9.9c0-3.4-2.5-6.4-5.8-7.1-21.2-4.2-35-15-39.5-30.3-9.1 3.2-19 4.8-28.8 4.8s-19.6-1.6-28.8-4.8c-4.5 15.3-18.3 26.1-39.5 30.3-3.4.7-5.8 3.7-5.8 7.1v9.9c0 4.4-3.6 8-8 8s-8-3.6-8-8v-9.9c0-11 7.9-20.6 18.7-22.8 9.8-2 25.8-7.4 28-22.4-14.6-12.6-23.2-31.2-23.2-50.5v-34.2c-1.3 1.1-2.4 1.9-3.2 2.5-11 7.4-25.3 11.6-28.6 12.3-6.5 1.4-13.4 2.1-20.3 2.1-10.7 0-21.3-1.7-30.5-5.1-4.1-1.5-6.3-6.1-4.8-10.3s6.1-6.3 10.3-4.8c12.3 4.5 28 5.4 41.8 2.3 2-.4 14.2-4 23-10 1.3-.9 6.1-4.9 8.1-6.7.9-.7 1.6-1.3 2-1.7.8-.6 1.6-1.1 2.5-1.4 1.8-15.5 9-29.4 19.6-39.8-.2-.7-.3-1.3-.3-2v-34.5c-9.5-8.2-18.3-13.4-26.8-18.5-18.5-11.1-34.5-20.6-44.3-53.3-1.3-4.2 1.1-8.7 5.4-10 4.2-1.3 8.7 1.1 10 5.4 8 26.7 19.6 33.7 37.2 44.1 8.8 5.3 18.8 11.2 29.7 20.7 1.1 1 1.9 2.2 2.3 3.6 1.6 1.5 2.5 3.5 2.5 5.8v27.3c3.2-1.7 6.6-3.1 10.1-4.3v-17.3c1.2-35.4-8.7-63.8-28.7-82.2-15.5-14.3-36.6-21.7-58.9-21-.9.2-1.8.3-2.7.2h-.4c-1.5.1-3 .2-4.5.4C96 122.2 75 142.7 75 189.3c0 4.4-3.6 8-8 8s-8-3.6-8-8c0-11.3 1.2-21.4 3.6-30.3-5.2 10-8.5 21.6-9.9 34.8l-1.1 143.7c3.4-1.8 7-3.6 10.8-5.3.9-.4 1.8-.8 2.7-1.3 1.2-.6 2.4-1.1 3.6-1.7 2.8-1.3 5.5-2.6 8.1-4.1 0 0 .1 0 .1-.1 12.9-6.8 16.3-9.8 17.2-13.4C72.3 295 59 268.4 59 241.2c0-4.4 3.6-8 8-8s8 3.6 8 8c0 23.2 12.6 46.8 32 60 2.3 1.5 3.6 4.2 3.5 6.9-.5 14-5.9 20.3-26.2 31-2.9 1.6-5.9 3.1-8.8 4.5-1.2.6-2.5 1.2-3.7 1.7-.9.4-1.8.8-2.6 1.2-23.8 11.3-36.6 18.7-44.1 52.4-2.2 9.7-3.3 20-3.3 30.5 0 4.4-3.6 8-8 8s-8-3.6-8-8c0-11.7 1.2-23.1 3.7-34 5.4-24.4 14.2-38 26.2-47.8-.1-.5-.2-1.1-.2-1.6l1.1-152.8v-.8c5.7-53.9 38.2-76.3 64.5-85.6 23.9-8.5 46.6-7.7 53.2-7.3 27.4-1.5 53.6 7.5 72.7 25.1 16.4 15.1 35.5 43.7 33.8 94.4v14c1.6-.1 3.2-.2 4.8-.2H283v-68.1c0-14.5 6.9-28.4 19.3-39.1 17.7-15.2 44.4-22.3 69.6-18.5 8.2 1.2 15.4 3.3 22.4 5.2 15.2 4.3 27.2 7.7 43.5.9 4.1-1.7 8.8.2 10.5 4.3 1.7 4.1-.2 8.8-4.3 10.5-21.5 8.9-38 4.2-54-.3-6.5-1.8-13.2-3.7-20.4-4.8-20.8-3.1-42.5 2.6-56.8 14.8-6.3 5.4-13.8 14.5-13.8 27v68.1h25.3c4.4 0 8 3.6 8 8v23.5c0 4.4-3.6 8-8 8h-58.6c-4.4 0-8-3.6-8-8s3.6-8 8-8h50.6v-7.5h-50.6c-27.9 0-50.6 22.7-50.6 50.6v46.9c0 15.8 7.2 30.4 19.7 40.1 18.6 9.2 43.2 9.2 61.8 0 12.5-9.7 19.7-24.3 19.7-40.1v-58.6c0-4.4 3.6-8 8-8s8 3.6 8 8v23.5c.5.1.9.3 1.4.6 8.4 4.4 18 6.6 28.5 6.6 37.5 0 53.9-29.6 60.3-47.2 1.8-4.9 2.7-10.1 2.7-15.4v-89.4c-12.6 1.8-24.4-1.1-35.2-3.8-16.1-4-29.9-7.5-45 3.2-3.6 2.6-8.6 1.7-11.2-1.9-2.6-3.6-1.7-8.6 1.9-11.2 21-14.9 40.7-10 58.1-5.7 12.6 3.2 24.6 6.1 36.4 1.6 2.5-.9 5.2-.6 7.4.9s3.5 4 3.5 6.6v99.7c0 7.2-1.2 14.2-3.7 20.9-4.1 11.2-13.8 32-33.4 45.3.9 2.3 7.3 13.3 46.7 28.9 31.1 12.3 45.2 33.8 51.4 49.6 7.2 17.1 6.5 31.5 6.5 32.1z"></path>
    <path d="M223.7 420.2c0 4.4-3.6 8-8 8h-111c-4.4 0-8-3.6-8-8s3.6-8 8-8h111c4.4 0 8 3.6 8 8zM58.3 68.6C52.6 68.6 48 73.2 48 79c0 5.7 4.6 10.3 10.3 10.3 5.7 0 10.3-4.6 10.3-10.3.1-5.8-4.5-10.4-10.3-10.4zm233.6-5.7H277V48c0-4.4-3.6-8-8-8s-8 3.6-8 8v14.9h-14.9c-4.4 0-8 3.6-8 8s3.6 8 8 8H261v14.9c0 4.4 3.6 8 8 8s8-3.6 8-8V78.9h14.9c4.4 0 8-3.6 8-8s-3.6-8-8-8zm187.7 246.5h-3.4V306c0-4.4-3.6-8-8-8s-8 3.6-8 8v3.4h-3.4c-4.4 0-8 3.6-8 8s3.6 8 8 8h3.4v3.4c0 4.4 3.6 8 8 8s8-3.6 8-8v-3.4h3.4c4.4 0 8-3.6 8-8s-3.6-8-8-8z"></path>
    <path fill="#FF7593" d="M476.8 93l-58.6-58.6h58.6V93z"></path>
  </symbol>
  <symbol xmlns="http://www.w3.org/2000/svg" viewBox="0 0 512 512" id="icon-home">
    <linearGradient id="a" gradientUnits="userSpaceOnUse" x1="285.748" y1="453.762" x2="285.748" y2="117.642">
      <stop offset="0" stop-color="#ff7593"></stop>
      <stop offset="1" stop-color="#9af4fd"></stop>
    </linearGradient>
    <path fill="url(#a)" d="M429.9 221.8V106.5h-38.5l-.2 34.4.6 59.7-4.4-2.4v122.7c0 28.7-16.8 45.6-37.6 45.6h-52.1v94.1h148.2V264.3l30.8.5c17.7.5 21.2-6.3 18.7-10.1l-65.5-32.9zM75.4 421v39.5h148.2v-94.1H130c-30.2 0-54.6 24.4-54.6 54.6z"></path>
    <path d="M445.9 468.5H297.7c-4.4 0-8-3.6-8-8v-90.8h-58.1v90.8c0 4.4-3.6 8-8 8H75.4c-4.4 0-8-3.6-8-8s3.6-8 8-8h140.2v-90.8c0-4.4 3.6-8 8-8h74.1c4.4 0 8 3.6 8 8v90.8h132.2V272.3c0-4.4 3.6-8 8-8s8 3.6 8 8v188.2c0 4.4-3.6 8-8 8zM75.4 432.7c-4.4 0-8-3.6-8-8V272.3c0-4.4 3.6-8 8-8s8 3.6 8 8v152.4c0 4.4-3.6 8-8 8zm-43.1-170c-2.8 0-5.5-1.5-7-4.1-2.1-3.9-.8-8.7 3.1-10.9l228.4-126.8c2.4-1.3 5.4-1.3 7.8 0L383.7 187l-.4-38h-27.5c-4.4 0-8-3.6-8-8v-34.4c0-4.4 3.6-8 8-8h74.1c4.4 0 8 3.6 8 8v110.6l55 30.6c3.9 2.1 5.3 7 3.1 10.9-2.1 3.9-7 5.3-10.9 3.1l-59.1-33c-2.5-1.4-4.1-4.1-4.1-7V114.5h-58.1v18.4h27.4c4.4 0 8 3.5 8 7.9l.6 59.7c0 2.8-1.5 5.5-3.9 7s-5.5 1.5-8 .1L260.6 137 36.1 261.7c-1.2.6-2.5 1-3.8 1z"></path>
    <path d="M195.2 103.1c0 4.4-3.6 8-8 8H21.5c-4.4 0-8-3.6-8-8s3.6-8 8-8h165.6c4.5 0 8.1 3.5 8.1 8zm12.3-45.4H91.8c-4.4 0-8 3.6-8 8s3.6 8 8 8h115.7c4.4 0 8-3.6 8-8s-3.6-8-8-8zm-86.4 87.7H63.7c-4.4 0-8 3.6-8 8s3.6 8 8 8h57.4c4.4 0 8-3.6 8-8s-3.6-8-8-8zm-2.6 271.3H15.3c-4.4 0-8 3.6-8 8s3.6 8 8 8h103.3c4.4 0 8-3.6 8-8s-3.6-8-8.1-8zm-20.4 35.6H40.7c-4.4 0-8 3.6-8 8s3.6 8 8 8h57.4c4.4 0 8-3.6 8-8s-3.6-8-8-8zM410.3 51.7c0 5-4.1 9-9 9s-9-4.1-9-9 4.1-9 9-9 9 4 9 9zm30 0c0 5-4.1 9-9 9s-9-4.1-9-9 4.1-9 9-9 9 4 9 9zm30 0c0 5-4.1 9-9 9s-9-4.1-9-9 4.1-9 9-9 9 4 9 9zm-137.5 3.9H317V39.8c0-4.4-3.6-8-8-8s-8 3.6-8 8v15.8h-15.8c-4.4 0-8 3.6-8 8s3.6 8 8 8H301v15.8c0 4.4 3.6 8 8 8s8-3.6 8-8V71.6h15.8c4.4 0 8-3.6 8-8s-3.6-8-8-8z"></path>
  </symbol>
  <symbol xmlns="http://www.w3.org/2000/svg" viewBox="0 0 512 512" id="icon-list">
    <linearGradient id="a" gradientUnits="userSpaceOnUse" x1="260.235" y1="421.745" x2="260.235" y2="86.824">
      <stop offset="0" stop-color="#ff7593"></stop>
      <stop offset="1" stop-color="#9af4fd"></stop>
    </linearGradient>
    <path fill="url(#a)" d="M382.3 95.6v296.5c0 12.7-10.3 22.9-22.9 22.9H138.2c0-36.2 29.3-65.5 65.5-65.5h24.6c21.7 0 39.3-17.6 39.3-39.3V128.9c0-18.4 14.9-33.3 33.3-33.3h81.4z"></path>
    <path d="M383.3 424.3H138.2c-4.4 0-8-3.6-8-8V95.8c0-4.4 3.6-8 8-8h245.1c4.4 0 8 3.6 8 8v18.9c0 4.4-3.6 8-8 8s-8-3.6-8-8v-10.9H146.2v304.5h229.1v-21.8c0-4.4 3.6-8 8-8s8 3.6 8 8v29.8c0 4.4-3.6 8-8 8zm-56.6-56.6h-94.3c-4.4 0-8-3.6-8-8s3.6-8 8-8h94.3c4.4 0 8 3.6 8 8s-3.6 8-8 8zm-113.1 0h-18.9c-4.4 0-8-3.6-8-8s3.6-8 8-8h18.9c4.4 0 8 3.6 8 8s-3.6 8-8 8zm169.7-3.2c-4.4 0-8-3.6-8-8V146c0-4.4 3.6-8 8-8s8 3.6 8 8v210.4c0 4.5-3.6 8.1-8 8.1zm-56.6-53.3h-94.3c-4.4 0-8-3.6-8-8s3.6-8 8-8h94.3c4.4 0 8 3.6 8 8s-3.6 8-8 8zm-113.1 0h-18.9c-4.4 0-8-3.6-8-8s3.6-8 8-8h18.9c4.4 0 8 3.6 8 8s-3.6 8-8 8zm113.1-56.6h-94.3c-4.4 0-8-3.6-8-8s3.6-8 8-8h94.3c4.4 0 8 3.6 8 8s-3.6 8-8 8zm-113.1 0h-18.9c-4.4 0-8-3.6-8-8s3.6-8 8-8h18.9c4.4 0 8 3.6 8 8s-3.6 8-8 8zM326.7 198h-94.3c-4.4 0-8-3.6-8-8s3.6-8 8-8h94.3c4.4 0 8 3.6 8 8s-3.6 8-8 8zm-113.1 0h-18.9c-4.4 0-8-3.6-8-8s3.6-8 8-8h18.9c4.4 0 8 3.6 8 8s-3.6 8-8 8z"></path>
    <path fill="#FF7593" d="M47.9 411.1H26.1v-56.9h21.8v56.9zM158.1 488v-21.8h-56.9V488h56.9zM47.9 466.2v-36.9H26.1V488H83v-21.8H47.9z"></path>
    <path d="M396.9 44.5c0-4.4 3.6-8 8-8 11.4 0 20.8-9.3 20.8-20.8 0-4.4 3.6-8 8-8s8 3.6 8 8c0 20.3-16.5 36.8-36.8 36.8-4.4 0-8-3.6-8-8zm86.7 8c4.4 0 8-3.6 8-8s-3.6-8-8-8c-11.4 0-20.8-9.3-20.8-20.8 0-4.4-3.6-8-8-8s-8 3.6-8 8c.1 20.3 16.6 36.8 36.8 36.8zm0 5.2c-20.3 0-36.8 16.5-36.8 36.8 0 4.4 3.6 8 8 8s8-3.6 8-8c0-11.4 9.3-20.8 20.8-20.8 4.4 0 8-3.6 8-8s-3.5-8-8-8zm-78.7 16c11.4 0 20.8 9.3 20.8 20.8 0 4.4 3.6 8 8 8s8-3.6 8-8c0-20.3-16.5-36.8-36.8-36.8-4.4 0-8 3.6-8 8s3.6 8 8 8zm-317.7-8c0 14.6-11.8 26.4-26.4 26.4S34.4 80.3 34.4 65.7s11.8-26.4 26.4-26.4 26.4 11.9 26.4 26.4zm-16 0c0-5.7-4.7-10.4-10.4-10.4S50.4 60 50.4 65.7s4.7 10.4 10.4 10.4 10.4-4.6 10.4-10.4zm358.7 282.8h-56c-4.4 0-8 3.6-8 8s3.6 8 8 8h56c4.4 0 8-3.6 8-8s-3.6-8-8-8zm-13.5 38c0-4.4-3.6-8-8-8h-73.8c-4.4 0-8 3.6-8 8s3.6 8 8 8h73.8c4.4 0 8-3.6 8-8zm50.4-86.2c4.4 0 8-3.6 8-8s-3.6-8-8-8h-3.9v-3.9c0-4.4-3.6-8-8-8s-8 3.6-8 8v3.9H443c-4.4 0-8 3.6-8 8s3.6 8 8 8h3.9v3.9c0 4.4 3.6 8 8 8s8-3.6 8-8v-3.9h3.9zm-42.9 182.8c0 5-4.1 9-9 9s-9-4.1-9-9 4.1-9 9-9 9 4 9 9zm30 0c0 5-4.1 9-9 9s-9-4.1-9-9 4.1-9 9-9 9 4 9 9zm30 0c0 5-4.1 9-9 9s-9-4.1-9-9 4.1-9 9-9 9 4 9 9z"></path>
  </symbol>
  <symbol xmlns="http://www.w3.org/2000/svg" viewBox="0 0 512 512" id="icon-location">
    <linearGradient id="a" gradientUnits="userSpaceOnUse" x1="285.452" y1="441.559" x2="285.452" y2="67.981">
      <stop offset="0" stop-color="#ff7593"></stop>
      <stop offset="1" stop-color="#9af4fd"></stop>
    </linearGradient>
    <path fill="url(#a)" d="M381.4 176c0 60.5-102.9 251.2-107.2 259.3l-9.3 17.2-9.3-17.2-59.5-119.2c-16.3-36.9-3-73.7 47.1-73.7h2.1c8.7 0 16.1-5.7 18.6-13.5h1c29.2 0 53-23.7 53-53 0-29.2-23.7-53-53-53V89.7c0-17.6 17-30.3 33.8-25.2 47.8 14.5 82.7 59 82.7 111.5z"></path>
    <path d="M264.9 237c-33.6 0-61-27.4-61-61s27.4-61 61-61 61 27.4 61 61c-.1 33.6-27.4 61-61 61zm0-106c-24.8 0-45 20.2-45 45s20.2 45 45 45 45-20.2 45-45c-.1-24.8-20.2-45-45-45zm8 76.8c0-4.4-3.6-8-8-8-13.1 0-23.8-10.7-23.8-23.8 0-13.1 10.7-23.8 23.8-23.8 4.4 0 8-3.6 8-8s-3.6-8-8-8c-21.9 0-39.8 17.8-39.8 39.8 0 21.9 17.8 39.8 39.8 39.8 4.4 0 8-3.6 8-8zm-8 252.7c-2.9 0-5.6-1.6-7-4.2l-9.7-17.9C232.5 409.2 153.9 260 142 191.9c-.8-4.4 2.2-8.5 6.5-9.3 4.4-.8 8.5 2.2 9.3 6.5 11.4 65.7 89.1 212.8 104.5 241.7l2.7 4.9 3.1-5.7c18.7-34.7 34.2-66.1 43.9-86.3 1.9-4 6.7-5.7 10.7-3.8 4 1.9 5.7 6.7 3.8 10.7-9.8 20.4-25.4 52-44.2 87l-.8 1.5-9.4 17.2c-1.6 2.6-4.3 4.2-7.2 4.2zm71.2-141.7c-1.1 0-2.2-.2-3.3-.7-4-1.8-5.8-6.6-3.9-10.6 29.6-64.7 44.6-108.9 44.6-131.5 0-59.8-48.7-108.5-108.5-108.5-52.7 0-97.6 37.6-106.8 89.4-.8 4.4-4.9 7.3-9.3 6.5-4.4-.8-7.3-4.9-6.5-9.3 5-28.4 20-54.4 42.2-73.2 22.4-19 51-29.5 80.4-29.5 68.7 0 124.5 55.9 124.5 124.5 0 25.2-15.1 70.4-46 138.1-1.5 3.1-4.4 4.8-7.4 4.8z"></path>
    <path fill="#FF7593" d="M141.1 77.5H29.9V33.9h111.2v43.6z"></path>
    <path fill="#9AF4FD" d="M73.5 147.5H29.9v-43.6h43.6v43.6zm416.1 131H446v43.6h43.6v-43.6z"></path>
    <path d="M420.7 470.3c-5 0-9 4.1-9 9s4.1 9 9 9 9-4.1 9-9-4-9-9-9zm-30 0c-5 0-9 4.1-9 9s4.1 9 9 9 9-4.1 9-9-4-9-9-9zm90 0c-5 0-9 4.1-9 9s4.1 9 9 9 9-4.1 9-9-4-9-9-9zm-30.4 0c-5 0-9 4.1-9 9s4.1 9 9 9 9-4.1 9-9-4.1-9-9-9zm-29.6-12.7c4.9 0 9-4 9-9s-4-9-9-9-9 4-9 9 4 9 9 9zm29.6-17.9c-4.9 0-9 4-9 9s4 9 9 9 9-4 9-9-4.1-9-9-9zm30.4-29.7c-5 0-9 4.1-9 9s4.1 9 9 9 9-4.1 9-9-4-9-9-9zm0 29.6c-5 0-9 4.1-9 9s4.1 9 9 9 9-4.1 9-9-4-9-9-9zm-30.4-29.5c-4.9 0-9 4-9 9s4 9 9 9 9-4 9-9-4.1-9-9-9zm21.4-20.7c0 5 4.1 9 9 9s9-4.1 9-9-4.1-9-9-9-9 4-9 9zm-31-298.7V74.9H425c-4.4 0-8-3.6-8-8s3.6-8 8-8h15.8V43.1c0-4.4 3.6-8 8-8s8 3.6 8 8v15.8h15.8c4.4 0 8 3.6 8 8s-3.6 8-8 8h-15.8v15.8c0 4.4-3.6 8-8 8s-8.1-3.6-8.1-8zM35.5 292.9c0-4.4 3.6-8 8-8h15.8v-15.8c0-4.4 3.6-8 8-8s8 3.6 8 8v15.8h15.8c4.4 0 8 3.6 8 8s-3.6 8-8 8H75.3v15.8c0 4.4-3.6 8-8 8s-8-3.6-8-8v-15.8H43.5c-4.4 0-8-3.6-8-8zm296.1 188.8c0 4.4-3.6 8-8 8h-58.8c-4.4 0-8-3.6-8-8s3.6-8 8-8h58.8c4.5 0 8 3.6 8 8zm-100.5 0c0 4.4-3.6 8-8 8H21.3c-4.4 0-8-3.6-8-8s3.6-8 8-8h201.8c4.4 0 8 3.6 8 8zm-85-132.1c-2.2-3.8-.8-8.7 3-10.9 3.8-2.2 8.7-.8 10.9 3l58.8 104c2.2 3.8.8 8.7-3 10.9-1.2.7-2.6 1-3.9 1-2.8 0-5.5-1.5-7-4.1l-58.8-103.9zm221.6-3.9c0 4.4-3.6 8-8 8h-74.3c-4.4 0-8-3.6-8-8s3.6-8 8-8h74.3c4.5 0 8 3.6 8 8zm0-34.9c0 4.4-3.6 8-8 8h-34.9c-4.4 0-8-3.6-8-8s3.6-8 8-8h34.9c4.5 0 8 3.6 8 8z"></path>
  </symbol>
  <symbol xmlns="http://www.w3.org/2000/svg" viewBox="0 0 512 512" id="icon-maplocation">
    <linearGradient id="a" gradientUnits="userSpaceOnUse" x1="271.381" y1="398.145" x2="271.381" y2="98.002">
      <stop offset="0" stop-color="#ff7593"></stop>
      <stop offset="1" stop-color="#9af4fd"></stop>
    </linearGradient>
    <path fill="url(#a)" d="M348.5 184.8c0 48.6-82.6 201.8-86.1 208.4l-7.5 13.8-7.5-13.8-47.8-95.7c-13.1-29.6-2.4-59.2 37.8-59.2h1.7c7 0 12.9-4.6 15-10.9h.8c23.5 0 42.6-19.1 42.6-42.6s-19.1-42.6-42.6-42.6v-26.8c0-14.1 13.6-24.3 27.1-20.2 38.4 11.6 66.5 47.4 66.5 89.6z"></path>
    <path fill="#9AF4FD" d="M418.4 331.4l-57.8-57.8 57.8-57.8v115.6zm62.9-263.6H404v22.5h77.3V67.8z"></path>
    <path fill="#FF7593" d="M481.3 44.1H404V22.5h77.3v21.6z"></path>
    <path d="M339.1 321.1c0 4.4-3.6 8-8 8h-59.7c-4.4 0-8-3.6-8-8s3.6-8 8-8h59.7c4.4 0 8 3.6 8 8zm-8-36h-28c-4.4 0-8 3.6-8 8s3.6 8 8 8h28c4.4 0 8-3.6 8-8s-3.6-8-8-8zM94.6 263.8H78.8V248c0-4.4-3.6-8-8-8s-8 3.6-8 8v15.8H47.1c-4.4 0-8 3.6-8 8s3.6 8 8 8h15.8v15.8c0 4.4 3.6 8 8 8s8-3.6 8-8v-15.8h15.8c4.4 0 8-3.6 8-8s-3.7-8-8.1-8zm378.1-126.9h-3.9V133c0-4.4-3.6-8-8-8s-8 3.6-8 8v3.9h-3.9c-4.4 0-8 3.6-8 8s3.6 8 8 8h3.9v3.9c0 4.4 3.6 8 8 8s8-3.6 8-8v-3.9h3.9c4.4 0 8-3.6 8-8s-3.6-8-8-8zM71.2 153.8c0 5.9 4.8 10.8 10.8 10.8 5.9 0 10.8-4.8 10.8-10.8S88 143 82 143c-6 .1-10.8 4.9-10.8 10.8zM48.6 69.9c0-5.7 4.7-10.4 10.4-10.4s10.4 4.7 10.4 10.4c0 4.4 3.6 8 8 8s8-3.6 8-8c0-14.6-11.8-26.4-26.4-26.4S32.6 55.3 32.6 69.9c0 4.4 3.6 8 8 8s8-3.6 8-8zm404.7 267.4c-5.9 0-10.8 4.8-10.8 10.8s4.8 10.8 10.8 10.8 10.8-4.8 10.8-10.8-4.8-10.8-10.8-10.8z"></path>
    <path d="M467.3 455c-1.4 2.6-4.1 4.3-7.1 4.3H87.3c-4.4 0-8-3.6-8-8s3.6-8 8-8H445l-81.3-117.6c-2.5-3.6-1.6-8.6 2-11.1s8.6-1.6 11.1 2l90 130.1c1.7 2.4 1.9 5.6.5 8.3zM205.8 329.1c15.2 31.3 29 57.5 34.2 67.2l2.2 4c-2.2 1.4-3.6 3.9-3.6 6.8 0 4.4 3.6 7.9 8 7.9h8.3c4.2 0 8.3-.1 12.2-.4 4.4-.3 7.7-4.1 7.4-8.5-.2-3.6-2.8-6.4-6.1-7.2l1-1.9.6-1.2c15.1-28.1 27.7-53.6 35.6-70 1.9-4 .2-8.8-3.8-10.7-4-1.9-8.8-.2-10.7 3.8-7.8 16.3-20.2 41.5-35.2 69.3l-1.1 2-.8-1.4c-5.3-9.9-19.8-37.2-35.3-69.3-.3-1.3-.9-2.5-1.7-3.5-20.2-42.2-41.8-91.7-46.9-120.9-.8-4.4-4.9-7.3-9.3-6.5-4.4.8-7.3 4.9-6.5 9.3 5 28.4 24.3 74.3 43.6 115.3h-68.6c-2.8 0-5.4 1.4-6.8 3.8L42.7 447c-2.3 3.8-1.1 8.7 2.6 11 1.3.8 2.8 1.2 4.2 1.2 2.7 0 5.3-1.4 6.8-3.8L134 329.1h71.8zm-44.5-152.9c4.4.8 8.5-2.1 9.3-6.5 7.2-40.9 42.7-70.5 84.3-70.5 47.2 0 85.6 38.4 85.6 85.6 0 17.9-12 53.2-35.7 105-1.8 4-.1 8.8 3.9 10.6 1.1.5 2.2.7 3.3.7 3 0 5.9-1.7 7.3-4.7 25-54.6 37.1-91.1 37.1-111.6 0-56-45.6-101.6-101.6-101.6-49.4 0-91.4 35.2-100 83.8-.7 4.3 2.2 8.4 6.5 9.2zm147.3 209c-4.3 3.3-9.5 6-15.4 8.1-4.2 1.5-6.3 6.1-4.8 10.2 1.2 3.3 4.2 5.3 7.5 5.3.9 0 1.8-.2 2.7-.5 7.5-2.7 14.1-6.2 19.7-10.5 3.5-2.7 4.2-7.7 1.5-11.2-2.7-3.4-7.7-4.1-11.2-1.4zm17.8-37.4c-.2 6.2-1.3 12-3.1 17.2-1.5 4.2.7 8.7 4.9 10.2.9.3 1.8.5 2.7.5 3.3 0 6.4-2 7.5-5.3 2.4-6.7 3.7-14.1 4-22 .2-4.4-3.3-8.1-7.7-8.3-4.4-.1-8.1 3.3-8.3 7.7zm-160.8 57.4c-7.1 1.2-13.9 2.5-20.2 4-4.3 1-7 5.3-5.9 9.6.9 3.7 4.2 6.2 7.8 6.2.6 0 1.2-.1 1.9-.2 5.9-1.4 12.3-2.7 19.1-3.8 4.4-.7 7.3-4.8 6.6-9.2-.9-4.4-5-7.3-9.3-6.6zm50.5-5.3c-6.9.4-13.8.9-20.2 1.4-4.4.4-7.6 4.3-7.2 8.7.4 4.2 3.9 7.3 8 7.3h.7c6.3-.6 12.9-1 19.7-1.4 4.4-.2 7.8-4 7.6-8.4-.4-4.4-4.2-7.8-8.6-7.6zm89.3-215.1c0 27.9-22.7 50.6-50.6 50.6s-50.6-22.7-50.6-50.6 22.7-50.6 50.6-50.6 50.6 22.7 50.6 50.6zm-16 0c0-19.1-15.5-34.6-34.6-34.6s-34.6 15.5-34.6 34.6 15.5 34.6 34.6 34.6 34.6-15.5 34.6-34.6z"></path>
  </symbol>
  <symbol xmlns="http://www.w3.org/2000/svg" viewBox="0 0 512 512" id="icon-maps">
    <linearGradient id="a" gradientUnits="userSpaceOnUse" x1="111.187" y1="290.405" x2="470.307" y2="290.405">
      <stop offset="0" stop-color="#ff7593"></stop>
      <stop offset="1" stop-color="#9af4fd"></stop>
    </linearGradient>
    <path fill="url(#a)" d="M470.3 121.4v288l-120 48.6v1.4l-119.6-39.9-119.5 29.9v-13.5c0-33.5 22.8-72.7 55.3-80.9l63.8-16v-.2l.4.1.5-.1v.3l119.1 39.7v-.6l35.6-14.4c13.6-5.5 22.5-18.7 22.5-33.3V200.4c0-32.6 19.8-61.9 50-74.2l11.9-4.8z"></path>
    <path d="M470.3 139.7c-4.4 0-8 3.6-8 8v173.5l-104 80.2V243.2l92.5-71.1c3.5-2.7 4.2-7.7 1.5-11.2-2.7-3.5-7.7-4.2-11.2-1.5L358.3 223v-46.7l115-46.6c4.1-1.7 6.1-6.3 4.4-10.4-1.7-4.1-6.3-6.1-10.4-4.4l-117.8 47.7-113.9-38c-1.4-.9-3.1-1.4-4.8-1.3-1.4-.1-2.8.2-4.1.9l-117.4 29.4c-3.6.9-6.1 4.1-6.1 7.8v136.8c0 4.4 3.6 8 8 8s8-3.6 8-8V167.6l103.1-25.8v185.7l-6.1 4.7-64.9-146c-1.8-4-6.5-5.9-10.6-4.1-4 1.8-5.9 6.5-4.1 10.6l66.5 149.5-79.5 61.1c-3.5 2.7-4.2 7.7-1.5 11.2 1.6 2 3.9 3.1 6.3 3.1 1.7 0 3.4-.5 4.9-1.7l89-68.4v65.7L119.2 439V330.7c0-4.4-3.6-8-8-8s-8 3.6-8 8v118.7c0 2.5 1.1 4.8 3.1 6.3 1.4 1.1 3.2 1.7 4.9 1.7.6 0 1.3-.1 1.9-.2l117.2-29.3L347.8 467c.8.3 1.7.4 2.5.4 1.7 0 3.3-.5 4.7-1.5.1-.1.2-.2.4-.3l118-47.8c3-1.2 5-4.2 5-7.4V147.7c-.1-4.4-3.7-8-8.1-8zm-187.1 31.9l39.7 78.7-83.7 64.3V142.8l51.7 17.2c-1.4-.1-2.8.2-4.1.8-4 2-5.6 6.8-3.6 10.8zm-44 163.2l35.8-27.5L342.3 420v28.3l-103.1-34.4v-79.1zm103.1 54l-54.5-91.3 50.1-38.5 4.4-3.3v133.1zm0-153.5l-6.5 5-38.3-76c-.7-1.3-1.6-2.4-2.8-3.1l47.6 15.9v58.2zm16 211.9v-25.4l104-80.2V405l-104 42.2z"></path>
    <path d="M292.2 56.1c0 4.4-3.6 8-8 8H256c-4.4 0-8-3.6-8-8s3.6-8 8-8h28.2c4.4 0 8 3.6 8 8zm-93.5 29.5h-92.6c-4.4 0-8 3.6-8 8s3.6 8 8 8h92.6c4.4 0 8-3.6 8-8s-3.6-8-8-8zm-49.8 204.6H92.5c-4.4 0-8 3.6-8 8s3.6 8 8 8h56.4c4.4 0 8-3.6 8-8s-3.6-8-8-8zm-8.5 32.5H51.8c-4.4 0-8 3.6-8 8s3.6 8 8 8h88.6c4.4 0 8-3.6 8-8s-3.6-8-8-8zM435.1 56.1h-15.8V40.3c0-4.4-3.6-8-8-8s-8 3.6-8 8v15.8h-15.8c-4.4 0-8 3.6-8 8s3.6 8 8 8h15.8v15.8c0 4.4 3.6 8 8 8s8-3.6 8-8V72.1h15.8c4.4 0 8-3.6 8-8s-3.6-8-8-8zM58.5 440h-3.9v-3.9c0-4.4-3.6-8-8-8s-8 3.6-8 8v3.9h-3.9c-4.4 0-8 3.6-8 8s3.6 8 8 8h3.9v3.9c0 4.4 3.6 8 8 8s8-3.6 8-8V456h3.9c4.4 0 8-3.6 8-8s-3.6-8-8-8zM25.4 189.5c0-14.6 11.8-26.4 26.4-26.4s26.4 11.8 26.4 26.4-11.8 26.4-26.4 26.4-26.4-11.8-26.4-26.4zm16 0c0 5.7 4.7 10.4 10.4 10.4s10.4-4.7 10.4-10.4-4.7-10.4-10.4-10.4-10.4 4.7-10.4 10.4zm426.8 271.1c-5.9 0-10.8 4.8-10.8 10.8s4.8 10.8 10.8 10.8 10.8-4.8 10.8-10.8-4.8-10.8-10.8-10.8zM325.4 87.9c-5.9 0-10.8 4.8-10.8 10.8 0 5.9 4.8 10.8 10.8 10.8s10.8-4.8 10.8-10.8c-.1-6-4.9-10.8-10.8-10.8z"></path>
    <path fill="#9AF4FD" d="M192 27.4v21.9H28.5V27.4H192z"></path>
  </symbol>
  <symbol xmlns="http://www.w3.org/2000/svg" viewBox="0 0 512 512" id="icon-power_on_off">
    <linearGradient id="a" gradientUnits="userSpaceOnUse" x1="63.041" y1="257.858" x2="407.959" y2="257.858">
      <stop offset="0" stop-color="#ff7593"></stop>
      <stop offset="1" stop-color="#9af4fd"></stop>
    </linearGradient>
    <path fill="url(#a)" d="M408 56.2v397.5c0 6.1-2.5 11.6-6.4 15.6s-9.5 6.4-15.6 6.4H89.2c-19.2 0-31.8-20-23.6-37.3 14-29.7 44.3-50.3 79.4-50.3h105.4c26.6 0 50.4-11.8 66.5-30.5 28.9-24.1 47.3-60.4 47.3-101 0-29.5-9.7-56.7-26.1-78.6v-72.8c0-30.6 20.3-56.5 48.1-64.9 6.1-2 21.8 15.9 21.8 15.9z"></path>
    <path d="M364.1 483.7h-263c-28.6 0-51.8-23.3-51.8-51.8V81.1c0-28.6 23.3-51.8 51.8-51.8h263c28.6 0 51.8 23.3 51.8 51.8v274.6c0 4.4-3.6 8-8 8s-8-3.6-8-8V81.1c0-19.8-16.1-35.8-35.8-35.8h-263c-19.8 0-35.8 16.1-35.8 35.8v350.7c0 19.8 16.1 35.8 35.8 35.8h263c4.4 0 8 3.6 8 8s-3.6 8.1-8 8.1zm51.9-8v-77.8c0-4.4-3.6-8-8-8s-8 3.6-8 8v77.8c0 4.4 3.6 8 8 8s8-3.6 8-8zm-43.9-219.2c0-49.7-26.7-95.9-69.8-120.7-2.5-1.4-5.5-1.4-8 0s-4 4.1-4 6.9v56.1c0 2 .7 3.8 2 5.3 12.8 14.5 19.9 33.1 19.9 52.3 0 43.9-35.7 79.7-79.7 79.7s-79.7-35.7-79.7-79.7c0-19.3 7.1-37.9 19.9-52.3 1.3-1.5 2-3.4 2-5.3v-56.1c0-2.9-1.5-5.5-4-6.9-2.5-1.4-5.5-1.4-8 0-43 24.8-69.8 71-69.8 120.7 0 76.9 62.6 139.5 139.5 139.5 77.1 0 139.7-62.6 139.7-139.5zm-213.3-60.6c-14.2 17.1-21.9 38.5-21.9 60.6 0 52.8 42.9 95.7 95.7 95.7 52.8 0 95.7-42.9 95.7-95.7 0-22.2-7.8-43.6-21.9-60.6v-38.4c31 23.1 49.8 59.8 49.8 99 0 68.1-55.4 123.5-123.5 123.5s-123.5-55.4-123.5-123.5c0-39.2 18.8-75.9 49.8-99v38.4zm103.7 60.6V126.9c0-4.4-3.6-8-8-8s-8 3.6-8 8v121.5h-27.8V133.8c4.5-.5 9.2-.8 13.9-.8 4.4 0 8-3.6 8-8s-3.6-8-8-8c-8.1 0-15.9.7-23.4 2.1-3.8.7-6.5 4-6.5 7.9v129.5c0 4.4 3.6 8 8 8h43.8c4.4 0 8-3.6 8-8zm-67.4 210.7"></path>
    <path d="M467.8 405.9H381c-4.4 0-8-3.6-8-8s3.6-8 8-8h86.8c4.4 0 8 3.6 8 8s-3.6 8-8 8zM427.6 366c0-4.4-3.6-8-8-8h-57.4c-4.4 0-8 3.6-8 8s3.6 8 8 8h57.4c4.5 0 8-3.6 8-8z"></path>
    <path fill="#9AF4FD" d="M470.2 80.5V45.3h-35.1V23.5H492v56.9h-21.8z"></path>
  </symbol>
  <symbol viewBox="0 0 50 50" fill="none" xmlns="http://www.w3.org/2000/svg" id="icon-red_eye_close">
    <path d="M48.389 28.037c0 .43-.352.781-.782.781h-4.199a.784.784 0 0 1-.781-.78c0-.43.351-.782.781-.782h4.2a.77.77 0 0 1 .78.781zm-2.871 2.149H38.31a.783.783 0 0 0-.78.78c0 .43.35.782.78.782h7.208c.43 0 .78-.352.78-.781a.783.783 0 0 0-.78-.781zm-2.93-23.39h1.543V8.34c0 .43.351.781.781.781.43 0 .781-.351.781-.781V6.797h1.543c.43 0 .782-.352.782-.781a.784.784 0 0 0-.782-.782h-1.543V3.691a.783.783 0 0 0-.78-.78.784.784 0 0 0-.782.78v1.543h-1.543a.784.784 0 0 0-.781.782c0 .43.351.78.78.78zM5.37 6.31h-.38v-.381a.784.784 0 0 0-.782-.782.784.784 0 0 0-.781.782v.38h-.381a.784.784 0 0 0-.781.782c0 .43.351.781.78.781h.382v.381c0 .43.351.781.781.781.43 0 .781-.351.781-.781v-.38h.381c.43 0 .781-.352.781-.782a.784.784 0 0 0-.78-.781zm-.459 13.593c-.576 0-1.055.47-1.055 1.055 0 .576.47 1.055 1.055 1.055a1.05 1.05 0 0 0 1.055-1.055 1.05 1.05 0 0 0-1.055-1.055zm0 6.836c-.576 0-1.055.469-1.055 1.055 0 .576.47 1.055 1.055 1.055a1.05 1.05 0 0 0 1.055-1.055 1.05 1.05 0 0 0-1.055-1.055zm0 5.957c-.576 0-1.055.47-1.055 1.055 0 .576.47 1.055 1.055 1.055a1.05 1.05 0 0 0 1.055-1.055 1.05 1.05 0 0 0-1.055-1.055z"
      fill="#000"></path>
    <path d="M4.424 40.547v7.549h-2.1v-7.55h2.1z" fill="#FF7593"></path>
    <path d="M44.775 41.973v-3.389h3.39v3.389h-3.39zm3.39 5.097v-3.388h-3.39v3.388h3.39zm-5.206 0v-3.388H39.57v3.388h3.389z" fill="#9AF4FD"></path>
    <path d="M25.303 46.299a.783.783 0 0 1-.782-.781v-6.084c0-.43.352-.782.782-.782h2.06c.43 0 .782.352.782.782 0 .43-.352.78-.782.78h-1.279v5.304c0 .43-.352.78-.781.78zm11.484-2.93a.79.79 0 0 1-.674-.38L33.33 38.3a.817.817 0 0 1-.078-.625.74.74 0 0 1 .41-.479l1.856-.908a.781.781 0 1 1 .684 1.406l-1.095.537 2.354 3.956a.783.783 0 0 1-.674 1.181zm-22.754-.898a.85.85 0 0 1-.4-.108.791.791 0 0 1-.274-1.074l2.784-4.687a.78.78 0 0 1 1.015-.303l1.856.908a.781.781 0 1 1-.684 1.406l-1.21-.586-2.423 4.073a.786.786 0 0 1-.664.37zm12.305-4.326c-7.324 0-12.461-4.258-15.479-7.823a.786.786 0 0 1 .088-1.103.786.786 0 0 1 1.104.088c2.803 3.32 7.568 7.265 14.287 7.265 4.619 0 8.857-1.836 12.597-5.459 2.208-2.138 3.575-4.287 4.063-5.117-.488-.84-1.875-3.008-4.092-5.156-3.7-3.565-7.88-5.39-12.441-5.42-3.839-.008-6.521 1.103-7.383 1.66-1.875.899-3.652 2.168-5.332 3.799-2.207 2.139-3.574 4.287-4.063 5.117.079.137.176.303.303.498a.775.775 0 0 1 .996-.234.785.785 0 0 1 .332 1.054l-.556 1.065a.786.786 0 0 1-1.338.088c-.87-1.211-1.319-2.06-1.328-2.1a.787.787 0 0 1 0-.723c.058-.117 1.572-2.988 4.56-5.878 3.985-3.858 8.721-5.899 13.682-5.899h.264c4.863.068 9.501 2.11 13.418 5.899 2.988 2.89 4.502 5.761 4.56 5.879a.787.787 0 0 1 0 .722c-.058.117-1.572 2.988-4.56 5.88-3.985 3.856-8.721 5.898-13.682 5.898z"
      fill="#000"></path>
  </symbol>
  <symbol xmlns="http://www.w3.org/2000/svg" viewBox="0 0 512 512" id="icon-red_eye">
    <linearGradient id="a" gradientUnits="userSpaceOnUse" x1="260.479" y1="363.38" x2="280.44" y2="106.746">
      <stop offset="0" stop-color="#ff7593"></stop>
      <stop offset="1" stop-color="#9af4fd"></stop>
    </linearGradient>
    <path fill="url(#a)" d="M364.8 245.2c0 52.6-42.6 95.2-95.2 95.2s-95.2-42.6-95.2-95.2S217 150 269.6 150s95.2 42.6 95.2 95.2z"></path>
    <path d="M495.5 287.1c0 4.4-3.6 8-8 8h-43c-4.4 0-8-3.6-8-8s3.6-8 8-8h43c4.5 0 8 3.5 8 8zm-29.4 22h-73.8c-4.4 0-8 3.6-8 8s3.6 8 8 8h73.8c4.4 0 8-3.6 8-8s-3.6-8-8-8zm-30-239.5h15.8v15.8c0 4.4 3.6 8 8 8s8-3.6 8-8V69.6h15.8c4.4 0 8-3.6 8-8s-3.6-8-8-8h-15.8V37.8c0-4.4-3.6-8-8-8s-8 3.6-8 8v15.8h-15.8c-4.4 0-8 3.6-8 8s3.6 8 8 8zM55 64.6h-3.9v-3.9c0-4.4-3.6-8-8-8s-8 3.6-8 8v3.9h-3.9c-4.4 0-8 3.6-8 8s3.6 8 8 8h3.9v3.9c0 4.4 3.6 8 8 8s8-3.6 8-8v-3.9H55c4.4 0 8-3.6 8-8s-3.6-8-8-8zm-4.7 139.2c-5.9 0-10.8 4.8-10.8 10.8 0 5.9 4.8 10.8 10.8 10.8s10.8-4.8 10.8-10.8c0-6-4.8-10.8-10.8-10.8zm0 70c-5.9 0-10.8 4.8-10.8 10.8 0 5.9 4.8 10.8 10.8 10.8s10.8-4.8 10.8-10.8c0-6-4.8-10.8-10.8-10.8zm0 61c-5.9 0-10.8 4.8-10.8 10.8 0 5.9 4.8 10.8 10.8 10.8s10.8-4.8 10.8-10.8c0-6-4.8-10.8-10.8-10.8z"></path>
    <path fill="#FF7593" d="M45.3 415.2v77.3H23.8v-77.3h21.5z"></path>
    <path fill="#9AF4FD" d="M458.5 429.8v-34.7h34.7v34.7h-34.7zm34.7 52.2v-34.7h-34.7V482h34.7zm-53.3 0v-34.7h-34.7V482h34.7z"></path>
    <path d="M259.1 474.1c-4.4 0-8-3.6-8-8v-62.3c0-4.4 3.6-8 8-8h21.1c4.4 0 8 3.6 8 8s-3.6 8-8 8h-13.1v54.3c0 4.4-3.6 8-8 8zm117.6-30c-2.7 0-5.4-1.4-6.9-3.9l-28.5-48c-1.1-1.9-1.4-4.2-.8-6.4s2.1-3.9 4.2-4.9l19-9.3c4-1.9 8.8-.3 10.7 3.7s.3 8.8-3.7 10.7l-11.2 5.5 24.1 40.5c2.3 3.8 1 8.7-2.8 11-1.3.8-2.7 1.1-4.1 1.1zm-233-9.2c-1.4 0-2.8-.4-4.1-1.1-3.8-2.3-5-7.2-2.8-11l28.5-48c2.1-3.6 6.6-4.9 10.4-3.1l19 9.3c4 1.9 5.6 6.7 3.7 10.7-1.9 4-6.7 5.6-10.7 3.7l-12.4-6-24.8 41.7c-1.5 2.4-4.1 3.8-6.8 3.8zm28.5-273.1c-3 0-5.8-1.7-7.2-4.5-1.9-4-.3-8.8 3.7-10.7l11.2-5.5-24.1-40.5c-2.3-3.8-1-8.7 2.8-11 3.8-2.3 8.7-1 11 2.8l28.5 48c1.1 1.9 1.4 4.2.8 6.4-.6 2.1-2.1 3.9-4.2 4.9l-19 9.3c-1.1.6-2.3.8-3.5.8zm195 0c-1.2 0-2.4-.3-3.5-.8l-19-9.3c-4-1.9-5.6-6.7-3.7-10.7 1.9-4 6.7-5.6 10.7-3.7l12.4 6 24.8-41.7c2.3-3.8 7.2-5 11-2.8 3.8 2.3 5 7.2 2.8 11l-28.5 48c-1.6 2.6-4.3 4-7 4zm-87-24.9h-21.1c-4.4 0-8-3.6-8-8s3.6-8 8-8h13.1V66.6c0-4.4 3.6-8 8-8s8 3.6 8 8v62.3c0 4.4-3.5 8-8 8zm-10.5 253.7c-75 0-127.6-43.6-158.5-80.1-2.9-3.4-2.4-8.4.9-11.3 3.4-2.9 8.4-2.4 11.3.9 28.7 34 77.5 74.4 146.3 74.4 47.3 0 90.7-18.8 129-55.9 22.6-21.9 36.6-43.9 41.6-52.4-5-8.6-19.2-30.8-41.9-52.8-37.9-36.5-80.7-55.2-127.4-55.5-48.5.5-87.8 39.8-88.4 88.2.6 47.6 39.4 86.1 87.1 86.1 48.1 0 87.2-39.1 87.2-87.2 0-17-5-33.5-14.4-47.8-2.4-3.7-1.4-8.7 2.3-11.1 3.7-2.4 8.7-1.4 11.1 2.3 11.1 16.9 17 36.4 17 56.6 0 56.9-46.3 103.2-103.2 103.2-55.9 0-101.5-44.7-103.1-100.2v-3.8c.7-26.8 11.5-51.1 28.8-69.3-19.2 9.2-37.4 22.2-54.6 38.9-22.6 21.9-36.6 43.9-41.6 52.4.8 1.4 1.8 3.1 3.1 5.1 2.3-3.2 6.6-4.3 10.2-2.4 3.9 2 5.4 6.9 3.4 10.8l-5.7 10.9c-1.3 2.5-3.8 4.1-6.6 4.3-2.8.2-5.5-1.1-7.1-3.4-8.9-12.4-13.5-21.1-13.6-21.5-1.2-2.3-1.2-5.1 0-7.4.6-1.2 16.1-30.6 46.7-60.2 40.8-39.5 89.3-60.4 140.1-60.4h2.7c49.8.7 97.3 21.6 137.4 60.4 30.6 29.6 46.1 59 46.7 60.2 1.2 2.3 1.2 5.1 0 7.4-.6 1.2-16.1 30.6-46.7 60.2-40.8 39.5-89.3 60.4-140.1 60.4zm0-105.7c-21.9 0-39.7-17.8-39.7-39.7s17.8-39.7 39.7-39.7 39.7 17.8 39.7 39.7-17.8 39.7-39.7 39.7zm0-63.4c-13.1 0-23.7 10.6-23.7 23.7s10.6 23.7 23.7 23.7 23.7-10.6 23.7-23.7-10.6-23.7-23.7-23.7zm-10.6 31.7c-4.4 0-8-3.6-8-8 0-10.2 8.3-18.6 18.6-18.6 4.4 0 8 3.6 8 8s-3.6 8-8 8c-1.4 0-2.6 1.2-2.6 2.6 0 4.4-3.6 8-8 8z"></path>
  </symbol>
  <symbol xmlns="http://www.w3.org/2000/svg" viewBox="0 0 512 512" id="icon-settings_1">
    <linearGradient id="a" gradientUnits="userSpaceOnUse" x1="96.417" y1="177.075" x2="322.093" y2="177.075" gradientTransform="rotate(23.292 177.065 177.05)">
      <stop offset="0" stop-color="#ff7593"></stop>
      <stop offset="1" stop-color="#9af4fd"></stop>
    </linearGradient>
    <path fill="url(#a)" d="M284.7 223.4c5-11.6 7.9-23.7 9-35.7l36.4.5.2-18-36.5-.5c-1.6-24.7-11-48.4-26.9-67.5l26.2-25.4-12.6-12.9-26.1 25.4c-5.1-4.5-10.6-8.6-16.6-12.2l-.1-.1c-7.4-4.5-17.1-1.4-20.5 6.6L200 123.8c-2 4.6-1.3 9.8 1.8 13.7 9.7 12.2 40.3 14.3 21 59.2-10.8 25.1-40.1 36.8-65.2 26l-.1-.1c-8.8 20.4-13.4 31.4-36.3 21.6l-44.9-19.3c-5.9-2.6-8.1-5.1-5.5.8 4.3 9.4 9.8 18.2 16.5 26.2l-26.2 25.4 12.6 12.9 26.1-25.4c9 8 19.4 14.7 31.1 19.7 11.7 5 23.7 7.9 35.7 9l-.5 36.4 18 .2.5-36.5c24.7-1.6 48.4-11 67.5-26.9l25.4 26.2 12.9-12.6-25.4-25.8c8-9.1 14.7-19.4 19.7-31.1z"></path>
    <linearGradient id="b" gradientUnits="userSpaceOnUse" x1="306.917" y1="367.503" x2="484.538" y2="367.503" gradientTransform="rotate(-13.056 368.05 369.043)">
      <stop offset="0" stop-color="#ff7593"></stop>
      <stop offset="1" stop-color="#9af4fd"></stop>
    </linearGradient>
    <path fill="url(#b)" d="M459.9 346.2c-2.3-9.7-6-18.7-10.9-26.8l23.3-16.7-8.2-11.5-23.4 16.7c-12.6-14.9-29.6-25.5-48.5-30.2l4.7-28.3-14-2.3-4.7 28.3c-5.3-.5-10.7-.5-16.2 0h-.1c-6.8.6-11.5 7.1-9.9 13.8l7.8 33.6c.9 3.8 3.8 6.8 7.6 7.8 11.8 3.2 32.2-9.7 40.9 27.7 4.9 21-8.2 42-29.2 46.9h-.1c4 17 6.2 26.2-12.9 30.6l-37.5 8.7c-5 1.2-7.5.6-3.1 3.1 7.1 3.9 14.7 7 22.7 8.9l-4.7 28.3 14 2.3 4.7-28.3c9.4.8 19.2.3 28.9-2s18.7-6 26.8-10.9l16.7 23.3 11.5-8.2-16.7-23.4c14.9-12.6 25.5-29.6 30.2-48.5l28.3 4.7 2.3-14-28.3-4.7c.8-9.5.2-19.2-2-28.9z"></path>
    <path d="M200 124.2c-29.2-12.6-63.2 1-75.7 30.1-12.6 29.2 1 63.2 30.1 75.7 7.4 3.2 15.1 4.7 22.7 4.7 22.3 0 43.6-13.1 53-34.8 12.6-29.2-.9-63.1-30.1-75.7zm15.4 69.4c-9.1 21.1-33.6 30.9-54.7 21.8-21.1-9.1-30.9-33.6-21.8-54.7 9.1-21.1 33.6-30.9 54.7-21.8 10.2 4.4 18.1 12.5 22.2 22.8 4.2 10.4 4 21.7-.4 31.9zm-6-2.6c-5.7 13.2-18.6 21.2-32.2 21.2-4.6 0-9.3-.9-13.8-2.9-8.6-3.7-15.2-10.5-18.7-19.2s-3.3-18.2.4-26.8c3.7-8.6 10.5-15.2 19.2-18.7s18.2-3.3 26.8.4c4.1 1.7 5.9 6.5 4.2 10.5-1.7 4.1-6.5 5.9-10.5 4.2-4.7-2-9.8-2.1-14.5-.2-4.7 1.9-8.4 5.5-10.4 10.1-2 4.7-2.1 9.8-.2 14.5 1.9 4.7 5.5 8.4 10.1 10.4 9.6 4.1 20.8-.3 25-9.9 1.7-4.1 6.5-5.9 10.5-4.2 3.9 1.8 5.8 6.5 4.1 10.6zM158.2 20c0-4.4 3.6-7.9 8-7.9h.1l24 .2c2.1 0 4.2.9 5.6 2.4 1.5 1.5 2.3 3.6 2.3 5.7l-.2 33.3c9.8 1.7 19.5 4.5 28.7 8.5 8.6 3.7 16.8 8.4 24.4 13.9l23.8-23.5c3.1-3.1 8.2-3.1 11.3.1L303 69.8c1.5 1.5 2.3 3.6 2.3 5.7s-.9 4.1-2.4 5.6l-23.8 23.5c11.3 15.9 18.7 34.1 21.7 53.4l33.4.2c2.1 0 4.2.9 5.6 2.4 1.5 1.5 2.3 3.6 2.3 5.7l-.2 24c0 2.1-.9 4.1-2.4 5.6s-3.5 2.3-5.6 2.3h-.1l-33.3-.2c-1 5.6-2.3 11.2-4 16.7-1.1 3.4-4.2 5.6-7.6 5.6-.8 0-1.6-.1-2.4-.4-4.2-1.3-6.6-5.8-5.2-10 2.1-6.8 3.6-13.7 4.4-20.8.4-4.1 3.9-7.1 8-7.1h.1l32.3.2.1-8-32.4-.2c-4.1 0-7.5-3.1-7.9-7.2-2.1-21.2-10.2-41.2-23.5-57.9-2.6-3.2-2.3-7.8.6-10.7l23-22.8-5.6-5.7-23.1 22.8c-2.9 2.9-7.5 3.1-10.7.5-7.9-6.5-16.7-11.9-26.2-16-10-4.3-20.5-7.1-31.3-8.2-4.1-.4-7.2-3.9-7.1-8l.2-32.5-16-.1c-4.4-.2-8-3.8-8-8.2zm91.4 259.1c-15.9 11.3-34.1 18.6-53.4 21.6l-.2 33.4c0 2.1-.9 4.2-2.4 5.6-1.5 1.5-3.5 2.3-5.6 2.3h-.1l-24-.2c-2.1 0-4.1-.9-5.6-2.4s-2.3-3.6-2.3-5.7l.2-33.4c-9.8-1.7-19.3-4.5-28.4-8.4-8.7-3.8-17-8.5-24.6-14.1l-23.9 23.5c-1.5 1.5-3.5 2.3-5.7 2.3-2.1 0-4.2-.9-5.6-2.4l-16.8-17.1c-3.1-3.1-3.1-8.2.1-11.3l23.9-23.6c-11.2-15.9-18.6-34.1-21.6-53.3H20c-2.1 0-4.1-.9-5.6-2.4s-2.3-3.6-2.3-5.7l.2-24c0-4.4 3.6-8 8.1-7.9l33.6.2c1.7-9.8 4.5-19.3 8.4-28.5 3.7-8.7 8.4-16.9 14-24.4L52.7 79.3c-1.5-1.5-2.3-3.6-2.3-5.7s.9-4.1 2.4-5.6l17.1-16.8c1.5-1.5 3.5-2.3 5.6-2.3h.1c2.1 0 4.1.9 5.6 2.4l23.6 23.9c8.1-5.7 16.9-10.5 26.1-14.2 4.1-1.6 8.8.4 10.4 4.5l6.7 16.7c1.6 4.1-.4 8.8-4.5 10.4-1 .4-2 .6-3 .6-3.2 0-6.2-1.9-7.4-5l-3.6-9c-7.3 3.5-14.2 7.9-20.5 13-3.2 2.6-7.8 2.3-10.7-.6L75.4 68.2l-5.7 5.6L92.5 97c2.9 2.9 3.1 7.5.5 10.7-6.6 7.9-11.9 16.8-16 26.3-4.3 9.9-7 20.4-8.2 31.1-.4 4.1-3.9 7.2-8 7.1l-32.7-.2-.1 8 32.6.2c4.1 0 7.5 3.2 7.9 7.2 2.1 21.2 10.1 41.2 23.4 57.8 2.5 3.2 2.3 7.8-.6 10.7l-23.2 22.9 5.6 5.7 23.2-22.8c2.9-2.9 7.6-3.1 10.7-.5 8 6.6 16.9 12 26.4 16.1 9.9 4.3 20.4 7 31 8.2 4.1.5 7.1 3.9 7.1 8L172 326l8 .1.2-32.4c0-4.1 3.2-7.5 7.2-7.9 21.2-2 41.3-10.2 57.9-23.4 3.2-2.6 7.8-2.3 10.7.6l22.7 23.1 5.7-5.6-22.7-23c-2.9-2.9-3.1-7.6-.5-10.7 4.2-5.1 8-10.6 11.2-16.3 2.2-3.9 7-5.2 10.9-3.1 3.9 2.2 5.2 7 3.1 10.9-2.5 4.5-5.3 8.9-8.4 13l11.5 11.7 10.8-7.9c1.7-1.2 3.9-1.8 6-1.4 2.1.3 4 1.5 5.2 3.2l14.6 20.2c6.7-3.3 13.9-5.8 21.2-7.5 6.9-1.6 13.9-2.5 20.9-2.6l3.9-24.6c.3-2.1 1.5-4 3.2-5.2 1.7-1.2 3.9-1.8 6-1.4l18.7 3c4.4.7 7.3 4.8 6.6 9.2l-3.9 24.6c13.8 4.8 26.4 12.5 36.9 22.6l20.1-14.6c3.6-2.6 8.6-1.8 11.2 1.8l11.1 15.3c2.6 3.6 1.8 8.6-1.8 11.2l-20.1 14.5c1.8 3.7 3.4 7.5 4.7 11.3 1.4 4.2-.8 8.7-5 10.2-.9.3-1.7.4-2.6.4-3.3 0-6.4-2.1-7.6-5.4-1.8-5.2-4.1-10.2-6.8-14.9-2.1-3.5-1.1-8.1 2.2-10.5l19.2-13.9-1.7-2.3-19.3 14c-3.3 2.4-7.9 1.9-10.6-1.1-11-12.2-25.2-21-41.1-25.2-4-1.1-6.5-4.9-5.8-9l3.8-23.5-2.9-.5-3.8 23.5c-.6 4-4.2 6.9-8.3 6.7-7.9-.4-15.9.3-23.6 2.1-8.2 1.9-16 5-23.2 9.2-3.6 2.1-8.1 1.1-10.5-2.2l-14-19.3-2.4 1.7.5.5c1.5 1.5 2.3 3.6 2.3 5.7s-.9 4.2-2.4 5.6L284.3 303c-1.5 1.5-3.5 2.3-5.6 2.3h-.1c-2.1 0-4.2-.9-5.6-2.4l-23.4-23.8zm109.9 42c-12.2 2.8-22.6 10.3-29.3 21s-8.8 23.3-5.9 35.5c2.8 12.2 10.3 22.6 21 29.3 7.6 4.7 16.1 7.2 24.8 7.2 3.6 0 7.1-.4 10.7-1.2 25.3-5.9 41.1-31.2 35.2-56.5-5.9-25.3-31.2-41.1-56.5-35.3zm17.6 76.1c-16.7 3.9-33.4-6.6-37.3-23.2-1.9-8.1-.5-16.4 3.9-23.4 4.4-7.1 11.3-12 19.3-13.8 2.3-.5 4.7-.8 7-.8 5.7 0 11.4 1.6 16.4 4.7 7.1 4.4 12 11.3 13.8 19.3 4 16.6-6.4 33.4-23.1 37.2zm124.3-18.8l-3 18.7c-.7 4.4-4.8 7.3-9.2 6.6l-24.5-3.9c-4.8 13.8-12.5 26.4-22.7 36.9l14.6 20.1c1.2 1.7 1.8 3.9 1.4 6-.3 2.1-1.5 4-3.2 5.2l-15.3 11.1c-3.6 2.6-8.6 1.8-11.2-1.8l-14.6-20.1c-6.7 3.2-13.7 5.7-21 7.4-6.9 1.6-14 2.5-21.1 2.6l-3.9 24.6c-.6 3.9-4 6.7-7.9 6.7-.4 0-.8 0-1.3-.1l-18.7-3c-4.4-.7-7.3-4.8-6.6-9.2l3.9-24.7c-13.8-4.8-26.3-12.5-36.8-22.6L280 453.6c-1.7 1.2-3.9 1.8-6 1.4-2.1-.3-4-1.5-5.2-3.2l-11.1-15.3c-2.6-3.6-1.8-8.6 1.8-11.2l20.2-14.7c-3.3-6.7-5.8-13.8-7.4-21.1-1.6-6.9-2.5-13.9-2.6-20.9l-24.7-3.9c-2.1-.3-4-1.5-5.2-3.2-1.2-1.7-1.8-3.9-1.4-6l3-18.7c.7-4.4 4.8-7.3 9.2-6.6l24.7 3.9c2.5-7.1 5.7-13.8 9.7-20.2 2.3-3.8 7.3-4.9 11-2.6l12 7.5c3.7 2.3 4.9 7.3 2.6 11-1.5 2.4-4.1 3.8-6.8 3.8-1.4 0-2.9-.4-4.2-1.2l-4.9-3.1c-2.5 5.1-4.5 10.3-6 15.8-1.1 4-4.9 6.5-9 5.8l-23.7-3.8-.5 2.9 23.7 3.8c4 .6 7 4.3 6.7 8.3-.4 7.9.2 15.9 2.1 23.7 1.9 8.1 5 15.9 9.1 23.1 2.1 3.6 1.1 8.1-2.2 10.5l-19.4 14.1 1.7 2.3 19.4-14.1c3.3-2.4 7.9-1.9 10.6 1.1 11 12.2 25.1 20.9 41 25.2 4 1.1 6.5 4.9 5.8 9l-3.8 23.6 2.9.5 3.8-23.6c.6-4.1 4.3-6.9 8.4-6.7 8 .5 16-.2 23.8-2 8.1-1.9 15.9-4.9 23-9.1 3.6-2.1 8.1-1.1 10.5 2.2l14 19.3 2.3-1.7-14-19.3c-2.4-3.3-1.9-7.9 1.1-10.7 12.3-11 21-25.2 25.3-41.1 1.1-4 4.9-6.5 9-5.8l23.5 3.8.5-2.9-23.5-3.7c-4.1-.6-7-4.3-6.7-8.4.3-5.1.1-10.2-.5-15.2-.6-4.4 2.5-8.4 6.9-8.9 4.4-.6 8.4 2.5 8.9 6.9.5 3.6.7 7.3.8 10.9l24.5 3.9c2.1.3 4 1.5 5.2 3.2 1.3 2 1.8 4.1 1.5 6.2z"></path>
    <path fill="#9AF4FD" d="M40.9 445.5v-21.8h56.9v21.8H40.9zm198.1 42v-21.8h-57v21.8h57z"></path>
    <path fill="#FF7593" d="M88.6 487.3v-21.8h56.9v21.8H88.6z"></path>
    <path d="M482.8 67.1c0-5-4.1-9-9-9s-9 4.1-9 9 4.1 9 9 9 9-4 9-9zM50.3 315.2c-14.6 0-26.4 11.8-26.4 26.4S35.7 368 50.3 368s26.4-11.8 26.4-26.4-11.9-26.4-26.4-26.4zm0 36.8c-5.7 0-10.4-4.7-10.4-10.4s4.7-10.4 10.4-10.4 10.4 4.7 10.4 10.4S56 352 50.3 352zm451.1-143c0 4.4-3.6 8-8 8H371.3c-4.4 0-8-3.6-8-8s3.6-8 8-8h122.1c4.4 0 8 3.6 8 8zm-114.7-43h82.8c4.4 0 8 3.6 8 8s-3.6 8-8 8h-82.8c-4.4 0-8-3.6-8-8s3.6-8 8-8zm18.1-137c0-4.4 3.6-8 8-8h62.1c4.4 0 8 3.6 8 8s-3.6 8-8 8h-62.1c-4.5 0-8-3.6-8-8zm-315 0c0 4.4-3.6 8-8 8h-52c-4.4 0-8-3.6-8-8s3.6-8 8-8h52.1c4.3 0 7.9 3.6 7.9 8zm311.5 85.2H305c-4.4 0-8-3.6-8-8s3.6-8 8-8h96.3c4.4 0 8 3.6 8 8s-3.6 8-8 8zm51.5-47.1c0-5-4.1-9-9-9s-9 4.1-9 9 4.1 9 9 9 9-4 9-9zm-39 9.1c5 0 9-4.1 9-9s-4.1-9-9-9-9 4.1-9 9 4 9 9 9z"></path>
  </symbol>
  <symbol xmlns="http://www.w3.org/2000/svg" viewBox="0 0 512 512" id="icon-settings">
    <linearGradient id="a" gradientUnits="userSpaceOnUse" x1="132.881" y1="255.999" x2="477.358" y2="255.999">
      <stop offset="0" stop-color="#ff7593"></stop>
      <stop offset="1" stop-color="#9af4fd"></stop>
    </linearGradient>
    <path fill="url(#a)" d="M434.9 256c0-19.4-3.2-38-8.9-55.4l51.4-21.3-10.5-25.4-51.5 21.3c-17.2-33.7-44.7-61.2-78.4-78.4l21.3-51.5-25.4-10.5-21.3 51.4c-9.9-3.2-20.1-5.7-30.6-7.2h-.2c-13.1-1.8-24.8 8.4-24.8 21.7v66.8c0 7.6 4.2 14.6 10.9 18.1 21 11.2 65.1-4.2 65.1 70.3 0 41.8-34 75.8-75.8 75.8h-.2c0 33.9.2 52.1-37.8 52.1h-74.6c-9.9 0-14.5-2.2-7.1 4.4 11.7 10.6 24.7 19.6 38.9 26.8l-21.3 51.5 25.4 10.5 21.3-51.4c17.5 5.7 36.1 8.9 55.4 8.9 19.4 0 38-3.2 55.4-8.9l21.3 51.4 25.4-10.5-21.3-51.3c33.7-17.2 61.2-44.7 78.4-78.4l51.5 21.3 10.5-25.4-51.4-21.2c5.7-17.5 8.9-36.1 8.9-55.5z"></path>
    <path d="M256.2 172.2c-46.2 0-83.8 37.6-83.8 83.8 0 46.2 37.6 83.8 83.8 83.8 46.2 0 83.8-37.6 83.8-83.8 0-46.2-37.6-83.8-83.8-83.8zm0 151.6c-37.4 0-67.8-30.4-67.8-67.8s30.4-67.8 67.8-67.8S324 218.6 324 256s-30.4 67.8-67.8 67.8zm49.2-67.8c0 27.2-22.1 49.2-49.2 49.2S207 283.1 207 256s22.1-49.2 49.2-49.2c4.4 0 8 3.6 8 8s-3.6 8-8 8c-18.3 0-33.2 14.9-33.2 33.2 0 18.3 14.9 33.2 33.2 33.2s33.2-14.9 33.2-33.2c0-4.4 3.6-8 8-8s8 3.6 8 8zM138.6 45.5c-1.7-4.1.2-8.8 4.3-10.5l33.8-14.2c2-.8 4.2-.8 6.1 0 2 .8 3.5 2.3 4.4 4.3l21.3 50.4c15.5-4.1 31.6-6.2 47.8-6.2 15.3 0 30.4 1.9 45.1 5.5L322 24.2c1.7-4.1 6.3-6.1 10.4-4.4l33.9 13.8c2 .8 3.5 2.3 4.4 4.3.8 2 .8 4.2 0 6.1l-20.6 50.6c27.2 15.9 49.9 38.2 66.2 65.3l50.3-21.2c4.1-1.7 8.8.2 10.5 4.3l14.2 33.8c.8 2 .8 4.2 0 6.1-.8 2-2.3 3.5-4.3 4.4l-50.2 21.2c2.5 9.4 4.2 19 5.2 28.7.4 4.4-2.8 8.3-7.1 8.8h-.8c-4.1 0-7.5-3.1-7.9-7.2-1.1-11-3.3-22-6.6-32.6-1.2-3.9.8-8.1 4.5-9.7l49.4-20.8-8-19-49.5 20.6c-3.8 1.6-8.1.1-10.1-3.5-16.1-29.2-40.2-53-69.6-68.6-3.6-1.9-5.2-6.3-3.6-10.1l20.2-49.8-19.1-7.8-20.2 49.8c-1.5 3.8-5.7 5.8-9.6 4.7-15.4-4.5-31.5-6.8-47.6-6.8-17 0-33.9 2.5-50.1 7.5-3.9 1.2-8.1-.8-9.7-4.5l-20.9-49.6-26.4 11.1c-4.2 1.7-8.9-.2-10.7-4.2zm353.7 286.8l-13.8 33.9c-.8 2-2.3 3.5-4.3 4.4-2 .8-4.2.8-6.1 0L417.5 350c-15.9 27.2-38.3 49.9-65.4 66.1l21.2 50.4c.8 2 .8 4.2 0 6.1-.8 2-2.3 3.5-4.3 4.4l-33.8 14.2c-4.1 1.7-8.8-.2-10.5-4.3l-21.2-50.4c-15.4 4.1-31.4 6.1-47.4 6.1-15.4 0-30.6-1.9-45.5-5.6L190 487.7c-1.3 3.1-4.3 5-7.4 5-1 0-2-.2-3-.6l-33.9-13.8c-2-.8-3.5-2.3-4.4-4.3-.8-2-.8-4.2 0-6.1l20.7-50.8c-27.1-15.9-49.7-38.2-65.9-65.2l-50.6 21.3c-4.1 1.7-8.8-.2-10.5-4.3l-14.2-33.8c-.8-2-.8-4.2 0-6.1.8-2 2.3-3.5 4.3-4.4l50.6-21.3c-4.1-15.5-6.1-31.4-6.1-47.5 0-15.3 1.9-30.5 5.5-45.2l-50.9-20.7c-4.1-1.7-6.1-6.3-4.4-10.4l13.8-33.9c.8-2 2.3-3.5 4.3-4.4 2-.8 4.2-.8 6.1 0L94.9 162c8.1-13.8 17.9-26.6 29.3-38 3.1-3.1 8.2-3.1 11.3 0l19.4 19.4c3.1 3.1 3.1 8.2 0 11.3-1.6 1.6-3.6 2.3-5.7 2.3-2 0-4.1-.8-5.7-2.3L130 141.2c-9.6 10.5-17.8 22.2-24.5 34.7-1.9 3.6-6.3 5.2-10.1 3.6l-50-20.3-7.8 19.1 50 20.3c3.8 1.5 5.8 5.7 4.7 9.6-4.5 15.5-6.8 31.5-6.8 47.7 0 16.9 2.5 33.7 7.4 49.8 1.2 3.9-.8 8.1-4.5 9.7l-49.7 21 8 19 49.8-21c3.8-1.6 8.1-.1 10.1 3.5 16 29.2 40 52.9 69.4 68.6 3.6 1.9 5.2 6.3 3.6 10.1l-20.3 50 19.1 7.8 20.3-49.9c1.5-3.8 5.7-5.8 9.7-4.7 15.5 4.6 31.7 6.9 48 6.9 16.9 0 33.6-2.5 49.7-7.4 3.9-1.2 8.1.8 9.7 4.5l20.9 49.5 19-8-20.9-49.5c-1.6-3.8-.1-8.1 3.5-10.1 29.2-16.1 53-40.1 68.7-69.5 1.9-3.6 6.3-5.2 10.1-3.6l49.7 20.2 7.8-19.1-49.6-20.2c-3.8-1.5-5.8-5.7-4.7-9.7 2.9-9.9 4.9-20.1 5.9-30.4.4-4.4 4.4-7.6 8.8-7.1 4.4.4 7.6 4.4 7.1 8.8-.9 8.8-2.5 17.6-4.6 26.3l50.5 20.5c4 1.7 5.9 6.3 4.3 10.4z"></path>
    <path fill="#9AF4FD" d="M68.9 70.8v21.8h-57V70.8h57zm38.1 0v21.8h57V70.8h-57z"></path>
    <path fill="#FF7593" d="M116.5 29v21.8H59.6V29h56.9z"></path>
    <path d="M473.8 420.1c-5 0-9 4.1-9 9s4.1 9 9 9 9-4.1 9-9-4-9-9-9zm-33.5-328c14.6 0 26.4-11.8 26.4-26.4s-11.8-26.4-26.4-26.4-26.4 11.8-26.4 26.4 11.8 26.4 26.4 26.4zm0-36.8c5.7 0 10.4 4.7 10.4 10.4s-4.7 10.4-10.4 10.4-10.4-4.7-10.4-10.4 4.7-10.4 10.4-10.4zm61.1 184c0 4.4-3.6 8-8 8H371.3c-4.4 0-8-3.6-8-8s3.6-8 8-8h122.1c4.4 0 8 3.6 8 8zm-31.9 43h-82.8c-4.4 0-8-3.6-8-8s3.6-8 8-8h82.8c4.4 0 8 3.6 8 8s-3.6 8-8 8zm13.3 185c0 4.4-3.6 8-8 8h-62.1c-4.4 0-8-3.6-8-8s3.6-8 8-8h62.1c4.4 0 8 3.6 8 8zm-328-68c0 4.4-3.6 8-8 8H34c-4.4 0-8-3.6-8-8s3.6-8 8-8h112.8c4.4 0 8 3.6 8 8zm280 29.8c0 5 4.1 9 9 9s9-4.1 9-9-4.1-9-9-9-9 4.1-9 9zm-30 0c0 5 4.1 9 9 9s9-4.1 9-9-4.1-9-9-9-9 4.1-9 9z"></path>
  </symbol>
  <symbol xmlns="http://www.w3.org/2000/svg" viewBox="0 0 512 512" id="icon-shopping_car">
    <linearGradient id="a" gradientUnits="userSpaceOnUse" x1="339.294" y1="349.164" x2="339.294" y2="178.173">
      <stop offset="0" stop-color="#ff7593"></stop>
      <stop offset="1" stop-color="#9af4fd"></stop>
    </linearGradient>
    <path fill="url(#a)" d="M393.4 185.7h82.2l-69 159h-199l-2-5.3c-10.2-27 9.8-55.9 38.7-55.9H290c19.1 0 36.3-11.6 43.6-29.3l16-39.1c7.2-17.8 24.5-29.4 43.8-29.4z"></path>
    <path d="M183.4 303.1l-50.3-133.5H89.6c-4.4 0-8-3.6-8-8s3.6-8 8-8h49c3.3 0 6.3 2.1 7.5 5.2l54.4 144.3h15c4.4 0 8 3.6 8 8s-3.6 8-8 8h-67.7c-4.4 0-8-3.6-8-8s3.6-8 8-8h35.6zm29.7 49.6l-19.7 50h27.1c6.7-16.3 22.7-27.8 41.4-27.8s34.7 11.5 41.4 27.8h51c6.7-16.3 22.7-27.8 41.4-27.8 24.7 0 44.7 20.1 44.7 44.7s-20.1 44.7-44.7 44.7-44.7-20.1-44.7-44.7v-.9h-44.4v.9c0 24.7-20.1 44.7-44.7 44.7s-44.7-20.1-44.7-44.7v-.9h-35.6c-2.6 0-5.1-1.3-6.6-3.5s-1.8-5-.8-7.4l21.7-55.1h-48.1c-4.4 0-8-3.6-8-8s3.6-8 8-8h253.6l62.1-143H193.8c-4.4 0-8-3.6-8-8s3.6-8 8-8h281.9c2.7 0 5.2 1.4 6.7 3.6 1.5 2.3 1.7 5.1.7 7.6l-69 159c-1.3 2.9-4.2 4.8-7.3 4.8H213.1zm153.8 66.9c0 15.8 12.9 28.7 28.7 28.7s28.7-12.9 28.7-28.7-12.9-28.7-28.7-28.7-28.7 12.9-28.7 28.7zm-133.7 0c0 15.8 12.9 28.7 28.7 28.7s28.7-12.9 28.7-28.7-12.9-28.7-28.7-28.7-28.7 12.9-28.7 28.7z"></path>
    <path fill="#FF7593" d="M483.5 103.1v35.8h-195v-35.8h195z"></path>
    <path fill="#9AF4FD" d="M487.7 41.4v39.3H284.3V41.4h203.4z"></path>
    <path d="M223.5 80.2c0 4.4-3.6 8-8 8h-67.8c-4.4 0-8-3.6-8-8s3.6-8 8-8h67.8c4.4 0 8 3.6 8 8zm-57.3 375H52.5c-4.4 0-8 3.6-8 8s3.6 8 8 8h113.7c4.4 0 8-3.6 8-8s-3.6-8-8-8zM44.5 264v15.8c0 4.4 3.6 8 8 8s8-3.6 8-8V264h15.8c4.4 0 8-3.6 8-8s-3.6-8-8-8H60.5v-15.8c0-4.4-3.6-8-8-8s-8 3.6-8 8V248H28.7c-4.4 0-8 3.6-8 8s3.6 8 8 8h15.8zm1.3-187.6h3.9v3.9c0 4.4 3.6 8 8 8s8-3.6 8-8v-3.9h3.9c4.4 0 8-3.6 8-8s-3.6-8-8-8h-3.9v-3.9c0-4.4-3.6-8-8-8s-8 3.6-8 8v3.9h-3.9c-4.4 0-8 3.6-8 8s3.6 8 8 8zm430.2 267c0 5.5-4.4 9.9-9.9 9.9s-9.9-4.4-9.9-9.9 4.4-9.9 9.9-9.9 9.9 4.4 9.9 9.9zm-430 41c0 5.5-4.4 9.9-9.9 9.9s-9.9-4.4-9.9-9.9 4.4-9.9 9.9-9.9 9.9 4.5 9.9 9.9z"></path>
  </symbol>
  <symbol xmlns="http://www.w3.org/2000/svg" viewBox="0 0 512 512" id="icon-shopping">
    <linearGradient id="a" gradientUnits="userSpaceOnUse" x1="269.469" y1="391.714" x2="269.469" y2="112.379">
      <stop offset="0" stop-color="#ff7593"></stop>
      <stop offset="1" stop-color="#9af4fd"></stop>
    </linearGradient>
    <path fill="url(#a)" d="M289 112.9l1 93.5c.1 2.4-1.8 4.5-4.2 4.5h-33.5c-2.3 0-4.1-1.8-4.2-4.1l-.3-78.3c-.5-10.7 7.9-19.7 18.5-19.7h18.5c2.2 0 4.1 1.8 4.2 4.1zm92.9 101.4v-72.1c0-2.3-1.9-4.2-4.2-4.2h-16.1c-12 0-21.6 9.7-21.6 21.6v54.7c0 2.3 1.9 4.2 4.2 4.2h32.4c2.3 0 4.2 1.9 4.2 4.2v32.4c0 2.3-1.9 4.2-4.2 4.2h-1.5l-16.5 99.6c-1.6 8.3-7.1 14.2-33.4 14.2H120.4c-2.6 0-4.6 2.4-4.1 5l.2 1.2c1.6 8.3 8.8 14.2 17.2 14.2h233.4c8.4 0 15.6-6 17.2-14.2l22.2-116.6c.4-2 2.1-3.4 4.1-3.4h7.9c2.3 0 4.2-1.9 4.2-4.2v-32.4c0-2.3-1.9-4.2-4.2-4.2h-32.4c-2.3 0-4.2-1.9-4.2-4.2z"></path>
    <path fill="#FF7593" d="M418.9 29h27.4v27.4h-27.4V29zm68.7 27.4V29h-27.4v27.4h27.4zm0 42.2V71.2h-27.4v27.4h27.4zM16.3 24.5h21.8v86.7H16.3V24.5z"></path>
    <path fill="#9AF4FD" d="M49.7 24.5h21.8v86.7H49.7V24.5z"></path>
    <path d="M88.1 449.1h-55c-4.4 0-8-3.6-8-8s3.6-8 8-8h55c4.4 0 8 3.6 8 8s-3.6 8-8 8zm53.4 17.6h-93c-4.4 0-8 3.6-8 8s3.6 8 8 8h92.9c4.4 0 8-3.6 8-8s-3.5-8-7.9-8zm340-323.1c-4.2-4.2-11-4.2-15.2 0-4.2 4.2-4.2 11 0 15.2s11 4.2 15.2 0c4.2-4.2 4.2-11 0-15.2zM464.8 456h-3.9v-3.9c0-4.4-3.6-8-8-8s-8 3.6-8 8v3.9H441c-4.4 0-8 3.6-8 8s3.6 8 8 8h3.9v3.9c0 4.4 3.6 8 8 8s8-3.6 8-8V472h3.9c4.4 0 8-3.6 8-8s-3.6-8-8-8zm-412-175c-4.4 0-8 3.6-8 8s3.6 8 8 8h46.4c4.4 0 8-3.6 8-8s-3.6-8-8-8H52.8zm386.5 98.3c0-4.4-3.6-8-8-8h-47c-4.4 0-8 3.6-8 8s3.6 8 8 8h47c4.4 0 8-3.6 8-8zm0-279.1c0-4.4-3.6-8-8-8h-92.9c-4.4 0-8 3.6-8 8s3.6 8 8 8h92.9c4.4 0 8-3.6 8-8zM38.7 193.3h80.6c4.4 0 8-3.6 8-8s-3.6-8-8-8H38.7c-4.4 0-8 3.6-8 8s3.6 8 8 8zm387.8 125.9c0 14.6 11.8 26.4 26.4 26.4 4.4 0 8-3.6 8-8s-3.6-8-8-8c-5.7 0-10.4-4.7-10.4-10.4s4.7-10.4 10.4-10.4c4.4 0 8-3.6 8-8s-3.6-8-8-8c-14.6 0-26.4 11.8-26.4 26.4z"></path>
    <path d="M422.8 210.5H390V131c0-4.4-3.6-8-8-8h-84.7l1-20.8c.1-2.2-.7-4.3-2.2-5.9s-3.6-2.5-5.8-2.5H207c-4.4 0-8 3.6-8 8v50.4h-79.5c-4.4 0-8 3.6-8 8v50.4h-33c-4.4 0-8 3.6-8 8v40.8c0 4.4 3.6 8 8 8H87l21.6 113.5c2.3 12 12.8 20.7 25.1 20.7h233.4c12.2 0 22.8-8.7 25-20.7l21.6-113.5h9c4.4 0 8-3.6 8-8v-40.8c.1-4.5-3.5-8.1-7.9-8.1zM373.9 139v71.5H293l3.4-71.5h77.5zm-159-29.2h67l-1 20.8-3.8 79.9h-62.2V109.8zm-87.6 58.4h71.5v42.4h-71.5v-42.4zm-40.8 58.3h328.2v24.8H86.5v-24.8zM325 267.4h40.7l-13.9 83.2h-31.4l4.6-83.2zm-138.3 83.2h-31.4l-13.9-83.2h40.7l4.6 83.2zm87.2-83.2l-4.6 83.2h-31.6l-4.6-83.2h40.8zm102.5 110.5c-.9 4.5-4.8 7.7-9.3 7.7H133.7c-4.6 0-8.5-3.2-9.3-7.7l-21-110.5h21.9l15.4 92.5c.6 3.9 4 6.7 7.9 6.7h46.7c2.2 0 4.3-.9 5.8-2.5s2.3-3.7 2.2-5.9l-5-90.8h19l5.1 91.6c.2 4.2 3.7 7.6 8 7.6h46.7c4.2 0 7.8-3.3 8-7.6l5.1-91.6h19l-5 90.8c-.1 2.2.7 4.3 2.2 5.9 1.5 1.6 3.6 2.5 5.8 2.5h46.7c3.9 0 7.2-2.8 7.9-6.7l15.4-92.5h15.6l-21.4 110.5z"></path>
  </symbol>
  <symbol xmlns="http://www.w3.org/2000/svg" viewBox="0 0 512 512" id="icon-speech_bubble">
    <linearGradient id="a" gradientUnits="userSpaceOnUse" x1="408.134" y1="53.643" x2="408.134" y2="378.188">
      <stop offset="0" stop-color="#ff7593"></stop>
      <stop offset="1" stop-color="#9af4fd"></stop>
    </linearGradient>
    <path fill="url(#a)" d="M398 311.1v67.1l-27.3-28.6s44.3-82.5-21.8-148 12.7-148 12.7-148 134.9 31.7 132.1 133.6S398 311.1 398 311.1z"></path>
    <linearGradient id="b" gradientUnits="userSpaceOnUse" x1="235.173" y1="469.153" x2="235.173" y2="176.072">
      <stop offset="0" stop-color="#ff7593"></stop>
      <stop offset="1" stop-color="#9af4fd"></stop>
    </linearGradient>
    <path fill="url(#b)" d="M113.5 392.5c234.3-32.3-60.1-232 72.1-238.4 94.3-4.6 171.3 60.7 171.3 135.2 0 74.6-76.8 135.2-171.3 135.2-5.8 0-11.6-.2-17.3-.7l-54.8 54.8v-86.1"></path>
    <path d="M394.6 386.2c-2.1 0-4.1-.8-5.7-2.3l-28.3-28.3c-3.1-3.1-3.1-8.2 0-11.3 3.1-3.1 8.2-3.1 11.3 0l14.6 14.6v-47c0-.5 0-1 .1-1.6.2-1.2.7-2.3 1.3-3.2.7-.9 1.5-1.8 2.6-2.4.4-.3.9-.5 1.4-.6 52.6-19.4 93.8-70 93.8-115.2 0-4.4 3.6-8 8-8s8 3.6 8 8c0 25.3-10.7 52.6-30.3 76.8-18.2 22.5-42.5 40.7-68.9 51.4v61c0 3.2-1.9 6.2-4.9 7.4-.9.5-2 .7-3 .7zm88.9-235.5c-3 0-5.9-1.7-7.3-4.6-23.3-50.5-85.1-84.4-153.7-84.4-66 0-125.2 30.8-150.8 78.4-2.1 3.9-6.9 5.4-10.8 3.3-3.9-2.1-5.4-6.9-3.3-10.8 28.3-52.8 93-86.9 164.9-86.9 37.2 0 72.8 9 103.1 26.1 30 16.9 52.5 40.2 65.1 67.6 1.9 4 .1 8.8-3.9 10.6-1.1.4-2.2.7-3.3.7zM119.1 484.3l52.2-52.2c4.8.3 9.5.5 14.3.5 98.9 0 179.3-64.3 179.3-143.2 0-79-80.4-143.2-179.3-143.2S6.3 210.5 6.3 289.4c0 25 8.3 49.7 23.9 71.2 14.9 20.6 36.3 38.1 61.7 50.6 4 1.9 8.8.3 10.7-3.7s.3-8.8-3.7-10.7c-48-23.6-76.7-63.8-76.7-107.5 0-70.2 73.3-127.2 163.3-127.2 90 0 163.3 57.1 163.3 127.2s-73.3 127.2-163.3 127.2c-5.5 0-11.2-.2-16.7-.7-2.3-.2-4.6.7-6.3 2.3l-41.1 41.1v-66.8c0-4.4-3.6-8-8-8s-8 3.6-8 8v86.1c0 3.2 1.9 6.2 4.9 7.4 1 .4 2 .6 3.1.6 2.1.2 4.2-.7 5.7-2.2z"></path>
    <path d="M423.8 142.7c0-4.4 3.6-8 8-8h65.9c4.4 0 8 3.6 8 8s-3.6 8-8 8h-65.9c-4.4 0-8-3.6-8-8zm73.9 36.8h-32.9c-4.4 0-8 3.6-8 8s3.6 8 8 8h32.9c4.4 0 8-3.6 8-8s-3.6-8-8-8zm-396-102.2c-16.4 0-29.8 13.4-29.8 29.8 0 4.4 3.6 8 8 8s8-3.6 8-8c0-7.6 6.2-13.8 13.8-13.8 4.4 0 8-3.6 8-8s-3.6-8-8-8zm-59.8 0c-4.4 0-8 3.6-8 8s3.6 8 8 8c7.6 0 13.8 6.2 13.8 13.8 0 4.4 3.6 8 8 8s8-3.6 8-8c.1-16.4-13.3-29.8-29.8-29.8zm21.9-37.9c-4.4 0-8 3.6-8 8 0 7.6-6.2 13.8-13.8 13.8-4.4 0-8 3.6-8 8s3.6 8 8 8c16.4 0 29.8-13.4 29.8-29.8 0-4.4-3.6-8-8-8zm37.9 21.8c-7.6 0-13.8-6.2-13.8-13.8 0-4.4-3.6-8-8-8s-8 3.6-8 8c0 16.4 13.4 29.8 29.8 29.8 4.4 0 8-3.6 8-8s-3.6-8-8-8zm375 377.8h-15.1v-15.1c0-4.4-3.6-8-8-8s-8 3.6-8 8V439h-15.1c-4.4 0-8 3.6-8 8s3.6 8 8 8h15.1v15.1c0 4.4 3.6 8 8 8s8-3.6 8-8V455h15.1c4.4 0 8-3.6 8-8s-3.6-8-8-8zm-110 8c0 5.4-4.4 9.9-9.9 9.9s-9.9-4.4-9.9-9.9 4.4-9.9 9.9-9.9 9.9 4.5 9.9 9.9zm-58.3 0c0 5.4-4.4 9.9-9.9 9.9s-9.9-4.4-9.9-9.9 4.4-9.9 9.9-9.9 9.9 4.5 9.9 9.9zM177.8 42.5h-26.3c-4.4 0-8 3.6-8 8s3.6 8 8 8h26.3c4.4 0 8-3.6 8-8s-3.6-8-8-8zM59.1 473.2H32.7c-4.4 0-8 3.6-8 8s3.6 8 8 8H59c4.4 0 8-3.6 8-8s-3.5-8-7.9-8z"></path>
    <path fill="#9AF4FD" d="M490.6 76.5l-45.7-45.7h45.7v45.7z"></path>
  </symbol>
  <symbol xmlns="http://www.w3.org/2000/svg" viewBox="0 0 512 512" id="icon-trash">
    <linearGradient id="a" gradientUnits="userSpaceOnUse" x1="292.076" y1="457.047" x2="292.076" y2="38.812">
      <stop offset="0" stop-color="#ff7593"></stop>
      <stop offset="1" stop-color="#9af4fd"></stop>
    </linearGradient>
    <path fill="url(#a)" d="M413.4 100.1h-60.1v-12c0-19.8-16.2-36.1-36.1-36.1-26.6 0-48.1 21.5-48.1 48.1v225.8c0 26.6-21.5 48.1-48.1 48.1h-38.2c-28.1 0-50.3 24.1-48 52.1l2.9 34.9h262.7l24.1-288.7h25v-36.1c0-19.9-16.3-36.1-36.1-36.1z"></path>
    <path d="M409.8 356.3h-.7c-4.4-.4-7.7-4.2-7.3-8.6l14.7-176c.3-4.1 3.8-7.3 8-7.3h17v-28.1c0-15.5-12.6-28.1-28.1-28.1h-60.1c-4.4 0-8-3.6-8-8v-12c0-15.5-12.6-28.1-28.1-28.1H221c-15.5 0-28.1 12.6-28.1 28.1v12c0 4.4-3.6 8-8 8h-60.1c-15.5 0-28.1 12.6-28.1 28.1v28.1h303.6c4.4 0 8 3.6 8 8s-3.6 8-8 8H88.7c-4.4 0-8-3.6-8-8v-36.1c0-24.3 19.8-44.1 44.1-44.1h52.1v-4c0-24.3 19.8-44.1 44.1-44.1h96.2c24.3 0 44.1 19.8 44.1 44.1v4h52.1c24.3 0 44.1 19.8 44.1 44.1v36.1c0 4.4-3.6 8-8 8h-17.7l-14.1 168.7c-.3 4-3.8 7.2-7.9 7.2zm-1.4 105.3l6.2-74.9c.4-4.4-2.9-8.3-7.3-8.6-4.4-.4-8.3 2.9-8.6 7.3l-5.6 67.5h-248l-21.4-257.3c-.4-4.4-4.2-7.7-8.6-7.3-4.4.4-7.7 4.2-7.3 8.6l22 264.6c.3 4.1 3.8 7.3 8 7.3h262.7c4.1.1 7.5-3 7.9-7.2z"></path>
    <path d="M463.1 393.2h-86.8c-4.4 0-8-3.6-8-8s3.6-8 8-8h86.8c4.4 0 8 3.6 8 8s-3.6 8-8 8zm-39.6-43.1c0-4.4-3.6-8-8-8h-57.4c-4.4 0-8 3.6-8 8s3.6 8 8 8h57.4c4.4 0 8-3.5 8-8zM105.7 57.4c0-4.4-3.6-8-8-8H38.5c-4.4 0-8 3.6-8 8s3.6 8 8 8h59.2c4.4 0 8-3.5 8-8z"></path>
    <path fill="#FF7593" d="M40.2 430v35.1h35.1V487H18.4v-57h21.8z"></path>
    <path fill="#9AF4FD" d="M30.4 194.9h21.8v145.9H30.4V194.9z"></path>
  </symbol>
</svg>