<svg width="32" height="32" viewBox="0 0 32 32" fill="none" xmlns="http://www.w3.org/2000/svg">
<path fill-rule="evenodd" clip-rule="evenodd" d="M16 32C24.8366 32 32 24.8366 32 16C32 13.295 31.3287 10.7468 30.1437 8.51287L27.7916 25H24.3356L25.8716 14.224L21.3596 25H18.0716L18.5516 14.176L14.5436 25H12.6236L18.7196 8.512C17.5036 8.912 16.5596 9.576 15.8876 10.504C15.2316 11.416 14.9036 12.552 14.9036 13.912C14.9036 14.52 14.9596 14.936 15.0716 15.16C15.1836 15.384 15.2396 15.52 15.2396 15.568C13.5276 15.568 12.6716 14.84 12.6716 13.384C12.6716 12.392 13.0476 11.4 13.7996 10.408C14.5676 9.4 15.5436 8.584 16.7276 7.96C17.9276 7.32 19.1196 7 20.3036 7C20.8956 7 21.5036 7.112 22.1276 7.336L21.5756 19.984L26.8556 7.336H29.4535C26.6051 2.92214 21.6438 0 16 0C9.31333 0 3.5847 4.10181 1.193 9.9265C1.7565 9.08258 2.59883 8.39508 3.72 7.864C4.952 7.288 6.512 7 8.4 7C8.784 7 9.296 7.04 9.936 7.12C11.088 7.232 11.904 7.288 12.384 7.288C13.232 7.288 13.952 7.192 14.544 7C14.496 7.144 14.408 7.464 14.28 7.96C14.152 8.44 13.92 8.856 13.584 9.208C13.264 9.544 12.824 9.768 12.264 9.88C11.32 9.88 10.2 9.728 8.904 9.424L7.896 14.2H11.4L11.016 15.976H7.512L5.568 25H2.76936C5.64931 29.2255 10.5007 32 16 32ZM2.2775 24.2323L5.568 8.968C4.56 9 3.784 9.384 3.24 10.12C2.712 10.856 2.448 12.128 2.448 13.936C2.448 14.528 2.504 14.944 2.616 15.184C2.728 15.408 2.784 15.536 2.784 15.568C1.92 15.568 1.272 15.392 0.84 15.04C0.443638 14.6894 0.236101 14.1281 0.217391 13.3563C0.0744007 14.2163 0 15.0994 0 16C0 19.0107 0.831548 21.8272 2.2775 24.2323Z" fill="url(#paint0_linear)"/>
<defs>
<linearGradient id="paint0_linear" x1="16" y1="0" x2="16" y2="32" gradientUnits="userSpaceOnUse">
<stop stop-color="#EA526F"/>
<stop offset="1" stop-color="#25CED1"/>
</linearGradient>
</defs>
</svg>
