<?xml version="1.0" encoding="utf-8"?>
<svg xmlns="http://www.w3.org/2000/svg">
<symbol id="icon-bell" viewBox="0 0 512 512">
<linearGradient id="SVGID_1_" gradientUnits="userSpaceOnUse" x1="302.7834" y1="396.095" x2="314.1894" y2="90.9861" class="gradient-element">
	<stop offset="0" class="primary-color-gradient" style="stop-color: #FF7593"/>
	<stop offset="1" class="secondary-color-gradient" style="stop-color: #9AF4FD"/>
</linearGradient>
<path fill="url(#SVGID_1_)" d="M405.4,372.6H201.9c2.3-11.6,4.4-25,6.5-39.7c11.2-77.4,26.6-183.4,118.7-183.4c0,0,0.1,0,0.1,0
	c50.4,38.8,62.4,120.7,71.1,180.2C400.3,343.3,402.6,359.6,405.4,372.6z"/>
<path d="M455.1,389.3v27.9c0,4.4-3.6,8-8,8H318.4c-4.7,15.7-19,44.6-60.9,44.6c-42,0-56.3-28.9-60.9-44.6H67.8c-4.4,0-8-3.6-8-8
	v-22.3c0-4.4,3.6-8,8-8s8,3.6,8,8v14.3h127c3.8,0,7.1,2.7,7.9,6.5c2.2,11.5,11.2,38.1,46.8,38.1c35.6,0,44.6-26.7,46.8-38.1
	c0.7-3.8,4-6.5,7.9-6.5h127v-14.5L402.4,380c-2.5-1-4.3-3.2-4.9-5.9c-1.6-8.1-3.5-18.2-7.2-43.4l0-0.2c-5-34.2-11.1-76.8-25.3-113.1
	c-16.1-41.2-39.2-66.3-70.6-76.8c-2.6-0.9-4.6-3-5.3-5.7c-0.6-2.7,0.1-5.5,2.1-7.5c9-9.1,14-21.1,14-33.9
	c0-26.3-21.4-47.8-47.8-47.8s-47.8,21.4-47.8,47.8c0,12.7,5,24.8,14,33.9c1.9,2,2.7,4.8,2.1,7.5c-0.6,2.7-2.6,4.9-5.3,5.7
	c-31.4,10.4-54.5,35.5-70.6,76.8c-14.2,36.3-20.3,78.9-25.3,113.1l-0.3,1.8c-1.5,10.4-3.2,21.8-5.1,32.2h258.2c4.4,0,8,3.6,8,8
	s-3.6,8-8,8H109.6c-2.4,0-4.7-1.1-6.2-3c-1.5-1.9-2.1-4.3-1.6-6.7c2.6-12.2,4.8-27.4,6.8-40.8l0.3-1.8c5.1-35,11.4-78.6,26.2-116.6
	c16.1-41.3,39-68.2,69.8-82c-7.2-10.6-11.1-23-11.1-36c0-35.2,28.6-63.8,63.8-63.8s63.8,28.6,63.8,63.8c0,13-3.9,25.5-11.1,36
	c30.8,13.8,53.7,40.7,69.8,82c14.8,38,21.1,81.6,26.2,116.6l0,0.2c3,20.6,4.8,30.9,6.2,38.3l37.7,15.1
	C453.1,383.1,455.1,386,455.1,389.3z M257.5,447.5c27.1,0,36.3-17.6,39.4-28.1c1.2-4.2-1.2-8.7-5.4-9.9c-4.2-1.2-8.7,1.2-9.9,5.4
	c-3.3,11.1-11.1,16.6-24,16.6c-12.9,0-20.7-5.4-24-16.6c-1.2-4.2-5.7-6.7-9.9-5.4c-4.2,1.2-6.7,5.7-5.4,9.9
	C221.2,429.9,230.4,447.5,257.5,447.5z"/>
<path d="M56.8,453.3c3.1,3.1,3.1,8.2,0,11.3l-18.9,18.9c-1.6,1.6-3.6,2.3-5.7,2.3s-4.1-0.8-5.7-2.3c-3.1-3.1-3.1-8.2,0-11.3
	l18.9-18.9C48.6,450.2,53.7,450.2,56.8,453.3z M494.7,264.5h-67.8c-4.4,0-8,3.6-8,8s3.6,8,8,8h67.8c4.4,0,8-3.6,8-8
	S499.1,264.5,494.7,264.5z M455.6,82.8c-3.1-3.1-8.2-3.1-11.3,0l-47.9,47.9c-3.1,3.1-3.1,8.2,0,11.3c1.6,1.6,3.6,2.3,5.7,2.3
	c2,0,4.1-0.8,5.7-2.3l47.9-47.9C458.8,91,458.8,85.9,455.6,82.8z M418.6,196.2C418.6,196.2,418.6,196.2,418.6,196.2
	c-1.1-4.9,2-9.7,6.9-10.7c2.4-0.5,4.8-0.1,6.8,1.2c2,1.3,3.4,3.3,3.9,5.7c0.5,2.4,0.1,4.8-1.2,6.8c-1.3,2-3.3,3.4-5.7,3.9
	c-0.6,0.1-1.3,0.2-1.9,0.2c-1.7,0-3.4-0.5-4.9-1.4C420.5,200.6,419.1,198.6,418.6,196.2z M87.9,181.3c-3.1-3.1-8.2-3.1-11.3,0
	l-2.8,2.8l-2.8-2.8c-3.1-3.1-8.2-3.1-11.3,0c-3.1,3.1-3.1,8.2,0,11.3l2.8,2.8l-2.8,2.8c-3.1,3.1-3.1,8.2,0,11.3
	c1.6,1.6,3.6,2.3,5.7,2.3s4.1-0.8,5.7-2.3l2.8-2.8l2.8,2.8c1.6,1.6,3.6,2.3,5.7,2.3s4.1-0.8,5.7-2.3c3.1-3.1,3.1-8.2,0-11.3
	l-2.8-2.8l2.8-2.8C91,189.5,91,184.4,87.9,181.3z M438,448c-3.1-3.1-8.2-3.1-11.3,0c-3.1,3.1-3.1,8.2,0,11.3l29.5,29.5
	c1.6,1.6,3.6,2.3,5.7,2.3c2,0,4.1-0.8,5.7-2.3c3.1-3.1,3.1-8.2,0-11.3L438,448z M475.4,344.9c1.3,2,1.7,4.4,1.2,6.8
	c-0.9,4.2-4.7,7.1-8.8,7.1c-0.6,0-1.3-0.1-1.9-0.2c-4.9-1.1-8-5.9-6.9-10.7c0.5-2.4,1.9-4.4,3.9-5.7c2-1.3,4.4-1.7,6.8-1.2
	C472.1,341.4,474.1,342.8,475.4,344.9z M141.2,104.4h-3.9v-3.9c0-4.4-3.6-8-8-8s-8,3.6-8,8v3.9h-3.9c-4.4,0-8,3.6-8,8s3.6,8,8,8h3.9
	v3.9c0,4.4,3.6,8,8,8s8-3.6,8-8v-3.9h3.9c4.4,0,8-3.6,8-8S145.6,104.4,141.2,104.4z M397.1,48.7c0,14.7-12,26.7-26.7,26.7
	s-26.7-12-26.7-26.7s12-26.7,26.7-26.7S397.1,34,397.1,48.7z M381.1,48.7c0-5.9-4.8-10.7-10.7-10.7s-10.7,4.8-10.7,10.7
	s4.8,10.7,10.7,10.7S381.1,54.5,381.1,48.7z M66.5,272.5c0,14.7-12,26.7-26.7,26.7s-26.7-12-26.7-26.7s12-26.7,26.7-26.7
	S66.5,257.8,66.5,272.5z M50.5,272.5c0-5.9-4.8-10.7-10.7-10.7s-10.7,4.8-10.7,10.7s4.8,10.7,10.7,10.7S50.5,278.4,50.5,272.5z"/>
<g>
	<path fill="#FF7593" class="primary-color" d="M26.5,25.1l57.8,57.8l-57.8,57.8V25.1z"/>
	<path fill="#9AF4FD" class="secondary-color" d="M162.3,467v21.8h-56.9V467H162.3z"/>
</g>

</symbol>
<symbol id="icon-calendar" viewBox="0 0 512 512">
<linearGradient id="SVGID_1_" gradientUnits="userSpaceOnUse" x1="253.3687" y1="278.6308" x2="465.563" y2="278.6308" class="gradient-element">
	<stop offset="0" class="primary-color-gradient" style="stop-color: #FF7593"/>
	<stop offset="1" class="secondary-color-gradient" style="stop-color: #9AF4FD"/>
</linearGradient>
<path fill="url(#SVGID_1_)" d="M461.7,140.2c2.1,0,3.9,1.7,3.9,3.9v46.5v176.1v46.5c0,2.1-1.7,3.9-3.9,3.9H409H257.2
	c-2.1,0-3.9-1.7-3.9-3.9v-5.5c0-22.6,18.3-40.9,40.9-40.9h85c16.4,0,29.7-13.3,29.7-29.7V215.7l28.2-2.2v-19.1
	c0-2.1-29.9-3.9-32.1-3.9h-30.6c-12.2,0-22.2-9.9-22.2-22.2v0c0-15.6,12.6-28.2,28.2-28.2H409H461.7z"/>
<path d="M165.6,140.2c0-4.4,3.6-8,8-8h143.5c4.4,0,8,3.6,8,8s-3.6,8-8,8H173.6C169.2,148.2,165.6,144.7,165.6,140.2z M465.6,409
	H45.8V223.7h394.6c4.4,0,8-3.6,8-8v-25.2c0-4.4-3.6-8-8-8H45.8v-34.3h92.6c4.4,0,8-3.6,8-8V97.3c0-4.4-3.6-8-8-8s-8,3.6-8,8v34.9
	H37.8c-4.4,0-8,3.6-8,8v50.3c0,4.4,3.6,8,8,8h394.6v9.2H37.8c-4.4,0-8,3.6-8,8V417c0,4.4,3.6,8,8,8h427.7c4.4,0,8-3.6,8-8
	S470,409,465.6,409z M465.6,132.2H360.3V97.3c0-4.4-3.6-8-8-8s-8,3.6-8,8v42.9c0,4.4,3.6,8,8,8h105.2V382c0,4.4,3.6,8,8,8s8-3.6,8-8
	V140.2C473.6,135.8,470,132.2,465.6,132.2z M214,333.5c-4.4,0-8,3.6-8,8v25.2c0,4.4,3.6,8,8,8h75.5c4.4,0,8-3.6,8-8v-25.2
	c0-4.4-3.6-8-8-8h-25.2c-4.4,0-8,3.6-8,8s3.6,8,8,8h17.2v9.2H222v-9.2h17.2c4.4,0,8-3.6,8-8v-75.5c0-3.5-2.3-6.6-5.6-7.6
	c-3.3-1.1-6.9,0.2-9,3l-25.2,35.5c-2.6,3.6-1.7,8.6,1.9,11.2c3.6,2.6,8.6,1.7,11.2-1.9l10.6-15v42.3H214z"/>
<path d="M496.2,382c0,4.4-3.6,8-8,8h-57.4c-4.4,0-8-3.6-8-8s3.6-8,8-8h57.4C492.7,374,496.2,377.5,496.2,382z M151.2,459.9H47.9
	c-4.4,0-8,3.6-8,8s3.6,8,8,8h103.3c4.4,0,8-3.6,8-8S155.6,459.9,151.2,459.9z M195.6,467.9c0,5-4.1,9-9,9s-9-4.1-9-9s4.1-9,9-9
	S195.6,462.9,195.6,467.9z M225.6,467.9c0,5-4.1,9-9,9s-9-4.1-9-9s4.1-9,9-9S225.6,462.9,225.6,467.9z M255.6,467.9c0,5-4.1,9-9,9
	s-9-4.1-9-9s4.1-9,9-9S255.6,462.9,255.6,467.9z M404.5,60.9c20.3,0,36.8-16.5,36.8-36.8c0-4.4-3.6-8-8-8s-8,3.6-8,8
	c0,11.4-9.3,20.8-20.8,20.8c-4.4,0-8,3.6-8,8S400.1,60.9,404.5,60.9z M483.3,60.9c4.4,0,8-3.6,8-8s-3.6-8-8-8
	c-11.4,0-20.8-9.3-20.8-20.8c0-4.4-3.6-8-8-8s-8,3.6-8,8C446.5,44.5,463,60.9,483.3,60.9z M454.5,110.9c4.4,0,8-3.6,8-8
	c0-11.4,9.3-20.8,20.8-20.8c4.4,0,8-3.6,8-8s-3.6-8-8-8c-20.3,0-36.8,16.5-36.8,36.8C446.5,107.4,450.1,110.9,454.5,110.9z
	 M433.3,110.9c4.4,0,8-3.6,8-8c0-20.3-16.5-36.8-36.8-36.8c-4.4,0-8,3.6-8,8s3.6,8,8,8c11.4,0,20.8,9.3,20.8,20.8
	C425.3,107.4,428.9,110.9,433.3,110.9z M60.2,64v15.8c0,4.4,3.6,8,8,8s8-3.6,8-8V64H92c4.4,0,8-3.6,8-8s-3.6-8-8-8H76.2V32.2
	c0-4.4-3.6-8-8-8s-8,3.6-8,8V48H44.4c-4.4,0-8,3.6-8,8s3.6,8,8,8H60.2z M492,468.9c0,14.6-11.8,26.4-26.4,26.4s-26.4-11.8-26.4-26.4
	s11.8-26.4,26.4-26.4S492,454.4,492,468.9z M476,468.9c0-5.7-4.7-10.4-10.4-10.4c-5.7,0-10.4,4.7-10.4,10.4
	c0,5.7,4.7,10.4,10.4,10.4C471.3,479.3,476,474.6,476,468.9z"/>
<g>
	<path fill="#FF7593" class="primary-color" d="M217.1,43.1V21.3h58.2v21.8H217.1z M359.9,43.1V21.3h-58.2v21.8H359.9z"/>
	<path fill="#9AF4FD" class="secondary-color" d="M132.6,43.1V21.3h58.2v21.8H132.6z"/>
</g>

</symbol>
<symbol id="icon-chat_1" viewBox="0 0 512 512">
<linearGradient id="SVGID_1_" gradientUnits="userSpaceOnUse" x1="336.6439" y1="447.4592" x2="336.6439" y2="92.2912" class="gradient-element">
	<stop offset="0" class="primary-color-gradient" style="stop-color: #FF7593"/>
	<stop offset="1" class="secondary-color-gradient" style="stop-color: #9AF4FD"/>
</linearGradient>
<path fill="url(#SVGID_1_)" d="M189.2,354.6c284-39.1-72.8-281.1,87.4-288.9c114.3-5.6,207.6,73.5,207.6,163.9
	c0,90.4-93.1,163.9-207.6,163.9c-7.1,0-14.1-0.3-21-0.8L189.2,459V354.6"/>
<path d="M174.5,372.1c-1.4,2.8-4.2,4.5-7.2,4.5c-1.2,0-2.4-0.3-3.5-0.8c-30.6-15.1-56.3-36.1-74.2-60.8C70.9,289,61,259.5,61,229.6
	c0-94.8,96.7-171.9,215.6-171.9c65.8,0,127.1,23.5,168.3,64.5c3.1,3.1,3.1,8.2,0,11.3c-3.1,3.1-8.2,3.1-11.3,0
	c-38.2-38.1-95.5-59.9-157.1-59.9C166.5,73.7,77,143.6,77,229.6c0,53.7,35.1,102.9,93.9,131.8C174.8,363.3,176.4,368.1,174.5,372.1z
	 M479.7,171.9c-1.8-4-6.5-5.8-10.6-4c-4,1.8-5.8,6.5-4,10.6c7.3,16.4,11.1,33.6,11.1,51.1c0,85.9-89.5,155.9-199.6,155.9
	c-6.8,0-13.6-0.3-20.4-0.8l-3.7-0.3l-55.3,55.3v-85.1c0-4.4-3.6-8-8-8s-8,3.6-8,8v123.7l77.5-77.5c6,0.4,12,0.6,17.9,0.6
	c118.9,0,215.6-77.1,215.6-171.9C492.1,209.8,487.9,190.4,479.7,171.9z M203.5,223.1c5.5,0,9.9,4.4,9.9,9.9s-4.4,9.9-9.9,9.9
	c-5.5,0-9.9-4.4-9.9-9.9S198.1,223.1,203.5,223.1z M149.5,223.1c5.5,0,9.9,4.4,9.9,9.9s-4.4,9.9-9.9,9.9s-9.9-4.4-9.9-9.9
	S144.1,223.1,149.5,223.1z M311.5,223.1c5.5,0,9.9,4.4,9.9,9.9s-4.4,9.9-9.9,9.9c-5.5,0-9.9-4.4-9.9-9.9S306.1,223.1,311.5,223.1z
	 M257.5,223.1c5.5,0,9.9,4.4,9.9,9.9s-4.4,9.9-9.9,9.9c-5.5,0-9.9-4.4-9.9-9.9S252.1,223.1,257.5,223.1z M419.5,223.1
	c5.5,0,9.9,4.4,9.9,9.9s-4.4,9.9-9.9,9.9c-5.5,0-9.9-4.4-9.9-9.9S414.1,223.1,419.5,223.1z M365.5,223.1c5.5,0,9.9,4.4,9.9,9.9
	s-4.4,9.9-9.9,9.9c-5.5,0-9.9-4.4-9.9-9.9S360.1,223.1,365.5,223.1z"/>
<path fill="#9AF4FD" class="secondary-color" d="M499.1,68.1L452,21h47.1V68.1z"/>
<path d="M470.7,139.1h-67.8c-4.4,0-8-3.6-8-8s3.6-8,8-8h67.8c4.4,0,8,3.6,8,8S475.1,139.1,470.7,139.1z M444,173c0,4.4,3.6,8,8,8
	h33.9c4.4,0,8-3.6,8-8s-3.6-8-8-8H452C447.6,165,444,168.5,444,173z M76.4,107.6c4.4,0,8-3.6,8-8c0-8,6.5-14.5,14.5-14.5
	c4.4,0,8-3.6,8-8s-3.6-8-8-8c-16.8,0-30.5,13.7-30.5,30.5C68.4,104,72,107.6,76.4,107.6z M37.3,85.1c8,0,14.5,6.5,14.5,14.5
	c0,4.4,3.6,8,8,8s8-3.6,8-8c0-16.8-13.7-30.5-30.5-30.5c-4.4,0-8,3.6-8,8S32.9,85.1,37.3,85.1z M37.3,68.6
	c16.8,0,30.5-13.7,30.5-30.5c0-4.4-3.6-8-8-8s-8,3.6-8,8c0,8-6.5,14.5-14.5,14.5c-4.4,0-8,3.6-8,8S32.9,68.6,37.3,68.6z M98.9,68.6
	c4.4,0,8-3.6,8-8s-3.6-8-8-8c-8,0-14.5-6.5-14.5-14.5c0-4.4-3.6-8-8-8s-8,3.6-8,8C68.4,54.9,82.1,68.6,98.9,68.6z M484.8,441.4H469
	v-15.8c0-4.4-3.6-8-8-8s-8,3.6-8,8v15.8h-15.8c-4.4,0-8,3.6-8,8s3.6,8,8,8H453v15.8c0,4.4,3.6,8,8,8s8-3.6,8-8v-15.8h15.8
	c4.4,0,8-3.6,8-8S489.2,441.4,484.8,441.4z M371.4,449.4c0,5.5-4.4,9.9-9.9,9.9c-5.5,0-9.9-4.4-9.9-9.9s4.4-9.9,9.9-9.9
	C366.9,439.5,371.4,443.9,371.4,449.4z M311.4,449.4c0,5.5-4.4,9.9-9.9,9.9c-5.5,0-9.9-4.4-9.9-9.9s4.4-9.9,9.9-9.9
	C306.9,439.5,311.4,443.9,311.4,449.4z M177.2,33.3h-27.1c-4.4,0-8,3.6-8,8s3.6,8,8,8h27.1c4.4,0,8-3.6,8-8S181.6,33.3,177.2,33.3z
	 M55,476.6H27.9c-4.4,0-8,3.6-8,8s3.6,8,8,8H55c4.4,0,8-3.6,8-8S59.4,476.6,55,476.6z M114.2,391.9H40.4c-4.4,0-8,3.6-8,8s3.6,8,8,8
	h73.8c4.4,0,8-3.6,8-8S118.6,391.9,114.2,391.9z"/>

</symbol>
<symbol id="icon-check_1" viewBox="0 0 512 512">
<linearGradient id="SVGID_1_" gradientUnits="userSpaceOnUse" x1="255.5656" y1="447.6738" x2="255.5656" y2="66.2078" class="gradient-element">
	<stop offset="0" class="primary-color-gradient" style="stop-color: #FF7593"/>
	<stop offset="1" class="secondary-color-gradient" style="stop-color: #9AF4FD"/>
</linearGradient>
<path fill="url(#SVGID_1_)" d="M370,85.2l-45.1,55.4c-7.4,9.1-6,22.5,3.1,29.9l14.8,12c9.1,7.4,10.5,20.8,3.1,29.9L220.9,365.5
	c-7.9,9.7-22.5,10.5-31.4,1.6l-81.5-81.4c-8.3-8.3-21.7-8.3-30,0l-15,15l128.9,128.7c8.9,8.9,23.6,8.1,31.5-1.7l224.5-278
	c0.5-0.6,0.4-1.4-0.2-1.9L370,85.2z"/>
<path d="M208.5,454.1c-2.1,0-4.1-0.8-5.7-2.3L57.3,306.4c-1.5-1.5-2.3-3.5-2.3-5.7c0-2.1,0.8-4.2,2.3-5.7l23.8-23.8
	c3.1-3.1,8.2-3.1,11.3,0c3.1,3.1,3.1,8.2,0,11.3l-18.1,18.1l133.6,133.4l229.6-284.2l-48.7-39.3c-3.4-2.8-4-7.8-1.2-11.3
	c2.8-3.4,7.8-4,11.3-1.2l54.9,44.3c1.7,1.3,2.7,3.3,2.9,5.4s-0.4,4.2-1.7,5.9L214.8,451.1c-1.4,1.8-3.5,2.8-5.8,3
	C208.8,454.1,208.7,454.1,208.5,454.1z M200.3,303.1c-2.1,0-4.1-0.8-5.7-2.3l-60.3-60.2l-18.2,18.2c-3.1,3.1-8.2,3.1-11.3,0
	c-3.1-3.1-3.1-8.2,0-11.3l23.9-23.9c3.1-3.1,8.2-3.1,11.3,0l59.7,59.6l164-202.9c2.8-3.4,7.8-4,11.3-1.2c3.4,2.8,4,7.8,1.2,11.3
	L206.6,300.1c-1.4,1.8-3.5,2.8-5.8,3C200.6,303.1,200.5,303.1,200.3,303.1z"/>
<path d="M118.5,435.6c0,4.4-3.6,8-8,8h-65c-4.4,0-8-3.6-8-8s3.6-8,8-8h65C114.9,427.6,118.5,431.2,118.5,435.6z M115.5,274.6
	c0-4.4-3.6-8-8-8H20.6c-4.4,0-8,3.6-8,8s3.6,8,8,8h86.8C111.9,282.6,115.5,279.1,115.5,274.6z M173,44.4c0,5-4.1,9-9,9s-9-4.1-9-9
	s4.1-9,9-9S173,39.4,173,44.4z M203,44.4c0,5-4.1,9-9,9s-9-4.1-9-9s4.1-9,9-9S203,39.4,203,44.4z M214.9,44.4c0-5,4.1-9,9-9
	s9,4.1,9,9s-4.1,9-9,9S214.9,49.4,214.9,44.4z M133,36.4H45.5c-4.4,0-8,3.6-8,8V222c0,4.4,3.6,8,8,8s8-3.6,8-8V52.4H133
	c4.4,0,8-3.6,8-8S137.4,36.4,133,36.4z M253.4,52.4H341c4.4,0,8-3.6,8-8s-3.6-8-8-8h-87.6c-4.4,0-8,3.6-8,8S249,52.4,253.4,52.4z
	 M487.4,467.6H225c-4.4,0-8,3.6-8,8s3.6,8,8,8h262.4c4.4,0,8-3.6,8-8S491.8,467.6,487.4,467.6z M487.4,427.6H291.6c-4.4,0-8,3.6-8,8
	s3.6,8,8,8h195.8c4.4,0,8-3.6,8-8S491.8,427.6,487.4,427.6z M333,395.6c0,4.4,3.6,8,8,8h146.4c4.4,0,8-3.6,8-8s-3.6-8-8-8H341
	C336.5,387.6,333,391.2,333,395.6z"/>
<g>
	<path fill="#FF7593" class="primary-color" d="M87.5,99.8L87.5,99.8c-8.4,0-15.2-6.8-15.2-15.2v0c0-8.4,6.8-15.2,15.2-15.2h0c8.4,0,15.2,6.8,15.2,15.2v0
		C102.7,93,95.9,99.8,87.5,99.8z M152.7,84.6L152.7,84.6c0-8.4-6.8-15.2-15.2-15.2h0c-8.4,0-15.2,6.8-15.2,15.2v0
		c0,8.4,6.8,15.2,15.2,15.2h0C145.9,99.8,152.7,93,152.7,84.6z M202.7,84.6L202.7,84.6c0-8.4-6.8-15.2-15.2-15.2h0
		c-8.4,0-15.2,6.8-15.2,15.2v0c0,8.4,6.8,15.2,15.2,15.2h0C195.9,99.8,202.7,93,202.7,84.6z M152.7,134.6L152.7,134.6
		c0-8.4-6.8-15.2-15.2-15.2h0c-8.4,0-15.2,6.8-15.2,15.2v0c0,8.4,6.8,15.2,15.2,15.2h0C145.9,149.8,152.7,143,152.7,134.6z
		 M102.7,134.6L102.7,134.6c0-8.4-6.8-15.2-15.2-15.2h0c-8.4,0-15.2,6.8-15.2,15.2v0c0,8.4,6.8,15.2,15.2,15.2h0
		C95.9,149.8,102.7,143,102.7,134.6z M102.7,184.6L102.7,184.6c0-8.4-6.8-15.2-15.2-15.2h0c-8.4,0-15.2,6.8-15.2,15.2v0
		c0,8.4,6.8,15.2,15.2,15.2h0C95.9,199.8,102.7,193,102.7,184.6z"/>
	<path fill="#9AF4FD" class="secondary-color" d="M487.4,235.2v125.1H362.3L487.4,235.2z"/>
</g>

</symbol>
<symbol id="icon-check_list" viewBox="0 0 512 512">
<linearGradient id="SVGID_1_" gradientUnits="userSpaceOnUse" x1="380.2643" y1="481.7372" x2="380.2643" y2="23.3733" class="gradient-element">
	<stop offset="0" class="primary-color-gradient" style="stop-color: #FF7593"/>
	<stop offset="1" class="secondary-color-gradient" style="stop-color: #9AF4FD"/>
</linearGradient>
<path fill="url(#SVGID_1_)" d="M488.4,73.2L414.3,165c0,0.2,0,0.5,0,0.7v269.1c0,18-14.6,32.5-32.5,32.5h-77.2
	c-18,0-32.5-14.6-32.5-32.5V144.2c0-18,14.6-32.5,32.5-32.5h55.7c8.6,0,16.9,3.4,23,9.5l6.7,6.8c1.1,1.1,43.9-54.8,47-58.6
	l18.9-23.1l32.5,26.2C488.5,72.6,488.6,72.9,488.4,73.2z"/>
<path fill="#9AF4FD" class="secondary-color" d="M74.7,12.3L13.8,73.3V12.3H74.7z"/>
<path d="M505.2,429.9c0,4.4-3.6,8-8,8h-15.8v15.8c0,4.4-3.6,8-8,8s-8-3.6-8-8v-15.8h-15.8c-4.4,0-8-3.6-8-8s3.6-8,8-8h15.8v-15.8
	c0-4.4,3.6-8,8-8s8,3.6,8,8v15.8h15.8C501.6,421.9,505.2,425.5,505.2,429.9z M459.6,204.4c5.9,0,10.8-4.8,10.8-10.8
	s-4.8-10.8-10.8-10.8c-5.9,0-10.8,4.8-10.8,10.8S453.6,204.4,459.6,204.4z M264.7,20.6H161.9c-4.4,0-8,3.6-8,8s3.6,8,8,8h102.8
	c4.4,0,8-3.6,8-8S269.2,20.6,264.7,20.6z M401.7,20.6H298.9c-4.4,0-8,3.6-8,8s3.6,8,8,8h102.8c4.4,0,8-3.6,8-8
	S406.2,20.6,401.7,20.6z M86.8,241.6h-43c-4.4,0-8,3.6-8,8s3.6,8,8,8h43c4.4,0,8-3.6,8-8S91.2,241.6,86.8,241.6z M73.8,221.6
	c0-4.4-3.6-8-8-8h-43c-4.4,0-8,3.6-8,8c0,4.4,3.6,8,8,8h43C70.2,229.6,73.8,226.1,73.8,221.6z M451,254v85c0,4.4,3.6,8,8,8
	s8-3.6,8-8v-85c0-4.4-3.6-8-8-8S451,249.6,451,254z"/>
<path d="M351.2,182.8c0,4.4-3.6,8-8,8H224.6c-4.4,0-8-3.6-8-8v-23.7c0-4.4,3.6-8,8-8s8,3.6,8,8v15.7h110.5
	C347.6,174.8,351.2,178.3,351.2,182.8z M343.2,245.9H232.6v-15.7c0-4.4-3.6-8-8-8s-8,3.6-8,8v23.7c0,4.4,3.6,8,8,8h118.5
	c4.4,0,8-3.6,8-8S347.6,245.9,343.2,245.9z M343.2,317H232.6v-15.7c0-4.4-3.6-8-8-8s-8,3.6-8,8V325c0,4.4,3.6,8,8,8h118.5
	c4.4,0,8-3.6,8-8S347.6,317,343.2,317z M224.6,364.4c-4.4,0-8,3.6-8,8v23.7c0,4.4,3.6,8,8,8h118.5c4.4,0,8-3.6,8-8s-3.6-8-8-8H232.6
	v-15.7C232.6,368,229,364.4,224.6,364.4z M208.9,159.1c0-4.4-3.6-8-8-8h-23.7c-4.4,0-8,3.6-8,8s3.6,8,8,8h15.7v15.7c0,4.4,3.6,8,8,8
	s8-3.6,8-8V159.1z M208.9,230.2c0-4.4-3.6-8-8-8h-23.7c-4.4,0-8,3.6-8,8s3.6,8,8,8h15.7v15.7c0,4.4,3.6,8,8,8s8-3.6,8-8V230.2z
	 M208.9,301.3c0-4.4-3.6-8-8-8h-23.7c-4.4,0-8,3.6-8,8s3.6,8,8,8h15.7V325c0,4.4,3.6,8,8,8s8-3.6,8-8V301.3z M200.9,404.1
	c4.4,0,8-3.6,8-8v-23.7c0-4.4-3.6-8-8-8h-23.7c-4.4,0-8,3.6-8,8s3.6,8,8,8h15.7v15.7C192.9,400.5,196.5,404.1,200.9,404.1z
	 M388.4,205c0.1,0,0.3,0,0.4,0c2.3-0.1,4.4-1.2,5.8-3L495,77.8c2.8-3.4,2.2-8.4-1.2-11.2l-32.7-26.8c-3.4-2.8-8.5-2.3-11.3,1.1
	c-0.1,0.1-0.2,0.2-0.2,0.3l-45.3,56l-38.7-38.7c-1.5-1.5-3.5-2.3-5.7-2.3H106.1c-4.4,0-8,3.6-8,8v403c0,4.4,3.6,8,8,8h308.2
	c4.4,0,8-3.6,8-8V216c0-4.4-3.6-8-8-8s-8,3.6-8,8v243.3H114.1v-387h242.6l37.5,37.5l-9.9,12.2L363,100.7c-3.1-3.1-8.2-3.1-11.3,0
	l-10,10c-3.1,3.1-3.1,8.2,0,11.3c3.1,3.1,8.2,3.1,11.3,0l4.3-4.3l21.9,21.9c1.6,1.6,3.8,2.4,6.1,2.3c2.3-0.1,4.4-1.2,5.8-3l66-81.7
	l20.3,16.6l-89.8,111.1l-54.5-54.5c-3.1-3.1-8.2-3.1-11.3,0c-3.1,3.1-3.1,8.2,0,11.3l60.8,60.7C384.2,204.2,386.3,205,388.4,205z"/>

</symbol>
<symbol id="icon-control" viewBox="0 0 512 512">
<g>
	<path fill="#FF7593" class="primary-color" d="M448.3,138.3V27.1h43.6v111.2H448.3z"/>
	<path fill="#9AF4FD" class="secondary-color" d="M378.2,70.7V27.1h43.6v43.6H378.2z"/>
</g>
<path d="M424.2,409.3c-14.6,0-26.4,11.8-26.4,26.4s11.8,26.4,26.4,26.4s26.4-11.8,26.4-26.4S438.7,409.3,424.2,409.3z M424.2,446.1
	c-5.7,0-10.4-4.7-10.4-10.4s4.7-10.4,10.4-10.4s10.4,4.7,10.4,10.4S429.9,446.1,424.2,446.1z M191.5,423.1c0,4.4-3.6,8-8,8H96.7
	c-4.4,0-8-3.6-8-8s3.6-8,8-8h86.8C187.9,415.1,191.5,418.6,191.5,423.1z M122.4,402.9H65c-4.4,0-8-3.6-8-8s3.6-8,8-8h57.4
	c4.4,0,8,3.6,8,8S126.8,402.9,122.4,402.9z M58.1,179.8c-4.4,0-8-3.6-8-8v-15.8H34.3c-4.4,0-8-3.6-8-8s3.6-8,8-8h15.8v-15.8
	c0-4.4,3.6-8,8-8s8,3.6,8,8v15.8h15.8c4.4,0,8,3.6,8,8s-3.6,8-8,8H66.1v15.8C66.1,176.3,62.5,179.8,58.1,179.8z M487.6,231.7
	c0,4.4-3.6,8-8,8h-3.9v3.9c0,4.4-3.6,8-8,8s-8-3.6-8-8v-3.9h-3.9c-4.4,0-8-3.6-8-8s3.6-8,8-8h3.9v-3.9c0-4.4,3.6-8,8-8s8,3.6,8,8
	v3.9h3.9C484,223.7,487.6,227.3,487.6,231.7z M140.1,70.8c14.6,0,26.4-11.8,26.4-26.4s-11.8-26.4-26.4-26.4s-26.4,11.8-26.4,26.4
	S125.5,70.8,140.1,70.8z M140.1,34.1c5.7,0,10.4,4.7,10.4,10.4s-4.7,10.4-10.4,10.4s-10.4-4.7-10.4-10.4S134.4,34.1,140.1,34.1z"/>
<linearGradient id="SVGID_1_" gradientUnits="userSpaceOnUse" x1="277.0904" y1="364.261" x2="277.0904" y2="170.4048" class="gradient-element">
	<stop offset="0" class="primary-color-gradient" style="stop-color: #FF7593"/>
	<stop offset="1" class="secondary-color-gradient" style="stop-color: #9AF4FD"/>
</linearGradient>
<path fill="url(#SVGID_1_)" d="M367.7,194.1c0,7.6-2.6,13.9-7.8,18.9c-5.2,5-12,7.5-20.5,7.5c-4.4,0-8.4-0.7-11.9-2
	c3.2-1.2,6.1-3,8.6-5.4c5.2-5,7.7-11.3,7.7-18.9c0-7.8-2.6-14.2-7.9-19.2c-2.5-2.4-5.3-4.2-8.4-5.4c3.5-1.4,7.5-2.1,11.9-2.1
	c8.2,0,15,2.5,20.3,7.6C365,180,367.7,186.3,367.7,194.1z M198.4,240.4c-4.4,0-8.3,0.7-11.9,2.1c3.1,1.2,5.9,3.1,8.4,5.4
	c5.3,5,7.9,11.4,7.9,19.2c0,7.6-2.6,13.9-7.7,18.9c-2.5,2.4-5.3,4.2-8.6,5.4c3.5,1.4,7.5,2,11.9,2c8.5,0,15.3-2.5,20.5-7.5
	c5.2-5,7.8-11.3,7.8-18.9c0-7.8-2.6-14.2-7.9-19.2C213.4,242.9,206.6,240.4,198.4,240.4z M292.9,313.4c-4.4,0-8.3,0.7-11.9,2.1
	c3.1,1.2,5.9,3.1,8.4,5.4c5.3,5,7.9,11.4,7.9,19.2c0,7.6-2.6,13.9-7.7,18.9c-2.5,2.4-5.3,4.2-8.6,5.4c3.5,1.4,7.5,2,11.9,2
	c8.5,0,15.3-2.5,20.5-7.5c5.2-5,7.8-11.3,7.8-18.9c0-7.8-2.6-14.2-7.9-19.2C307.9,315.9,301.1,313.4,292.9,313.4z"/>
<path d="M121.2,193.9c0-4.4,3.6-8,8-8h169.1c0.5-2.6,1.3-5.1,2.4-7.6c1.7-4.1,6.4-6,10.5-4.3c4.1,1.7,6,6.4,4.3,10.5
	c-1.3,3-1.9,6.1-1.9,9.4c0,13.3,10.8,24.1,24.1,24.1s24.1-10.8,24.1-24.1c0-13.3-10.8-24.1-24.1-24.1c-3.7,0-7.2,0.8-10.4,2.4
	c-4,1.9-8.8,0.2-10.7-3.7c-1.9-4-0.2-8.8,3.7-10.7c5.5-2.6,11.3-4,17.4-4c19.4,0,35.6,13.8,39.3,32.1H400c4.4,0,8,3.6,8,8
	s-3.6,8-8,8h-23.1c-3.7,18.3-19.9,32.1-39.3,32.1s-35.6-13.8-39.3-32.1H129.2C124.8,201.9,121.2,198.3,121.2,193.9z M408,340
	c0,4.4-3.6,8-8,8h-69.7c-3.7,18.3-19.9,32.1-39.3,32.1c-19.4,0-35.6-13.8-39.3-32.1H129.2c-4.4,0-8-3.6-8-8s3.6-8,8-8h122.5
	c3.7-18.3,19.9-32.1,39.3-32.1c19.4,0,35.6,13.8,39.3,32.1H400C404.4,332,408,335.6,408,340z M315.1,340c0-13.3-10.8-24.1-24.1-24.1
	c-13.3,0-24.1,10.8-24.1,24.1s10.8,24.1,24.1,24.1C304.3,364.1,315.1,353.3,315.1,340z M408,267c0,4.4-3.6,8-8,8H235.8
	c-3.7,18.3-19.9,32.1-39.3,32.1c-19.4,0-35.6-13.8-39.3-32.1h-28c-4.4,0-8-3.6-8-8s3.6-8,8-8h28c3.7-18.3,19.9-32.1,39.3-32.1
	c19.4,0,35.6,13.8,39.3,32.1H400C404.4,259,408,262.5,408,267z M220.6,267c0-13.3-10.8-24.1-24.1-24.1s-24.1,10.8-24.1,24.1
	s10.8,24.1,24.1,24.1S220.6,280.2,220.6,267z"/>

</symbol>
<symbol id="icon-copy" viewBox="0 0 512 512">
<linearGradient id="SVGID_1_" gradientUnits="userSpaceOnUse" x1="311.8838" y1="403.77" x2="311.8838" y2="49.0871" class="gradient-element">
	<stop offset="0" class="primary-color-gradient" style="stop-color: #FF7593"/>
	<stop offset="1" class="secondary-color-gradient" style="stop-color: #9AF4FD"/>
</linearGradient>
<path fill="url(#SVGID_1_)" d="M455.2,56.9v355.7H168.5v-20.4c0-31.1,31.1-56.3,69.4-56.3h0c40.8,0,74-26.9,74-60.1V136
	c0-47.3,47.2-85.6,105.4-85.6h29.9C451.7,50.4,455.2,53.3,455.2,56.9z"/>
<path d="M454.9,39.5H168.5c-4.4,0-8,3.6-8,8v365.8c0,4.4,3.6,8,8,8h286.4c4.4,0,8-3.6,8-8V47.5C462.9,43.1,459.4,39.5,454.9,39.5z
	 M446.9,405.3H176.5V55.5h270.4V405.3z M228.9,131.7c0-4.4,3.6-8,8-8h149.6c4.4,0,8,3.6,8,8s-3.6,8-8,8H236.9
	C232.5,139.7,228.9,136.1,228.9,131.7z M228.9,192.3c0-4.4,3.6-8,8-8h149.6c4.4,0,8,3.6,8,8s-3.6,8-8,8H236.9
	C232.5,200.3,228.9,196.7,228.9,192.3z M228.9,252.9c0-4.4,3.6-8,8-8h149.6c4.4,0,8,3.6,8,8s-3.6,8-8,8H236.9
	C232.5,260.9,228.9,257.3,228.9,252.9z M110.5,358.5v-95.3V87.5c0-4.4,3.6-8,8-8h24.9c4.4,0,8,3.6,8,8s-3.6,8-8,8h-16.9v167.6v95.3
	c0,4.4-3.6,8-8,8S110.5,362.9,110.5,358.5z M412.9,438.1v15.2c0,4.4-3.6,8-8,8H118.5c-4.4,0-8-3.6-8-8v-64.9c0-4.4,3.6-8,8-8
	s8,3.6,8,8v56.9h270.4v-7.2c0-4.4,3.6-8,8-8S412.9,433.7,412.9,438.1z"/>
<path d="M39.9,94.9c0-14.6,11.8-26.4,26.4-26.4c4.4,0,8,3.6,8,8s-3.6,8-8,8c-5.7,0-10.4,4.7-10.4,10.4s4.7,10.4,10.4,10.4
	c4.4,0,8,3.6,8,8s-3.6,8-8,8C51.8,121.3,39.9,109.4,39.9,94.9z M90.9,366.5h43c4.4,0,8-3.6,8-8s-3.6-8-8-8h-43c-4.4,0-8,3.6-8,8
	S86.5,366.5,90.9,366.5z M149,380.5H38.6c-4.4,0-8,3.6-8,8s3.6,8,8,8H149c4.4,0,8-3.6,8-8S153.5,380.5,149,380.5z"/>

</symbol>
<symbol id="icon-cross" viewBox="0 0 512 512">
<linearGradient id="SVGID_1_" gradientUnits="userSpaceOnUse" x1="267.0987" y1="398.6909" x2="267.0987" y2="164.7461" class="gradient-element">
	<stop offset="0" class="primary-color-gradient" style="stop-color: #FF7593"/>
	<stop offset="1" class="secondary-color-gradient" style="stop-color: #9AF4FD"/>
</linearGradient>
<path fill="url(#SVGID_1_)" d="M275.6,280.8c-8.8-8.8-8.8-23.1,0-31.9l53.6-53.6c6.1-6.1,0.6-11.6,0.5-11.6l-9.4-9.4
	c-3.6-3.6-3.6-9.5,0-13.2l6.1-6.1c3.6-3.6,9.5-3.6,13.2,0l34.1,34.1c2.1,2.1,3,5,2.6,7.7l2.9,2.9l-73.2,73.2l77.1,77.1L364,369.3
	l-1-1l-28.9,28.9l-38-38l22.9-22.9c5-5.1,1.8-9.9,0.7-11.1L278,283.3l0.1-0.1L275.6,280.8z M157.3,369.3l24.6,24.6l81.2-81.2
	l-3.7-3.7c-13-13-34.2-13-47.2,0l-47.3,47.3c-1.2,1-6.1,4.4-11.3-0.8c-6.1-6.1,0.3,13.1,0.7,13.5
	C154.4,369.2,155.7,369.3,157.3,369.3z"/>
<path d="M196.5,174.1c-3.1-3.1-3.1-8.2,0-11.3c3.1-3.1,8.2-3.1,11.3,0l48.7,48.7l70.7-70.7c3.1-3.1,8.2-3.1,11.3,0l47.4,47.4
	c1.5,1.5,2.3,3.5,2.3,5.7c0,2.1-0.8,4.2-2.3,5.7l-70.7,70.7L360,315c3.1,3.1,3.1,8.2,0,11.3c-1.6,1.6-3.6,2.3-5.7,2.3
	c-2,0-4.1-0.8-5.7-2.3l-50.5-50.5c-1.5-1.5-2.3-3.5-2.3-5.7s0.8-4.2,2.3-5.7l70.7-70.7l-36-36l-70.7,70.7c-1.5,1.5-3.5,2.3-5.7,2.3
	s-4.2-0.8-5.7-2.3L196.5,174.1z M385.9,340.8c-3.1-3.1-8.2-3.1-11.3,0l-41.7,41.7l-70.7-70.7c-1.5-1.5-3.5-2.3-5.7-2.3
	s-4.2,0.8-5.7,2.3l-70.7,70.7l-36-36l70.7-70.7c1.5-1.5,2.3-3.5,2.3-5.7s-0.8-4.2-2.3-5.7l-70.7-70.7l41.7-41.7
	c3.1-3.1,3.1-8.2,0-11.3c-3.1-3.1-8.2-3.1-11.3,0l-47.3,47.4c-3.1,3.1-3.1,8.2,0,11.3l70.7,70.7l-70.7,70.7c-3.1,3.1-3.1,8.2,0,11.3
	l47.3,47.4c1.5,1.5,3.5,2.3,5.7,2.3s4.2-0.8,5.7-2.3l70.7-70.7l70.7,70.7c1.5,1.5,3.5,2.3,5.7,2.3s4.2-0.8,5.7-2.3l47.4-47.4
	C389,349,389,344,385.9,340.8z"/>
<g>
	<path fill="#FF7593" class="primary-color" d="M479.6,127.5v116.4l-58.2-58.2L479.6,127.5z M175.6,60.6h57.8V17h-57.8V60.6z"/>
	<path fill="#9AF4FD" class="secondary-color" d="M18.2,481.9h60.6v14.6H18.2V481.9z M41.2,17v43.6h115.6V17H41.2z"/>
</g>
<path d="M56.2,136.8H40.4c-4.4,0-8-3.6-8-8s3.6-8,8-8h15.8V105c0-4.4,3.6-8,8-8s8,3.6,8,8v15.8h15.8c4.4,0,8,3.6,8,8s-3.6,8-8,8
	H72.2v15.8c0,4.4-3.6,8-8,8s-8-3.6-8-8V136.8z M483.2,331.6h-15.8v-15.8c0-4.4-3.6-8-8-8s-8,3.6-8,8v15.8h-15.8c-4.4,0-8,3.6-8,8
	s3.6,8,8,8h15.8v15.8c0,4.4,3.6,8,8,8s8-3.6,8-8v-15.8h15.8c4.4,0,8-3.6,8-8S487.6,331.6,483.2,331.6z M430.3,46
	c0-14.6,11.8-26.4,26.4-26.4s26.4,11.8,26.4,26.4s-11.8,26.4-26.4,26.4S430.3,60.6,430.3,46z M446.3,46c0,5.7,4.7,10.4,10.4,10.4
	s10.4-4.7,10.4-10.4c0-5.7-4.7-10.4-10.4-10.4S446.3,40.3,446.3,46z M115.9,250c0-4.4-3.6-8-8-8H48.5c-4.4,0-8,3.6-8,8s3.6,8,8,8
	h59.5C112.4,258,115.9,254.5,115.9,250z M149.2,415.5H70.6c-4.4,0-8,3.6-8,8s3.6,8,8,8h78.6c4.4,0,8-3.6,8-8
	S153.6,415.5,149.2,415.5z M155.6,282h-45.7c-4.4,0-8,3.6-8,8s3.6,8,8,8h45.7c4.4,0,8-3.6,8-8S160.1,282,155.6,282z M378.4,304.1
	h59.5c4.4,0,8-3.6,8-8s-3.6-8-8-8h-59.5c-4.4,0-8,3.6-8,8S374,304.1,378.4,304.1z M383.8,312.6h-59.5c-4.4,0-8,3.6-8,8s3.6,8,8,8
	h59.5c4.4,0,8-3.6,8-8S388.2,312.6,383.8,312.6z M464.8,457.5c-5.9,0-10.8,4.8-10.8,10.8c0,5.9,4.8,10.8,10.8,10.8
	c5.9,0,10.8-4.8,10.8-10.8C475.5,462.3,470.7,457.5,464.8,457.5z M416.8,457.5c-5.9,0-10.8,4.8-10.8,10.8c0,5.9,4.8,10.8,10.8,10.8
	c5.9,0,10.8-4.8,10.8-10.8C427.5,462.3,422.7,457.5,416.8,457.5z M364.8,457.5c-5.9,0-10.8,4.8-10.8,10.8c0,5.9,4.8,10.8,10.8,10.8
	c5.9,0,10.8-4.8,10.8-10.8C375.5,462.3,370.7,457.5,364.8,457.5z M371.6,78.8c0-4.4-3.6-8-8-8H285c-4.4,0-8,3.6-8,8s3.6,8,8,8h78.6
	C368,86.8,371.6,83.2,371.6,78.8z"/>

</symbol>
<symbol id="icon-family" viewBox="0 0 512 512">
<g>
	<linearGradient id="SVGID_1_" gradientUnits="userSpaceOnUse" x1="325.1982" y1="457.9124" x2="325.1982" y2="300.3951" class="gradient-element">
		<stop offset="0" class="primary-color-gradient" style="stop-color: #FF7593"/>
		<stop offset="1" class="secondary-color-gradient" style="stop-color: #9AF4FD"/>
	</linearGradient>
	<path fill="url(#SVGID_1_)" d="M230.7,393.3L230.7,393.3c0,22.4-20.5,31.2-35.7,34.1c-22.8-3.5-40.2-22-40.2-44.3v-31.3
		c0-16.9,11.8-31.7,29.1-36.8c3.6-1.1,14.5-6.8,18.4-8.3c0,0-5.5,10.8,4.9,19.8v20C207.2,365.6,216.4,382.6,230.7,393.3z
		 M428.9,352.2c-38.7-16.9-33.7-34.8-33.7-34.8c-3.5,1.5-6.8,2.7-10,3.7c-15.3,4.9-25.8,18.9-25.8,34.9v29.6
		c0,23.5,19,42.5,42.5,42.5h93.8C491.4,380.3,467.5,369.1,428.9,352.2z M341.8,430.9c0,0-45.8-17-37.7-38.3c-10.5,6.3-22.8,10-36,10
		h-1.3c1.3,27.5,24,49.4,51.8,49.4h26.5L341.8,430.9z"/>
	<linearGradient id="SVGID_2_" gradientUnits="userSpaceOnUse" x1="227.4923" y1="231.6445" x2="154.8105" y2="231.6445">
		<stop offset="0" class="primary-color-gradient" style="stop-color: #FF7593"/>
		<stop offset="1" class="secondary-color-gradient" style="stop-color: #9AF4FD"/>
	</linearGradient>
	<path fill="url(#SVGID_2_)" d="M155.6,144.6c7.9,29.5,67.4,65.2,67.4,65.2s6.8-7,0,49.3c-3.9,32.5-26.2,49.6-44.3,58.2
		c-11.2,5.3-24.2-2.9-24.2-15.1V161.8C154.5,161.8,154.9,141.9,155.6,144.6z"/>
	<linearGradient id="SVGID_3_" gradientUnits="userSpaceOnUse" x1="432.0822" y1="238.576" x2="358.2741" y2="238.576">
		<stop offset="0" class="primary-color-gradient" style="stop-color: #FF7593"/>
		<stop offset="1" class="secondary-color-gradient" style="stop-color: #9AF4FD"/>
	</linearGradient>
	<path fill="url(#SVGID_3_)" d="M359.1,155.4c2.5-1.4,68.5,7.7,68.5,7.7s6.8,40.8,0,98c-3.9,33.1-26.2,50.4-44.3,59.1
		c-11.2,5.4-24.2-2.9-24.2-15.3V162.2C359.1,162.2,356.6,156.8,359.1,155.4z"/>
	<linearGradient id="SVGID_4_" gradientUnits="userSpaceOnUse" x1="325.3163" y1="333.4738" x2="266.995" y2="333.4738">
		<stop offset="0" class="primary-color-gradient" style="stop-color: #FF7593"/>
		<stop offset="1" class="secondary-color-gradient" style="stop-color: #9AF4FD"/>
	</linearGradient>
	<path fill="url(#SVGID_4_)" d="M323.6,348.5c-0.2,14.1-6.3,24.6-14.2,32.3c-0.6,2.9-1.8,5.7-3.5,8.3c-0.8,1.2-1.4,2.3-1.8,3.5
		c-10.5,6.3-22.8,10-36,10h-1.3c0-0.8-0.1-1.6-0.1-2.5V294.2c0-16.5,13.5-29.9,30-29.8c5,0,10,0.1,14.3,0.2
		c7.1,0.1,12.8,5.8,12.9,12.9C324.2,288.9,324.2,310,323.6,348.5z"/>
</g>
<path d="M508.6,432.6c-0.2,4.3-3.7,7.6-8,7.6c-0.1,0-0.3,0-0.4,0c-4.4-0.2-7.8-4-7.6-8.4c0.1-2,1.4-46.8-47.5-66.1
	c-37.2-14.7-50.7-27.5-55.1-36.3c-8,3.1-17.2,5-27.7,5c-10.7,0-20.8-1.9-29.9-5.6v17.6c0,19.3-8.6,37.9-23.2,50.5
	c2.2,15,18.2,20.5,28,22.4c10.8,2.2,18.7,11.7,18.7,22.8v9.9c0,4.4-3.6,8-8,8s-8-3.6-8-8v-9.9c0-3.4-2.5-6.4-5.8-7.1
	c-21.2-4.2-35-15-39.5-30.3c-9.1,3.2-19,4.8-28.8,4.8c-9.8,0-19.6-1.6-28.8-4.8c-4.5,15.3-18.3,26.1-39.5,30.3
	c-3.4,0.7-5.8,3.7-5.8,7.1v9.9c0,4.4-3.6,8-8,8s-8-3.6-8-8v-9.9c0-11,7.9-20.6,18.7-22.8c9.8-2,25.8-7.4,28-22.4
	c-14.6-12.6-23.2-31.2-23.2-50.5v-34.2c-1.3,1.1-2.4,1.9-3.2,2.5c0,0,0,0,0,0c-11,7.4-25.3,11.6-28.6,12.3
	c-6.5,1.4-13.4,2.1-20.3,2.1c-10.7,0-21.3-1.7-30.5-5.1c-4.1-1.5-6.3-6.1-4.8-10.3s6.1-6.3,10.3-4.8c12.3,4.5,28,5.4,41.8,2.3
	c2-0.4,14.2-4,23-10c0,0,0,0,0,0c1.3-0.9,6.1-4.9,8.1-6.7c0.9-0.7,1.6-1.3,2-1.7c0.8-0.6,1.6-1.1,2.5-1.4c1.8-15.5,9-29.4,19.6-39.8
	c-0.2-0.7-0.3-1.3-0.3-2v-34.5c-9.5-8.2-18.3-13.4-26.8-18.5c-18.5-11.1-34.5-20.6-44.3-53.3c-1.3-4.2,1.1-8.7,5.4-10
	c4.2-1.3,8.7,1.1,10,5.4c8,26.7,19.6,33.7,37.2,44.1c8.8,5.3,18.8,11.2,29.7,20.7c1.1,1,1.9,2.2,2.3,3.6c1.6,1.5,2.5,3.5,2.5,5.8
	v27.3c3.2-1.7,6.6-3.1,10.1-4.3v-17c0-0.1,0-0.2,0-0.3c1.2-35.4-8.7-63.8-28.7-82.2c-15.5-14.3-36.6-21.7-58.9-21
	c-0.9,0.2-1.8,0.3-2.7,0.2c0,0-0.2,0-0.4,0c-1.5,0.1-3,0.2-4.5,0.4c-53.7,6.2-74.7,26.7-74.7,73.3c0,4.4-3.6,8-8,8s-8-3.6-8-8
	c0-11.3,1.2-21.4,3.6-30.3c-5.2,10-8.5,21.6-9.9,34.8l-1.1,143.7c3.4-1.8,7-3.6,10.8-5.3c0.9-0.4,1.8-0.8,2.7-1.3
	c1.2-0.6,2.4-1.1,3.6-1.7c2.8-1.3,5.5-2.6,8.1-4.1c0,0,0.1,0,0.1-0.1c12.9-6.8,16.3-9.8,17.2-13.4c-21.8-16.6-35.1-43.2-35.1-70.4
	c0-4.4,3.6-8,8-8s8,3.6,8,8c0,23.2,12.6,46.8,32,60c2.3,1.5,3.6,4.2,3.5,6.9c-0.5,14-5.9,20.3-26.2,31c-2.9,1.6-5.9,3.1-8.8,4.5
	c-1.2,0.6-2.5,1.2-3.7,1.7c-0.9,0.4-1.8,0.8-2.6,1.2c-23.8,11.3-36.6,18.7-44.1,52.4c-2.2,9.7-3.3,20-3.3,30.5c0,4.4-3.6,8-8,8
	s-8-3.6-8-8c0-11.7,1.2-23.1,3.7-34c5.4-24.4,14.2-38,26.2-47.8c-0.1-0.5-0.2-1.1-0.2-1.6l1.1-152.8c0-0.3,0-0.5,0-0.8
	c5.7-53.9,38.2-76.3,64.5-85.6c23.9-8.5,46.6-7.7,53.2-7.3c27.4-1.5,53.6,7.5,72.7,25.1c16.4,15.1,35.5,43.7,33.8,94.4V233
	c1.6-0.1,3.2-0.2,4.8-0.2h17.4c0,0,0,0,0-0.1v-68c0-14.5,6.9-28.4,19.3-39.1c17.7-15.2,44.4-22.3,69.6-18.5
	c8.2,1.2,15.4,3.3,22.4,5.2c15.2,4.3,27.2,7.7,43.5,0.9c4.1-1.7,8.8,0.2,10.5,4.3c1.7,4.1-0.2,8.8-4.3,10.5c-21.5,8.9-38,4.2-54-0.3
	c-6.5-1.8-13.2-3.7-20.4-4.8c-20.8-3.1-42.5,2.6-56.8,14.8c-6.3,5.4-13.8,14.5-13.8,27v68c0,0,0,0,0,0.1h25.3c4.4,0,8,3.6,8,8v23.5
	c0,4.4-3.6,8-8,8h-58.6c-4.4,0-8-3.6-8-8s3.6-8,8-8h50.6v-7.5h-50.6c-27.9,0-50.6,22.7-50.6,50.6v46.9c0,15.8,7.2,30.4,19.7,40.1
	c18.6,9.2,43.2,9.2,61.8,0c12.5-9.7,19.7-24.3,19.7-40.1v-58.6c0-4.4,3.6-8,8-8s8,3.6,8,8v23.5c0.5,0.1,0.9,0.3,1.4,0.6
	c8.4,4.4,18,6.6,28.5,6.6c37.5,0,53.9-29.6,60.3-47.2c1.8-4.9,2.7-10.1,2.7-15.4v-89.4c-12.6,1.8-24.4-1.1-35.2-3.8
	c-16.1-4-29.9-7.5-45,3.2c-3.6,2.6-8.6,1.7-11.2-1.9c-2.6-3.6-1.7-8.6,1.9-11.2c21-14.9,40.7-10,58.1-5.7
	c12.6,3.2,24.6,6.1,36.4,1.6c2.5-0.9,5.2-0.6,7.4,0.9c2.2,1.5,3.5,4,3.5,6.6v99.7c0,7.2-1.2,14.2-3.7,20.9
	c-4.1,11.2-13.8,32-33.4,45.3c0.9,2.3,7.3,13.3,46.7,28.9c31.1,12.3,45.2,33.8,51.4,49.6C509.3,417.6,508.6,432,508.6,432.6z"/>
<path d="M223.7,420.2c0,4.4-3.6,8-8,8h-111c-4.4,0-8-3.6-8-8s3.6-8,8-8h111C220.1,412.2,223.7,415.8,223.7,420.2z M58.3,68.6
	C52.6,68.6,48,73.2,48,79c0,5.7,4.6,10.3,10.3,10.3c5.7,0,10.3-4.6,10.3-10.3C68.7,73.2,64.1,68.6,58.3,68.6z M291.9,62.9H277V48
	c0-4.4-3.6-8-8-8s-8,3.6-8,8v14.9h-14.9c-4.4,0-8,3.6-8,8s3.6,8,8,8H261v14.9c0,4.4,3.6,8,8,8s8-3.6,8-8V78.9h14.9c4.4,0,8-3.6,8-8
	S296.3,62.9,291.9,62.9z M479.6,309.4h-3.4V306c0-4.4-3.6-8-8-8s-8,3.6-8,8v3.4h-3.4c-4.4,0-8,3.6-8,8s3.6,8,8,8h3.4v3.4
	c0,4.4,3.6,8,8,8s8-3.6,8-8v-3.4h3.4c4.4,0,8-3.6,8-8S484,309.4,479.6,309.4z"/>
<path fill="#FF7593" class="primary-color" d="M476.8,93l-58.6-58.6h58.6V93z"/>

</symbol>
<symbol id="icon-home" viewBox="0 0 512 512">
<linearGradient id="SVGID_1_" gradientUnits="userSpaceOnUse" x1="285.7475" y1="453.7625" x2="285.7475" y2="117.642" class="gradient-element">
	<stop offset="0" class="primary-color-gradient" style="stop-color: #FF7593"/>
	<stop offset="1" class="secondary-color-gradient" style="stop-color: #9AF4FD"/>
</linearGradient>
<path fill="url(#SVGID_1_)" d="M429.9,221.8V106.5h-38.5l-0.2,34.4l0.6,59.7l-4.4-2.4v122.7c0,28.7-16.8,45.6-37.6,45.6h-52.1v94.1
	h148.2V264.3l30.8,0.5c17.7,0.5,21.2-6.3,18.7-10.1L429.9,221.8z M75.4,421v39.5h148.2v-94.1H130C99.8,366.4,75.4,390.8,75.4,421z"/>
<path d="M445.9,468.5H297.7c-4.4,0-8-3.6-8-8v-90.8h-58.1v90.8c0,4.4-3.6,8-8,8H75.4c-4.4,0-8-3.6-8-8s3.6-8,8-8h140.2v-90.8
	c0-4.4,3.6-8,8-8h74.1c4.4,0,8,3.6,8,8v90.8h132.2V272.3c0-4.4,3.6-8,8-8s8,3.6,8,8v188.2C453.9,464.9,450.3,468.5,445.9,468.5z
	 M75.4,432.7c-4.4,0-8-3.6-8-8V272.3c0-4.4,3.6-8,8-8s8,3.6,8,8v152.4C83.4,429.1,79.8,432.7,75.4,432.7z M32.3,262.7
	c-2.8,0-5.5-1.5-7-4.1c-2.1-3.9-0.8-8.7,3.1-10.9l228.4-126.8c2.4-1.3,5.4-1.3,7.8,0l119.1,66.1l-0.4-38h-27.5c-4.4,0-8-3.6-8-8
	v-34.4c0-4.4,3.6-8,8-8h74.1c4.4,0,8,3.6,8,8v110.6l55,30.6c3.9,2.1,5.3,7,3.1,10.9c-2.1,3.9-7,5.3-10.9,3.1L426,228.8
	c-2.5-1.4-4.1-4.1-4.1-7V114.5h-58.1v18.4h27.4c4.4,0,8,3.5,8,7.9l0.6,59.7c0,2.8-1.5,5.5-3.9,7c-2.4,1.5-5.5,1.5-8,0.1L260.6,137
	L36.1,261.7C34.9,262.3,33.6,262.7,32.3,262.7z"/>
<path d="M195.2,103.1c0,4.4-3.6,8-8,8H21.5c-4.4,0-8-3.6-8-8s3.6-8,8-8h165.6C191.6,95.1,195.2,98.6,195.2,103.1z M207.5,57.7H91.8
	c-4.4,0-8,3.6-8,8s3.6,8,8,8h115.7c4.4,0,8-3.6,8-8S211.9,57.7,207.5,57.7z M121.1,145.4H63.7c-4.4,0-8,3.6-8,8s3.6,8,8,8h57.4
	c4.4,0,8-3.6,8-8S125.5,145.4,121.1,145.4z M118.5,416.7H15.3c-4.4,0-8,3.6-8,8s3.6,8,8,8h103.3c4.4,0,8-3.6,8-8
	S123,416.7,118.5,416.7z M98.1,452.3H40.7c-4.4,0-8,3.6-8,8s3.6,8,8,8h57.4c4.4,0,8-3.6,8-8S102.5,452.3,98.1,452.3z M410.3,51.7
	c0,5-4.1,9-9,9s-9-4.1-9-9s4.1-9,9-9S410.3,46.7,410.3,51.7z M440.3,51.7c0,5-4.1,9-9,9s-9-4.1-9-9s4.1-9,9-9S440.3,46.7,440.3,51.7
	z M470.3,51.7c0,5-4.1,9-9,9s-9-4.1-9-9s4.1-9,9-9S470.3,46.7,470.3,51.7z M332.8,55.6H317V39.8c0-4.4-3.6-8-8-8s-8,3.6-8,8v15.8
	h-15.8c-4.4,0-8,3.6-8,8s3.6,8,8,8H301v15.8c0,4.4,3.6,8,8,8s8-3.6,8-8V71.6h15.8c4.4,0,8-3.6,8-8S337.2,55.6,332.8,55.6z"/>

</symbol>
<symbol id="icon-list" viewBox="0 0 512 512">
<linearGradient id="SVGID_1_" gradientUnits="userSpaceOnUse" x1="260.2354" y1="421.7446" x2="260.2354" y2="86.8244" class="gradient-element">
	<stop offset="0" class="primary-color-gradient" style="stop-color: #FF7593"/>
	<stop offset="1" class="secondary-color-gradient" style="stop-color: #9AF4FD"/>
</linearGradient>
<path fill="url(#SVGID_1_)" d="M382.3,95.6v296.5c0,12.7-10.3,22.9-22.9,22.9H138.2v0c0-36.2,29.3-65.5,65.5-65.5h24.6
	c21.7,0,39.3-17.6,39.3-39.3V128.9c0-18.4,14.9-33.3,33.3-33.3H382.3z"/>
<path d="M383.3,424.3H138.2c-4.4,0-8-3.6-8-8V95.8c0-4.4,3.6-8,8-8h245.1c4.4,0,8,3.6,8,8v18.9c0,4.4-3.6,8-8,8s-8-3.6-8-8v-10.9
	H146.2v304.5h229.1v-21.8c0-4.4,3.6-8,8-8s8,3.6,8,8v29.8C391.3,420.7,387.7,424.3,383.3,424.3z M326.7,367.7h-94.3
	c-4.4,0-8-3.6-8-8s3.6-8,8-8h94.3c4.4,0,8,3.6,8,8S331.1,367.7,326.7,367.7z M213.6,367.7h-18.9c-4.4,0-8-3.6-8-8s3.6-8,8-8h18.9
	c4.4,0,8,3.6,8,8S218,367.7,213.6,367.7z M383.3,364.5c-4.4,0-8-3.6-8-8V146c0-4.4,3.6-8,8-8s8,3.6,8,8v210.4
	C391.3,360.9,387.7,364.5,383.3,364.5z M326.7,311.2h-94.3c-4.4,0-8-3.6-8-8s3.6-8,8-8h94.3c4.4,0,8,3.6,8,8
	S331.1,311.2,326.7,311.2z M213.6,311.2h-18.9c-4.4,0-8-3.6-8-8s3.6-8,8-8h18.9c4.4,0,8,3.6,8,8S218,311.2,213.6,311.2z
	 M326.7,254.6h-94.3c-4.4,0-8-3.6-8-8s3.6-8,8-8h94.3c4.4,0,8,3.6,8,8S331.1,254.6,326.7,254.6z M213.6,254.6h-18.9
	c-4.4,0-8-3.6-8-8s3.6-8,8-8h18.9c4.4,0,8,3.6,8,8S218,254.6,213.6,254.6z M326.7,198h-94.3c-4.4,0-8-3.6-8-8s3.6-8,8-8h94.3
	c4.4,0,8,3.6,8,8S331.1,198,326.7,198z M213.6,198h-18.9c-4.4,0-8-3.6-8-8s3.6-8,8-8h18.9c4.4,0,8,3.6,8,8S218,198,213.6,198z"/>
<path fill="#FF7593" class="primary-color" d="M47.9,411.1H26.1v-56.9h21.8V411.1z M158.1,488v-21.8h-56.9V488H158.1z M47.9,466.2v-36.9H26.1v36.9v20v1.8
	H83v-21.8H47.9z"/>
<path d="M396.9,44.5c0-4.4,3.6-8,8-8c11.4,0,20.8-9.3,20.8-20.8c0-4.4,3.6-8,8-8s8,3.6,8,8c0,20.3-16.5,36.8-36.8,36.8
	C400.5,52.5,396.9,48.9,396.9,44.5z M483.6,52.5c4.4,0,8-3.6,8-8s-3.6-8-8-8c-11.4,0-20.8-9.3-20.8-20.8c0-4.4-3.6-8-8-8s-8,3.6-8,8
	C446.9,36,463.4,52.5,483.6,52.5z M483.6,57.7c-20.3,0-36.8,16.5-36.8,36.8c0,4.4,3.6,8,8,8s8-3.6,8-8c0-11.4,9.3-20.8,20.8-20.8
	c4.4,0,8-3.6,8-8S488.1,57.7,483.6,57.7z M404.9,73.7c11.4,0,20.8,9.3,20.8,20.8c0,4.4,3.6,8,8,8s8-3.6,8-8
	c0-20.3-16.5-36.8-36.8-36.8c-4.4,0-8,3.6-8,8S400.5,73.7,404.9,73.7z M87.2,65.7c0,14.6-11.8,26.4-26.4,26.4S34.4,80.3,34.4,65.7
	s11.8-26.4,26.4-26.4S87.2,51.2,87.2,65.7z M71.2,65.7c0-5.7-4.7-10.4-10.4-10.4S50.4,60,50.4,65.7s4.7,10.4,10.4,10.4
	S71.2,71.5,71.2,65.7z M429.9,348.5h-56c-4.4,0-8,3.6-8,8s3.6,8,8,8h56c4.4,0,8-3.6,8-8S434.3,348.5,429.9,348.5z M416.4,386.5
	c0-4.4-3.6-8-8-8h-73.8c-4.4,0-8,3.6-8,8s3.6,8,8,8h73.8C412.8,394.5,416.4,390.9,416.4,386.5z M466.8,300.3c4.4,0,8-3.6,8-8
	s-3.6-8-8-8h-3.9v-3.9c0-4.4-3.6-8-8-8s-8,3.6-8,8v3.9H443c-4.4,0-8,3.6-8,8s3.6,8,8,8h3.9v3.9c0,4.4,3.6,8,8,8s8-3.6,8-8v-3.9
	H466.8z M423.9,483.1c0,5-4.1,9-9,9s-9-4.1-9-9s4.1-9,9-9S423.9,478.1,423.9,483.1z M453.9,483.1c0,5-4.1,9-9,9s-9-4.1-9-9
	s4.1-9,9-9S453.9,478.1,453.9,483.1z M483.9,483.1c0,5-4.1,9-9,9s-9-4.1-9-9s4.1-9,9-9S483.9,478.1,483.9,483.1z"/>

</symbol>
<symbol id="icon-location" viewBox="0 0 512 512">
<linearGradient id="SVGID_1_" gradientUnits="userSpaceOnUse" x1="285.4516" y1="441.5592" x2="285.4516" y2="67.9815" class="gradient-element">
	<stop offset="0" class="primary-color-gradient" style="stop-color: #FF7593"/>
	<stop offset="1" class="secondary-color-gradient" style="stop-color: #9AF4FD"/>
</linearGradient>
<path fill="url(#SVGID_1_)" d="M381.4,176c0,60.5-102.9,251.2-107.2,259.3l-9.3,17.2l-9.3-17.2l-59.5-119.2
	c-16.3-36.9-3-73.7,47.1-73.7h2.1c8.7,0,16.1-5.7,18.6-13.5c0.3,0,0.7,0,1,0c29.2,0,53-23.7,53-53c0-29.2-23.7-53-53-53V89.7
	c0-17.6,17-30.3,33.8-25.2C346.5,79,381.4,123.5,381.4,176z"/>
<path d="M264.9,237c-33.6,0-61-27.4-61-61c0-33.6,27.4-61,61-61s61,27.4,61,61C325.8,209.6,298.5,237,264.9,237z M264.9,131
	c-24.8,0-45,20.2-45,45c0,24.8,20.2,45,45,45s45-20.2,45-45C309.8,151.2,289.7,131,264.9,131z M272.9,207.8c0-4.4-3.6-8-8-8
	c-13.1,0-23.8-10.7-23.8-23.8c0-13.1,10.7-23.8,23.8-23.8c4.4,0,8-3.6,8-8s-3.6-8-8-8c-21.9,0-39.8,17.8-39.8,39.8
	c0,21.9,17.8,39.8,39.8,39.8C269.3,215.8,272.9,212.2,272.9,207.8z M264.9,460.5c-2.9,0-5.6-1.6-7-4.2l-9.7-17.9
	c-15.7-29.2-94.3-178.4-106.2-246.5c-0.8-4.4,2.2-8.5,6.5-9.3c4.4-0.8,8.5,2.2,9.3,6.5c11.4,65.7,89.1,212.8,104.5,241.7l2.7,4.9
	l3.1-5.7c18.7-34.7,34.2-66.1,43.9-86.3c1.9-4,6.7-5.7,10.7-3.8c4,1.9,5.7,6.7,3.8,10.7c-9.8,20.4-25.4,52-44.2,87l-0.8,1.5
	l-9.4,17.2C270.5,458.9,267.8,460.5,264.9,460.5z M336.1,318.8c-1.1,0-2.2-0.2-3.3-0.7c-4-1.8-5.8-6.6-3.9-10.6
	c29.6-64.7,44.6-108.9,44.6-131.5c0-59.8-48.7-108.5-108.5-108.5c-52.7,0-97.6,37.6-106.8,89.4c-0.8,4.4-4.9,7.3-9.3,6.5
	c-4.4-0.8-7.3-4.9-6.5-9.3c5-28.4,20-54.4,42.2-73.2c22.4-19,51-29.5,80.4-29.5c68.7,0,124.5,55.9,124.5,124.5
	c0,25.2-15.1,70.4-46,138.1C342,317.1,339.1,318.8,336.1,318.8z"/>
<g>
	<path fill="#FF7593" class="primary-color" d="M141.1,77.5H29.9V33.9h111.2V77.5z"/>
	<path fill="#9AF4FD" class="secondary-color" d="M73.5,147.5H29.9v-43.6h43.6V147.5z M489.6,278.5H446v43.6h43.6V278.5z"/>
</g>
<path d="M420.7,470.3c-5,0-9,4.1-9,9s4.1,9,9,9s9-4.1,9-9S425.7,470.3,420.7,470.3z M390.7,470.3c-5,0-9,4.1-9,9s4.1,9,9,9
	s9-4.1,9-9S395.7,470.3,390.7,470.3z M480.7,470.3c-5,0-9,4.1-9,9s4.1,9,9,9s9-4.1,9-9S485.7,470.3,480.7,470.3z M450.3,470.3
	c-5,0-9,4.1-9,9s4.1,9,9,9s9-4.1,9-9S455.2,470.3,450.3,470.3z M420.7,457.6c4.9,0,9-4,9-9s-4-9-9-9s-9,4-9,9
	S415.7,457.6,420.7,457.6z M450.3,439.7c-4.9,0-9,4-9,9s4,9,9,9s9-4,9-9S455.2,439.7,450.3,439.7z M480.7,410c-5,0-9,4.1-9,9
	s4.1,9,9,9s9-4.1,9-9S485.7,410,480.7,410z M480.7,439.6c-5,0-9,4.1-9,9s4.1,9,9,9s9-4.1,9-9S485.7,439.6,480.7,439.6z M450.3,410.1
	c-4.9,0-9,4-9,9s4,9,9,9s9-4,9-9S455.2,410.1,450.3,410.1z M471.7,389.4c0,5,4.1,9,9,9s9-4.1,9-9s-4.1-9-9-9
	S471.7,384.4,471.7,389.4z M440.7,90.7V74.9H425c-4.4,0-8-3.6-8-8s3.6-8,8-8h15.8V43.1c0-4.4,3.6-8,8-8s8,3.6,8,8v15.8h15.8
	c4.4,0,8,3.6,8,8s-3.6,8-8,8h-15.8v15.8c0,4.4-3.6,8-8,8S440.7,95.1,440.7,90.7z M35.5,292.9c0-4.4,3.6-8,8-8h15.8v-15.8
	c0-4.4,3.6-8,8-8s8,3.6,8,8v15.8h15.8c4.4,0,8,3.6,8,8s-3.6,8-8,8H75.3v15.8c0,4.4-3.6,8-8,8s-8-3.6-8-8v-15.8H43.5
	C39.1,300.9,35.5,297.3,35.5,292.9z M331.6,481.7c0,4.4-3.6,8-8,8h-58.8c-4.4,0-8-3.6-8-8s3.6-8,8-8h58.8
	C328.1,473.7,331.6,477.3,331.6,481.7z M231.1,481.7c0,4.4-3.6,8-8,8H21.3c-4.4,0-8-3.6-8-8s3.6-8,8-8h201.8
	C227.5,473.7,231.1,477.3,231.1,481.7z M146.1,349.6c-2.2-3.8-0.8-8.7,3-10.9c3.8-2.2,8.7-0.8,10.9,3l58.8,104
	c2.2,3.8,0.8,8.7-3,10.9c-1.2,0.7-2.6,1-3.9,1c-2.8,0-5.5-1.5-7-4.1L146.1,349.6z M367.7,345.7c0,4.4-3.6,8-8,8h-74.3
	c-4.4,0-8-3.6-8-8s3.6-8,8-8h74.3C364.2,337.7,367.7,341.3,367.7,345.7z M367.7,310.8c0,4.4-3.6,8-8,8h-34.9c-4.4,0-8-3.6-8-8
	s3.6-8,8-8h34.9C364.2,302.8,367.7,306.4,367.7,310.8z"/>

</symbol>
<symbol id="icon-maplocation" viewBox="0 0 512 512">
<linearGradient id="SVGID_1_" gradientUnits="userSpaceOnUse" x1="271.3809" y1="398.1451" x2="271.3809" y2="98.0016" class="gradient-element">
	<stop offset="0" class="primary-color-gradient" style="stop-color: #FF7593"/>
	<stop offset="1" class="secondary-color-gradient" style="stop-color: #9AF4FD"/>
</linearGradient>
<path fill="url(#SVGID_1_)" d="M348.5,184.8c0,48.6-82.6,201.8-86.1,208.4l-7.5,13.8l-7.5-13.8l-47.8-95.7v0
	c-13.1-29.6-2.4-59.2,37.8-59.2h1.7c7,0,12.9-4.6,15-10.9c0.3,0,0.5,0,0.8,0c23.5,0,42.6-19.1,42.6-42.6c0-23.5-19.1-42.6-42.6-42.6
	v-26.8c0-14.1,13.6-24.3,27.1-20.2C320.4,106.8,348.5,142.6,348.5,184.8z"/>
<g>
	<path fill="#9AF4FD" class="secondary-color" d="M418.4,331.4l-57.8-57.8l57.8-57.8V331.4z M481.3,67.8H404v22.5h77.3V67.8z"/>
	<path fill="#FF7593" class="primary-color" d="M481.3,44.1H404V22.5h77.3V44.1z"/>
</g>
<path fill="#000000" d="M339.1,321.1c0,4.4-3.6,8-8,8h-59.7c-4.4,0-8-3.6-8-8s3.6-8,8-8h59.7C335.5,313.1,339.1,316.7,339.1,321.1z
	 M331.1,285.1h-28c-4.4,0-8,3.6-8,8s3.6,8,8,8h28c4.4,0,8-3.6,8-8S335.5,285.1,331.1,285.1z M94.6,263.8H78.8V248c0-4.4-3.6-8-8-8
	s-8,3.6-8,8v15.8H47.1c-4.4,0-8,3.6-8,8s3.6,8,8,8h15.8v15.8c0,4.4,3.6,8,8,8s8-3.6,8-8v-15.8h15.8c4.4,0,8-3.6,8-8
	S99,263.8,94.6,263.8z M472.7,136.9h-3.9V133c0-4.4-3.6-8-8-8s-8,3.6-8,8v3.9h-3.9c-4.4,0-8,3.6-8,8s3.6,8,8,8h3.9v3.9
	c0,4.4,3.6,8,8,8s8-3.6,8-8v-3.9h3.9c4.4,0,8-3.6,8-8S477.1,136.9,472.7,136.9z M71.2,153.8c0,5.9,4.8,10.8,10.8,10.8
	c5.9,0,10.8-4.8,10.8-10.8s-4.8-10.8-10.8-10.8C76,143.1,71.2,147.9,71.2,153.8z M48.6,69.9c0-5.7,4.7-10.4,10.4-10.4
	s10.4,4.7,10.4,10.4c0,4.4,3.6,8,8,8s8-3.6,8-8c0-14.6-11.8-26.4-26.4-26.4S32.6,55.3,32.6,69.9c0,4.4,3.6,8,8,8
	S48.6,74.3,48.6,69.9z M453.3,337.3c-5.9,0-10.8,4.8-10.8,10.8s4.8,10.8,10.8,10.8s10.8-4.8,10.8-10.8S459.3,337.3,453.3,337.3z"/>
<path d="M467.3,455c-1.4,2.6-4.1,4.3-7.1,4.3H87.3c-4.4,0-8-3.6-8-8s3.6-8,8-8h357.7l-81.3-117.6c-2.5-3.6-1.6-8.6,2-11.1
	c3.6-2.5,8.6-1.6,11.1,2l90,130.1C468.5,449.1,468.7,452.3,467.3,455z M205.8,329.1c15.2,31.3,29,57.5,34.2,67.2l2.2,4
	c-2.2,1.4-3.6,3.9-3.6,6.8c0,4.4,3.6,7.9,8,7.9c0,0,0.1,0,0.1,0c2.7,0,5.4,0,8.2,0c4.2,0,8.3-0.1,12.2-0.4c4.4-0.3,7.7-4.1,7.4-8.5
	c-0.2-3.6-2.8-6.4-6.1-7.2l1-1.9l0.6-1.2c15.1-28.1,27.7-53.6,35.6-70c1.9-4,0.2-8.8-3.8-10.7c-4-1.9-8.8-0.2-10.7,3.8
	c-7.8,16.3-20.2,41.5-35.2,69.3l-1.1,2l-0.8-1.4c-5.3-9.9-19.8-37.2-35.3-69.3c-0.3-1.3-0.9-2.5-1.7-3.5
	c-20.2-42.2-41.8-91.7-46.9-120.9c-0.8-4.4-4.9-7.3-9.3-6.5c-4.4,0.8-7.3,4.9-6.5,9.3c5,28.4,24.3,74.3,43.6,115.3h-68.6
	c-2.8,0-5.4,1.4-6.8,3.8L42.7,447c-2.3,3.8-1.1,8.7,2.6,11c1.3,0.8,2.8,1.2,4.2,1.2c2.7,0,5.3-1.4,6.8-3.8L134,329.1H205.8z
	 M161.3,176.2c4.4,0.8,8.5-2.1,9.3-6.5c7.2-40.9,42.7-70.5,84.3-70.5c47.2,0,85.6,38.4,85.6,85.6c0,17.9-12,53.2-35.7,105
	c-1.8,4-0.1,8.8,3.9,10.6c1.1,0.5,2.2,0.7,3.3,0.7c3,0,5.9-1.7,7.3-4.7c25-54.6,37.1-91.1,37.1-111.6c0-56-45.6-101.6-101.6-101.6
	c-49.4,0-91.4,35.2-100,83.8C154.1,171.3,157,175.4,161.3,176.2z M308.6,385.2c-4.3,3.3-9.5,6-15.4,8.1c-4.2,1.5-6.3,6.1-4.8,10.2
	c1.2,3.3,4.2,5.3,7.5,5.3c0.9,0,1.8-0.2,2.7-0.5c7.5-2.7,14.1-6.2,19.7-10.5c3.5-2.7,4.2-7.7,1.5-11.2
	C317.1,383.2,312.1,382.5,308.6,385.2z M326.4,347.8c-0.2,6.2-1.3,12-3.1,17.2c-1.5,4.2,0.7,8.7,4.9,10.2c0.9,0.3,1.8,0.5,2.7,0.5
	c3.3,0,6.4-2,7.5-5.3c2.4-6.7,3.7-14.1,4-22c0.2-4.4-3.3-8.1-7.7-8.3C330.3,340,326.6,343.4,326.4,347.8z M165.6,405.2
	c-7.1,1.2-13.9,2.5-20.2,4c-4.3,1-7,5.3-5.9,9.6c0.9,3.7,4.2,6.2,7.8,6.2c0.6,0,1.2-0.1,1.9-0.2c5.9-1.4,12.3-2.7,19.1-3.8
	c4.4-0.7,7.3-4.8,6.6-9.2C174,407.4,169.9,404.5,165.6,405.2z M216.1,399.9c-6.9,0.4-13.8,0.9-20.2,1.4c-4.4,0.4-7.6,4.3-7.2,8.7
	c0.4,4.2,3.9,7.3,8,7.3c0.2,0,0.5,0,0.7,0c6.3-0.6,12.9-1,19.7-1.4c4.4-0.2,7.8-4,7.6-8.4C224.3,403.1,220.5,399.7,216.1,399.9z
	 M305.4,184.8c0,27.9-22.7,50.6-50.6,50.6s-50.6-22.7-50.6-50.6s22.7-50.6,50.6-50.6S305.4,156.9,305.4,184.8z M289.4,184.8
	c0-19.1-15.5-34.6-34.6-34.6c-19.1,0-34.6,15.5-34.6,34.6s15.5,34.6,34.6,34.6C273.9,219.4,289.4,203.9,289.4,184.8z"/>

</symbol>
<symbol id="icon-maps" viewBox="0 0 512 512">
<linearGradient id="SVGID_1_" gradientUnits="userSpaceOnUse" x1="111.1873" y1="290.4052" x2="470.3074" y2="290.4052" class="gradient-element">
	<stop offset="0" class="primary-color-gradient" style="stop-color: #FF7593"/>
	<stop offset="1" class="secondary-color-gradient" style="stop-color: #9AF4FD"/>
</linearGradient>
<path fill="url(#SVGID_1_)" d="M470.3,121.4v288l-120,48.6v1.4l-119.6-39.9l-119.5,29.9v-13.5c0-33.5,22.8-72.7,55.3-80.9l63.8-16
	v-0.2l0.4,0.1l0.5-0.1v0.3l119.1,39.7v-0.6l35.6-14.4c13.6-5.5,22.5-18.7,22.5-33.3V200.4c0-32.6,19.8-61.9,50-74.2L470.3,121.4z"/>
<path d="M470.3,139.7c-4.4,0-8,3.6-8,8v173.5l-104,80.2V243.2l92.5-71.1c3.5-2.7,4.2-7.7,1.5-11.2c-2.7-3.5-7.7-4.2-11.2-1.5
	L358.3,223v-46.7l115-46.6c4.1-1.7,6.1-6.3,4.4-10.4c-1.7-4.1-6.3-6.1-10.4-4.4l-117.8,47.7l-113.9-38c-1.4-0.9-3.1-1.4-4.8-1.3
	c-1.4-0.1-2.8,0.2-4.1,0.9l-117.4,29.4c-3.6,0.9-6.1,4.1-6.1,7.8v136.8c0,4.4,3.6,8,8,8s8-3.6,8-8V167.6l103.1-25.8v185.7l-6.1,4.7
	l-64.9-146c-1.8-4-6.5-5.9-10.6-4.1c-4,1.8-5.9,6.5-4.1,10.6l66.5,149.5l-79.5,61.1c-3.5,2.7-4.2,7.7-1.5,11.2
	c1.6,2,3.9,3.1,6.3,3.1c1.7,0,3.4-0.5,4.9-1.7l89-68.4v65.7l-103.1,25.8V330.7c0-4.4-3.6-8-8-8s-8,3.6-8,8v118.7
	c0,2.5,1.1,4.8,3.1,6.3c1.4,1.1,3.2,1.7,4.9,1.7c0.6,0,1.3-0.1,1.9-0.2l117.2-29.3L347.8,467c0.8,0.3,1.7,0.4,2.5,0.4
	c1.7,0,3.3-0.5,4.7-1.5c0.1-0.1,0.2-0.2,0.4-0.3l118-47.8c3-1.2,5-4.2,5-7.4V147.7C478.3,143.3,474.7,139.7,470.3,139.7z
	 M283.2,171.6l39.7,78.7l-83.7,64.3V142.8l51.7,17.2c-1.4-0.1-2.8,0.2-4.1,0.8C282.8,162.8,281.2,167.6,283.2,171.6z M239.2,334.8
	l35.8-27.5L342.3,420v28.3l-103.1-34.4V334.8z M342.3,388.8l-54.5-91.3l50.1-38.5c0,0,0,0,0,0l4.4-3.3V388.8z M342.3,235.3l-6.5,5
	l-38.3-76c-0.7-1.3-1.6-2.4-2.8-3.1l47.6,15.9V235.3z M358.3,447.2v-25.4l104-80.2V405L358.3,447.2z"/>
<path fill="#000000" d="M292.2,56.1c0,4.4-3.6,8-8,8H256c-4.4,0-8-3.6-8-8s3.6-8,8-8h28.2C288.6,48.1,292.2,51.7,292.2,56.1z
	 M198.7,85.6h-92.6c-4.4,0-8,3.6-8,8s3.6,8,8,8h92.6c4.4,0,8-3.6,8-8S203.1,85.6,198.7,85.6z M148.9,290.2H92.5c-4.4,0-8,3.6-8,8
	s3.6,8,8,8h56.4c4.4,0,8-3.6,8-8S153.3,290.2,148.9,290.2z M140.4,322.7H51.8c-4.4,0-8,3.6-8,8s3.6,8,8,8h88.6c4.4,0,8-3.6,8-8
	S144.8,322.7,140.4,322.7z M435.1,56.1h-15.8V40.3c0-4.4-3.6-8-8-8s-8,3.6-8,8v15.8h-15.8c-4.4,0-8,3.6-8,8s3.6,8,8,8h15.8v15.8
	c0,4.4,3.6,8,8,8s8-3.6,8-8V72.1h15.8c4.4,0,8-3.6,8-8S439.5,56.1,435.1,56.1z M58.5,440h-3.9v-3.9c0-4.4-3.6-8-8-8s-8,3.6-8,8v3.9
	h-3.9c-4.4,0-8,3.6-8,8s3.6,8,8,8h3.9v3.9c0,4.4,3.6,8,8,8s8-3.6,8-8V456h3.9c4.4,0,8-3.6,8-8S62.9,440,58.5,440z M25.4,189.5
	c0-14.6,11.8-26.4,26.4-26.4s26.4,11.8,26.4,26.4s-11.8,26.4-26.4,26.4S25.4,204.1,25.4,189.5z M41.4,189.5
	c0,5.7,4.7,10.4,10.4,10.4s10.4-4.7,10.4-10.4s-4.7-10.4-10.4-10.4S41.4,183.8,41.4,189.5z M468.2,460.6c-5.9,0-10.8,4.8-10.8,10.8
	s4.8,10.8,10.8,10.8s10.8-4.8,10.8-10.8S474.2,460.6,468.2,460.6z M325.4,87.9c-5.9,0-10.8,4.8-10.8,10.8c0,5.9,4.8,10.8,10.8,10.8
	s10.8-4.8,10.8-10.8C336.1,92.7,331.3,87.9,325.4,87.9z"/>
<path fill="#9AF4FD" class="secondary-color" d="M192,27.4v21.9H28.5V27.4H192z"/>

</symbol>
<symbol id="icon-power_on_off" viewBox="0 0 512 512">
<linearGradient id="SVGID_1_" gradientUnits="userSpaceOnUse" x1="63.0406" y1="257.8575" x2="407.9591" y2="257.8575" class="gradient-element">
	<stop offset="0" class="primary-color-gradient" style="stop-color: #FF7593"/>
	<stop offset="1" class="secondary-color-gradient" style="stop-color: #9AF4FD"/>
</linearGradient>
<path fill="url(#SVGID_1_)" d="M408,56.2v397.5c0,6.1-2.5,11.6-6.4,15.6s-9.5,6.4-15.6,6.4H89.2c-19.2,0-31.8-20-23.6-37.3
	c14-29.7,44.3-50.3,79.4-50.3h105.4c26.6,0,50.4-11.8,66.5-30.5c28.9-24.1,47.3-60.4,47.3-101c0-29.5-9.7-56.7-26.1-78.6v-72.8
	c0-30.6,20.3-56.5,48.1-64.9C392.3,38.3,408,56.2,408,56.2z"/>
<path d="M364.1,483.7h-263c-28.6,0-51.8-23.3-51.8-51.8V81.1c0-28.6,23.3-51.8,51.8-51.8h263c28.6,0,51.8,23.3,51.8,51.8v274.6
	c0,4.4-3.6,8-8,8s-8-3.6-8-8V81.1c0-19.8-16.1-35.8-35.8-35.8h-263c-19.8,0-35.8,16.1-35.8,35.8v350.7c0,19.8,16.1,35.8,35.8,35.8
	h263c4.4,0,8,3.6,8,8S368.5,483.7,364.1,483.7z M416,475.7v-77.8c0-4.4-3.6-8-8-8s-8,3.6-8,8v77.8c0,4.4,3.6,8,8,8
	S416,480.1,416,475.7z M372.1,256.5c0-49.7-26.7-95.9-69.8-120.7c-2.5-1.4-5.5-1.4-8,0c-2.5,1.4-4,4.1-4,6.9v56.1c0,2,0.7,3.8,2,5.3
	c12.8,14.5,19.9,33.1,19.9,52.3c0,43.9-35.7,79.7-79.7,79.7s-79.7-35.7-79.7-79.7c0-19.3,7.1-37.9,19.9-52.3c1.3-1.5,2-3.4,2-5.3
	v-56.1c0-2.9-1.5-5.5-4-6.9c-2.5-1.4-5.5-1.4-8,0c-43,24.8-69.8,71-69.8,120.7c0,76.9,62.6,139.5,139.5,139.5
	C309.5,396,372.1,333.4,372.1,256.5z M158.8,195.9c-14.2,17.1-21.9,38.5-21.9,60.6c0,52.8,42.9,95.7,95.7,95.7
	c52.8,0,95.7-42.9,95.7-95.7c0-22.2-7.8-43.6-21.9-60.6v-38.4c31,23.1,49.8,59.8,49.8,99c0,68.1-55.4,123.5-123.5,123.5
	s-123.5-55.4-123.5-123.5c0-39.2,18.8-75.9,49.8-99V195.9z M262.5,256.5V126.9c0-4.4-3.6-8-8-8s-8,3.6-8,8v121.5h-27.8V133.8
	c4.5-0.5,9.2-0.8,13.9-0.8c4.4,0,8-3.6,8-8s-3.6-8-8-8c-8.1,0-15.9,0.7-23.4,2.1c-3.8,0.7-6.5,4-6.5,7.9v129.5c0,4.4,3.6,8,8,8h43.8
	C258.9,264.5,262.5,260.9,262.5,256.5z M195.1,467.2"/>
<path d="M467.8,405.9H381c-4.4,0-8-3.6-8-8s3.6-8,8-8h86.8c4.4,0,8,3.6,8,8S472.2,405.9,467.8,405.9z M427.6,366c0-4.4-3.6-8-8-8
	h-57.4c-4.4,0-8,3.6-8,8s3.6,8,8,8h57.4C424.1,374,427.6,370.4,427.6,366z"/>
<path fill="#9AF4FD" class="secondary-color" d="M470.2,80.5V45.3h-35.1V23.5h35.1H492v21.8v35.1H470.2z"/>

</symbol>
<symbol id="icon-red_eye" viewBox="0 0 512 512">
<linearGradient id="SVGID_1_" gradientUnits="userSpaceOnUse" x1="260.4795" y1="363.3798" x2="280.4398" y2="106.7461" class="gradient-element">
	<stop offset="0" class="primary-color-gradient" style="stop-color: #FF7593"/>
	<stop offset="1" class="secondary-color-gradient" style="stop-color: #9AF4FD"/>
</linearGradient>
<path fill="url(#SVGID_1_)" d="M364.8,245.2c0,52.6-42.6,95.2-95.2,95.2s-95.2-42.6-95.2-95.2s42.6-95.2,95.2-95.2
	S364.8,192.6,364.8,245.2z"/>
<path fill="#000000" d="M495.5,287.1c0,4.4-3.6,8-8,8h-43c-4.4,0-8-3.6-8-8s3.6-8,8-8h43C492,279.1,495.5,282.6,495.5,287.1z
	 M466.1,309.1h-73.8c-4.4,0-8,3.6-8,8s3.6,8,8,8h73.8c4.4,0,8-3.6,8-8S470.5,309.1,466.1,309.1z M436.1,69.6h15.8v15.8
	c0,4.4,3.6,8,8,8s8-3.6,8-8V69.6h15.8c4.4,0,8-3.6,8-8s-3.6-8-8-8h-15.8V37.8c0-4.4-3.6-8-8-8s-8,3.6-8,8v15.8h-15.8
	c-4.4,0-8,3.6-8,8S431.7,69.6,436.1,69.6z M55,64.6h-3.9v-3.9c0-4.4-3.6-8-8-8s-8,3.6-8,8v3.9h-3.9c-4.4,0-8,3.6-8,8s3.6,8,8,8h3.9
	v3.9c0,4.4,3.6,8,8,8s8-3.6,8-8v-3.9H55c4.4,0,8-3.6,8-8S59.4,64.6,55,64.6z M50.3,203.8c-5.9,0-10.8,4.8-10.8,10.8
	c0,5.9,4.8,10.8,10.8,10.8s10.8-4.8,10.8-10.8C61.1,208.6,56.3,203.8,50.3,203.8z M50.3,273.8c-5.9,0-10.8,4.8-10.8,10.8
	c0,5.9,4.8,10.8,10.8,10.8s10.8-4.8,10.8-10.8C61.1,278.6,56.3,273.8,50.3,273.8z M50.3,334.8c-5.9,0-10.8,4.8-10.8,10.8
	c0,5.9,4.8,10.8,10.8,10.8s10.8-4.8,10.8-10.8C61.1,339.6,56.3,334.8,50.3,334.8z"/>
<g>
	<path fill="#FF7593" class="primary-color" d="M45.3,415.2v77.3H23.8v-77.3H45.3z"/>
	<path fill="#9AF4FD" class="secondary-color" d="M458.5,429.8v-34.7h34.7v34.7H458.5z M493.2,482v-34.7h-34.7V482H493.2z M439.9,482v-34.7h-34.7V482H439.9z
		"/>
</g>
<path d="M259.1,474.1c-4.4,0-8-3.6-8-8v-62.3c0-4.4,3.6-8,8-8h21.1c4.4,0,8,3.6,8,8s-3.6,8-8,8h-13.1v54.3
	C267.1,470.5,263.5,474.1,259.1,474.1z M376.7,444.1c-2.7,0-5.4-1.4-6.9-3.9l-28.5-48c-1.1-1.9-1.4-4.2-0.8-6.4s2.1-3.9,4.2-4.9
	l19-9.3c4-1.9,8.8-0.3,10.7,3.7s0.3,8.8-3.7,10.7l-11.2,5.5l24.1,40.5c2.3,3.8,1,8.7-2.8,11C379.5,443.8,378.1,444.1,376.7,444.1z
	 M143.7,434.9c-1.4,0-2.8-0.4-4.1-1.1c-3.8-2.3-5-7.2-2.8-11l28.5-48c2.1-3.6,6.6-4.9,10.4-3.1l19,9.3c4,1.9,5.6,6.7,3.7,10.7
	c-1.9,4-6.7,5.6-10.7,3.7l-12.4-6l-24.8,41.7C149,433.5,146.4,434.9,143.7,434.9z M172.2,161.8c-3,0-5.8-1.7-7.2-4.5
	c-1.9-4-0.3-8.8,3.7-10.7l11.2-5.5l-24.1-40.5c-2.3-3.8-1-8.7,2.8-11c3.8-2.3,8.7-1,11,2.8l28.5,48c1.1,1.9,1.4,4.2,0.8,6.4
	c-0.6,2.1-2.1,3.9-4.2,4.9l-19,9.3C174.6,161.6,173.4,161.8,172.2,161.8z M367.2,161.8c-1.2,0-2.4-0.3-3.5-0.8l-19-9.3
	c-4-1.9-5.6-6.7-3.7-10.7c1.9-4,6.7-5.6,10.7-3.7l12.4,6l24.8-41.7c2.3-3.8,7.2-5,11-2.8c3.8,2.3,5,7.2,2.8,11l-28.5,48
	C372.6,160.4,369.9,161.8,367.2,161.8z M280.2,136.9h-21.1c-4.4,0-8-3.6-8-8s3.6-8,8-8h13.1V66.6c0-4.4,3.6-8,8-8s8,3.6,8,8v62.3
	C288.2,133.3,284.7,136.9,280.2,136.9z M269.7,390.6c-75,0-127.6-43.6-158.5-80.1c-2.9-3.4-2.4-8.4,0.9-11.3
	c3.4-2.9,8.4-2.4,11.3,0.9c28.7,34,77.5,74.4,146.3,74.4c47.3,0,90.7-18.8,129-55.9c22.6-21.9,36.6-43.9,41.6-52.4
	c-5-8.6-19.2-30.8-41.9-52.8c-37.9-36.5-80.7-55.2-127.4-55.5c-48.5,0.5-87.8,39.8-88.4,88.2c0.6,47.6,39.4,86.1,87.1,86.1
	c48.1,0,87.2-39.1,87.2-87.2c0-17-5-33.5-14.4-47.8c-2.4-3.7-1.4-8.7,2.3-11.1c3.7-2.4,8.7-1.4,11.1,2.3c11.1,16.9,17,36.4,17,56.6
	c0,56.9-46.3,103.2-103.2,103.2c-55.9,0-101.5-44.7-103.1-100.2c0-0.3,0-0.5,0-0.8c0-0.4,0-0.7,0-1.1c0-0.4,0-0.7,0-1.1
	c0-0.3,0-0.5,0-0.8c0.7-26.8,11.5-51.1,28.8-69.3c-19.2,9.2-37.4,22.2-54.6,38.9c-22.6,21.9-36.6,43.9-41.6,52.4
	c0.8,1.4,1.8,3.1,3.1,5.1c2.3-3.2,6.6-4.3,10.2-2.4c3.9,2,5.4,6.9,3.4,10.8l-5.7,10.9c-1.3,2.5-3.8,4.1-6.6,4.3
	c-2.8,0.2-5.5-1.1-7.1-3.4C87.6,279.1,83,270.4,82.9,270c-1.2-2.3-1.2-5.1,0-7.4c0.6-1.2,16.1-30.6,46.7-60.2
	c40.8-39.5,89.3-60.4,140.1-60.4c0.4,0,0.8,0,1.2,0c0.5,0,1,0,1.5,0c49.8,0.7,97.3,21.6,137.4,60.4c30.6,29.6,46.1,59,46.7,60.2
	c1.2,2.3,1.2,5.1,0,7.4c-0.6,1.2-16.1,30.6-46.7,60.2C369,369.7,320.5,390.6,269.7,390.6z M269.7,284.9c-21.9,0-39.7-17.8-39.7-39.7
	s17.8-39.7,39.7-39.7s39.7,17.8,39.7,39.7S291.6,284.9,269.7,284.9z M269.7,221.5c-13.1,0-23.7,10.6-23.7,23.7s10.6,23.7,23.7,23.7
	s23.7-10.6,23.7-23.7S282.8,221.5,269.7,221.5z M259.1,253.2c-4.4,0-8-3.6-8-8c0-10.2,8.3-18.6,18.6-18.6c4.4,0,8,3.6,8,8
	s-3.6,8-8,8c-1.4,0-2.6,1.2-2.6,2.6C267.1,249.6,263.5,253.2,259.1,253.2z"/>

</symbol>
<symbol id="icon-red_eye_close" viewBox="0 0 50 50">
<g id="red_eye 1">
<path id="Vector" d="M48.3887 28.0371C48.3887 28.4668 48.0371 28.8184 47.6074 28.8184H43.4082C42.9785 28.8184 42.6269 28.4668 42.6269 28.0371C42.6269 27.6074 42.9785 27.2559 43.4082 27.2559H47.6074C48.0469 27.2559 48.3887 27.5977 48.3887 28.0371ZM45.5176 30.1856H38.3105C37.8808 30.1856 37.5293 30.5371 37.5293 30.9668C37.5293 31.3965 37.8808 31.7481 38.3105 31.7481H45.5176C45.9473 31.7481 46.2988 31.3965 46.2988 30.9668C46.2988 30.5371 45.9473 30.1856 45.5176 30.1856ZM42.5879 6.79689H44.1308V8.33986C44.1308 8.76954 44.4824 9.12111 44.9121 9.12111C45.3418 9.12111 45.6933 8.76954 45.6933 8.33986V6.79689H47.2363C47.666 6.79689 48.0176 6.44532 48.0176 6.01564C48.0176 5.58595 47.666 5.23439 47.2363 5.23439H45.6933V3.69142C45.6933 3.26173 45.3418 2.91017 44.9121 2.91017C44.4824 2.91017 44.1308 3.26173 44.1308 3.69142V5.23439H42.5879C42.1582 5.23439 41.8066 5.58595 41.8066 6.01564C41.8066 6.44532 42.1582 6.79689 42.5879 6.79689ZM5.37109 6.30861H4.99023V5.92775C4.99023 5.49806 4.63867 5.1465 4.20898 5.1465C3.7793 5.1465 3.42773 5.49806 3.42773 5.92775V6.30861H3.04687C2.61719 6.30861 2.26562 6.66017 2.26562 7.08986C2.26562 7.51954 2.61719 7.87111 3.04687 7.87111H3.42773V8.25197C3.42773 8.68165 3.7793 9.03322 4.20898 9.03322C4.63867 9.03322 4.99023 8.68165 4.99023 8.25197V7.87111H5.37109C5.80078 7.87111 6.15234 7.51954 6.15234 7.08986C6.15234 6.66017 5.80078 6.30861 5.37109 6.30861ZM4.91211 19.9024C4.33594 19.9024 3.85742 20.3711 3.85742 20.957C3.85742 21.5332 4.32617 22.0117 4.91211 22.0117C5.49805 22.0117 5.9668 21.543 5.9668 20.957C5.9668 20.3711 5.49805 19.9024 4.91211 19.9024ZM4.91211 26.7383C4.33594 26.7383 3.85742 27.207 3.85742 27.793C3.85742 28.3692 4.32617 28.8477 4.91211 28.8477C5.49805 28.8477 5.9668 28.3789 5.9668 27.793C5.9668 27.207 5.49805 26.7383 4.91211 26.7383ZM4.91211 32.6953C4.33594 32.6953 3.85742 33.1641 3.85742 33.75C3.85742 34.3262 4.32617 34.8047 4.91211 34.8047C5.49805 34.8047 5.9668 34.336 5.9668 33.75C5.9668 33.1641 5.49805 32.6953 4.91211 32.6953Z" fill="black"/>
<g id="Group">
<path id="Vector_2" d="M4.42383 40.5469V48.0957H2.32422V40.5469H4.42383Z" fill="#FF7593"/>
<path id="Vector_3" d="M44.7754 41.9727V38.584H48.1641V41.9727H44.7754ZM48.1641 47.0703V43.6816H44.7754V47.0703H48.1641ZM42.959 47.0703V43.6816H39.5703V47.0703H42.959Z" fill="#9AF4FD"/>
</g>
<g id="Vector_4">
<path d="M25.3027 46.2988C24.873 46.2988 24.5215 45.9473 24.5215 45.5176V39.4336C24.5215 39.0039 24.873 38.6523 25.3027 38.6523H27.3633C27.793 38.6523 28.1445 39.0039 28.1445 39.4336C28.1445 39.8633 27.793 40.2148 27.3633 40.2148H26.084V45.5176C26.084 45.9473 25.7324 46.2988 25.3027 46.2988ZM36.7871 43.3691C36.5234 43.3691 36.2598 43.2324 36.1133 42.9883L33.3301 38.3008C33.2227 38.1152 33.1934 37.8906 33.252 37.6758C33.3105 37.4609 33.457 37.2949 33.6621 37.1973L35.5176 36.2891C35.9082 36.1035 36.377 36.2598 36.5625 36.6504C36.748 37.041 36.5918 37.5098 36.2012 37.6953L35.1074 38.2324L37.4609 42.1875C37.6855 42.5586 37.5586 43.0371 37.1875 43.2617C37.0605 43.3398 36.9238 43.3691 36.7871 43.3691ZM14.0332 42.4707C13.8965 42.4707 13.7598 42.4316 13.6328 42.3633C13.2617 42.1387 13.1445 41.6602 13.3594 41.2891L16.1426 36.6016C16.3477 36.25 16.7871 36.123 17.1582 36.2988L19.0137 37.207C19.4043 37.3926 19.5605 37.8613 19.375 38.252C19.1895 38.6426 18.7207 38.7988 18.3301 38.6133L17.1191 38.0273L14.6973 42.0996C14.5508 42.334 14.2969 42.4707 14.0332 42.4707Z" fill="black"/>
<path d="M26.3379 38.1445C19.0137 38.1445 13.877 33.8867 10.8594 30.3223C10.5762 29.9902 10.625 29.5019 10.9473 29.2187C11.2793 28.9355 11.7676 28.9844 12.0508 29.3066C14.8535 32.6269 19.6191 36.5723 26.3379 36.5723C30.957 36.5723 35.1953 34.7363 38.9355 31.1133C41.1426 28.9746 42.5098 26.8262 42.998 25.9961C42.5098 25.1562 41.123 22.9883 38.9062 20.8398C35.2051 17.2754 31.0254 15.4492 26.4648 15.4199C22.6263 15.4121 19.9436 16.5234 19.082 17.0801C17.207 17.9785 15.4297 19.248 13.75 20.8789C11.543 23.0176 10.1758 25.166 9.6875 25.9961C9.76562 26.1328 9.86328 26.2988 9.99023 26.4941C10.2148 26.1816 10.6348 26.0742 10.9863 26.2598C11.3672 26.4551 11.5137 26.9336 11.3184 27.3145L10.7617 28.3789C10.6348 28.623 10.3906 28.7793 10.1172 28.7988C9.84375 28.8184 9.58008 28.6914 9.42383 28.4668C8.55469 27.2559 8.10547 26.4062 8.0957 26.3672C7.97852 26.1426 7.97852 25.8691 8.0957 25.6445C8.1543 25.5273 9.66797 22.6562 12.6563 19.7656C16.6406 15.9082 21.377 13.8672 26.3379 13.8672H26.4551H26.6016C31.4648 13.9355 36.1035 15.9766 40.0195 19.7656C43.0078 22.6562 44.5215 25.5273 44.5801 25.6445C44.6973 25.8691 44.6973 26.1426 44.5801 26.3672C44.5215 26.4844 43.0078 29.3555 40.0195 32.2461C36.0352 36.1035 31.2988 38.1445 26.3379 38.1445Z" fill="black"/>
</g>
</g>

</symbol>
<symbol id="icon-settings" viewBox="0 0 512 512">
<linearGradient id="SVGID_1_" gradientUnits="userSpaceOnUse" x1="132.8805" y1="255.9986" x2="477.3585" y2="255.9986" class="gradient-element">
	<stop offset="0" class="primary-color-gradient" style="stop-color: #FF7593"/>
	<stop offset="1" class="secondary-color-gradient" style="stop-color: #9AF4FD"/>
</linearGradient>
<path fill="url(#SVGID_1_)" d="M434.9,256c0-19.4-3.2-38-8.9-55.4l51.4-21.3l-10.5-25.4l-51.5,21.3c-17.2-33.7-44.7-61.2-78.4-78.4
	l21.3-51.5l-25.4-10.5l-21.3,51.4c-9.9-3.2-20.1-5.7-30.6-7.2c-0.1,0-0.2,0-0.2,0c-13.1-1.8-24.8,8.4-24.8,21.7v66.8
	c0,7.6,4.2,14.6,10.9,18.1c21,11.2,65.1-4.2,65.1,70.3c0,41.8-34,75.8-75.8,75.8H256v0c0,33.9,0.2,52.1-37.8,52.1h-74.6
	c-9.9,0-14.5-2.2-7.1,4.4c11.7,10.6,24.7,19.6,38.9,26.8l-21.3,51.5l25.4,10.5l21.3-51.4c17.5,5.7,36.1,8.9,55.4,8.9
	c19.4,0,38-3.2,55.4-8.9l21.3,51.4l25.4-10.5L337,415.2c33.7-17.2,61.2-44.7,78.4-78.4l51.5,21.3l10.5-25.4L426,311.5
	C431.7,294,434.9,275.4,434.9,256z"/>
<path d="M256.2,172.2c-46.2,0-83.8,37.6-83.8,83.8c0,46.2,37.6,83.8,83.8,83.8c46.2,0,83.8-37.6,83.8-83.8
	C340,209.8,302.4,172.2,256.2,172.2z M256.2,323.8c-37.4,0-67.8-30.4-67.8-67.8s30.4-67.8,67.8-67.8S324,218.6,324,256
	S293.6,323.8,256.2,323.8z M305.4,256c0,27.2-22.1,49.2-49.2,49.2S207,283.1,207,256c0-27.1,22.1-49.2,49.2-49.2c4.4,0,8,3.6,8,8
	s-3.6,8-8,8c-18.3,0-33.2,14.9-33.2,33.2c0,18.3,14.9,33.2,33.2,33.2s33.2-14.9,33.2-33.2c0-4.4,3.6-8,8-8S305.4,251.6,305.4,256z
	 M138.6,45.5c-1.7-4.1,0.2-8.8,4.3-10.5l33.8-14.2c2-0.8,4.2-0.8,6.1,0c2,0.8,3.5,2.3,4.4,4.3l21.3,50.4c15.5-4.1,31.6-6.2,47.8-6.2
	c15.3,0,30.4,1.9,45.1,5.5l20.6-50.6c1.7-4.1,6.3-6.1,10.4-4.4l33.9,13.8c2,0.8,3.5,2.3,4.4,4.3c0.8,2,0.8,4.2,0,6.1l-20.6,50.6
	c27.2,15.9,49.9,38.2,66.2,65.3l50.3-21.2c4.1-1.7,8.8,0.2,10.5,4.3l14.2,33.8c0.8,2,0.8,4.2,0,6.1c-0.8,2-2.3,3.5-4.3,4.4
	l-50.2,21.2c2.5,9.4,4.2,19,5.2,28.7c0.4,4.4-2.8,8.3-7.1,8.8c-0.3,0-0.5,0-0.8,0c-4.1,0-7.5-3.1-7.9-7.2c-1.1-11-3.3-22-6.6-32.6
	c-1.2-3.9,0.8-8.1,4.5-9.7l49.4-20.8l-8-19L416,177.3c-3.8,1.6-8.1,0.1-10.1-3.5c-16.1-29.2-40.2-53-69.6-68.6
	c-3.6-1.9-5.2-6.3-3.6-10.1l20.2-49.8l-19.1-7.8l-20.2,49.8c-1.5,3.8-5.7,5.8-9.6,4.7c-15.4-4.5-31.5-6.8-47.6-6.8
	c-17,0-33.9,2.5-50.1,7.5c-3.9,1.2-8.1-0.8-9.7-4.5l-20.9-49.6l-26.4,11.1C145.1,51.4,140.4,49.5,138.6,45.5z M492.3,332.3
	l-13.8,33.9c-0.8,2-2.3,3.5-4.3,4.4c-2,0.8-4.2,0.8-6.1,0l-50.6-20.6c-15.9,27.2-38.3,49.9-65.4,66.1l21.2,50.4c0.8,2,0.8,4.2,0,6.1
	c-0.8,2-2.3,3.5-4.3,4.4l-33.8,14.2c-4.1,1.7-8.8-0.2-10.5-4.3l-21.2-50.4c-15.4,4.1-31.4,6.1-47.4,6.1c-15.4,0-30.6-1.9-45.5-5.6
	l-20.6,50.7c-1.3,3.1-4.3,5-7.4,5c-1,0-2-0.2-3-0.6l-33.9-13.8c-2-0.8-3.5-2.3-4.4-4.3c-0.8-2-0.8-4.2,0-6.1l20.7-50.8
	c-27.1-15.9-49.7-38.2-65.9-65.2l-50.6,21.3c-4.1,1.7-8.8-0.2-10.5-4.3l-14.2-33.8c-0.8-2-0.8-4.2,0-6.1c0.8-2,2.3-3.5,4.3-4.4
	l50.6-21.3c-4.1-15.5-6.1-31.4-6.1-47.5c0-15.3,1.9-30.5,5.5-45.2l-50.9-20.7c-4.1-1.7-6.1-6.3-4.4-10.4l13.8-33.9
	c0.8-2,2.3-3.5,4.3-4.4c2-0.8,4.2-0.8,6.1,0L94.9,162c8.1-13.8,17.9-26.6,29.3-38c3.1-3.1,8.2-3.1,11.3,0c0,0,0,0,0,0c0,0,0,0,0,0
	l19.4,19.4c3.1,3.1,3.1,8.2,0,11.3c-1.6,1.6-3.6,2.3-5.7,2.3c-2,0-4.1-0.8-5.7-2.3L130,141.2c-9.6,10.5-17.8,22.2-24.5,34.7
	c-1.9,3.6-6.3,5.2-10.1,3.6l-50-20.3l-7.8,19.1l50,20.3c3.8,1.5,5.8,5.7,4.7,9.6c-4.5,15.5-6.8,31.5-6.8,47.7
	c0,16.9,2.5,33.7,7.4,49.8c1.2,3.9-0.8,8.1-4.5,9.7l-49.7,21l8,19l49.8-21c3.8-1.6,8.1-0.1,10.1,3.5c16,29.2,40,52.9,69.4,68.6
	c3.6,1.9,5.2,6.3,3.6,10.1l-20.3,50l19.1,7.8l20.3-49.9c1.5-3.8,5.7-5.8,9.7-4.7c15.5,4.6,31.7,6.9,48,6.9c16.9,0,33.6-2.5,49.7-7.4
	c3.9-1.2,8.1,0.8,9.7,4.5l20.9,49.5l19-8l-20.9-49.5c-1.6-3.8-0.1-8.1,3.5-10.1c29.2-16.1,53-40.1,68.7-69.5
	c1.9-3.6,6.3-5.2,10.1-3.6l49.7,20.2l7.8-19.1l-49.6-20.2c-3.8-1.5-5.8-5.7-4.7-9.7c2.9-9.9,4.9-20.1,5.9-30.4
	c0.4-4.4,4.4-7.6,8.8-7.1c4.4,0.4,7.6,4.4,7.1,8.8c-0.9,8.8-2.5,17.6-4.6,26.3l50.5,20.5C492,323.6,493.9,328.2,492.3,332.3z"/>
<g>
	<path fill="#9AF4FD" class="secondary-color" d="M68.9,70.8v21.8H11.9V70.8H68.9z M107,70.8v21.8H164V70.8H107z"/>
	<path fill="#FF7593" class="primary-color" d="M116.5,29v21.8H59.6V29H116.5z"/>
</g>
<path d="M473.8,420.1c-5,0-9,4.1-9,9s4.1,9,9,9s9-4.1,9-9S478.8,420.1,473.8,420.1z M440.3,92.1c14.6,0,26.4-11.8,26.4-26.4
	s-11.8-26.4-26.4-26.4s-26.4,11.8-26.4,26.4S425.7,92.1,440.3,92.1z M440.3,55.3c5.7,0,10.4,4.7,10.4,10.4c0,5.7-4.7,10.4-10.4,10.4
	s-10.4-4.7-10.4-10.4C429.9,60,434.6,55.3,440.3,55.3z M501.4,239.3c0,4.4-3.6,8-8,8H371.3c-4.4,0-8-3.6-8-8s3.6-8,8-8h122.1
	C497.8,231.3,501.4,234.9,501.4,239.3z M469.5,282.3h-82.8c-4.4,0-8-3.6-8-8s3.6-8,8-8h82.8c4.4,0,8,3.6,8,8
	S473.9,282.3,469.5,282.3z M482.8,467.3c0,4.4-3.6,8-8,8h-62.1c-4.4,0-8-3.6-8-8s3.6-8,8-8h62.1
	C479.2,459.3,482.8,462.9,482.8,467.3z M154.8,399.3c0,4.4-3.6,8-8,8H34c-4.4,0-8-3.6-8-8s3.6-8,8-8h112.8
	C151.2,391.3,154.8,394.9,154.8,399.3z M434.8,429.1c0,5,4.1,9,9,9s9-4.1,9-9s-4.1-9-9-9S434.8,424.2,434.8,429.1z M404.8,429.1
	c0,5,4.1,9,9,9s9-4.1,9-9s-4.1-9-9-9S404.8,424.2,404.8,429.1z"/>

</symbol>
<symbol id="icon-settings_1" viewBox="0 0 512 512">
<g>
	
		<linearGradient id="SVGID_1_" gradientUnits="userSpaceOnUse" x1="96.4173" y1="177.075" x2="322.0933" y2="177.075" gradientTransform="matrix(0.9185 0.3954 -0.3954 0.9185 84.4365 -55.5819)" class="gradient-element">
		<stop offset="0" class="primary-color-gradient" style="stop-color: #FF7593"/>
		<stop offset="1" class="secondary-color-gradient" style="stop-color: #9AF4FD"/>
	</linearGradient>
	<path fill="url(#SVGID_1_)" d="M284.7,223.4c5-11.6,7.9-23.7,9-35.7l36.4,0.5l0.2-18l-36.5-0.5c-1.6-24.7-11-48.4-26.9-67.5
		l26.2-25.4l-12.6-12.9l-26.1,25.4c-5.1-4.5-10.6-8.6-16.6-12.2c0,0-0.1-0.1-0.1-0.1c-7.4-4.5-17.1-1.4-20.5,6.6L200,123.8
		c-2,4.6-1.3,9.8,1.8,13.7c9.7,12.2,40.3,14.3,21,59.2c-10.8,25.1-40.1,36.8-65.2,26l-0.1-0.1l0,0c-8.8,20.4-13.4,31.4-36.3,21.6
		l-44.9-19.3c-5.9-2.6-8.1-5.1-5.5,0.8c4.3,9.4,9.8,18.2,16.5,26.2l-26.2,25.4l12.6,12.9l26.1-25.4c9,8,19.4,14.7,31.1,19.7
		c11.7,5,23.7,7.9,35.7,9l-0.5,36.4l18,0.2l0.5-36.5c24.7-1.6,48.4-11,67.5-26.9l25.4,26.2l12.9-12.6L265,254.5
		C273,245.4,279.7,235.1,284.7,223.4z"/>
	
		<linearGradient id="SVGID_2_" gradientUnits="userSpaceOnUse" x1="306.9166" y1="367.5029" x2="484.5382" y2="367.5029" gradientTransform="matrix(0.9741 -0.2259 0.2259 0.9741 -73.8525 92.6825)">
		<stop offset="0" class="primary-color-gradient" style="stop-color: #FF7593"/>
		<stop offset="1" class="secondary-color-gradient" style="stop-color: #9AF4FD"/>
	</linearGradient>
	<path fill="url(#SVGID_2_)" d="M459.9,346.2c-2.3-9.7-6-18.7-10.9-26.8l23.3-16.7l-8.2-11.5l-23.4,16.7
		c-12.6-14.9-29.6-25.5-48.5-30.2l4.7-28.3l-14-2.3l-4.7,28.3c-5.3-0.5-10.7-0.5-16.2,0c0,0-0.1,0-0.1,0c-6.8,0.6-11.5,7.1-9.9,13.8
		l7.8,33.6c0.9,3.8,3.8,6.8,7.6,7.8c11.8,3.2,32.2-9.7,40.9,27.7c4.9,21-8.2,42-29.2,46.9l-0.1,0l0,0c4,17,6.2,26.2-12.9,30.6
		l-37.5,8.7c-5,1.2-7.5,0.6-3.1,3.1c7.1,3.9,14.7,7,22.7,8.9l-4.7,28.3l14,2.3l4.7-28.3c9.4,0.8,19.2,0.3,28.9-2
		c9.7-2.3,18.7-6,26.8-10.9l16.7,23.3l11.5-8.2l-16.7-23.4c14.9-12.6,25.5-29.6,30.2-48.5l28.3,4.7l2.3-14l-28.3-4.7
		C462.7,365.6,462.1,355.9,459.9,346.2z"/>
</g>
<path d="M200,124.2c-29.2-12.6-63.2,1-75.7,30.1c-12.6,29.2,1,63.2,30.1,75.7h0c7.4,3.2,15.1,4.7,22.7,4.7c22.3,0,43.6-13.1,53-34.8
	C242.7,170.7,229.2,136.8,200,124.2z M215.4,193.6c-9.1,21.1-33.6,30.9-54.7,21.8h0c-21.1-9.1-30.9-33.6-21.8-54.7
	c9.1-21.1,33.6-30.9,54.7-21.8c10.2,4.4,18.1,12.5,22.2,22.8C220,172.1,219.8,183.4,215.4,193.6z M209.4,191
	c-5.7,13.2-18.6,21.2-32.2,21.2c-4.6,0-9.3-0.9-13.8-2.9c-8.6-3.7-15.2-10.5-18.7-19.2c-3.5-8.7-3.3-18.2,0.4-26.8
	c3.7-8.6,10.5-15.2,19.2-18.7c8.7-3.5,18.2-3.3,26.8,0.4c4.1,1.7,5.9,6.5,4.2,10.5c-1.7,4.1-6.5,5.9-10.5,4.2
	c-4.7-2-9.8-2.1-14.5-0.2c-4.7,1.9-8.4,5.5-10.4,10.1c-2,4.7-2.1,9.8-0.2,14.5c1.9,4.7,5.5,8.4,10.1,10.4c9.6,4.1,20.8-0.3,25-9.9
	c1.7-4.1,6.5-5.9,10.5-4.2C209.2,182.2,211.1,186.9,209.4,191z M158.2,20c0-4.4,3.6-7.9,8-7.9c0,0,0,0,0.1,0l24,0.2
	c2.1,0,4.2,0.9,5.6,2.4c1.5,1.5,2.3,3.6,2.3,5.7L198,53.7c9.8,1.7,19.5,4.5,28.7,8.5c8.6,3.7,16.8,8.4,24.4,13.9l23.8-23.5
	c3.1-3.1,8.2-3.1,11.3,0.1L303,69.8c1.5,1.5,2.3,3.6,2.3,5.7c0,2.1-0.9,4.1-2.4,5.6l-23.8,23.5c11.3,15.9,18.7,34.1,21.7,53.4
	l33.4,0.2c2.1,0,4.2,0.9,5.6,2.4c1.5,1.5,2.3,3.6,2.3,5.7l-0.2,24c0,2.1-0.9,4.1-2.4,5.6c-1.5,1.5-3.5,2.3-5.6,2.3c0,0,0,0-0.1,0
	l-33.3-0.2c-1,5.6-2.3,11.2-4,16.7c-1.1,3.4-4.2,5.6-7.6,5.6c-0.8,0-1.6-0.1-2.4-0.4c-4.2-1.3-6.6-5.8-5.2-10
	c2.1-6.8,3.6-13.7,4.4-20.8c0.4-4.1,3.9-7.1,8-7.1c0,0,0,0,0.1,0l32.3,0.2l0.1-8l-32.4-0.2c-4.1,0-7.5-3.1-7.9-7.2
	c-2.1-21.2-10.2-41.2-23.5-57.9c-2.6-3.2-2.3-7.8,0.6-10.7L286,75.4l-5.6-5.7l-23.1,22.8c-2.9,2.9-7.5,3.1-10.7,0.5
	c-7.9-6.5-16.7-11.9-26.2-16c-10-4.3-20.5-7.1-31.3-8.2c-4.1-0.4-7.2-3.9-7.1-8l0.2-32.5l-16-0.1C161.8,28,158.2,24.4,158.2,20z
	 M249.6,279.1c-15.9,11.3-34.1,18.6-53.4,21.6l-0.2,33.4c0,2.1-0.9,4.2-2.4,5.6c-1.5,1.5-3.5,2.3-5.6,2.3c0,0,0,0-0.1,0l-24-0.2
	c-2.1,0-4.1-0.9-5.6-2.4c-1.5-1.5-2.3-3.6-2.3-5.7l0.2-33.4c-9.8-1.7-19.3-4.5-28.4-8.4c-8.7-3.8-17-8.5-24.6-14.1l-23.9,23.5
	c-1.5,1.5-3.5,2.3-5.7,2.3c-2.1,0-4.2-0.9-5.6-2.4l-16.8-17.1c-3.1-3.1-3.1-8.2,0.1-11.3l23.9-23.6c-11.2-15.9-18.6-34.1-21.6-53.3
	L20,195.9c-2.1,0-4.1-0.9-5.6-2.4c-1.5-1.5-2.3-3.6-2.3-5.7l0.2-24c0-4.4,3.6-8,8.1-7.9l33.6,0.2c1.7-9.8,4.5-19.3,8.4-28.5
	c3.7-8.7,8.4-16.9,14-24.4L52.7,79.3c-1.5-1.5-2.3-3.6-2.3-5.7c0-2.1,0.9-4.1,2.4-5.6l17.1-16.8c1.5-1.5,3.5-2.3,5.6-2.3
	c0,0,0,0,0.1,0c2.1,0,4.1,0.9,5.6,2.4l23.6,23.9c8.1-5.7,16.9-10.5,26.1-14.2c4.1-1.6,8.8,0.4,10.4,4.5c0,0,0,0,0,0c0,0,0,0,0,0
	l6.7,16.7c1.6,4.1-0.4,8.8-4.5,10.4c-1,0.4-2,0.6-3,0.6c-3.2,0-6.2-1.9-7.4-5l-3.6-9c-7.3,3.5-14.2,7.9-20.5,13
	c-3.2,2.6-7.8,2.3-10.7-0.6L75.4,68.2l-5.7,5.6L92.5,97c2.9,2.9,3.1,7.5,0.5,10.7c-6.6,7.9-11.9,16.8-16,26.3
	c-4.3,9.9-7,20.4-8.2,31.1c-0.4,4.1-3.9,7.2-8,7.1L28.1,172l-0.1,8l32.6,0.2c4.1,0,7.5,3.2,7.9,7.2c2.1,21.2,10.1,41.2,23.4,57.8
	c2.5,3.2,2.3,7.8-0.6,10.7l-23.2,22.9l5.6,5.7l23.2-22.8c2.9-2.9,7.6-3.1,10.7-0.5c8,6.6,16.9,12,26.4,16.1c9.9,4.3,20.4,7,31,8.2
	c4.1,0.5,7.1,3.9,7.1,8L172,326l8,0.1l0.2-32.4c0-4.1,3.2-7.5,7.2-7.9c21.2-2,41.3-10.2,57.9-23.4c3.2-2.6,7.8-2.3,10.7,0.6
	l22.7,23.1l5.7-5.6l-22.7-23c-2.9-2.9-3.1-7.6-0.5-10.7c4.2-5.1,8-10.6,11.2-16.3c2.2-3.9,7-5.2,10.9-3.1c3.9,2.2,5.2,7,3.1,10.9
	c-2.5,4.5-5.3,8.9-8.4,13l11.5,11.7l10.8-7.9c1.7-1.2,3.9-1.8,6-1.4c2.1,0.3,4,1.5,5.2,3.2l14.6,20.2c6.7-3.3,13.9-5.8,21.2-7.5
	c6.9-1.6,13.9-2.5,20.9-2.6l3.9-24.6c0.3-2.1,1.5-4,3.2-5.2c1.7-1.2,3.9-1.8,6-1.4l18.7,3c4.4,0.7,7.3,4.8,6.6,9.2l-3.9,24.6
	c13.8,4.8,26.4,12.5,36.9,22.6l20.1-14.6c3.6-2.6,8.6-1.8,11.2,1.8l11.1,15.3c2.6,3.6,1.8,8.6-1.8,11.2l-20.1,14.5
	c1.8,3.7,3.4,7.5,4.7,11.3c1.4,4.2-0.8,8.7-5,10.2c-0.9,0.3-1.7,0.4-2.6,0.4c-3.3,0-6.4-2.1-7.6-5.4c-1.8-5.2-4.1-10.2-6.8-14.9
	c-2.1-3.5-1.1-8.1,2.2-10.5l19.2-13.9l-1.7-2.3l-19.3,14c-3.3,2.4-7.9,1.9-10.6-1.1c-11-12.2-25.2-21-41.1-25.2
	c-4-1.1-6.5-4.9-5.8-9l3.8-23.5l-2.9-0.5l-3.8,23.5c-0.6,4-4.2,6.9-8.3,6.7c-7.9-0.4-15.9,0.3-23.6,2.1c-8.2,1.9-16,5-23.2,9.2
	c-3.6,2.1-8.1,1.1-10.5-2.2l-14-19.3l-2.4,1.7l0.5,0.5c1.5,1.5,2.3,3.6,2.3,5.7c0,2.1-0.9,4.2-2.4,5.6L284.3,303
	c-1.5,1.5-3.5,2.3-5.6,2.3c0,0,0,0-0.1,0c-2.1,0-4.2-0.9-5.6-2.4L249.6,279.1z M359.5,321.1c-12.2,2.8-22.6,10.3-29.3,21
	s-8.8,23.3-5.9,35.5c2.8,12.2,10.3,22.6,21,29.3c7.6,4.7,16.1,7.2,24.8,7.2c3.6,0,7.1-0.4,10.7-1.2c25.3-5.9,41.1-31.2,35.2-56.5
	C410.1,331.1,384.8,315.3,359.5,321.1z M377.1,397.2c-16.7,3.9-33.4-6.6-37.3-23.2c-1.9-8.1-0.5-16.4,3.9-23.4
	c4.4-7.1,11.3-12,19.3-13.8c2.3-0.5,4.7-0.8,7-0.8c5.7,0,11.4,1.6,16.4,4.7c7.1,4.4,12,11.3,13.8,19.3
	C404.2,376.6,393.8,393.4,377.1,397.2z M501.4,378.4l-3,18.7c-0.7,4.4-4.8,7.3-9.2,6.6l-24.5-3.9c-4.8,13.8-12.5,26.4-22.7,36.9
	l14.6,20.1c1.2,1.7,1.8,3.9,1.4,6c-0.3,2.1-1.5,4-3.2,5.2l-15.3,11.1c-3.6,2.6-8.6,1.8-11.2-1.8l-14.6-20.1
	c-6.7,3.2-13.7,5.7-21,7.4c-6.9,1.6-14,2.5-21.1,2.6l-3.9,24.6c-0.6,3.9-4,6.7-7.9,6.7c-0.4,0-0.8,0-1.3-0.1l-18.7-3
	c-4.4-0.7-7.3-4.8-6.6-9.2l3.9-24.7c-13.8-4.8-26.3-12.5-36.8-22.6l-20.3,14.7c-1.7,1.2-3.9,1.8-6,1.4c-2.1-0.3-4-1.5-5.2-3.2
	l-11.1-15.3c-2.6-3.6-1.8-8.6,1.8-11.2l20.2-14.7c-3.3-6.7-5.8-13.8-7.4-21.1c-1.6-6.9-2.5-13.9-2.6-20.9l-24.7-3.9
	c-2.1-0.3-4-1.5-5.2-3.2c-1.2-1.7-1.8-3.9-1.4-6l3-18.7c0.7-4.4,4.8-7.3,9.2-6.6l24.7,3.9c2.5-7.1,5.7-13.8,9.7-20.2
	c2.3-3.8,7.3-4.9,11-2.6c0,0,0,0,0,0c0,0,0,0,0,0l12,7.5c3.7,2.3,4.9,7.3,2.6,11c-1.5,2.4-4.1,3.8-6.8,3.8c-1.4,0-2.9-0.4-4.2-1.2
	l-4.9-3.1c-2.5,5.1-4.5,10.3-6,15.8c-1.1,4-4.9,6.5-9,5.8l-23.7-3.8l-0.5,2.9l23.7,3.8c4,0.6,7,4.3,6.7,8.3
	c-0.4,7.9,0.2,15.9,2.1,23.7c1.9,8.1,5,15.9,9.1,23.1c2.1,3.6,1.1,8.1-2.2,10.5l-19.4,14.1l1.7,2.3l19.4-14.1
	c3.3-2.4,7.9-1.9,10.6,1.1c11,12.2,25.1,20.9,41,25.2c4,1.1,6.5,4.9,5.8,9l-3.8,23.6l2.9,0.5l3.8-23.6c0.6-4.1,4.3-6.9,8.4-6.7
	c8,0.5,16-0.2,23.8-2c8.1-1.9,15.9-4.9,23-9.1c3.6-2.1,8.1-1.1,10.5,2.2l14,19.3l2.3-1.7l-14-19.3c-2.4-3.3-1.9-7.9,1.1-10.7
	c12.3-11,21-25.2,25.3-41.1c1.1-4,4.9-6.5,9-5.8l23.5,3.8l0.5-2.9l-23.5-3.7c-4.1-0.6-7-4.3-6.7-8.4c0.3-5.1,0.1-10.2-0.5-15.2
	c-0.6-4.4,2.5-8.4,6.9-8.9c4.4-0.6,8.4,2.5,8.9,6.9c0.5,3.6,0.7,7.3,0.8,10.9l24.5,3.9c2.1,0.3,4,1.5,5.2,3.2
	C501.2,374.2,501.7,376.3,501.4,378.4z"/>
<g>
	<path fill="#9AF4FD" class="secondary-color" d="M40.9,445.5v-21.8h56.9v21.8H40.9z M239,487.5v-21.8H182v21.8H239z"/>
	<path fill="#FF7593" class="primary-color" d="M88.6,487.3v-21.8h56.9v21.8H88.6z"/>
</g>
<path d="M482.8,67.1c0-5-4.1-9-9-9s-9,4.1-9,9s4.1,9,9,9S482.8,72.1,482.8,67.1z M50.3,315.2c-14.6,0-26.4,11.8-26.4,26.4
	S35.7,368,50.3,368s26.4-11.8,26.4-26.4S64.8,315.2,50.3,315.2z M50.3,352c-5.7,0-10.4-4.7-10.4-10.4s4.7-10.4,10.4-10.4
	s10.4,4.7,10.4,10.4S56,352,50.3,352z M501.4,209c0,4.4-3.6,8-8,8H371.3c-4.4,0-8-3.6-8-8s3.6-8,8-8h122.1
	C497.8,201,501.4,204.6,501.4,209z M386.7,166h82.8c4.4,0,8,3.6,8,8s-3.6,8-8,8h-82.8c-4.4,0-8-3.6-8-8S382.3,166,386.7,166z
	 M404.8,29c0-4.4,3.6-8,8-8h62.1c4.4,0,8,3.6,8,8s-3.6,8-8,8h-62.1C408.3,37,404.8,33.4,404.8,29z M89.8,29c0,4.4-3.6,8-8,8H29.8
	c-4.4,0-8-3.6-8-8s3.6-8,8-8h52.1C86.2,21,89.8,24.6,89.8,29z M401.3,114.2H305c-4.4,0-8-3.6-8-8s3.6-8,8-8h96.3c4.4,0,8,3.6,8,8
	S405.7,114.2,401.3,114.2z M452.8,67.1c0-5-4.1-9-9-9s-9,4.1-9,9s4.1,9,9,9S452.8,72.1,452.8,67.1z M413.8,76.2c5,0,9-4.1,9-9
	s-4.1-9-9-9s-9,4.1-9,9S408.8,76.2,413.8,76.2z"/>

</symbol>
<symbol id="icon-shopping" viewBox="0 0 512 512">
<linearGradient id="SVGID_1_" gradientUnits="userSpaceOnUse" x1="269.4691" y1="391.7135" x2="269.4691" y2="112.3794" class="gradient-element">
	<stop offset="0" class="primary-color-gradient" style="stop-color: #FF7593"/>
	<stop offset="1" class="secondary-color-gradient" style="stop-color: #9AF4FD"/>
</linearGradient>
<path fill="url(#SVGID_1_)" d="M289,112.9l1,93.5c0.1,2.4-1.8,4.5-4.2,4.5h-33.5c-2.3,0-4.1-1.8-4.2-4.1l-0.3-78.3
	c-0.5-10.7,7.9-19.7,18.5-19.7h18.5C287,108.8,288.9,110.6,289,112.9z M381.9,214.3v-72.1c0-2.3-1.9-4.2-4.2-4.2h-16.1
	c-12,0-21.6,9.7-21.6,21.6v54.7c0,2.3,1.9,4.2,4.2,4.2h32.4c2.3,0,4.2,1.9,4.2,4.2v32.4c0,2.3-1.9,4.2-4.2,4.2l-1.5,0l-16.5,99.6
	c-1.6,8.3-7.1,14.2-33.4,14.2H120.4c-2.6,0-4.6,2.4-4.1,5l0.2,1.2c1.6,8.3,8.8,14.2,17.2,14.2h233.4c8.4,0,15.6-6,17.2-14.2
	l22.2-116.6c0.4-2,2.1-3.4,4.1-3.4h7.9c2.3,0,4.2-1.9,4.2-4.2v-32.4c0-2.3-1.9-4.2-4.2-4.2h-32.4
	C383.8,218.5,381.9,216.6,381.9,214.3z"/>
<g>
	<path fill="#FF7593" class="primary-color" d="M418.9,29h27.4v27.4h-27.4V29z M487.6,56.4V29h-27.4v27.4H487.6z M487.6,98.6V71.2h-27.4v27.4H487.6z"/>
	<path fill="#FF7593" class="primary-color" d="M16.3,24.5h21.8v86.7H16.3V24.5z"/>
	<path fill="#9AF4FD" class="secondary-color" d="M49.7,24.5h21.8v86.7H49.7V24.5z"/>
</g>
<path d="M88.1,449.1h-55c-4.4,0-8-3.6-8-8s3.6-8,8-8h55c4.4,0,8,3.6,8,8S92.5,449.1,88.1,449.1z M141.5,466.7H48.5c-4.4,0-8,3.6-8,8
	s3.6,8,8,8h92.9c4.4,0,8-3.6,8-8S145.9,466.7,141.5,466.7z M481.5,143.6c-4.2-4.2-11-4.2-15.2,0c-4.2,4.2-4.2,11,0,15.2
	s11,4.2,15.2,0C485.7,154.6,485.7,147.8,481.5,143.6z M464.8,456h-3.9v-3.9c0-4.4-3.6-8-8-8s-8,3.6-8,8v3.9H441c-4.4,0-8,3.6-8,8
	s3.6,8,8,8h3.9v3.9c0,4.4,3.6,8,8,8s8-3.6,8-8V472h3.9c4.4,0,8-3.6,8-8S469.2,456,464.8,456z M52.8,281c-4.4,0-8,3.6-8,8s3.6,8,8,8
	h46.4c4.4,0,8-3.6,8-8s-3.6-8-8-8H52.8z M439.3,379.3c0-4.4-3.6-8-8-8c0,0,0,0,0,0l-47,0c-4.4,0-8,3.6-8,8c0,4.4,3.6,8,8,8
	c0,0,0,0,0,0l47,0C435.7,387.3,439.3,383.7,439.3,379.3z M439.3,100.2c0-4.4-3.6-8-8-8h-92.9c-4.4,0-8,3.6-8,8s3.6,8,8,8h92.9
	C435.7,108.2,439.3,104.6,439.3,100.2z M38.7,193.3h80.6c4.4,0,8-3.6,8-8s-3.6-8-8-8H38.7c-4.4,0-8,3.6-8,8S34.3,193.3,38.7,193.3z
	 M426.5,319.2c0,14.6,11.8,26.4,26.4,26.4c4.4,0,8-3.6,8-8s-3.6-8-8-8c-5.7,0-10.4-4.7-10.4-10.4s4.7-10.4,10.4-10.4
	c4.4,0,8-3.6,8-8s-3.6-8-8-8C438.3,292.8,426.5,304.6,426.5,319.2z"/>
<path d="M422.8,210.5h-32.8V131c0-4.4-3.6-8-8-8h-84.7l1-20.8c0.1-2.2-0.7-4.3-2.2-5.9s-3.6-2.5-5.8-2.5h-83.3c-4.4,0-8,3.6-8,8
	v50.4h-79.5c-4.4,0-8,3.6-8,8v50.4H78.5c-4.4,0-8,3.6-8,8v40.8c0,4.4,3.6,8,8,8H87l21.6,113.5c2.3,12,12.8,20.7,25.1,20.7h233.4
	c12.2,0,22.8-8.7,25-20.7l21.6-113.5h9c4.4,0,8-3.6,8-8v-40.8C430.8,214.1,427.2,210.5,422.8,210.5z M373.9,139v71.5H293l3.4-71.5
	H373.9z M214.9,109.8h67l-1,20.8c0,0,0,0,0,0l-3.8,79.9h-62.2v-50.4V109.8z M127.3,168.2h71.5v42.4h-71.5V168.2z M86.5,226.5h32.8
	h87.5h77.8h97.3h32.8v24.8h-7.6c0,0,0,0,0,0H93.6c0,0,0,0,0,0h-7.1V226.5z M325,267.4h40.7l-13.9,83.2h-31.4L325,267.4z
	 M186.7,350.6h-31.4l-13.9-83.2h40.7L186.7,350.6z M273.9,267.4l-4.6,83.2h-31.6l-4.6-83.2H273.9z M376.4,377.9
	c-0.9,4.5-4.8,7.7-9.3,7.7H133.7c-4.6,0-8.5-3.2-9.3-7.7l-21-110.5h21.9l15.4,92.5c0.6,3.9,4,6.7,7.9,6.7h46.7
	c2.2,0,4.3-0.9,5.8-2.5c1.5-1.6,2.3-3.7,2.2-5.9l-5-90.8h19l5.1,91.6c0.2,4.2,3.7,7.6,8,7.6h46.7c4.2,0,7.8-3.3,8-7.6l5.1-91.6h19
	l-5,90.8c-0.1,2.2,0.7,4.3,2.2,5.9c1.5,1.6,3.6,2.5,5.8,2.5h46.7c3.9,0,7.2-2.8,7.9-6.7l15.4-92.5h15.6L376.4,377.9z"/>

</symbol>
<symbol id="icon-shopping_car" viewBox="0 0 512 512">
<linearGradient id="SVGID_1_" gradientUnits="userSpaceOnUse" x1="339.2942" y1="349.164" x2="339.2942" y2="178.1726" class="gradient-element">
	<stop offset="0" class="primary-color-gradient" style="stop-color: #FF7593"/>
	<stop offset="1" class="secondary-color-gradient" style="stop-color: #9AF4FD"/>
</linearGradient>
<path fill="url(#SVGID_1_)" d="M393.4,185.7h82.2l-69,159h-199l-2-5.3c-10.2-27,9.8-55.9,38.7-55.9H290c19.1,0,36.3-11.6,43.6-29.3
	l16-39.1C356.8,197.3,374.1,185.7,393.4,185.7z"/>
<path d="M183.4,303.1l-50.3-133.5H89.6c-4.4,0-8-3.6-8-8s3.6-8,8-8h49c3.3,0,6.3,2.1,7.5,5.2l54.4,144.3h15c4.4,0,8,3.6,8,8
	s-3.6,8-8,8H195c0,0,0,0,0,0c0,0,0,0,0,0h-47.2c-4.4,0-8-3.6-8-8s3.6-8,8-8H183.4z M213.1,352.7l-19.7,50h27.1
	c6.7-16.3,22.7-27.8,41.4-27.8s34.7,11.5,41.4,27.8h51c6.7-16.3,22.7-27.8,41.4-27.8c24.7,0,44.7,20.1,44.7,44.7
	s-20.1,44.7-44.7,44.7s-44.7-20.1-44.7-44.7c0-0.3,0-0.6,0-0.9h-44.4c0,0.3,0,0.6,0,0.9c0,24.7-20.1,44.7-44.7,44.7
	s-44.7-20.1-44.7-44.7c0-0.3,0-0.6,0-0.9h-35.6c-2.6,0-5.1-1.3-6.6-3.5c-1.5-2.2-1.8-5-0.8-7.4l21.7-55.1h-48.1c-4.4,0-8-3.6-8-8
	s3.6-8,8-8h253.6l62.1-143H193.8c-4.4,0-8-3.6-8-8s3.6-8,8-8h281.9c2.7,0,5.2,1.4,6.7,3.6c1.5,2.3,1.7,5.1,0.7,7.6l-69,159
	c-1.3,2.9-4.2,4.8-7.3,4.8H215.5H213.1z M366.9,419.6c0,15.8,12.9,28.7,28.7,28.7s28.7-12.9,28.7-28.7s-12.9-28.7-28.7-28.7
	S366.9,403.8,366.9,419.6z M233.2,419.6c0,15.8,12.9,28.7,28.7,28.7s28.7-12.9,28.7-28.7s-12.9-28.7-28.7-28.7
	S233.2,403.8,233.2,419.6z"/>
<g>
	<path fill="#FF7593" class="primary-color" d="M483.5,103.1v35.8H288.5v-35.8H483.5z"/>
	<path fill="#9AF4FD" class="secondary-color" d="M487.7,41.4v39.3H284.3V41.4H487.7z"/>
</g>
<path d="M223.5,80.2c0,4.4-3.6,8-8,8h-67.8c-4.4,0-8-3.6-8-8s3.6-8,8-8h67.8C219.9,72.2,223.5,75.8,223.5,80.2z M166.2,455.2H52.5
	c-4.4,0-8,3.6-8,8s3.6,8,8,8h113.7c4.4,0,8-3.6,8-8S170.6,455.2,166.2,455.2z M44.5,264v15.8c0,4.4,3.6,8,8,8s8-3.6,8-8V264h15.8
	c4.4,0,8-3.6,8-8s-3.6-8-8-8H60.5v-15.8c0-4.4-3.6-8-8-8s-8,3.6-8,8V248H28.7c-4.4,0-8,3.6-8,8s3.6,8,8,8H44.5z M45.8,76.4h3.9v3.9
	c0,4.4,3.6,8,8,8s8-3.6,8-8v-3.9h3.9c4.4,0,8-3.6,8-8s-3.6-8-8-8h-3.9v-3.9c0-4.4-3.6-8-8-8s-8,3.6-8,8v3.9h-3.9c-4.4,0-8,3.6-8,8
	S41.4,76.4,45.8,76.4z M476,343.4c0,5.5-4.4,9.9-9.9,9.9c-5.5,0-9.9-4.4-9.9-9.9c0-5.5,4.4-9.9,9.9-9.9
	C471.6,333.5,476,337.9,476,343.4z M46,384.4c0,5.5-4.4,9.9-9.9,9.9s-9.9-4.4-9.9-9.9c0-5.5,4.4-9.9,9.9-9.9S46,379,46,384.4z"/>

</symbol>
<symbol id="icon-speech_bubble" viewBox="0 0 512 512">
<g>
	<linearGradient id="SVGID_1_" gradientUnits="userSpaceOnUse" x1="408.1337" y1="53.6428" x2="408.1337" y2="378.1878" class="gradient-element">
		<stop offset="0" class="primary-color-gradient" style="stop-color: #FF7593"/>
		<stop offset="1" class="secondary-color-gradient" style="stop-color: #9AF4FD"/>
	</linearGradient>
	<path fill="url(#SVGID_1_)" d="M398,311.1v67.1l-27.3-28.6c0,0,44.3-82.5-21.8-148s12.7-148,12.7-148s134.9,31.7,132.1,133.6
		S398,311.1,398,311.1z"/>
	<linearGradient id="SVGID_2_" gradientUnits="userSpaceOnUse" x1="235.1726" y1="469.1529" x2="235.1726" y2="176.072">
		<stop offset="0" class="primary-color-gradient" style="stop-color: #FF7593"/>
		<stop offset="1" class="secondary-color-gradient" style="stop-color: #9AF4FD"/>
	</linearGradient>
	<path fill="url(#SVGID_2_)" d="M113.5,392.5c234.3-32.3-60.1-232,72.1-238.4c94.3-4.6,171.3,60.7,171.3,135.2
		c0,74.6-76.8,135.2-171.3,135.2c-5.8,0-11.6-0.2-17.3-0.7l-54.8,54.8V392.5"/>
</g>
<path d="M394.6,386.2c-2.1,0-4.1-0.8-5.7-2.3l-28.3-28.3c-3.1-3.1-3.1-8.2,0-11.3c3.1-3.1,8.2-3.1,11.3,0l14.6,14.6v-47
	c0-0.5,0-1,0.1-1.6c0.2-1.2,0.7-2.3,1.3-3.2c0.7-0.9,1.5-1.8,2.6-2.4c0.4-0.3,0.9-0.5,1.4-0.6c52.6-19.4,93.8-70,93.8-115.2
	c0-4.4,3.6-8,8-8s8,3.6,8,8c0,25.3-10.7,52.6-30.3,76.8c-18.2,22.5-42.5,40.7-68.9,51.4v61c0,3.2-1.9,6.2-4.9,7.4
	C396.7,386,395.6,386.2,394.6,386.2z M483.5,150.7c-3,0-5.9-1.7-7.3-4.6c-23.3-50.5-85.1-84.4-153.7-84.4
	c-66,0-125.2,30.8-150.8,78.4c-2.1,3.9-6.9,5.4-10.8,3.3c-3.9-2.1-5.4-6.9-3.3-10.8c28.3-52.8,93-86.9,164.9-86.9
	c37.2,0,72.8,9,103.1,26.1c30,16.9,52.5,40.2,65.1,67.6c1.9,4,0.1,8.8-3.9,10.6C485.7,150.4,484.6,150.7,483.5,150.7z M119.1,484.3
	l52.2-52.2c4.8,0.3,9.5,0.5,14.3,0.5c98.9,0,179.3-64.3,179.3-143.2c0-79-80.4-143.2-179.3-143.2c-98.9,0-179.3,64.3-179.3,143.2
	c0,25,8.3,49.7,23.9,71.2c14.9,20.6,36.3,38.1,61.7,50.6c4,1.9,8.8,0.3,10.7-3.7s0.3-8.8-3.7-10.7c-48-23.6-76.7-63.8-76.7-107.5
	c0-70.2,73.3-127.2,163.3-127.2c90,0,163.3,57.1,163.3,127.2s-73.3,127.2-163.3,127.2c-5.5,0-11.2-0.2-16.7-0.7
	c-2.3-0.2-4.6,0.7-6.3,2.3l-41.1,41.1v-66.8c0-4.4-3.6-8-8-8s-8,3.6-8,8v86.1c0,3.2,1.9,6.2,4.9,7.4c1,0.4,2,0.6,3.1,0.6
	C115.5,486.7,117.6,485.8,119.1,484.3z"/>
<path d="M423.8,142.7c0-4.4,3.6-8,8-8h65.9c4.4,0,8,3.6,8,8s-3.6,8-8,8h-65.9C427.4,150.7,423.8,147.1,423.8,142.7z M497.7,179.5
	h-32.9c-4.4,0-8,3.6-8,8s3.6,8,8,8h32.9c4.4,0,8-3.6,8-8S502.1,179.5,497.7,179.5z M101.7,77.3c-16.4,0-29.8,13.4-29.8,29.8
	c0,4.4,3.6,8,8,8s8-3.6,8-8c0-7.6,6.2-13.8,13.8-13.8c4.4,0,8-3.6,8-8S106.1,77.3,101.7,77.3z M41.9,77.3c-4.4,0-8,3.6-8,8
	s3.6,8,8,8c7.6,0,13.8,6.2,13.8,13.8c0,4.4,3.6,8,8,8s8-3.6,8-8C71.8,90.7,58.4,77.3,41.9,77.3z M63.8,39.4c-4.4,0-8,3.6-8,8
	c0,7.6-6.2,13.8-13.8,13.8c-4.4,0-8,3.6-8,8s3.6,8,8,8c16.4,0,29.8-13.4,29.8-29.8C71.8,43,68.2,39.4,63.8,39.4z M101.7,61.2
	c-7.6,0-13.8-6.2-13.8-13.8c0-4.4-3.6-8-8-8s-8,3.6-8,8c0,16.4,13.4,29.8,29.8,29.8c4.4,0,8-3.6,8-8S106.1,61.2,101.7,61.2z
	 M476.7,439h-15.1v-15.1c0-4.4-3.6-8-8-8s-8,3.6-8,8V439h-15.1c-4.4,0-8,3.6-8,8s3.6,8,8,8h15.1v15.1c0,4.4,3.6,8,8,8s8-3.6,8-8V455
	h15.1c4.4,0,8-3.6,8-8S481.1,439,476.7,439z M366.7,447c0,5.4-4.4,9.9-9.9,9.9s-9.9-4.4-9.9-9.9s4.4-9.9,9.9-9.9
	S366.7,441.6,366.7,447z M308.4,447c0,5.4-4.4,9.9-9.9,9.9s-9.9-4.4-9.9-9.9s4.4-9.9,9.9-9.9S308.4,441.6,308.4,447z M177.8,42.5
	h-26.3c-4.4,0-8,3.6-8,8s3.6,8,8,8h26.3c4.4,0,8-3.6,8-8S182.2,42.5,177.8,42.5z M59.1,473.2H32.7c-4.4,0-8,3.6-8,8s3.6,8,8,8h26.3
	c4.4,0,8-3.6,8-8S63.5,473.2,59.1,473.2z"/>
<path fill="#9AF4FD" class="secondary-color" d="M490.6,76.5l-45.7-45.7h45.7V76.5z"/>

</symbol>
<symbol id="icon-trash" viewBox="0 0 512 512">
<linearGradient id="SVGID_1_" gradientUnits="userSpaceOnUse" x1="292.0759" y1="457.0468" x2="292.0759" y2="38.8124" class="gradient-element">
	<stop offset="0" class="primary-color-gradient" style="stop-color: #FF7593"/>
	<stop offset="1" class="secondary-color-gradient" style="stop-color: #9AF4FD"/>
</linearGradient>
<path fill="url(#SVGID_1_)" d="M413.4,100.1h-60.1v-12c0-19.8-16.2-36.1-36.1-36.1h0c-26.6,0-48.1,21.5-48.1,48.1v225.8
	c0,26.6-21.5,48.1-48.1,48.1h-38.2c-28.1,0-50.3,24.1-48,52.1l2.9,34.9h262.7l24.1-288.7h25v-36.1
	C449.5,116.3,433.2,100.1,413.4,100.1z"/>
<path d="M409.8,356.3c-0.2,0-0.4,0-0.7,0c-4.4-0.4-7.7-4.2-7.3-8.6l14.7-176c0.3-4.1,3.8-7.3,8-7.3h17v-28.1
	c0-15.5-12.6-28.1-28.1-28.1h-60.1c-4.4,0-8-3.6-8-8v-12c0-15.5-12.6-28.1-28.1-28.1H221c-15.5,0-28.1,12.6-28.1,28.1v12
	c0,4.4-3.6,8-8,8h-60.1c-15.5,0-28.1,12.6-28.1,28.1v28.1h303.6c4.4,0,8,3.6,8,8s-3.6,8-8,8H88.7c-4.4,0-8-3.6-8-8v-36.1
	c0-24.3,19.8-44.1,44.1-44.1h52.1v-4c0-24.3,19.8-44.1,44.1-44.1h96.2c24.3,0,44.1,19.8,44.1,44.1v4h52.1
	c24.3,0,44.1,19.8,44.1,44.1v36.1c0,4.4-3.6,8-8,8h-17.7l-14.1,168.7C417.4,353.1,413.9,356.3,409.8,356.3z M408.4,461.6l6.2-74.9
	c0.4-4.4-2.9-8.3-7.3-8.6c-4.4-0.4-8.3,2.9-8.6,7.3l-5.6,67.5h-248l-21.4-257.3c-0.4-4.4-4.2-7.7-8.6-7.3c-4.4,0.4-7.7,4.2-7.3,8.6
	l22,264.6c0.3,4.1,3.8,7.3,8,7.3h262.7C404.6,468.9,408,465.8,408.4,461.6z"/>
<path d="M463.1,393.2h-86.8c-4.4,0-8-3.6-8-8s3.6-8,8-8h86.8c4.4,0,8,3.6,8,8S467.5,393.2,463.1,393.2z M423.5,350.1
	c0-4.4-3.6-8-8-8h-57.4c-4.4,0-8,3.6-8,8s3.6,8,8,8h57.4C419.9,358.1,423.5,354.6,423.5,350.1z M105.7,57.4c0-4.4-3.6-8-8-8H38.5
	c-4.4,0-8,3.6-8,8s3.6,8,8,8h59.2C102.1,65.4,105.7,61.9,105.7,57.4z"/>
<g>
	<path fill="#FF7593" class="primary-color" d="M40.2,430v35.1h35.1V487H40.2H18.4v-21.8V430H40.2z"/>
	<path fill="#9AF4FD" class="secondary-color" d="M30.4,194.9h21.8v145.9H30.4V194.9z"/>
</g>

</symbol></svg>